# WaveFront *.obj file (generated by CINEMA 4D)

mtllib ./sector_06.mtl

v -4.00010108947754 1.45012605190277 23.95821952819824
v 0.0002476722002 1.45022594928741 23.95639038085938
v -4.00010108947754 1.63063299655914 23.91456985473633
v 0.0002476797963 1.63073301315308 23.91274070739746
v -4.00010108947754 1.83165299892426 23.84580039978027
v -4.00010585784912 2.94412302970886 23.04834938049316
v -4.00010681152344 3.12122106552124 22.82826042175293
v -4.00010919570923 3.33175206184387 22.52029991149902
v -4.00011110305786 3.49686789512634 22.22439002990723
v -4.00011205673218 3.63871908187866 21.90774917602539
v -4.00011396408081 3.7715380191803 21.53055953979492
v -4.00011587142944 3.89090204238892 21.07905960083008
v -4.00011920928955 3.96163392066956 20.66070938110352
v 0.00024793529883 3.96173501014709 20.65888023376465
v -4.00012111663818 3.9895920753479 20.35378074645996
v 4.00010013580322 -0.00010496639879 24
v 7.99994993209839 4 24.00009918212891
v 4.00010013580322 4.00009489059448 24
v -7.99989986419678 4.00009489059448 16
v -0.01133789960295 1.24195003509521 24
v -0.04161335900426 1.4502249956131 24
v -0.08526030182838 1.63073301315308 24
v -0.15402719378471 1.83175194263458 24
v -0.22247250378132 1.98873198032379 24
v -0.30448180437088 2.14805006980896 24
v -0.452632188797 2.38936305046082 24
v -0.60452449321747 2.59133291244507 24
v 0.00024775241036 2.7808940410614 23.22147941589355
v -0.77652108669281 2.7808940410614 24
v 0.00024776719511 2.94422292709351 23.04652976989746
v -0.95147740840912 2.94422292709351 24
v -1.17157304286957 3.12132000923157 24
v 0.00024780890089 3.33185195922852 22.51847076416016
v -1.47952997684479 3.33185195922852 24
v -1.77543902397156 3.49696803092957 24
v -2.09207510948181 3.63881897926331 24
v 0.00024787909933 3.77163910865784 21.52873992919922
v -2.46926593780518 3.77163791656494 24
v 0.00024790881434 3.89100193977356 21.07723045349121
v -2.92076992988586 3.89100098609924 24
v -3.33912491798401 3.96173405647278 24
v 0.00024795401259 3.98969197273254 20.35195922851562
v -3.64604592323303 3.98969197273254 24
v 0.00010366929928 3.99990010261536 20.00001907348633
v -3.99990010261536 4.00009489059448 24
v 7.99989891052246 0 19.9998893737793
v 7.99980020523071 0 24
v -0.00004935264951 -0.0000001223956 15.99989986419678
v -16 4.00009489059448 16.00009918212891
v -16 3.31552004814148 16.97736930847168
v -16 3.31552004814148 17.02263069152832
v -12 4.02262687683105 17.68448066711426
v -16 4.02262687683105 17.68448066711426
v -12 4.6844801902771 17.02263069152832
v -16 4.02262687683105 16.31551933288574
v -12 4.6844801902771 16.97736930847168
v -12 4.02262687683105 16.31551933288574
v -12 3.97737288475037 16.31551933288574
v -16 3.97737193107605 16.31551933288574
v -12 3.3155210018158 17.02263069152832
v -12 3.3155210018158 16.97736930847168
v -16 3.97737193107605 17.68448066711426
v -12 3.97737288475037 17.68448066711426
v -16 4.68447923660278 17.02263069152832
v -16 4.68447923660278 16.97736930847168
v 4 4 16
v -14.63726997375488 -0.00009999999747 8
v -14.61867046356201 2.41076898574829 8.03000545501709
v -14.63726997375488 2.44423890113831 8
v -14.61867046356201 -0.00009999954636 8.03000545501709
v -14.61867046356201 2.41076898574829 8.16329574584961
v -14.61867046356201 -0.0000999975673 8.16329574584961
v -14.63726997375488 -0.00009999700706 8.19999980926514
v -13.39326000213623 -0.00009999700706 8.19999980926514
v -13.41186046600342 2.41076898574829 8.16329574584961
v -13.41186046600342 -0.0000999975673 8.16329574584961
v -13.41751003265381 2.42483997344971 8.03000545501709
v -13.41186046600342 2.41076898574829 8.03000545501709
v -13.41186046600342 -0.00009999954636 8.03000545501709
v -13.39326000213623 2.44423890113831 8
v -16.00004959106445 -0.0000001223956 7.99989986419678
v -11.99995040893555 4 7.99989986419678
v -11.99995040893555 -0.0000001115129 7.99989986419678
v -13.39326000213623 -0.00009999999747 8
v -14.59937953948975 2.43066906929016 8.16329574584961
v -14.6130199432373 2.42483997344971 8.16329574584961
v -14.63726997375488 2.44423890113831 8.19999980926514
v -13.43113994598389 2.43066906929016 8.16329574584961
v -13.41751003265381 2.42483997344971 8.16329574584961
v -14.59937953948975 2.43066906929016 8.03000545501709
v -13.43113994598389 2.43066906929016 8.03000545501709
v -14.6130199432373 2.42483997344971 8.03000545501709
v -13.39326000213623 2.44423890113831 8.19999980926514
v -11.99991035461426 4.00009489059448 8.19999980926514
v -11.99991035461426 -0.00010496749746 8.19999980926514
v 8.00004959106445 -0.0000001115129 15.99989986419678
v 12.00010967254639 -0.0000006739678 15.99989986419678
v -12.00004959106445 -0.00000056245489 24.00009918212891
v -8.00010013580322 -0.00010498890333 24
v -7.99989986419678 1.45012605190277 16.0417594909668
v -12.0002498626709 1.24195003509521 16.01333045959473
v -7.99989986419678 1.24185001850128 16.0114803314209
v -7.99989986419678 1.63063299655914 16.08540916442871
v -7.99989986419678 2.14795088768005 16.30463027954102
v -7.99989986419678 2.38926410675049 16.45277976989746
v -7.99989986419678 3.33175206184387 17.47967910766602
v -7.99989986419678 3.49686789512634 17.77559089660645
v -7.99989986419678 3.63871908187866 18.09222030639648
v -12.0002498626709 3.63881897926331 18.09407043457031
v -7.99989986419678 3.7715380191803 18.46940994262695
v -12.0002498626709 3.77163910865784 18.47126007080078
v -7.99989986419678 3.89090204238892 18.92091941833496
v -12.0002498626709 3.89100193977356 18.92276954650879
v -7.99989986419678 3.96163392066956 19.33926963806152
v -12.0002498626709 3.96173501014709 19.34111976623535
v -7.99989986419678 3.9895920753479 19.64619064331055
v -12.0002498626709 4 19.99987983703613
v 4.5 0 23.5319995880127
v 4.5 0 24.4680004119873
v 5.46799993515015 4 24.5
v 5.46799993515015 0 24.5
v 5.46799993515015 0 23.5
v 4.53200006484985 4 23.5
v 4.53200006484985 0 23.5
v 4.5 4 23.5319995880127
v 4.5 4 24.4680004119873
v 4.53200006484985 0 24.5
v 4.53200006484985 4 24.5
v 5.5 0 24.4680004119873
v 5.5 4 24.4680004119873
v 5.5 4 23.5319995880127
v 5.5 0 23.5319995880127
v 5.46799993515015 4 23.5
v 0 1.15764105319977 16.02404022216797
v 0 1.03248298168182 16.02404022216797
v 0 1.1793669462204 15.99999046325684
v -15.96903038024902 4 20.08839988708496
v -16.00004959106445 4.00000095367432 19.99990081787109
v -15.96903038024902 0 20.08839988708496
v -12.08845043182373 4 23.96903038024902
v -12.08845043182373 0 23.96903038024902
v -11.9997501373291 4 24
v -12 1.03248298168182 16.02404975891113
v -12 1.15764105319977 16.02404975891113
v -8 1.03248298168182 16.02404975891113
v -12.0002498626709 1 16.00200080871582
v -8 1 16
v -8 1.1793669462204 16
v -12 1.1793669462204 16
v -8 1.15764105319977 16.02404975891113
v -16 -0.00010498890333 11.99989986419678
v -14.84469985961914 4 20.19901084899902
v -15.65530014038086 0 20.6670093536377
v -15.65530014038086 4 20.6670093536377
v -16.15530014038086 4 19.80098915100098
v -16.1670093536377 0 19.84469985961914
v -16.15530014038086 0 19.80098915100098
v -16.1670093536377 4 19.84469985961914
v -15.69900989532471 4 20.65530014038086
v -15.69900989532471 0 20.65530014038086
v -14.83298969268799 0 20.15530014038086
v -14.84469985961914 0 20.19901084899902
v -14.83298969268799 4 20.15530014038086
v -15.30099010467529 4 19.34469985961914
v -15.34469985961914 0 19.3329906463623
v -15.30099010467529 0 19.34469985961914
v -15.34469985961914 4 19.3329906463623
v -12 3.97737288475037 9.81552028656006
v -12 3.3155210018158 10.522629737854
v -16 3.31552004814148 10.522629737854
v -16 4.02262687683105 11.18447971343994
v -12 4.6844801902771 10.522629737854
v -16 4.02262687683105 9.81552028656006
v -12 4.6844801902771 10.477370262146
v -12 4.02262687683105 9.81552028656006
v -16 3.97737193107605 9.81552028656006
v -16 3.31552004814148 10.477370262146
v -12 3.3155210018158 10.477370262146
v -16 3.97737193107605 11.18447971343994
v -12 4.02262687683105 11.18447971343994
v -12 3.97737288475037 11.18447971343994
v -16 4.68447923660278 10.522629737854
v -16 4.68447923660278 10.477370262146
v -8.00010108947754 1.45012605190277 23.95821952819824
v -4.00010013580322 1.24185001850128 23.98848915100098
v -8.00010013580322 1.24185001850128 23.98848915100098
v -4 1 24
v -4.00010204315186 1.98863196372986 23.7773609161377
v -4.00010204315186 2.14795088768005 23.69535064697266
v -8.00010299682617 2.38926410675049 23.54719924926758
v -4.00010299682617 2.38926410675049 23.54719924926758
v -8.00010395050049 2.59123301506042 23.39530944824219
v -4.00010395050049 2.59123301506042 23.39530944824219
v -8.0001049041748 2.78079390525818 23.22331047058105
v -4.0001049041748 2.78079390525818 23.22331047058105
v -8.00010871887207 3.33175206184387 22.52029991149902
v -8.0001106262207 3.49686789512634 22.22439002990723
v -8.00011253356934 3.63871908187866 21.90774917602539
v -8.00011444091797 3.7715380191803 21.53055953979492
v -8.00011920928955 3.96163392066956 20.66070938110352
v -8.00012016296387 3.9895920753479 20.35378074645996
v 12.00004959106445 4 19.99990081787109
v 11.96578025817871 0 19.4778995513916
v 11.96578025817871 4 19.4778995513916
v 11.8636999130249 0 18.96471977233887
v 11.8636999130249 4 18.96471977233887
v 11.69552040100098 0 18.46927070617676
v 11.69552040100098 4 18.46927070617676
v 11.4640998840332 0 18
v 11.4640998840332 4 18
v 11.17341041564941 0 17.56495094299316
v 11.17341041564941 4 17.56495094299316
v 10.82843017578125 0 17.17156982421875
v 10.82843017578125 4 17.17156982421875
v 10.43505001068115 0 16.82658958435059
v 10.43505001068115 4 16.82658958435059
v 10 0 16.5359001159668
v 10 4 16.5359001159668
v 9.53073406219482 0 16.30447959899902
v 9.53073406219482 4 16.30447959899902
v 9.03527641296387 0 16.13629913330078
v 9.03527641296387 4 16.13629913330078
v 8.52210426330566 0 16.03421974182129
v 8.52210426330566 4 16.03421974182129
v -16 -0.00010496639879 16.00009918212891
v -16.00004959106445 4 24.00009918212891
v -12 -0.00010498890333 12.00010013580322
v -13.36273002624512 -0.00009999999747 15.99999046325684
v -13.38132953643799 2.41076898574829 15.96998977661133
v -13.3869800567627 2.42483997344971 15.96998977661133
v -13.38132953643799 -0.00009999954636 15.96998977661133
v -13.38132953643799 2.41076898574829 15.83670043945312
v -13.38132953643799 -0.0000999975673 15.83670043945312
v -14.60673999786377 -0.00009999700706 15.79998016357422
v -14.58813953399658 2.41076898574829 15.83668994903564
v -14.60673999786377 2.44423890113831 15.79998016357422
v -14.58248996734619 2.42483997344971 15.83668994903564
v -14.58813953399658 -0.0000999975673 15.83668994903564
v -14.58813953399658 2.41076898574829 15.96998023986816
v -14.58813953399658 -0.00009999954636 15.96998023986816
v -14.60673999786377 -0.00009999999747 15.99997997283936
v -11.99989986419678 4.00010013580322 16
v -14.60673999786377 2.44423890113831 15.99997997283936
v -13.40062046051025 2.43066906929016 15.83670043945312
v -13.3869800567627 2.42483997344971 15.83670043945312
v -13.36273002624512 2.44423890113831 15.79998970031738
v -14.56886005401611 2.43066906929016 15.83668994903564
v -13.40062046051025 2.43066906929016 15.96998977661133
v -14.56886005401611 2.43066906929016 15.96998023986816
v -13.36273002624512 2.44423890113831 15.99999046325684
v -14.58248996734619 2.42483997344971 15.96998023986816
v -11.99989986419678 -0.00009999700706 15.80000019073486
v -13.36273002624512 -0.00009999700706 15.79998970031738
v -11.99989986419678 4.00010013580322 15.80000019073486
v -16.00009918212891 4.00010013580322 15.79998016357422
v -16.00009918212891 -0.00009999700706 15.79998016357422
v -7.99989986419678 1.83165299892426 16.1541690826416
v -7.99989986419678 1.98863196372986 16.22262001037598
v -7.99989986419678 2.59123301506042 16.60466957092285
v -7.99989986419678 2.78079390525818 16.77667045593262
v -7.99989986419678 2.94412302970886 16.95162010192871
v -7.99989986419678 3.12122106552124 17.17172050476074
v -3.99989795684814 3.33175206184387 17.47967910766602
v -3.99989795684814 3.49686789512634 17.77559089660645
v -3.99989700317383 3.89090204238892 18.92091941833496
v -3.99989700317383 3.96163392066956 19.33927917480469
v -3.99989700317383 3.9895920753479 19.64620018005371
v -8.00012302398682 3.99990010261536 19.99995040893555
v -16 4.02262687683105 14.31552028656006
v -16 4.6844801902771 14.977370262146
v -16 4.02262687683105 15.68447971343994
v -12 3.31552004814148 15.022629737854
v -12 3.97737193107605 15.68447971343994
v -16 3.3155210018158 15.022629737854
v -12 3.97737193107605 14.31552028656006
v -16 3.3155210018158 14.977370262146
v -16 3.97737288475037 14.31552028656006
v -12 4.02262687683105 14.31552028656006
v -12 4.68447923660278 14.977370262146
v -16 4.6844801902771 15.022629737854
v -12 4.68447923660278 15.022629737854
v -12 4.02262687683105 15.68447971343994
v -16 3.97737288475037 15.68447971343994
v -12 3.31552004814148 14.977370262146
v 0.0002476607915 1.24195003509521 24
v 0 1 24
v 0.00024766591378 1.24195003509521 23.98666954040527
v -0.00009999999747 4.00009489059448 24
v 0.00024768948788 1.83175301551819 23.84398078918457
v 0.0002477017988 1.98873198032379 23.7755298614502
v 0.00024778960506 3.12132000923157 22.82642936706543
v 0.00024783069966 3.49583005905151 22.22459983825684
v 0.00024785331334 3.63881897926331 21.90592956542969
v 0.00024765759008 1.24195003509521 24.01000022888184
v 0.00024765270064 1 24.01000022888184
v 0.00024771149037 2.14805102348328 23.69351959228516
v 0.00024772729375 2.38936400413513 23.54537010192871
v 0.00024773701443 2.59133291244507 23.39348030090332
v 0.00024770200253 4 24.01000022888184
v 0.00004935264951 4 15.99989986419678
v -3.99989604949951 3.99990010261536 20.00003051757812
v -4.00005006790161 4.00000095367432 15.99989986419678
v 4.5 0 15.5319995880127
v 4.53200006484985 0 16.5
v 5.5 0 16.4680004119873
v 5.5 4 16.4680004119873
v 4.53200006484985 4 15.5
v 5.46799993515015 0 15.5
v 4.53200006484985 0 15.5
v 4.5 4 15.5319995880127
v 4.5 4 16.4680004119873
v 4.5 0 16.4680004119873
v 4.53200006484985 4 16.5
v 5.46799993515015 4 16.5
v 5.46799993515015 0 16.5
v 5.5 4 15.5319995880127
v 5.5 0 15.5319995880127
v 5.46799993515015 4 15.5
v -16 3.31552004814148 13.477370262146
v -12 3.97737288475037 12.81552028656006
v -12 3.3155210018158 13.477370262146
v -16 3.97737193107605 14.18447971343994
v -12 3.3155210018158 13.522629737854
v -16 4.68447923660278 13.522629737854
v -16 4.02262687683105 14.18447971343994
v -12 4.6844801902771 13.522629737854
v -16 4.02262687683105 12.81552028656006
v -12 4.6844801902771 13.477370262146
v -16 4.68447923660278 13.477370262146
v -12 4.02262687683105 12.81552028656006
v -16 3.97737193107605 12.81552028656006
v -16 3.31552004814148 13.522629737854
v -12 4.02262687683105 14.18447971343994
v -12 3.97737288475037 14.18447971343994
v 0.01133789960295 1.24195003509521 16
v 0.04161335900426 1.4502249956131 16
v 0.00010034460138 1.63063299655914 16.08540916442871
v 0.08526030182838 1.63073301315308 16
v 0.15402719378471 1.83175194263458 16
v 0.00010046100215 1.98863196372986 16.22262001037598
v 0.22247250378132 1.98873198032379 16
v 0.00010053189908 2.14794993400574 16.30463027954102
v 0.30448180437088 2.14805006980896 16
v 0.00010065980314 2.38926410675049 16.45277976989746
v 0.452632188797 2.38936305046082 16
v 0.00010079570347 2.59123301506042 16.60466957092285
v 0.60452449321747 2.59133291244507 16
v 0.00010094369645 2.78079390525818 16.77667045593262
v 0.77652108669281 2.7808940410614 16
v 0.00010109390132 2.94412302970886 16.95162963867188
v 0.95147740840912 2.94422292709351 16
v 0.0001012779976 3.12122011184692 17.17172050476074
v 1.17157304286957 3.12132000923157 16
v 1.47952997684479 3.33185195922852 16
v 1.77543902397156 3.49696803092957 16
v 0.00010206940351 3.63871908187866 18.09222030639648
v 2.09207510948181 3.63881897926331 16
v 2.46926593780518 3.77163791656494 16
v 2.92076992988586 3.89100098609924 16
v 3.33912491798401 3.96173405647278 16
v 0.00010339180153 3.9895920753479 19.64619064331055
v 3.64604592323303 3.98969197273254 16
v 3.99999904632568 4 20
v -11.99995040893555 -0.0000001115129 15.99989986419678
v -12.00004959106445 -0.0000001223956 19.99990081787109
v -0.00005006790161 -0.00000056245489 20.00009918212891
v -0.00009994039283 -0.00010498890333 24
v -16.00004959106445 -0.00000056245489 20.00009918212891
v -16.00004959106445 -0.00000056245489 24.00009918212891
v -11.9997501373291 1.24195003509521 24
v -12 1 23.99980926513672
v -12.00010013580322 1.83165299892426 23.8458309173584
v -12.00010013580322 2.14794993400574 23.69536972045898
v -12.00010013580322 2.38926410675049 23.54722023010254
v -12.00010967254639 2.94412302970886 23.04837036132812
v -12.00010967254639 3.12122011184692 22.82827949523926
v -12.00012016296387 3.9895920753479 20.35380935668945
v -11.9997501373291 4 24.01000022888184
v -11.9997501373291 1 24.01000022888184
v -12.00010013580322 1.24185001850128 23.98851013183594
v -12.00010013580322 1.63063299655914 23.91459083557129
v -12.00010967254639 3.63871908187866 21.90777969360352
v -12.00010967254639 3.7715380191803 21.53059005737305
v -12.00012016296387 3.8909010887146 21.07908058166504
v -11.9997501373291 1.24195003509521 24.01000022888184
v -8.00004959106445 -0.00000056245489 20.00009918212891
v -3.9999508857727 -0.00000055157221 20.00009918212891
v 0.00000112166799 1.03248298168182 23.97595024108887
v 0.00000112237399 1.15764105319977 23.97595024108887
v -3.99999904632568 1.03248298168182 23.97595024108887
v 0.00000000101282 1.1793669462204 24
v 12.00004959106445 4 15.99989986419678
v 7.99994993209839 4.00000095367432 19.99990081787109
v 7.99994993209839 4.00000095367432 15.99989986419678
v -15.99981021881104 -0.00010496749746 8.20035934448242
v -15.99981021881104 4.00009489059448 8.20035934448242
v 12.00010013580322 -0.0000006739678 24.0001106262207
v -4 1.15764105319977 16.02404022216797
v -4 1.03248298168182 16.02404022216797
v -4 1.1793669462204 15.99999046325684
v -11.99995040893555 4 12.00010013580322
v -12 3.3155210018158 8.97737216949463
v -16 3.97737193107605 9.68447971343994
v -12 4.02262687683105 9.68447971343994
v -16 4.02262687683105 9.68447971343994
v -16 4.02262687683105 8.31552028656006
v -12 4.02262687683105 8.31552028656006
v -12 3.97737288475037 8.31552028656006
v -16 3.97737193107605 8.31552028656006
v -16 3.31552004814148 8.97737216949463
v -12 3.3155210018158 9.02262687683105
v -16 3.31552004814148 9.02262687683105
v -12 3.97737288475037 9.68447971343994
v -16 4.68447923660278 9.02262783050537
v -12 4.6844801902771 8.97737312316895
v -12 4.6844801902771 9.02262783050537
v -16 4.68447923660278 8.97737312316895
v -3.99990010261536 -0.00010496639879 24
v -12.00010013580322 1.45012605190277 23.9582405090332
v -8.00010108947754 1.63063299655914 23.91456985473633
v -8.00010108947754 1.83165299892426 23.84580039978027
v -12.00010013580322 1.98863196372986 23.77737998962402
v -8.00010108947754 1.98863196372986 23.7773609161377
v -8.00010204315186 2.14795088768005 23.69535064697266
v -12.00010013580322 2.59123301506042 23.39533042907715
v -12.00010013580322 2.78079390525818 23.22332954406738
v -8.00010585784912 2.94412302970886 23.04834938049316
v -8.00010681152344 3.12122106552124 22.82826042175293
v -12.00010967254639 3.33175206184387 22.52032089233398
v -12.00010967254639 3.49686789512634 22.22440910339355
v -8.0001163482666 3.89090204238892 21.07905960083008
v -12.00012016296387 3.96163392066956 20.66073036193848
v -7.99999904632568 1.03248298168182 23.97595024108887
v -8 1 24
v -8 1.1793669462204 24
v -3.99999904632568 1.15764105319977 23.97595024108887
v -4 1.1793669462204 24
v 8.52210426330566 0 23.96578025817871
v 8.52210426330566 4 23.96578025817871
v 9.03527641296387 0 23.86370086669922
v 9.03527641296387 4 23.86370086669922
v 9.53073406219482 0 23.69552040100098
v 9.53073406219482 4 23.69552040100098
v 10 0 23.4640998840332
v 10 4 23.4640998840332
v 10.43505001068115 0 23.17341041564941
v 10.43505001068115 4 23.17341041564941
v 10.82843017578125 0 22.82843017578125
v 10.82843017578125 4 22.82843017578125
v 11.17341041564941 0 22.43504905700684
v 11.17341041564941 4 22.43504905700684
v 11.4640998840332 0 22
v 11.4640998840332 4 22
v 11.69552040100098 0 21.53074073791504
v 11.69552040100098 4 21.53074073791504
v 11.8636999130249 0 21.03528022766113
v 11.8636999130249 4 21.03528022766113
v 11.96578025817871 0 20.52210998535156
v 11.96578025817871 4 20.52210998535156
v 12 0 19.99979972839355
v 0.00010030560225 1.45012605190277 16.0417594909668
v -3.99990010261536 1.24185001850128 16.01148986816406
v -3.99990010261536 1.45012605190277 16.04177093505859
v 0.00010027639655 1.24185001850128 16.01148986816406
v -3.99990010261536 0.99990022182465 16.00015068054199
v -3.99990010261536 1.63063299655914 16.08540916442871
v 0.00010040510097 1.83165299892426 16.1541690826416
v -3.99989891052246 1.83165299892426 16.1541805267334
v -3.99989891052246 1.98863196372986 16.22262001037598
v 0.00010026530072 0.99990022182465 16.00015068054199
v -3.99989891052246 2.14795088768005 16.30463027954102
v -3.99989891052246 2.38926410675049 16.45277976989746
v -3.99989891052246 2.59123301506042 16.60467910766602
v -3.99989891052246 2.78079390525818 16.77667045593262
v -3.99989891052246 2.94412302970886 16.95162963867188
v -3.99989891052246 3.12122106552124 17.17172050476074
v 0.00010154619667 3.33175206184387 17.47967910766602
v 0.00010179910169 3.49686789512634 17.77559089660645
v -3.99989795684814 3.63871908187866 18.09222984313965
v 0.00010239089897 3.7715380191803 18.46940994262695
v -3.99989700317383 3.7715380191803 18.46941947937012
v 0.00010277530237 3.8909010887146 18.92091941833496
v 0.00010313100211 3.96163392066956 19.33926963806152
v -16.00004959106445 4 12.00010013580322
v -16 3.31552004814148 11.977370262146
v -16 3.31552004814148 12.022629737854
v -12 3.97737288475037 12.68447971343994
v -16 4.02262687683105 12.68447971343994
v -12 4.6844801902771 12.022629737854
v -16 4.02262687683105 11.31552028656006
v -12 4.6844801902771 11.977370262146
v -12 4.02262687683105 11.31552028656006
v -12 3.97737288475037 11.31552028656006
v -16 3.97737193107605 11.31552028656006
v -12 3.3155210018158 12.022629737854
v -12 3.3155210018158 11.977370262146
v -16 3.97737193107605 12.68447971343994
v -12 4.02262687683105 12.68447971343994
v -16 4.68447923660278 12.022629737854
v -16 4.68447923660278 11.977370262146
v 12.00004959106445 4 24.00009918212891
v -8.00010013580322 4.00009489059448 24
v -12.0002498626709 1.45022594928741 16.04360961914062
v -12.0002498626709 1.63073301315308 16.08725929260254
v -12.0002498626709 1.83175301551819 16.15601921081543
v -12.0002498626709 1.98873198032379 16.2244701385498
v -12.0002498626709 2.94422292709351 16.95347023010254
v -12.0002498626709 3.33185195922852 17.48152923583984
v -12.0002498626709 3.49583005905151 17.77540016174316
v -12.0002498626709 3.98969197273254 19.64804077148438
v -12.0002498626709 1.24195003509521 15.98999977111816
v -12.0002498626709 4 15.98999977111816
v -12.0002498626709 1 15.98999977111816
v -12.0002498626709 2.14805102348328 16.30648040771484
v -12.0002498626709 2.38936400413513 16.45462989807129
v -12.0002498626709 2.59133291244507 16.60651969909668
v -12.0002498626709 2.7808940410614 16.77852058410645
v -12.0002498626709 3.12132000923157 17.17357063293457
v -16.00004959106445 4.00000095367432 7.99989986419678
v 4.00005006790161 -0.00000055157221 20.00009918212891
v 4.00005006790161 -0.0000001115129 15.99989986419678
v -8.00004959106445 -0.0000001223956 15.99989986419678
v -3.99994993209839 -0.0000001115129 15.99989986419678
v -12 1.15764105319977 23.97577095031738
v -7.99999904632568 1.15764105319977 23.97595024108887
v -12 1.03248298168182 23.97577095031738
v -12 1.1793669462204 23.99980926513672
# 527 vertices

vn 0 -0.20481650531292 -0.97880041599274
vn 0 -0.11159418523312 -0.99375385046005
vn 0 -0.17440927028656 -0.98467326164246
vn 0 -0.07921981066465 -0.99685716629028
vn 0 -0.04678266122937 -0.99890506267548
vn 0 -0.264817237854 -0.96429860591888
vn 0 -0.29438447952271 -0.95568704605103
vn 0 -0.3492596745491 -0.9370259642601
vn 0 -0.37460514903069 -0.9271844625473
vn 0 -0.41919687390327 -0.90789532661438
vn 0 -0.4385424554348 -0.89871048927307
vn 0 -0.47982400655746 -0.87736475467682
vn 0 -0.50167179107666 -0.86505806446075
vn 0 -0.54969972372055 -0.83536231517792
vn 0 -0.57567298412323 -0.81768000125885
vn 0 -0.62527418136597 -0.78040516376495
vn 0 -0.64891839027405 -0.7608579993248
vn 0 -0.69217067956924 -0.7217338681221
vn 0 -0.7118564248085 -0.70232498645782
vn 0 -0.7474627494812 -0.66430371999741
vn 0 -0.76351308822632 -0.64579230546951
vn 0 -0.79511737823486 -0.60645550489426
vn 0 -0.81060093641281 -0.58559894561768
vn 0 -0.84220045804977 -0.53916454315186
vn 0 -0.85814023017883 -0.51341539621353
vn 0 -0.88713693618774 -0.46150624752045
vn 0 -0.90026158094406 -0.43534937500954
vn 0 -0.92351275682449 -0.38356778025627
vn 0 -0.93373167514801 -0.35797369480133
vn 0 -0.95176810026169 -0.3068183362484
vn 0 -0.95962285995483 -0.28128978610039
vn 0 -0.97408956289291 -0.2261625379324
vn 0 -0.98050367832184 -0.19650073349476
vn 0 -0.98994261026382 -0.14146949350834
vn 0 -0.99323797225952 -0.11609599739313
vn 0 -0.99753379821777 -0.07018768042326
vn 0 -0.99876630306244 -0.04965706169605
vn 0 -0.99957668781281 -0.02909416332841
vn 0 -0.20481650531292 0.97880041599274
vn 0 -0.11159418523312 0.99375385046005
vn 0 -0.17440927028656 0.98467326164246
vn 0 -0.07921981066465 0.99685716629028
vn 0 -0.04678266122937 0.99890506267548
vn 0 -0.264817237854 0.96429860591888
vn 0 -0.29438447952271 0.95568704605103
vn 0 -0.3492596745491 0.9370259642601
vn 0 -0.37460514903069 0.9271844625473
vn 0 -0.41919687390327 0.90789532661438
vn 0 -0.4385424554348 0.89871048927307
vn 0 -0.47982400655746 0.87736475467682
vn 0 -0.50167179107666 0.86505806446075
vn 0 -0.54969972372055 0.83536231517792
vn 0 -0.57567298412323 0.81768000125885
vn 0 -0.62527418136597 0.78040516376495
vn 0 -0.64891839027405 0.7608579993248
vn 0 -0.69217067956924 0.7217338681221
vn 0 -0.7118564248085 0.70232498645782
vn 0 -0.7474627494812 0.66430371999741
vn 0 -0.76351308822632 0.64579230546951
vn 0 -0.79511737823486 0.60645550489426
vn 0 -0.81060093641281 0.58559894561768
vn 0 -0.84220045804977 0.53916454315186
vn 0 -0.85814023017883 0.51341539621353
vn 0 -0.88713693618774 0.46150624752045
vn 0 -0.90026158094406 0.43534937500954
vn 0 -0.92351275682449 0.38356778025627
vn 0 -0.93373167514801 0.35797369480133
vn 0 -0.95176810026169 0.3068183362484
vn 0 -0.95962285995483 0.28128978610039
vn 0 -0.97408956289291 0.2261625379324
vn 0 -0.98050367832184 0.19650073349476
vn 0 -0.98994261026382 0.14146949350834
vn 0 -0.99323797225952 0.11609599739313
vn 0 -0.99753379821777 0.07018768042326
vn 0 -0.99876630306244 0.04965706169605
vn 0 -0.99957668781281 0.02909416332841
vn 0 0.53542083501816 0.84458541870117
vn 0 -0.20756310224533 0.97822165489197
vn 0 0.26768898963928 0.96350538730621
vn 0 -0.41516810655594 0.90974473953247
vn 0 -0.59494799375534 0.80376422405243
vn 0 0.74198281764984 0.67041891813278
vn 0.00003125084913 0.53542083501816 -0.84458541870117
vn 0.00003125009243 -0.20756310224533 -0.97822165489197
vn 0.00003125017611 0.26768898963928 -0.96350538730621
vn 0.00003125089279 -0.41516810655594 -0.90974473953247
vn 0.00003125055082 -0.59494799375534 -0.80376422405243
vn 0.00003125059084 0.74198281764984 -0.67041891813278
vn 0 0 -1
vn 0 0 1
vn 0.42023825645447 -0.64599877595901 -0.63724833726883
vn 0.93207520246506 -0.18043994903564 -0.31412926316261
vn 0.84993261098862 0 -0.52689135074615
vn 0.61189275979996 -0.72486478090286 -0.31647792458534
vn 0.98333811759949 0 -0.18178598582745
vn 0.96316891908646 -0.14037685096264 0.22934676706791
vn 0.95111095905304 0 0.3088493347168
vn 0.74320143461227 -0.60876142978668 0.27759894728661
vn 0.6655867099762 -0.46364188194275 0.58483380079269
vn 0.89199525117874 0 0.45204472541809
vn -0.45738896727562 -0.6884897351265 0.56282967329025
vn -0.94532245397568 -0.18237692117691 0.27037784457207
vn -0.89199525117874 0 0.45204472541809
vn -0.62195092439651 -0.73223459720612 0.27750599384308
vn -0.98800724744797 0 0.15440739691257
vn -0.73512321710587 -0.59946155548096 -0.3166064620018
vn -0.95452845096588 -0.13703534007072 -0.26475790143013
vn -0.93155413866043 0 -0.36360266804695
vn -0.61520862579346 -0.43076479434967 -0.66027265787125
vn -0.84993261098862 0 -0.52689135074615
vn 0.19284489750862 -0.95481812953949 0.22612635791302
vn -0.14925247430801 -0.96854740381241 0.19909706711769
vn 0.1457527577877 -0.96183079481125 -0.2315981388092
vn -0.19050371646881 -0.94520598649979 -0.26513016223907
vn -1 0 0
vn 1 0 0
vn -0.70710676908493 0 -0.70710676908493
vn -0.70710676908493 0 0.70710676908493
vn 0.70710676908493 0 0.70710676908493
vn 0.70710676908493 0 -0.70710676908493
vn 0.94380331039429 0 -0.3305076956749
vn 0.8845688700676 0 -0.46640962362289
vn 0.80388313531876 0 -0.59478729963303
vn 0.59480220079422 0 -0.80387210845947
vn 0.46642249822617 0 -0.88456207513809
vn 0.33053556084633 0 -0.94379353523254
vn -0.8660404086113 0 0.49997401237488
vn 0.49997401237488 0 0.8660404086113
vn 0.8660404086113 0 -0.49997401237488
vn -0.49997401237488 0 -0.8660404086113
vn -0.96592617034912 0 -0.2588178217411
vn -0.2588178217411 0 0.96592617034912
vn 0.96592617034912 0 0.2588178217411
vn 0.2588178217411 0 -0.96592617034912
vn -0.98836088180542 0 0.15212762355804
vn -0.9940619468689 0 0.10881585627794
vn -0.99946457147598 0 0.03271963447332
vn -0.97134900093079 0 0.23765753209591
vn -0.96004444360733 0 0.27984762191772
vn -0.93201756477356 0 0.36241307854652
vn -0.91530537605286 0 0.40276059508324
vn -0.87674653530121 0 0.48095270991325
vn -0.85489839315414 0 0.51879549026489
vn -0.80645567178726 0 0.59129458665848
vn -0.77986168861389 0 0.62595188617706
vn -0.72239136695862 0 0.6914843916893
vn -0.6914843916893 0 0.72239136695862
vn -0.62595188617706 0 0.77986168861389
vn -0.59129458665848 0 0.80645567178726
vn -0.51879549026489 0 0.85489839315414
vn -0.48095270991325 0 0.87674653530121
vn -0.40276059508324 0 0.91530537605286
vn -0.36241307854652 0 0.93201756477356
vn -0.27984762191772 0 0.96004444360733
vn -0.23765753209591 0 0.97134900093079
vn -0.15212762355804 0 0.98836088180542
vn -0.10881585627794 0 0.9940619468689
vn -0.03271963447332 0 0.99946457147598
vn -0.42023825645447 -0.64599877595901 0.63724833726883
vn -0.93208438158035 -0.18044172227383 0.31410112977028
vn -0.84993261098862 0 0.52689135074615
vn -0.61189275979996 -0.72486478090286 0.31647792458534
vn -0.98333811759949 0 0.18178598582745
vn -0.96316200494766 -0.14037583768368 -0.2293763756752
vn -0.95111095905304 0 -0.3088493347168
vn -0.74320143461227 -0.60876142978668 -0.27759894728661
vn -0.6655867099762 -0.46364188194275 -0.58483380079269
vn -0.89199525117874 0 -0.45204472541809
vn 0.45738896727562 -0.6884897351265 -0.56282967329025
vn 0.94532245397568 -0.18237692117691 -0.27037784457207
vn 0.89199525117874 0 -0.45204472541809
vn 0.62195092439651 -0.73223459720612 -0.27750599384308
vn 0.98800724744797 0 -0.15440739691257
vn 0.7351159453392 -0.59945565462112 0.31663459539413
vn 0.95452845096588 -0.13703534007072 0.26475790143013
vn 0.93155413866043 0 0.36360266804695
vn 0.61519593000412 -0.4307559132576 0.6602903008461
vn 0.84993261098862 0 0.52689135074615
vn -0.19284489750862 -0.95481812953949 -0.22612635791302
vn 0.14925247430801 -0.96854740381241 -0.19909706711769
vn -0.1457527577877 -0.96183079481125 0.2315981388092
vn 0.19050371646881 -0.94520598649979 0.26513016223907
vn -0.15212762355804 0 -0.98836088180542
vn -0.10881585627794 0 -0.9940619468689
vn -0.03271963447332 0 -0.99946457147598
vn -0.23765753209591 0 -0.97134900093079
vn -0.27984762191772 0 -0.96004444360733
vn -0.36241307854652 0 -0.93201756477356
vn -0.40276059508324 0 -0.91530537605286
vn -0.48095270991325 0 -0.87674653530121
vn -0.51879549026489 0 -0.85489839315414
vn -0.59129458665848 0 -0.80645567178726
vn -0.62595188617706 0 -0.77986168861389
vn -0.6914843916893 0 -0.72239136695862
vn -0.72239136695862 0 -0.6914843916893
vn -0.77986168861389 0 -0.62595188617706
vn -0.80645567178726 0 -0.59129458665848
vn -0.85489839315414 0 -0.51879549026489
vn -0.87674653530121 0 -0.48095270991325
vn -0.91530537605286 0 -0.40276059508324
vn -0.93201756477356 0 -0.36241307854652
vn -0.96004444360733 0 -0.27984762191772
vn -0.97134900093079 0 -0.23765753209591
vn -0.98836088180542 0 -0.15212762355804
vn -0.9940619468689 0 -0.10881585627794
vn -0.99946457147598 0 -0.03271963447332
vn -0.70488446950912 -0.07921981066465 -0.70488446950912
vn -0.70548349618912 -0.06772016733885 -0.70548349618912
vn -0.70671945810318 -0.03309378027916 -0.70671945810318
vn -0.70161592960358 -0.12437894195318 -0.70161592960358
vn -0.69947737455368 -0.1465018093586 -0.69947737455368
vn -0.69411396980286 -0.19081807136536 -0.69411396980286
vn -0.69088000059128 -0.21300153434277 -0.69088000059128
vn -0.6837243437767 -0.25503334403038 -0.6837243437767
vn -0.67986708879471 -0.27488443255424 -0.67986708879471
vn -0.67215383052826 -0.31051331758499 -0.67215383052826
vn -0.6683983206749 -0.3263238966465 -0.6683983206749
vn -0.65945518016815 -0.36088466644287 -0.65945518016815
vn -0.65417063236237 -0.37963336706162 -0.65417063236237
vn -0.64097613096237 -0.42225486040115 -0.64097613096237
vn -0.63285827636719 -0.44607272744179 -0.63285827636719
vn -0.61504793167114 -0.49338838458061 -0.61504793167114
vn -0.6053227186203 -0.51688373088837 -0.6053227186203
vn -0.58504712581635 -0.56164020299912 -0.58504712581635
vn -0.5745450258255 -0.58292025327682 -0.5745450258255
vn -0.5531507730484 -0.62293529510498 -0.5531507730484
vn -0.54229730367661 -0.64173775911331 -0.54229730367661
vn -0.51831424236298 -0.68022102117538 -0.51831424236298
vn -0.50508427619934 -0.69984269142151 -0.50508427619934
vn -0.47420006990433 -0.74180090427399 -0.47420006990433
vn -0.45635366439819 -0.76386034488678 -0.45635366439819
vn -0.41866028308868 -0.80588281154633 -0.41866028308868
vn -0.39875608682632 -0.82582515478134 -0.39875608682632
vn -0.35776248574257 -0.86256128549576 -0.35776248574257
vn -0.33666041493416 -0.87938588857651 -0.33666041493416
vn -0.29303881525993 -0.91008597612381 -0.29303881525993
vn -0.27047318220139 -0.92395263910294 -0.27047318220139
vn -0.22025707364082 -0.95024925470352 -0.22025707364082
vn -0.19247323274612 -0.96224117279053 -0.19247323274612
vn -0.13990791141987 -0.9802303314209 -0.13990791141987
vn -0.11515907943249 -0.98664927482605 -0.11515907943249
vn -0.06997082382441 -0.9950920343399 -0.06997082382441
vn -0.0495318621397 -0.99754357337952 -0.0495318621397
vn -0.01937559619546 -0.99962449073792 -0.01937559619546
vn -0.01453136000782 -0.99978882074356 -0.01453136000782
vn 0 -1 0
vn 0 -0.70710676908493 -0.70710676908493
vn 0 -0.70710676908493 0.70710676908493
vn 0 0.70710676908493 0.70710676908493
vn 0 0.70710676908493 -0.70710676908493
vn 0 1 0
vn 0.70488446950912 -0.07921981066465 0.70488446950912
vn 0.70548349618912 -0.06772016733885 0.70548349618912
vn 0.70671945810318 -0.03309378027916 0.70671945810318
vn 0.70161592960358 -0.12437894195318 0.70161592960358
vn 0.69947737455368 -0.1465018093586 0.69947737455368
vn 0.69411396980286 -0.19081807136536 0.69411396980286
vn 0.69088000059128 -0.21300153434277 0.69088000059128
vn 0.6837243437767 -0.25503334403038 0.6837243437767
vn 0.67986708879471 -0.27488443255424 0.67986708879471
vn 0.67215383052826 -0.31051331758499 0.67215383052826
vn 0.6683983206749 -0.3263238966465 0.6683983206749
vn 0.65945518016815 -0.36088466644287 0.65945518016815
vn 0.65417063236237 -0.37963336706162 0.65417063236237
vn 0.64097613096237 -0.42225486040115 0.64097613096237
vn 0.63285827636719 -0.44607272744179 0.63285827636719
vn 0.61504793167114 -0.49338838458061 0.61504793167114
vn 0.6053227186203 -0.51688373088837 0.6053227186203
vn 0.58504712581635 -0.56164020299912 0.58504712581635
vn 0.5745450258255 -0.58292025327682 0.5745450258255
vn 0.5531507730484 -0.62293529510498 0.5531507730484
vn 0.54229730367661 -0.64173775911331 0.54229730367661
vn 0.51831424236298 -0.68022102117538 0.51831424236298
vn 0.50508427619934 -0.69984269142151 0.50508427619934
vn 0.47420006990433 -0.74180090427399 0.47420006990433
vn 0.45635366439819 -0.76386034488678 0.45635366439819
vn 0.41866028308868 -0.80588281154633 0.41866028308868
vn 0.39875608682632 -0.82582515478134 0.39875608682632
vn 0.35776248574257 -0.86256128549576 0.35776248574257
vn 0.33666041493416 -0.87938588857651 0.33666041493416
vn 0.29303881525993 -0.91008597612381 0.29303881525993
vn 0.27047318220139 -0.92395263910294 0.27047318220139
vn 0.22025707364082 -0.95024925470352 0.22025707364082
vn 0.19247323274612 -0.96224117279053 0.19247323274612
vn 0.13990791141987 -0.9802303314209 0.13990791141987
vn 0.11515907943249 -0.98664927482605 0.11515907943249
vn 0.06997082382441 -0.9950920343399 0.06997082382441
vn 0.0495318621397 -0.99754357337952 0.0495318621397
vn 0.01937559619546 -0.99962449073792 0.01937559619546
vn 0.01453136000782 -0.99978882074356 0.01453136000782
# 290 normals

vt 0.99996948242188 0.08192443847656 0
vt 0.99996948242188 0.04383850097656 0
vt 0.00005350727952 0.08192443847656 0
vt 0.00003473367906 0.04385375976562 0
vt 0.99996948242188 0 0
vt 0.00005069654071 0.11552429199219 0
vt 0.99996948242188 0.11552429199219 0
vt 0.00005912873894 0.15396118164062 0
vt 0.99996948242188 0.15396118164062 0
vt 0.0000428641215 0.18495178222656 0
vt 0.99996948242188 0.1849365234375 0
vt 0.00003051758176 0.00001525878906 0
vt 0.00003340375042 0.2173615694046 0
vt 0.99996948242188 0.2173615694046 0
vt 0.00004936661935 0.26860058307648 0
vt 0.99996948242188 0.26858520507812 0
vt 0.00004908535993 0.31431579589844 0
vt 0.99996948242188 0.31431579589844 0
vt 0.00003621447831 0.36062622070312 0
vt 0.99996948242188 0.36062622070312 0
vt 0.00005217735088 0.40393078327179 0
vt 0.99996948242188 0.40393078327179 0
vt 0.00003739539898 0.45504760742188 0
vt 0.99996948242188 0.45503234863281 0
vt 0.00005136150867 0.52253723144531 0
vt 0.99996948242188 0.52252960205078 0
vt 0.00003671738887 0.58384698629379 0
vt 0.99996948242188 0.58383941650391 0
vt 0.00003252271927 0.64662170410156 0
vt 0.99996948242188 0.64661413431168 0
vt 0.00003155786908 0.71897131204605 0
vt 0.99996948242188 0.71896362304688 0
vt 0.00005151052028 0.80346298217773 0
vt 0.99996948242188 0.80345541238785 0
vt 0.00003473367906 0.88022798299789 0
vt 0.99996948242188 0.88022232055664 0
vt 0.00003972183913 0.93598747253418 0
vt 0.99996948242188 0.93598181009293 0
vt 0.00004637334132 0.99996948242188 0
vt 1 0.99994242191315 0
vt 0.38926240801811 0.00048828125 0
vt 0.36204451322556 0.00048828125 0
vt 0.38926240801811 0.99365228414536 0
vt 0.36204451322556 0.99365228414536 0
vt 0.35498049855232 0.00048828125 0
vt 0.35498049855232 0.99365228414536 0
vt 0.39398708939552 0.00048828125 0
vt 0.39398708939552 0.99365228414536 0
vt 1 0.99995040893555 0
vt 0.00003366265082 0.99995040893555 0
vt 1 0 0
vt 0.00003051758176 0 0
vt 0.39063331484795 0.6104764342308 0
vt 0.3831393122673 0.60211712121964 0
vt 0.39063331484795 0 0
vt 0.3831393122673 0.60563141107559 0
vt 0.3831393122673 0 0
vt 0.34984990954399 0.60211712121964 0
vt 0.34984990954399 0 0
vt 0.34984990954399 0.60563141107559 0
vt 0.34068301320076 0.6104764342308 0
vt 0.34068301320076 0 0
vt 0.60206282138824 0.60612642765045 0
vt 0.6124519109726 0.59843909740448 0
vt 0.60041892528534 0.00024914741516 0
vt 0.61278480291367 0.60222584009171 0
vt 0.61047172546387 0.00020158290863 0
vt 0.64576977491379 0.60234713554382 0
vt 0.64615827798843 0.59866583347321 0
vt 0.64302957057953 0.00003325939178 0
vt 0.65501427650452 0.60617631673813 0
vt 0.65165710449219 0 0
vt 1 0.00003051757812 0
vt 1 0.99996948242188 0
vt 0.65930181741714 0 0
vt 0.65930181741714 0.61106109619141 0
vt 0.00004864018047 0.99995231628418 0
vt 0.34831240773201 0.61106109619141 0
vt 0.00003624055898 0.00003051757812 0
vt 0.34832000732422 0 0
vt 0.34088331460953 0.55971342325211 0
vt 0.34592780470848 0.56982684135437 0
vt 0.3495826125145 0.56952118873596 0
vt 0.65248972177505 0.55927819013596 0
vt 0.64412009716034 0.56876319646835 0
vt 0.6476349234581 0.56905102729797 0
vt 0.34914571046829 0.60248428583145 0
vt 0.64437389373779 0.60165703296661 0
vt 0.3456229865551 0.60208374261856 0
vt 0.65315097570419 0.60991668701172 0
vt 0.64802151918411 0.6012356877327 0
vt 0.34068301320076 0.61104583740234 0
vt 0.00004768465078 0.00003051757812 0
vt 0.00005245301872 0.99995291233063 0
vt 0.65165710449219 0.61104583740234 0
vt 0.99998468160629 0.99995297193527 0
vt 0.99998468160629 0.00003051757812 0
vt 0.25 0.99996948242188 0
vt 0.25 0 0
vt 0.4917297065258 0.99996948242188 0
vt 0.4917297065258 0 0
vt 0.5 0.99996948242188 0
vt 0.5 0 0
vt 0.74172967672348 0.99996948242188 0
vt 0.74172967672348 0 0
vt 0.75 0.99996948242188 0
vt 0.75 0 0
vt 0.99172967672348 0.99996948242188 0
vt 0.99172967672348 0 0
vt 0.00003051758176 0.99996948242188 0
vt 0.24173359572887 0.99996948242188 0
vt 0.24173359572887 0 0
vt 1.39999997615814 1 0
vt 1.37910497188568 1 0
vt 1.39999997615814 0 0
vt 1.37910497188568 0 0
vt 0.02089463919401 1 0
vt 0.02089463919401 0 0
vt -0.00000000149012 1 0
vt -0.00000000149012 0 0
vt 0.08368492126465 0.99982607364655 0
vt 0.08376312255859 0.00003051757812 0
vt 0.00042942911386 0.99980980157852 0
vt 0.00050623709103 0.00001525878906 0
vt 0.16701890528202 0.00004577636719 0
vt 0.16693879663944 0.99984240531921 0
vt 0.25026699900627 0.00006103515625 0
vt 0.25019070506096 0.99985861778259 0
vt 0.33352661132812 0.00007629394531 0
vt 0.33345028758049 0.99987477064133 0
vt 0.41677859425545 0.00009155273438 0
vt 0.41670230031013 0.99989092350006 0
vt 0.50003051757812 0.00010681152344 0
vt 0.49996191263199 0.99990677833557 0
vt 0.58328247070312 0.0001220703125 0
vt 0.58320617675781 0.99992257356644 0
vt 0.66654968261719 0.00013732910156 0
vt 0.66647338867188 0.99993807077408 0
vt 0.74980157613754 0.00015258789062 0
vt 0.74972528219223 0.99995362758636 0
vt 0.83305358886719 0.00016784667969 0
vt 0.83297729492188 0.99996900558472 0
vt 0.91630548238754 0.00018310546875 0
vt 0.91622918844223 0.99996888637543 0
vt 0.99955749511719 0.00019836425781 0
vt 0.99948120117188 0.99994242191315 0
vt 0.50050348043442 0.05284118652344 0
vt 0.49768069386482 0.05284118652344 0
vt 0.49903869628906 0 0
vt 0.49394229054451 0.09855651855469 0
vt 0.50433349609375 0.09854125976562 0
vt 0.488525390625 0.13851928710938 0
vt 0.50982671976089 0.13848888874054 0
vt 0.47996520996094 0.18367004394531 0
vt 0.51846307516098 0.18360900878906 0
vt 0.47145080566406 0.21952819824219 0
vt 0.52705377340317 0.21943664550781 0
vt 0.46122738718987 0.25653088092804 0
vt 0.537353515625 0.2564240694046 0
vt 0.44276431202888 0.31396484375 0
vt 0.55592352151871 0.31379699707031 0
vt 0.42382809519768 0.36390697956085 0
vt 0.574951171875 0.36367797851562 0
vt 0.40237429738045 0.41307067871094 0
vt 0.59649658203125 0.41279602050781 0
vt 0.38053891062737 0.45780944824219 0
vt 0.618408203125 0.4574738740921 0
vt 0.35308840870857 0.50929260253906 0
vt 0.64598077535629 0.50886541604996 0
vt 0.31465148925781 0.57542419433594 0
vt 0.68453979492188 0.57489013671875 0
vt 0.27770999073982 0.63363653421402 0
vt 0.72157287597656 0.63299560546875 0
vt 0.23818969726562 0.6915283203125 0
vt 0.76121520996094 0.69076544046402 0
vt 0.19110110402107 0.75660711526871 0
vt 0.80842590332031 0.75570678710938 0
vt 0.13473510742188 0.8310546875 0
vt 0.86494451761246 0.83000183105469 0
vt 0.08250427246094 0.89749151468277 0
vt 0.91729742288589 0.89628601074219 0
vt 0.04418944939971 0.94529718160629 0
vt 0.95570367574692 0.94398498535156 0
vt 1 0.99855041503906 0
vt -0.20783619582653 -0.70709228515625 0
vt 1.20620703697205 -0.70700073242188 0
vt 0.05005022138357 0 0
vt 0.05005022138357 0.99995040893555 0
vt 0.99999701976776 0.99995040893555 0
vt 0.99565118551254 0.39935302734375 0
vt 0.99749761819839 0.34666442871094 0
vt 0.99749761819839 0.39935302734375 0
vt 0.99070739746094 0.44471740722656 0
vt 0.99749761819839 0.99996709823608 0
vt 0.98359680175781 0.48402404785156 0
vt 0.97239691019058 0.52779394388199 0
vt 0.96124267578125 0.56198883056641 0
vt 0.94789117574692 0.5966796875 0
vt 0.92373657226562 0.64923858642578 0
vt 0.89900207519531 0.69322198629379 0
vt 0.8709716796875 0.73449712991714 0
vt 0.84245300292969 0.77006912231445 0
vt 0.80659478902817 0.80863189697266 0
vt 0.75642400979996 0.85448461771011 0
vt 0.70854192972183 0.89019203186035 0
vt 0.65663152933121 0.92133331298828 0
vt 0.59516912698746 0.95025730133057 0
vt 0.40344241261482 0.99774372577667 0
vt 0.34581759572029 0.9999685883522 0
vt 0.99913018941879 0.99996709823608 0
vt 0.99913018941879 0.39935302734375 0
vt 0.99913018941879 0.34666442871094 0
vt 0.52160638570786 0.97625160217285 0
vt 0.45345309376717 0.9916552901268 0
# 214 texture coordinates

o Default
usemtl metal_bars_A
f 2/1/1 287/2/2 1/3/3
f 1/3/3 287/2/2 185/4/4
f 287/2/2 286/5/5 185/4/4
f 3/6/6 2/1/1 1/3/3
f 4/7/7 2/1/1 3/6/6
f 5/8/8 4/7/7 3/6/6
f 289/9/9 4/7/7 5/8/8
f 188/10/10 289/9/9 5/8/8
f 290/11/11 289/9/9 188/10/10
f 185/4/4 286/5/5 187/12/5
f 189/13/12 290/11/11 188/10/10
f 296/14/13 290/11/11 189/13/12
f 191/15/14 296/14/13 189/13/12
f 297/16/15 296/14/13 191/15/14
f 193/17/16 297/16/15 191/15/14
f 298/18/17 297/16/15 193/17/16
f 195/19/18 298/18/17 193/17/16
f 28/20/19 298/18/17 195/19/18
f 6/21/20 28/20/19 195/19/18
f 30/22/21 28/20/19 6/21/20
f 7/23/22 30/22/21 6/21/20
f 291/24/23 30/22/21 7/23/22
f 8/25/24 291/24/23 7/23/22
f 33/26/25 291/24/23 8/25/24
f 9/27/26 33/26/25 8/25/24
f 292/28/27 33/26/25 9/27/26
f 10/29/28 292/28/27 9/27/26
f 293/30/29 292/28/27 10/29/28
f 11/31/30 293/30/29 10/29/28
f 37/32/31 293/30/29 11/31/30
f 12/33/32 37/32/31 11/31/30
f 39/34/33 37/32/31 12/33/32
f 13/35/34 39/34/33 12/33/32
f 14/36/35 39/34/33 13/35/34
f 15/37/36 14/36/35 13/35/34
f 42/38/37 14/36/35 15/37/36
f 301/39/38 42/38/37 15/37/36
f 44/40/38 42/38/37 301/39/38
f 503/1/39 101/2/40 100/3/41
f 100/3/41 101/2/40 102/4/42
f 101/2/40 146/5/43 102/4/42
f 103/6/44 503/1/39 100/3/41
f 504/7/45 503/1/39 103/6/44
f 257/8/46 504/7/45 103/6/44
f 505/9/47 504/7/45 257/8/46
f 258/10/48 505/9/47 257/8/46
f 506/11/49 505/9/47 258/10/48
f 102/4/42 146/5/43 147/12/43
f 104/13/50 506/11/49 258/10/48
f 514/14/51 506/11/49 104/13/50
f 105/15/52 514/14/51 104/13/50
f 515/16/53 514/14/51 105/15/52
f 259/17/54 515/16/53 105/15/52
f 516/18/55 515/16/53 259/17/54
f 260/19/56 516/18/55 259/17/54
f 517/20/57 516/18/55 260/19/56
f 261/21/58 517/20/57 260/19/56
f 507/22/59 517/20/57 261/21/58
f 262/23/60 507/22/59 261/21/58
f 518/24/61 507/22/59 262/23/60
f 106/25/62 518/24/61 262/23/60
f 508/26/63 518/24/61 106/25/62
f 107/27/64 508/26/63 106/25/62
f 509/28/65 508/26/63 107/27/64
f 108/29/66 509/28/65 107/27/64
f 109/30/67 509/28/65 108/29/66
f 110/31/68 109/30/67 108/29/66
f 111/32/69 109/30/67 110/31/68
f 112/33/70 111/32/69 110/31/68
f 113/34/71 111/32/69 112/33/70
f 114/35/72 113/34/71 112/33/70
f 115/36/73 113/34/71 114/35/72
f 116/37/74 115/36/73 114/35/72
f 510/38/75 115/36/73 116/37/74
f 268/39/76 510/38/75 116/37/74
f 117/40/76 510/38/75 268/39/76
f 398/41/77 399/42/78 134/43/79
f 134/43/79 399/42/78 135/44/80
f 465/45/81 135/44/80 399/42/78
f 470/46/81 135/44/80 465/45/81
f 400/47/82 398/41/77 136/48/82
f 136/48/82 398/41/77 134/43/79
f 144/41/77 143/42/78 150/43/79
f 150/43/79 143/42/78 145/44/80
f 146/45/81 145/44/80 143/42/78
f 147/46/81 145/44/80 146/45/81
f 149/47/82 144/41/77 148/48/82
f 148/48/82 144/41/77 150/43/79
f 1/1/1 185/2/2 184/3/3
f 184/3/3 185/2/2 186/4/4
f 185/2/2 187/5/5 186/4/4
f 420/6/6 1/1/1 184/3/3
f 3/7/7 1/1/1 420/6/6
f 421/8/8 3/7/7 420/6/6
f 5/9/9 3/7/7 421/8/8
f 423/10/10 5/9/9 421/8/8
f 188/11/11 5/9/9 423/10/10
f 186/4/4 187/5/5 434/12/5
f 424/13/12 188/11/11 423/10/10
f 189/14/13 188/11/11 424/13/12
f 190/15/14 189/14/13 424/13/12
f 191/16/15 189/14/13 190/15/14
f 192/17/16 191/16/15 190/15/14
f 193/18/17 191/16/15 192/17/16
f 194/19/18 193/18/17 192/17/16
f 195/20/19 193/18/17 194/19/18
f 427/21/20 195/20/19 194/19/18
f 6/22/21 195/20/19 427/21/20
f 428/23/22 6/22/21 427/21/20
f 7/24/23 6/22/21 428/23/22
f 196/25/24 7/24/23 428/23/22
f 8/26/25 7/24/23 196/25/24
f 197/27/26 8/26/25 196/25/24
f 9/28/27 8/26/25 197/27/26
f 198/29/28 9/28/27 197/27/26
f 10/30/29 9/28/27 198/29/28
f 199/31/30 10/30/29 198/29/28
f 11/32/31 10/30/29 199/31/30
f 431/33/32 11/32/31 199/31/30
f 12/34/33 11/32/31 431/33/32
f 200/35/34 12/34/33 431/33/32
f 13/36/35 12/34/33 200/35/34
f 201/37/36 13/36/35 200/35/34
f 15/38/37 13/36/35 201/37/36
f 268/39/38 15/38/37 201/37/36
f 301/40/38 15/38/37 268/39/38
f 100/1/39 102/2/40 463/3/41
f 463/3/41 102/2/40 462/4/42
f 102/2/40 147/5/43 462/4/42
f 466/6/44 100/1/39 463/3/41
f 103/7/45 100/1/39 466/6/44
f 468/8/46 103/7/45 466/6/44
f 257/9/47 103/7/45 468/8/46
f 469/10/48 257/9/47 468/8/46
f 258/11/49 257/9/47 469/10/48
f 462/4/42 147/5/43 465/12/43
f 471/13/50 258/11/49 469/10/48
f 104/14/51 258/11/49 471/13/50
f 472/15/52 104/14/51 471/13/50
f 105/16/53 104/14/51 472/15/52
f 473/17/54 105/16/53 472/15/52
f 259/18/55 105/16/53 473/17/54
f 474/19/56 259/18/55 473/17/54
f 260/20/57 259/18/55 474/19/56
f 475/21/58 260/20/57 474/19/56
f 261/22/59 260/20/57 475/21/58
f 476/23/60 261/22/59 475/21/58
f 262/24/61 261/22/59 476/23/60
f 263/25/62 262/24/61 476/23/60
f 106/26/63 262/24/61 263/25/62
f 264/27/64 106/26/63 263/25/62
f 107/28/65 106/26/63 264/27/64
f 479/29/66 107/28/65 264/27/64
f 108/30/67 107/28/65 479/29/66
f 481/31/68 108/30/67 479/29/66
f 110/32/69 108/30/67 481/31/68
f 265/33/70 110/32/69 481/31/68
f 112/34/71 110/32/69 265/33/70
f 266/35/72 112/34/71 265/33/70
f 114/36/73 112/34/71 266/35/72
f 267/37/74 114/36/73 266/35/72
f 116/38/75 114/36/73 267/37/74
f 301/39/76 116/38/75 267/37/74
f 268/40/76 116/38/75 301/39/76
f 389/41/83 388/42/84 436/43/85
f 436/43/85 388/42/84 390/44/86
f 286/45/87 390/44/86 388/42/84
f 187/46/87 390/44/86 286/45/87
f 391/47/88 389/41/83 437/48/88
f 437/48/88 389/41/83 436/43/85
f 150/41/77 145/42/78 398/43/79
f 398/43/79 145/42/78 399/44/80
f 147/45/81 399/44/80 145/42/78
f 465/46/81 399/44/80 147/45/81
f 148/47/82 150/41/77 400/48/82
f 400/48/82 150/41/77 398/43/79
f 184/1/1 186/2/2 419/3/3
f 419/3/3 186/2/2 380/4/4
f 186/2/2 434/5/5 380/4/4
f 381/6/6 184/1/1 419/3/3
f 420/7/7 184/1/1 381/6/6
f 372/8/8 420/7/7 381/6/6
f 421/9/9 420/7/7 372/8/8
f 422/10/10 421/9/9 372/8/8
f 423/11/11 421/9/9 422/10/10
f 380/4/4 434/5/5 371/12/5
f 373/13/12 423/11/11 422/10/10
f 424/14/13 423/11/11 373/13/12
f 374/15/14 424/14/13 373/13/12
f 190/16/15 424/14/13 374/15/14
f 425/17/16 190/16/15 374/15/14
f 192/18/17 190/16/15 425/17/16
f 426/19/18 192/18/17 425/17/16
f 194/20/19 192/18/17 426/19/18
f 375/21/20 194/20/19 426/19/18
f 427/22/21 194/20/19 375/21/20
f 376/23/22 427/22/21 375/21/20
f 428/24/23 427/22/21 376/23/22
f 429/25/24 428/24/23 376/23/22
f 196/26/25 428/24/23 429/25/24
f 430/27/26 196/26/25 429/25/24
f 197/28/27 196/26/25 430/27/26
f 382/29/28 197/28/27 430/27/26
f 198/30/29 197/28/27 382/29/28
f 383/31/30 198/30/29 382/29/28
f 199/32/31 198/30/29 383/31/30
f 384/33/32 199/32/31 383/31/30
f 431/34/33 199/32/31 384/33/32
f 432/35/34 431/34/33 384/33/32
f 200/36/35 431/34/33 432/35/34
f 377/37/36 200/36/35 432/35/34
f 201/38/37 200/36/35 377/37/36
f 117/39/38 201/38/37 377/37/36
f 268/40/38 201/38/37 117/39/38
f 436/41/83 390/42/84 525/43/85
f 525/43/85 390/42/84 433/44/86
f 187/45/87 433/44/86 390/42/84
f 434/46/87 433/44/86 187/45/87
f 437/47/88 436/41/83 435/48/88
f 435/48/88 436/41/83 525/43/85
f 463/1/39 462/2/40 461/3/41
f 461/3/41 462/2/40 464/4/42
f 462/2/40 465/5/43 464/4/42
f 337/6/44 463/1/39 461/3/41
f 466/7/45 463/1/39 337/6/44
f 467/8/46 466/7/45 337/6/44
f 468/9/47 466/7/45 467/8/46
f 340/10/48 468/9/47 467/8/46
f 469/11/49 468/9/47 340/10/48
f 464/4/42 465/5/43 470/12/43
f 342/13/50 469/11/49 340/10/48
f 471/14/51 469/11/49 342/13/50
f 344/15/52 471/14/51 342/13/50
f 472/16/53 471/14/51 344/15/52
f 346/17/54 472/16/53 344/15/52
f 473/18/55 472/16/53 346/17/54
f 348/19/56 473/18/55 346/17/54
f 474/20/57 473/18/55 348/19/56
f 350/21/58 474/20/57 348/19/56
f 475/22/59 474/20/57 350/21/58
f 352/23/60 475/22/59 350/21/58
f 476/24/61 475/22/59 352/23/60
f 477/25/62 476/24/61 352/23/60
f 263/26/63 476/24/61 477/25/62
f 478/27/64 263/26/63 477/25/62
f 264/28/65 263/26/63 478/27/64
f 356/29/66 264/28/65 478/27/64
f 479/30/67 264/28/65 356/29/66
f 480/31/68 479/30/67 356/29/66
f 481/32/69 479/30/67 480/31/68
f 482/33/70 481/32/69 480/31/68
f 265/34/71 481/32/69 482/33/70
f 483/35/72 265/34/71 482/33/70
f 266/36/73 265/34/71 483/35/72
f 361/37/74 266/36/73 483/35/72
f 267/38/75 266/36/73 361/37/74
f 44/39/76 267/38/75 361/37/74
f 301/40/76 267/38/75 44/39/76
f 525/41/83 433/42/84 524/43/85
f 524/43/85 433/42/84 526/44/86
f 434/45/87 526/44/86 433/42/84
f 371/46/87 526/44/86 434/45/87
f 435/47/88 525/41/83 527/48/88
f 527/48/88 525/41/83 524/43/85

usemtl concrete_C
f 18/49/89 17/50/89 16/51/89
f 16/51/89 17/50/89 47/52/89
f 302/49/90 19/50/90 523/51/90
f 523/51/90 19/50/90 522/52/90
f 69/53/91 68/54/92 67/55/93
f 68/54/92 69/53/91 92/56/94
f 67/55/93 68/54/92 70/57/95
f 71/58/96 70/57/95 68/54/92
f 72/59/97 70/57/95 71/58/96
f 71/58/96 68/54/92 86/60/98
f 86/60/98 68/54/92 92/56/94
f 87/61/99 71/58/96 86/60/98
f 87/61/99 72/59/97 71/58/96
f 73/62/100 72/59/97 87/61/99
f 93/63/101 75/64/102 74/65/103
f 93/63/101 89/66/104 75/64/102
f 74/65/103 75/64/102 76/67/105
f 77/68/106 75/64/102 89/66/104
f 78/69/107 75/64/102 77/68/106
f 78/69/107 76/67/105 75/64/102
f 79/70/108 76/67/105 78/69/107
f 78/69/107 80/71/109 79/70/108
f 80/71/109 78/69/107 77/68/106
f 79/70/108 80/71/109 84/72/110
f 81/73/89 519/74/89 67/75/89
f 67/75/89 519/74/89 69/76/89
f 82/77/89 69/76/89 519/74/89
f 80/78/89 69/76/89 82/77/89
f 83/79/89 80/78/89 82/77/89
f 84/80/89 80/78/89 83/79/89
f 87/81/99 86/82/98 85/83/111
f 87/81/99 85/83/111 93/84/101
f 93/84/101 85/83/111 88/85/112
f 93/84/101 88/85/112 89/86/104
f 85/83/111 90/87/113 88/85/112
f 88/85/112 91/88/114 89/86/104
f 88/85/112 90/87/113 91/88/114
f 90/87/113 85/83/111 92/89/94
f 92/89/94 85/83/111 86/82/98
f 69/61/91 90/87/113 92/89/94
f 69/61/91 91/88/114 90/87/113
f 80/90/109 91/88/114 69/61/91
f 80/90/109 77/91/106 91/88/114
f 89/86/104 91/88/114 77/91/106
f 73/62/90 87/92/90 395/93/90
f 395/93/90 87/92/90 396/94/90
f 93/95/90 396/94/90 87/92/90
f 94/96/90 396/94/90 93/95/90
f 74/72/90 94/96/90 93/95/90
f 95/97/90 94/96/90 74/72/90
f 142/49/89 502/50/89 98/51/89
f 98/51/89 502/50/89 99/52/89
f 125/98/115 118/99/115 126/100/115
f 126/100/115 118/99/115 119/101/115
f 128/102/90 127/103/90 120/104/90
f 120/104/90 127/103/90 121/105/90
f 130/106/116 129/107/116 131/108/116
f 131/108/116 129/107/116 132/109/116
f 133/110/89 122/52/89 123/111/89
f 123/111/89 122/52/89 124/112/89
f 124/112/117 118/99/117 123/111/117
f 123/111/117 118/99/117 125/98/117
f 119/101/118 127/103/118 126/100/118
f 126/100/118 127/103/118 128/102/118
f 121/105/119 129/107/119 120/104/119
f 120/104/119 129/107/119 130/106/119
f 132/109/120 122/51/120 131/108/120
f 131/108/120 122/51/120 133/74/120
f 138/113/121 137/114/122 368/115/121
f 368/115/121 137/114/122 139/116/123
f 140/117/124 139/116/123 137/114/122
f 141/118/125 139/116/123 140/117/124
f 142/119/126 141/118/125 140/117/124
f 98/120/126 141/118/125 142/119/126
f 158/98/127 156/99/127 159/100/127
f 159/100/127 156/99/127 160/101/127
f 154/102/128 153/103/128 152/104/128
f 152/104/128 153/103/128 162/105/128
f 163/106/129 161/107/129 164/108/129
f 164/108/129 161/107/129 166/109/129
f 167/110/130 165/52/130 155/111/130
f 155/111/130 165/52/130 157/112/130
f 157/112/131 156/99/131 155/111/131
f 155/111/131 156/99/131 158/98/131
f 160/101/132 153/103/132 159/100/132
f 159/100/132 153/103/132 154/102/132
f 162/105/133 161/107/133 152/104/133
f 152/104/133 161/107/133 163/106/133
f 166/109/134 165/51/134 164/108/134
f 164/108/134 165/51/134 167/74/134
f 204/121/135 203/122/136 202/123/137
f 202/123/137 203/122/136 460/124/137
f 204/121/135 205/125/138 203/122/136
f 206/126/139 205/125/138 204/121/135
f 206/126/139 207/127/140 205/125/138
f 208/128/141 207/127/140 206/126/139
f 208/128/141 209/129/142 207/127/140
f 210/130/143 209/129/142 208/128/141
f 210/130/143 211/131/144 209/129/142
f 212/132/145 211/131/144 210/130/143
f 212/132/145 213/133/146 211/131/144
f 214/134/147 213/133/146 212/132/145
f 214/134/147 215/135/148 213/133/146
f 216/136/149 215/135/148 214/134/147
f 216/136/149 217/137/150 215/135/148
f 218/138/151 217/137/150 216/136/149
f 218/138/151 219/139/152 217/137/150
f 220/140/153 219/139/152 218/138/151
f 220/140/153 221/141/154 219/139/152
f 222/142/155 221/141/154 220/140/153
f 222/142/155 223/143/156 221/141/154
f 224/144/157 223/143/156 222/142/155
f 224/144/157 96/145/158 223/143/156
f 394/146/158 96/145/158 224/144/157
f 49/49/116 138/50/116 225/51/116
f 225/51/116 138/50/116 368/52/116
f 250/53/159 229/54/160 228/55/161
f 229/54/160 250/53/159 230/56/162
f 228/55/161 229/54/160 231/57/163
f 232/58/164 231/57/163 229/54/160
f 233/59/165 231/57/163 232/58/164
f 232/58/164 229/54/160 245/60/166
f 245/60/166 229/54/160 230/56/162
f 246/61/167 232/58/164 245/60/166
f 246/61/167 233/59/165 232/58/164
f 253/62/168 233/59/165 246/61/167
f 236/63/169 235/64/170 234/65/171
f 236/63/169 237/66/172 235/64/170
f 234/65/171 235/64/170 238/67/173
f 251/68/174 235/64/170 237/66/172
f 239/69/175 235/64/170 251/68/174
f 239/69/175 238/67/173 235/64/170
f 240/70/176 238/67/173 239/69/175
f 239/69/175 243/71/177 240/70/176
f 243/71/177 239/69/175 251/68/174
f 240/70/176 243/71/177 241/72/178
f 364/73/90 242/74/90 228/75/90
f 228/75/90 242/74/90 250/76/90
f 49/77/90 250/76/90 242/74/90
f 243/78/90 250/76/90 49/77/90
f 225/79/90 243/78/90 49/77/90
f 241/80/90 243/78/90 225/79/90
f 246/81/167 245/82/166 244/83/179
f 246/81/167 244/83/179 236/84/169
f 236/84/169 244/83/179 247/85/180
f 236/84/169 247/85/180 237/86/172
f 244/83/179 248/87/181 247/85/180
f 247/85/180 249/88/182 237/86/172
f 247/85/180 248/87/181 249/88/182
f 248/87/181 244/83/179 230/89/162
f 230/89/162 244/83/179 245/82/166
f 250/61/159 248/87/181 230/89/162
f 250/61/159 249/88/182 248/87/181
f 243/90/177 249/88/182 250/61/159
f 243/90/177 251/91/174 249/88/182
f 237/86/172 249/88/182 251/91/174
f 253/62/89 246/92/89 252/93/89
f 252/93/89 246/92/89 254/94/89
f 236/95/89 254/94/89 246/92/89
f 255/96/89 254/94/89 236/95/89
f 234/72/89 255/96/89 236/95/89
f 256/97/89 255/96/89 234/72/89
f 310/98/115 303/99/115 311/100/115
f 311/100/115 303/99/115 312/101/115
f 313/102/90 304/103/90 314/104/90
f 314/104/90 304/103/90 315/105/90
f 306/106/116 305/107/116 316/108/116
f 316/108/116 305/107/116 317/109/116
f 318/110/89 308/52/89 307/111/89
f 307/111/89 308/52/89 309/112/89
f 309/112/117 303/99/117 307/111/117
f 307/111/117 303/99/117 310/98/117
f 312/101/118 304/103/118 311/100/118
f 311/100/118 304/103/118 313/102/118
f 315/105/119 305/107/119 314/104/119
f 314/104/119 305/107/119 306/106/119
f 317/109/120 308/51/120 316/108/120
f 316/108/120 308/51/120 318/74/120
f 19/49/90 512/50/90 522/51/90
f 522/51/90 512/50/90 364/52/90
f 45/49/89 288/50/89 418/51/89
f 418/51/89 288/50/89 367/52/89
f 288/49/89 18/50/89 367/51/89
f 367/51/89 18/50/89 16/52/89
f 439/121/183 438/122/184 17/123/185
f 17/123/185 438/122/184 47/124/185
f 439/121/183 440/125/186 438/122/184
f 441/126/187 440/125/186 439/121/183
f 441/126/187 442/127/188 440/125/186
f 443/128/189 442/127/188 441/126/187
f 443/128/189 444/129/190 442/127/188
f 445/130/191 444/129/190 443/128/189
f 445/130/191 446/131/192 444/129/190
f 447/132/193 446/131/192 445/130/191
f 447/132/193 448/133/194 446/131/192
f 449/134/195 448/133/194 447/132/193
f 449/134/195 450/135/196 448/133/194
f 451/136/197 450/135/196 449/134/195
f 451/136/197 452/137/198 450/135/196
f 453/138/199 452/137/198 451/136/197
f 453/138/199 454/139/200 452/137/198
f 455/140/201 454/139/200 453/138/199
f 455/140/201 456/141/202 454/139/200
f 457/142/203 456/141/202 455/140/201
f 457/142/203 458/143/204 456/141/202
f 459/144/205 458/143/204 457/142/203
f 459/144/205 460/145/206 458/143/204
f 202/146/206 460/145/206 459/144/205
f 502/49/89 45/50/89 99/51/89
f 99/51/89 45/50/89 418/52/89

usemtl plaster_A
f 20/147/207 287/148/208 286/149/209
f 20/147/207 2/150/210 287/148/208
f 21/151/211 2/150/210 20/147/207
f 21/151/211 4/152/212 2/150/210
f 22/153/213 4/152/212 21/151/211
f 22/153/213 289/154/214 4/152/212
f 23/155/215 289/154/214 22/153/213
f 23/155/215 290/156/216 289/154/214
f 24/157/217 290/156/216 23/155/215
f 24/157/217 296/158/218 290/156/216
f 25/159/219 296/158/218 24/157/217
f 25/159/219 297/160/220 296/158/218
f 26/161/221 297/160/220 25/159/219
f 26/161/221 298/162/222 297/160/220
f 27/163/223 298/162/222 26/161/221
f 298/162/222 27/163/223 28/164/224
f 28/164/224 27/163/223 29/165/225
f 29/165/225 30/166/226 28/164/224
f 31/167/227 30/166/226 29/165/225
f 31/167/227 291/168/228 30/166/226
f 32/169/229 291/168/228 31/167/227
f 291/168/228 32/169/229 33/170/230
f 33/170/230 32/169/229 34/171/231
f 34/171/231 292/172/232 33/170/230
f 35/173/233 292/172/232 34/171/231
f 292/172/232 35/173/233 293/174/234
f 293/174/234 35/173/233 36/175/235
f 36/175/235 37/176/236 293/174/234
f 38/177/237 37/176/236 36/175/235
f 37/176/236 38/177/237 39/178/238
f 39/178/238 38/177/237 40/179/239
f 40/179/239 14/180/240 39/178/238
f 41/181/241 14/180/240 40/179/239
f 14/180/240 41/181/241 42/182/242
f 42/182/242 41/181/241 43/183/243
f 43/183/243 44/110/244 42/182/242
f 45/184/245 44/110/244 43/183/243
f 301/149/246 44/185/244 45/186/245
f 242/51/246 49/52/246 401/74/246
f 401/74/246 49/52/246 484/110/246
f 18/51/246 299/52/246 363/74/246
f 363/74/246 299/52/246 44/110/246
f 117/51/246 138/52/246 512/74/246
f 512/74/246 138/52/246 49/110/246
f 59/98/247 58/99/247 50/100/247
f 50/100/247 58/99/247 61/101/247
f 51/102/248 60/103/248 62/104/248
f 62/104/248 60/103/248 63/105/248
f 53/106/249 52/107/249 64/108/249
f 64/108/249 52/107/249 54/109/249
f 65/110/250 56/52/250 55/111/250
f 55/111/250 56/52/250 57/112/250
f 57/112/89 58/99/89 55/111/89
f 55/111/89 58/99/89 59/98/89
f 61/101/246 60/103/246 50/100/246
f 50/100/246 60/103/246 51/102/246
f 63/105/90 52/107/90 62/104/90
f 62/104/90 52/107/90 53/106/90
f 54/109/251 56/51/251 64/108/251
f 64/108/251 56/51/251 65/74/251
f 393/51/246 363/52/246 394/74/246
f 394/74/246 363/52/246 66/110/246
f 176/98/247 168/99/247 177/100/247
f 177/100/247 168/99/247 178/101/247
f 170/102/248 169/103/248 179/104/248
f 179/104/248 169/103/248 181/105/248
f 171/106/249 180/107/249 182/108/249
f 182/108/249 180/107/249 172/109/249
f 183/110/250 174/52/250 173/111/250
f 173/111/250 174/52/250 175/112/250
f 175/112/89 168/99/89 173/111/89
f 173/111/89 168/99/89 176/98/89
f 178/101/246 169/103/246 177/100/246
f 177/100/246 169/103/246 170/102/246
f 181/105/90 180/107/90 179/104/90
f 179/104/90 180/107/90 171/106/90
f 172/109/251 174/51/251 182/108/251
f 182/108/251 174/51/251 183/74/251
f 142/51/246 226/52/246 117/74/246
f 117/74/246 226/52/246 138/110/246
f 278/98/250 269/99/250 279/100/250
f 279/100/250 269/99/250 270/101/250
f 281/102/249 280/103/249 282/104/249
f 282/104/249 280/103/249 271/105/249
f 273/106/248 283/107/248 272/108/248
f 272/108/248 283/107/248 274/109/248
f 284/110/247 276/52/247 275/111/247
f 275/111/247 276/52/247 277/112/247
f 277/112/89 269/99/89 275/111/89
f 275/111/89 269/99/89 278/98/89
f 270/101/251 280/103/251 279/100/251
f 279/100/251 280/103/251 281/102/251
f 271/105/90 283/107/90 282/104/90
f 282/104/90 283/107/90 273/106/90
f 274/109/246 276/51/246 272/108/246
f 272/108/246 276/51/246 284/74/246
f 44/51/246 301/52/246 300/74/246
f 300/74/246 301/52/246 302/110/246
f 331/98/247 320/99/247 319/100/247
f 319/100/247 320/99/247 321/101/247
f 332/102/248 323/103/248 322/104/248
f 322/104/248 323/103/248 334/105/248
f 325/106/249 333/107/249 324/108/249
f 324/108/249 333/107/249 326/109/249
f 329/110/250 328/52/250 327/111/250
f 327/111/250 328/52/250 330/112/250
f 330/112/89 320/99/89 327/111/89
f 327/111/89 320/99/89 331/98/89
f 321/101/246 323/103/246 319/100/246
f 319/100/246 323/103/246 332/102/246
f 334/105/90 333/107/90 322/104/90
f 322/104/90 333/107/90 325/106/90
f 326/109/251 328/51/251 324/108/251
f 324/108/251 328/51/251 329/74/251
f 17/51/246 18/52/246 393/74/246
f 393/74/246 18/52/246 363/110/246
f 335/147/252 464/148/253 470/149/254
f 335/147/252 461/150/255 464/148/253
f 336/151/256 461/150/255 335/147/252
f 336/151/256 337/152/257 461/150/255
f 338/153/258 337/152/257 336/151/256
f 338/153/258 467/154/259 337/152/257
f 339/155/260 467/154/259 338/153/258
f 339/155/260 340/156/261 467/154/259
f 341/157/262 340/156/261 339/155/260
f 341/157/262 342/158/263 340/156/261
f 343/159/264 342/158/263 341/157/262
f 343/159/264 344/160/265 342/158/263
f 345/161/266 344/160/265 343/159/264
f 345/161/266 346/162/267 344/160/265
f 347/163/268 346/162/267 345/161/266
f 346/162/267 347/163/268 348/164/269
f 348/164/269 347/163/268 349/165/270
f 349/165/270 350/166/271 348/164/269
f 351/167/272 350/166/271 349/165/270
f 351/167/272 352/168/273 350/166/271
f 353/169/274 352/168/273 351/167/272
f 352/168/273 353/169/274 477/170/275
f 477/170/275 353/169/274 354/171/276
f 354/171/276 478/172/277 477/170/275
f 355/173/278 478/172/277 354/171/276
f 478/172/277 355/173/278 356/174/279
f 356/174/279 355/173/278 357/175/280
f 357/175/280 480/176/281 356/174/279
f 358/177/282 480/176/281 357/175/280
f 480/176/281 358/177/282 482/178/283
f 482/178/283 358/177/282 359/179/284
f 359/179/284 483/180/285 482/178/283
f 360/181/286 483/180/285 359/179/284
f 483/180/285 360/181/286 361/182/287
f 361/182/287 360/181/286 362/183/288
f 362/183/288 44/110/289 361/182/287
f 66/184/290 44/110/289 362/183/288
f 363/149/246 44/185/289 66/186/290
f 202/51/246 393/52/246 392/74/246
f 392/74/246 393/52/246 394/110/246
f 409/98/247 408/99/247 410/100/247
f 410/100/247 408/99/247 402/101/247
f 412/102/248 411/103/248 403/104/248
f 403/104/248 411/103/248 413/105/248
f 405/106/249 404/107/249 414/108/249
f 414/108/249 404/107/249 416/109/249
f 417/110/250 415/52/250 406/111/250
f 406/111/250 415/52/250 407/112/250
f 407/112/89 408/99/89 406/111/89
f 406/111/89 408/99/89 409/98/89
f 402/101/246 411/103/246 410/100/246
f 410/100/246 411/103/246 412/102/246
f 413/105/90 404/107/90 403/104/90
f 403/104/90 404/107/90 405/106/90
f 416/109/251 415/51/251 414/108/251
f 414/108/251 415/51/251 417/74/251
f 494/98/247 493/99/247 485/100/247
f 485/100/247 493/99/247 496/101/247
f 486/102/248 495/103/248 497/104/248
f 497/104/248 495/103/248 487/105/248
f 488/106/249 498/107/249 499/108/249
f 499/108/249 498/107/249 489/109/249
f 500/110/250 491/52/250 490/111/250
f 490/111/250 491/52/250 492/112/250
f 492/112/89 493/99/89 490/111/89
f 490/111/89 493/99/89 494/98/89
f 496/101/246 495/103/246 485/100/246
f 485/100/246 495/103/246 486/102/246
f 487/105/90 498/107/90 497/104/90
f 497/104/90 498/107/90 488/106/90
f 489/109/251 491/51/251 499/108/251
f 499/108/251 491/51/251 500/74/251
f 501/51/246 17/52/246 202/74/246
f 202/74/246 17/52/246 393/110/246
f 401/51/246 484/52/246 82/74/246
f 82/74/246 484/52/246 519/110/246

usemtl floor_C_wet
f 47/51/251 46/52/251 16/74/251
f 16/74/251 46/52/251 520/110/251
f 46/51/251 460/52/251 96/74/251
f 96/74/251 460/52/251 97/110/251
f 96/51/251 521/52/251 46/74/251
f 46/74/251 521/52/251 520/110/251
f 46/51/251 47/52/251 460/74/251
f 460/74/251 47/52/251 397/110/251

usemtl floor_A
f 48/51/251 523/52/251 366/74/251
f 366/74/251 523/52/251 387/110/251
f 83/51/251 81/52/251 227/74/251
f 227/74/251 81/52/251 151/110/251
f 227/51/251 151/52/251 364/74/251
f 364/74/251 151/52/251 225/110/251
f 522/51/251 364/52/251 386/74/251
f 386/74/251 364/52/251 365/110/251
f 520/51/251 366/52/251 16/74/251
f 16/74/251 366/52/251 367/110/251
f 365/51/251 368/52/251 98/74/251
f 98/74/251 368/52/251 369/110/251
f 387/51/251 386/52/251 418/74/251
f 418/74/251 386/52/251 99/110/251
f 366/51/251 387/52/251 367/74/251
f 367/74/251 387/52/251 418/110/251
f 364/51/251 225/52/251 365/74/251
f 365/74/251 225/52/251 368/110/251
f 386/51/251 365/52/251 99/74/251
f 99/74/251 365/52/251 98/110/251
f 521/51/251 48/52/251 520/74/251
f 520/74/251 48/52/251 366/110/251
f 523/51/251 522/52/251 387/74/251
f 387/74/251 522/52/251 386/110/251

usemtl brick_A
f 242/49/115 401/50/115 364/51/115
f 364/51/115 401/50/115 227/52/115
f 151/187/116 395/51/116 484/188/116
f 484/188/116 395/51/116 396/189/116
f 484/188/115 396/189/115 151/187/115
f 151/187/115 396/189/115 395/51/115
f 227/187/116 95/51/116 401/188/116
f 401/188/116 95/51/116 94/189/116
f 401/188/115 94/189/115 227/187/115
f 227/187/115 94/189/115 95/51/115
f 484/49/116 49/50/116 151/51/116
f 151/51/116 49/50/116 225/52/116

usemtl concrete_A
f 287/190/115 286/191/115 285/192/115
f 287/190/115 285/192/115 2/193/115
f 288/194/115 285/192/115 2/193/115
f 288/194/115 2/193/115 4/195/115
f 288/194/115 4/195/115 289/196/115
f 288/194/115 289/196/115 290/197/115
f 288/194/115 290/197/115 296/198/115
f 288/194/115 296/198/115 297/199/115
f 288/194/115 297/199/115 298/200/115
f 288/194/115 298/200/115 28/201/115
f 288/194/115 28/201/115 30/202/115
f 288/194/115 30/202/115 291/203/115
f 288/194/115 291/203/115 33/204/115
f 288/194/115 33/204/115 292/205/115
f 288/194/115 292/205/115 293/206/115
f 288/194/115 293/206/115 37/207/115
f 42/208/115 288/194/115 44/209/115
f 299/210/115 288/194/115 294/211/115
f 294/211/115 288/194/115 285/192/115
f 294/211/115 285/192/115 295/212/115
f 295/212/115 285/192/115 286/191/115
f 39/213/116 288/194/116 37/207/116
f 14/214/116 288/194/116 39/213/116
f 14/214/116 42/208/116 288/194/116
f 299/210/116 285/192/116 288/194/116
f 294/211/116 285/192/116 299/210/116
f 294/211/116 286/191/116 285/192/116
f 295/212/116 286/191/116 294/211/116
f 380/190/115 371/191/115 370/192/115
f 380/190/115 370/192/115 419/193/115
f 419/193/115 370/192/115 142/194/115
f 381/195/115 419/193/115 142/194/115
f 374/199/115 373/198/115 142/194/115
f 425/200/115 374/199/115 142/194/115
f 375/202/115 426/201/115 142/194/115
f 376/203/115 375/202/115 142/194/115
f 429/204/115 376/203/115 142/194/115
f 432/214/115 142/194/115 377/208/115
f 378/210/115 142/194/115 385/211/115
f 385/211/115 142/194/115 370/192/115
f 385/211/115 370/192/115 379/212/115
f 379/212/115 370/192/115 371/191/115
f 381/195/116 142/194/116 372/196/116
f 372/196/116 142/194/116 422/197/116
f 422/197/116 142/194/116 373/198/116
f 425/200/116 142/194/116 426/201/116
f 429/204/116 142/194/116 430/205/116
f 430/205/116 142/194/116 382/206/116
f 382/206/116 142/194/116 383/207/116
f 383/207/116 142/194/116 384/213/116
f 384/213/116 142/194/116 432/214/116
f 377/208/116 117/209/116 142/194/116
f 378/210/116 370/192/116 142/194/116
f 385/211/116 370/192/116 378/210/116
f 385/211/116 371/191/116 370/192/116
f 379/212/116 371/191/116 385/211/116
f 511/192/116 146/191/116 101/190/116
f 503/193/116 511/192/116 101/190/116
f 512/194/116 511/192/116 503/193/116
f 512/194/116 503/193/116 504/195/116
f 512/194/116 504/195/116 505/196/116
f 512/194/116 505/196/116 506/197/116
f 512/194/116 506/197/116 514/198/116
f 512/194/116 514/198/116 515/199/116
f 512/194/116 515/199/116 516/200/116
f 512/194/116 516/200/116 517/201/116
f 512/194/116 517/201/116 507/202/116
f 512/194/116 507/202/116 518/203/116
f 512/194/116 518/203/116 508/204/116
f 512/194/116 508/204/116 509/205/116
f 512/194/116 509/205/116 109/206/116
f 512/194/116 109/206/116 111/207/116
f 512/194/116 111/207/116 113/213/116
f 512/194/116 113/213/116 115/214/116
f 513/212/116 511/192/116 146/191/116
f 115/214/115 510/208/115 512/194/115
f 510/208/115 117/209/115 512/194/115

