# WaveFront *.obj file (generated by CINEMA 4D)

mtllib ./sector_08.mtl

v -28.00009918212891 -2.54987406730652 -4.04176092147827
v -24.00009918212891 -2.75815010070801 -4.0114860534668
v -24.00009918212891 -2.54987406730652 -4.04176092147827
v -28.00009918212891 -2.75815010070801 -4.0114860534668
v -24 -3 -4
v -24.00009918212891 -2.36936688423157 -4.08540821075439
v -24.00009918212891 -2.16834688186646 -4.1541748046875
v -24.00009918212891 -2.01136803627014 -4.22262001037598
v -24.00009918212891 -1.85204899311066 -4.30462980270386
v -28.00009918212891 -1.6107360124588 -4.45277976989746
v -24.00009918212891 -1.6107360124588 -4.45277976989746
v -24.00009918212891 -1.40876698493958 -4.60467195510864
v -28.00009918212891 -1.21920597553253 -4.77666902542114
v -24.00009918212891 -1.21920597553253 -4.77666902542114
v -28.00009918212891 -1.05587697029114 -4.95162487030029
v -24.00009918212891 -1.05587697029114 -4.95162487030029
v -28.00009918212891 -0.87877941131592 -5.1717209815979
v -24.00009918212891 -0.87877941131592 -5.1717209815979
v -28.00009918212891 -0.66824817657471 -5.4796781539917
v -24.00009918212891 -0.66824817657471 -5.4796781539917
v -28.00009918212891 -0.50313210487366 -5.77558708190918
v -24.00009918212891 -0.50313210487366 -5.77558708190918
v -28.00009918212891 -0.36128088831902 -6.09222316741943
v -24.00009918212891 -0.36128088831902 -6.09222316741943
v -28.00009918212891 -0.22846150398254 -6.46941423416138
v -24.00009918212891 -0.22846150398254 -6.46941423416138
v -28.00009918212891 -0.10909820348024 -6.92091798782349
v -24.00009918212891 -0.10909820348024 -6.92091798782349
v -24.00009918212891 -0.038365598768 -7.33927297592163
v -24.00009918212891 -0.01040816027671 -7.64619398117065
v -23.99990081787109 -0.00009989737737 -7.99997615814209
v -32.0417594909668 -2.54987406730652 0.00009894371033
v -32.01148986816406 -2.75815010070801 0.00009894371033
v -32.08541107177734 -2.36936688423157 0.00009894371033
v -32.60467147827148 -1.40876698493958 -3.99990105628967
v -32.77666854858398 -1.21920597553253 0.00009894371033
v -33.17171859741211 -0.87877941131592 -3.99990105628967
v -33.47967910766602 -0.66824817657471 0.00009918212891
v -33.47967910766602 -0.66824817657471 -3.99990105628967
v -34.92092132568359 -0.10909820348024 0.00009918212891
v -35.33927917480469 -0.038365598768 0.00009942054749
v -35.64619064331055 -0.01040816027671 0.00009942054749
v -44.00004959106445 -4 4.00010013580322
v -31.99990081787109 -2.75815010070801 -11.98851013183594
v -27.99990081787109 -2.36936688423157 -11.91458988189697
v -31.99990081787109 -2.36936688423157 -11.91458988189697
v -27.99990081787109 -2.16834688186646 -11.84582996368408
v -27.99990081787109 -2.01136803627014 -11.77737998962402
v -31.99990081787109 -2.01136803627014 -11.77737998962402
v -27.99990081787109 -1.85204899311066 -11.69536972045898
v -27.99990081787109 -1.6107360124588 -11.54722023010254
v -27.99990081787109 -1.40876698493958 -11.39533042907715
v -31.99990081787109 -1.21920597553253 -11.22332954406738
v -31.99990081787109 -1.05587697029114 -11.04837989807129
v -31.99990081787109 -0.87877959012985 -10.82828044891357
v -31.99990081787109 -0.66824817657471 -10.52031993865967
v -31.99990081787109 -0.50313210487366 -10.22441005706787
v -27.99990081787109 -0.22846150398254 -9.53058624267578
v -31.99990081787109 -0.22846150398254 -9.53058624267578
v -27.99990081787109 -0.10909820348024 -9.07908344268799
v -31.99990081787109 -0.10909870266914 -9.07908153533936
v -27.99990081787109 -0.038365598768 -8.66072845458984
v -31.99990081787109 -0.038365598768 -8.66072654724121
v -27.99990081787109 -0.01040816027671 -8.35380554199219
v -31.99990081787109 -0.01040816027671 -8.35380554199219
v -35.99990081787109 -0.00009989737737 -7.99997711181641
v -35.84236145019531 -0.02404581941664 -0.00000091556541
v -35.96752166748047 -0.02404534071684 3.99999904632568
v -35.84236145019531 -0.02404581941664 3.99999904632568
v -35.82062911987305 -0.00000067353938 0.00000001170392
v -35.82062911987305 -0.00000067353938 4
v -32 -4.0001049041748 -4.00010204315186
v -35.99995040893555 -4 0.00009989737737
v -28.00009918212891 0.00009489058721 -4
v -32 0.00009489058721 -4.00010204315186
v -35.99990081787109 -4.0001049041748 4
v -24 -2.84235906600952 -11.97595977783203
v -24 -2.96751689910889 -11.97595977783203
v -23.99990081787109 -3.00009989738464 -11.99985027313232
v -24 -2.82063293457031 -12
v -25.5 -4 -7.53200006484985
v -24.5319995880127 0 -7.5
v -25.4680004119873 -4 -7.5
v -25.4680004119873 0 -7.5
v -24.5319995880127 -4 -7.5
v -24.5 0 -7.53200006484985
v -24.5 -4 -8.4680004119873
v -24.5319995880127 -4 -8.5
v -24.5319995880127 0 -8.5
v -25.4680004119873 0 -8.5
v -25.5 -4 -8.4680004119873
v -25.4680004119873 -4 -8.5
v -25.5 0 -8.4680004119873
v -25.5 0 -7.53200006484985
v -24.5 -4 -7.53200006484985
v -24.5 0 -8.4680004119873
v -32.00009918212891 -0.00009989737737 -8.00002384185791
v -31.98999977111816 -2.75804996490479 -4.00024700164795
v -32.00009918212891 -2.75815010070801 -4.0114860534668
v -32.00009918212891 -2.54987406730652 -4.04176092147827
v -32.00009918212891 -2.01136803627014 -4.22262001037598
v -32.00009918212891 -1.85204994678497 -4.30462884902954
v -32.00009918212891 -1.6107360124588 -4.45277976989746
v -32.00009918212891 -1.05587697029114 -4.95162487030029
v -32.00009918212891 -0.87877959012985 -5.1717209815979
v -32.00009918212891 -0.50313210487366 -5.77558708190918
v -31.9997501373291 0 -3.99000000953674
v -32.00009918212891 -2.36936688423157 -4.08540821075439
v -32.00009918212891 -2.16834688186646 -4.1541748046875
v -32.00009918212891 -1.40876698493958 -4.60467195510864
v -32.00009918212891 -1.21920597553253 -4.77666902542114
v -32.00009918212891 -0.36128118634224 -6.09222316741943
v -32.00009918212891 -0.22846150398254 -6.46941423416138
v -32.00009918212891 -0.10909870266914 -6.92091798782349
v -32.00009918212891 -0.038365598768 -7.33927297592163
v -32.00009918212891 -0.01040816027671 -7.64619398117065
v -31.9997501373291 -3 -3.99000000953674
v -32.02404022216797 -2.96751689910889 -4
v -32.02404022216797 -2.84235906600952 -4
v -32 -2.82063293457031 -0.00000000101282
v -32 -2.82063293457031 -4
v -32 -2.84235906600952 -4.02404499053955
v -28 -2.96751689910889 -4.02404499053955
v -28 -2.84235906600952 -4.02404499053955
v -32 -2.96751689910889 -4.02404499053955
v -28.00009918212891 -3.00009989738464 -4.00014781951904
v -28 -2.82063293457031 -4
v -28.00004959106445 -4 -7.99989986419678
v -36 -2.96751689910889 -11.97595977783203
v -32 -2.96751689910889 -11.97595977783203
v -32 -3 -12
v -32 -2.82063293457031 -12
v -36 -2.84235906600952 -11.97595977783203
v -36 -2.82063293457031 -12
v -32 -2.84235906600952 -11.97595977783203
v -36.00004959106445 -4 -8.00010013580322
v -31.99995040893555 -4 -8.00010013580322
v -40.00004959106445 -4 -4.00010013580322
v -40.00019836425781 -4 0.00000143051102
v -24 -2.96751689910889 -4.02404499053955
v -24 -2.84235906600952 -4.02404499053955
v -24 -2.82063293457031 -4
v -32.0417594909668 -2.54987406730652 4.00010013580322
v -32.01148986816406 -2.75815010070801 4.00010013580322
v -32.08541107177734 -2.36936688423157 4.00010013580322
v -32.15417098999023 -2.16834688186646 4.00010013580322
v -32.15417098999023 -2.16834688186646 0.00009894371033
v -32.22261810302734 -2.01136803627014 4.00010013580322
v -32.22261810302734 -2.01136803627014 0.00009894371033
v -32.30463027954102 -1.85204994678497 4.00010013580322
v -32.30463027954102 -1.85204899311066 0.00009894371033
v -32.45278167724609 -1.6107360124588 4.00010013580322
v -32.45278167724609 -1.6107360124588 0.00009894371033
v -32.60467147827148 -1.40876698493958 4.00010013580322
v -32.60467147827148 -1.40876698493958 0.00009894371033
v -32.77666854858398 -1.21920597553253 4.00010108947754
v -32.95162963867188 -1.05587697029114 4.00010108947754
v -32.95162963867188 -1.05587697029114 0.00009894371033
v -33.17171859741211 -0.87877959012985 4.00010108947754
v -33.17171859741211 -0.87877941131592 0.00009918212891
v -33.47967910766602 -0.66824817657471 4.00010108947754
v -33.77558898925781 -0.50313210487366 4.00010108947754
v -33.77558898925781 -0.50313210487366 0.00009918212891
v -34.09222030639648 -0.36128118634224 4.00010108947754
v -34.09222030639648 -0.36128088831902 0.00009918212891
v -34.46940994262695 -0.22846150398254 4.00010108947754
v -34.46940994262695 -0.22846150398254 0.00009918212891
v -34.92092132568359 -0.10909870266914 4.00010108947754
v -35.33927917480469 -0.038365598768 4.00010108947754
v -35.64619064331055 -0.01040816027671 4.00010108947754
v -35.99990081787109 0.00009489058721 4
v -40.00004959106445 0.00000078548072 -4.00010013580322
v -44.00004959106445 -4 -0.00009989737737
v -32.02404022216797 -2.96751689910889 -0.00000000304984
v -32.02404022216797 -2.84235906600952 -0.00000000375655
v -32.02404022216797 -2.96751689910889 4.00000095367432
v -32 -3 -0
v -32 -3 4.00000095367432
v -32 -2.82063293457031 4.00000095367432
v -32.02404022216797 -2.84235906600952 4.00000095367432
v -39.99995040893555 -0.0000001115129 4.00010013580322
v -40.00019836425781 0 0.00000143051102
v -28.00009918212891 -4.0001049041748 -12
v -31.99990081787109 0.00009489058721 -12
v -28.00009918212891 0.00009489058721 -12
v -31.99990081787109 -4.0001049041748 -12
v -31.99990081787109 -2.54987406730652 -11.95823955535889
v -35.99990081787109 -2.75815010070801 -11.98851013183594
v -35.99990081787109 -2.54987406730652 -11.95823955535889
v -35.99990081787109 -3.00009989738464 -11.99985027313232
v -35.99990081787109 -2.36936688423157 -11.91458988189697
v -31.99990081787109 -2.16834688186646 -11.84582996368408
v -35.99990081787109 -2.16834688186646 -11.84582996368408
v -35.99990081787109 -2.01136803627014 -11.77737998962402
v -31.99990081787109 -1.85204994678497 -11.69536972045898
v -35.99990081787109 -1.85204899311066 -11.69536972045898
v -31.99990081787109 -1.6107360124588 -11.54722023010254
v -35.99990081787109 -1.6107360124588 -11.54722023010254
v -31.99990081787109 -1.40876698493958 -11.39533042907715
v -35.99990081787109 -1.40876698493958 -11.39533042907715
v -35.99990081787109 -1.21920597553253 -11.22332954406738
v -35.99990081787109 -1.05587697029114 -11.04837989807129
v -35.99990081787109 -0.87877941131592 -10.82828044891357
v -35.99990081787109 -0.66824817657471 -10.52031993865967
v -35.99990081787109 -0.50313210487366 -10.22441005706787
v -31.99990081787109 -0.36128118634224 -9.90777778625488
v -35.99990081787109 -0.36128088831902 -9.90777778625488
v -35.99990081787109 -0.22846150398254 -9.53058624267578
v -35.99990081787109 -0.10909820348024 -9.07908344268799
v -35.99990081787109 -0.038365598768 -8.66072845458984
v -35.99990081787109 -0.01040816027671 -8.35380554199219
v -28.00009918212891 -2.36936688423157 -4.08540821075439
v -28.00009918212891 -2.16834688186646 -4.1541748046875
v -28.00009918212891 -2.01136803627014 -4.22262001037598
v -28.00009918212891 -1.85204899311066 -4.30462980270386
v -28.00009918212891 -1.40876698493958 -4.60467195510864
v -32.00009918212891 -0.66824817657471 -5.4796781539917
v -28.00009918212891 -0.038365598768 -7.33927297592163
v -28.00009918212891 -0.01040816027671 -7.64619398117065
v -27.99990081787109 -0.00009989737737 -7.99997711181641
v -28 -2.96751689910889 -11.97595977783203
v -28 -2.82063293457031 -12
v -28 -2.84235906600952 -11.97595977783203
v -36.00009918212891 0.00009489058721 -12
v -36.00009918212891 -4.0001049041748 -12
v -32.04360961914062 -2.5497739315033 -4.00024795532227
v -32.08726119995117 -2.36926698684692 -4.00024795532227
v -32.15602111816406 -2.16824698448181 -4.00024795532227
v -32.30648040771484 -1.85194897651672 -4.00024795532227
v -33.77539825439453 -0.50416970252991 -4.00025320053101
v -34.09407043457031 -0.36118099093437 -4.00025415420532
v -34.47126007080078 -0.22836139798164 -4.00025510787964
v -34.92277145385742 -0.10899829864502 -4.00025606155396
v -35.34112167358398 -0.03826547041535 -4.00025701522827
v -35.64804077148438 -0.01030803006142 -4.00025796890259
v -31.98999977111816 0 -4.00024700164795
v -31.98999977111816 -3 -4.00024700164795
v -32.00199890136719 -3 -4.00024700164795
v -32.01333999633789 -2.75804996490479 -4.00024700164795
v -32.22446823120117 -2.01126790046692 -4.00024795532227
v -32.45463180541992 -1.61063599586487 -4.00024890899658
v -32.60652160644531 -1.40866696834564 -4.00024890899658
v -32.77851867675781 -1.2191059589386 -4.0002498626709
v -32.9534797668457 -1.0557769536972 -4.0002498626709
v -33.17356872558594 -0.87867951393127 -4.00025081634521
v -33.48152923583984 -0.66814798116684 -4.00025177001953
v -32 -4.0001049041748 4.00010013580322
v -31.5 0 -7.53200006484985
v -31.5 0 -8.4680004119873
v -31.5 -4 -7.53200006484985
v -31.4680004119873 0 -7.5
v -30.5319995880127 -4 -7.5
v -30.5 -4 -7.53200006484985
v -30.5 -4 -8.4680004119873
v -31.4680004119873 0 -8.5
v -30.5319995880127 -4 -8.5
v -30.5319995880127 0 -8.5
v -31.4680004119873 -4 -8.5
v -31.5 -4 -8.4680004119873
v -31.4680004119873 -4 -7.5
v -30.5319995880127 0 -7.5
v -30.5 0 -7.53200006484985
v -30.5 0 -8.4680004119873
v -32 -4.0001049041748 -0.00010156630015
v -32 0.00009489058721 -0.00010156630015
v -32 0.00009489058721 4.00010013580322
v -23.99995040893555 -4 -7.99989986419678
v -23.99990081787109 -4.0001049041748 -12
v -23.99990081787109 0.00009489058721 -12
v -40.00009918212891 -4.0001049041748 4
v -44.00004959106445 0.00000034542131 4.00010013580322
v -44.00004959106445 0.00000078548072 -0.00009965897334
v -28.00009918212891 -4.0001049041748 -4
v -23.99990081787109 0.00009489058721 -4
v -23.99990081787109 -4.0001049041748 -4
v -23.99990081787109 -2.54987406730652 -11.95823955535889
v -27.99990081787109 -2.75815010070801 -11.98851013183594
v -27.99990081787109 -2.54987406730652 -11.95823955535889
v -23.99990081787109 -2.75815010070801 -11.98851013183594
v -27.99990081787109 -3.00009989738464 -11.99985027313232
v -23.99990081787109 -2.36936688423157 -11.91458988189697
v -23.99990081787109 -2.16834688186646 -11.84582996368408
v -23.99990081787109 -2.01136803627014 -11.77737998962402
v -23.99990081787109 -1.85204994678497 -11.69536972045898
v -23.99990081787109 -1.6107360124588 -11.54722023010254
v -23.99990081787109 -1.40876698493958 -11.39533042907715
v -23.99990081787109 -1.21920597553253 -11.22332954406738
v -27.99990081787109 -1.21920597553253 -11.22332954406738
v -23.99990081787109 -1.05587697029114 -11.04837989807129
v -27.99990081787109 -1.05587697029114 -11.04837989807129
v -23.99990081787109 -0.87877959012985 -10.82828044891357
v -27.99990081787109 -0.87877941131592 -10.82828044891357
v -23.99990081787109 -0.66824817657471 -10.52031993865967
v -27.99990081787109 -0.66824817657471 -10.52031993865967
v -23.99990081787109 -0.50313210487366 -10.22441005706787
v -27.99990081787109 -0.50313210487366 -10.22441005706787
v -23.99990081787109 -0.36128118634224 -9.90777778625488
v -27.99990081787109 -0.36128088831902 -9.90777778625488
v -23.99990081787109 -0.22846150398254 -9.53058624267578
v -23.99990081787109 -0.10909870266914 -9.07908153533936
v -23.99990081787109 -0.038365598768 -8.66072654724121
v -23.99990081787109 -0.01040816027671 -8.35380554199219
v -39.47789001464844 0 -0.03421926125884
v -39.47789001464844 -4 -0.03421926125884
v -38.96472930908203 0 -0.13629530370235
v -38.96472930908203 -4 -0.13629530370235
v -38.46926116943359 0 -0.30448031425476
v -38.46926116943359 -4 -0.30448031425476
v -38 0 -0.53589701652527
v -38 -4 -0.53589701652527
v -37.56494903564453 0 -0.82658529281616
v -37.56494903564453 -4 -0.82658529281616
v -37.17156982421875 0 -1.17157101631165
v -37.17156982421875 -4 -1.17157101631165
v -36.82659149169922 0 -1.56495296955109
v -36.82659149169922 -4 -1.56495296955109
v -36.5359001159668 0 -1.99999904632568
v -36.5359001159668 -4 -1.99999904632568
v -36.30448150634766 0 -2.46926498413086
v -36.30448150634766 -4 -2.46926498413086
v -36.13629913330078 0 -2.96472311019897
v -36.13629913330078 -4 -2.96472311019897
v -36.03422164916992 0 -3.4778950214386
v -36.03422164916992 -4 -3.4778950214386
v -36 0.00015366080333 -4
v -36 -4 -4.00019884109497
v -35.96752166748047 -0.02404534071684 -0.0000009237321
v -35.96752166748047 -0.02389167994261 -4.00000095367432
v -36 -0 0
v -35.82062911987305 0.00015298719518 -4
v -35.84236145019531 -0.02389214932919 -4.00000095367432
# 331 vertices

vn 0 -0.20481650531292 -0.97880041599274
vn 0 -0.11159418523312 -0.99375385046005
vn 0 -0.17440927028656 -0.98467326164246
vn 0 -0.07921981066465 -0.99685716629028
vn 0 -0.04678266122937 -0.99890506267548
vn 0 -0.264817237854 -0.96429860591888
vn 0 -0.29438447952271 -0.95568704605103
vn 0 -0.3492596745491 -0.9370259642601
vn 0 -0.37460514903069 -0.9271844625473
vn 0 -0.41919687390327 -0.90789532661438
vn 0 -0.4385424554348 -0.89871048927307
vn 0 -0.47982400655746 -0.87736475467682
vn 0 -0.50167179107666 -0.86505806446075
vn 0 -0.54969972372055 -0.83536231517792
vn 0 -0.57567298412323 -0.81768000125885
vn 0 -0.62527418136597 -0.78040516376495
vn 0 -0.64893382787704 -0.7608448266983
vn 0 -0.69217067956924 -0.7217338681221
vn 0 -0.7118564248085 -0.70232498645782
vn 0 -0.7474627494812 -0.66430371999741
vn 0 -0.76351308822632 -0.64579230546951
vn 0 -0.79511737823486 -0.60645550489426
vn 0 -0.81060093641281 -0.58559894561768
vn 0 -0.84220045804977 -0.53916454315186
vn 0 -0.85814023017883 -0.51341539621353
vn 0 -0.88713693618774 -0.46150624752045
vn 0 -0.90026158094406 -0.43534937500954
vn 0 -0.92351275682449 -0.38356778025627
vn 0 -0.93373167514801 -0.35797369480133
vn 0 -0.95176810026169 -0.3068183362484
vn 0 -0.95962285995483 -0.28128978610039
vn 0 -0.97408956289291 -0.2261625379324
vn 0 -0.98050367832184 -0.19650073349476
vn 0 -0.98994261026382 -0.14146949350834
vn 0 -0.99323797225952 -0.11609599739313
vn 0 -0.99753379821777 -0.07018768042326
vn 0 -0.99876630306244 -0.04965706169605
vn 0 -0.99957668781281 -0.02909416332841
vn -0.97880041599274 -0.20481650531292 0
vn -0.99375385046005 -0.11159418523312 0
vn -0.98467326164246 -0.17440927028656 0
vn -0.99685716629028 -0.07921981066465 0
vn -0.99890506267548 -0.04678266122937 0
vn -0.96429860591888 -0.264817237854 0
vn -0.95568704605103 -0.29438447952271 0
vn -0.9370259642601 -0.3492596745491 0
vn -0.9271844625473 -0.37460514903069 0
vn -0.90789532661438 -0.41919687390327 0
vn -0.89871048927307 -0.4385424554348 0
vn -0.87736475467682 -0.47982400655746 0
vn -0.86505806446075 -0.50167179107666 0
vn -0.83536231517792 -0.54969972372055 0
vn -0.81768000125885 -0.57567298412323 0
vn -0.78040516376495 -0.62527418136597 0
vn -0.7608448266983 -0.64893382787704 0
vn -0.7217338681221 -0.69217067956924 0
vn -0.70232498645782 -0.7118564248085 0
vn -0.66430371999741 -0.7474627494812 0
vn -0.64579230546951 -0.76351308822632 0
vn -0.60645550489426 -0.79511737823486 0
vn -0.58559894561768 -0.81060093641281 0
vn -0.53916454315186 -0.84220045804977 0
vn -0.51341539621353 -0.85814023017883 0
vn -0.46150624752045 -0.88713693618774 0
vn -0.43534937500954 -0.90026158094406 0
vn -0.38356778025627 -0.92351275682449 0
vn -0.35797369480133 -0.93373167514801 0
vn -0.3068183362484 -0.95176810026169 0
vn -0.28128978610039 -0.95962285995483 0
vn -0.2261625379324 -0.97408956289291 0
vn -0.19650073349476 -0.98050367832184 0
vn -0.14146949350834 -0.98994261026382 0
vn -0.11609599739313 -0.99323797225952 0
vn -0.07018768042326 -0.99753379821777 0
vn -0.04965706169605 -0.99876630306244 0
vn -0.02909416332841 -0.99957668781281 0
vn 0 0 -1
vn 0 -0.20481650531292 0.97880041599274
vn 0 -0.11159418523312 0.99375385046005
vn 0 -0.17440927028656 0.98467326164246
vn 0 -0.07921981066465 0.99685716629028
vn 0 -0.04678266122937 0.99890506267548
vn 0 -0.264817237854 0.96429860591888
vn 0 -0.29438447952271 0.95568704605103
vn 0 -0.3492596745491 0.9370259642601
vn 0 -0.37460514903069 0.9271844625473
vn 0 -0.41919687390327 0.90789532661438
vn 0 -0.4385424554348 0.89871048927307
vn 0 -0.47982400655746 0.87736475467682
vn 0 -0.50167179107666 0.86505806446075
vn 0 -0.54969972372055 0.83536231517792
vn 0 -0.57567298412323 0.81768000125885
vn 0 -0.62527418136597 0.78040516376495
vn 0 -0.64893382787704 0.7608448266983
vn 0 -0.69217067956924 0.7217338681221
vn 0 -0.7118564248085 0.70232498645782
vn 0 -0.7474627494812 0.66430371999741
vn 0 -0.76351308822632 0.64579230546951
vn 0 -0.79511737823486 0.60645550489426
vn 0 -0.81060093641281 0.58559894561768
vn 0 -0.84220045804977 0.53916454315186
vn 0 -0.85814023017883 0.51341539621353
vn 0 -0.88713693618774 0.46150624752045
vn 0 -0.90026158094406 0.43534937500954
vn 0 -0.92351275682449 0.38356778025627
vn 0 -0.93373167514801 0.35797369480133
vn 0 -0.95176810026169 0.3068183362484
vn 0 -0.95962285995483 0.28128978610039
vn 0 -0.97408956289291 0.2261625379324
vn 0 -0.98050367832184 0.19650073349476
vn 0 -0.98994261026382 0.14146949350834
vn 0 -0.99323797225952 0.11609599739313
vn 0 -0.99753379821777 0.07018768042326
vn 0 -0.99876630306244 0.04965706169605
vn 0 -0.99957668781281 0.02909416332841
vn 0 1 0
vn 1 0 0
vn 0.53542083501816 -0.84458541870117 -0.00003125084913
vn -0.20756945014 -0.97822028398514 -0.00003125104558
vn 0.26768898963928 -0.96350538730621 -0.00003125017611
vn -0.41516810655594 -0.90974473953247 -0.00003125089279
vn -0.59496289491653 -0.8037531375885 0
vn 0.74198281764984 -0.67041891813278 0
vn 0 0 -1
vn 0 0.53542083501816 0.84458541870117
vn 0 -0.20756945014 0.97822028398514
vn 0 0.26769703626633 0.96350312232971
vn 0 -0.41516810655594 0.90974473953247
vn 0 -0.59494799375534 0.80376422405243
vn 0 0.74198281764984 0.67041891813278
vn -1 0 0
vn 0 0 1
vn -0.70710676908493 0 -0.70710676908493
vn -0.70710676908493 0 0.70710676908493
vn 0.70710676908493 0 0.70710676908493
vn 0.70710676908493 0 -0.70710676908493
vn 0 -1 0
vn -0.84458541870117 0.53542083501816 0
vn -0.97822028398514 -0.20756945014 0
vn -0.96350312232971 0.26769703626633 0
vn -0.90974473953247 -0.41516810655594 0
vn -0.80376422405243 -0.59494799375534 0
vn -0.67041891813278 0.74198281764984 0
vn 0 0.53542083501816 -0.84458541870117
vn 0 -0.20756945014 -0.97822028398514
vn 0 0.26769703626633 -0.96350312232971
vn 0 -0.41516810655594 -0.90974473953247
vn 0 -0.59494799375534 -0.80376422405243
vn 0 0.74198281764984 -0.67041891813278
vn 0 0 1
vn 0.03271963447332 0 0.99946457147598
vn 0.10881585627794 0 0.9940619468689
vn 0.15212762355804 0 0.98836088180542
vn 0.23765753209591 0 0.97134900093079
vn 0.27984762191772 0 0.96004444360733
vn 0.36241307854652 0 0.93201756477356
vn 0.40276059508324 0 0.91530537605286
vn 0.48095270991325 0 0.87674653530121
vn 0.51879549026489 0 0.85489839315414
vn 0.59129458665848 0 0.80645567178726
vn 0.62595188617706 0 0.77986168861389
vn 0.6914843916893 0 0.72239136695862
vn 0.72239136695862 0 0.6914843916893
vn 0.77986168861389 0 0.62595188617706
vn 0.80645567178726 0 0.59129458665848
vn 0.85489839315414 0 0.51879549026489
vn 0.87674653530121 0 0.48095270991325
vn 0.91530537605286 0 0.40276059508324
vn 0.93201756477356 0 0.36241307854652
vn 0.96004444360733 0 0.27984762191772
vn 0.97134900093079 0 0.23765753209591
vn 0.98836088180542 0 0.15212762355804
vn 0.9940619468689 0 0.10881585627794
vn 0.99946457147598 0 0.03271963447332
# 174 normals

vt 0.99996948242188 0.08192443847656 0
vt 0.99996948242188 0.04383850097656 0
vt 0.00005350727952 0.08192443847656 0
vt 0.00003473367906 0.04385375976562 0
vt 0.99996948242188 0 0
vt 0.00005069654071 0.11552429199219 0
vt 0.99996948242188 0.11552429199219 0
vt 0.00005912873894 0.15396118164062 0
vt 0.99996948242188 0.15396118164062 0
vt 0.0000428641215 0.18495178222656 0
vt 0.99996948242188 0.1849365234375 0
vt 0.00003051758176 0.00001525878906 0
vt 0.00003340375042 0.2173615694046 0
vt 0.99996948242188 0.2173615694046 0
vt 0.00004936661935 0.26860058307648 0
vt 0.99996948242188 0.26858520507812 0
vt 0.00004908535993 0.31431579589844 0
vt 0.99996948242188 0.31431579589844 0
vt 0.00003621447831 0.36062622070312 0
vt 0.99996948242188 0.36062622070312 0
vt 0.00005217735088 0.40393078327179 0
vt 0.99996948242188 0.40393078327179 0
vt 0.00003739539898 0.45504760742188 0
vt 0.99996948242188 0.45503234863281 0
vt 0.00005136150867 0.52253723144531 0
vt 0.99996948242188 0.52252960205078 0
vt 0.00003671738887 0.58384698629379 0
vt 0.99996948242188 0.58383941650391 0
vt 0.00003252271927 0.64662170410156 0
vt 0.99996948242188 0.64661413431168 0
vt 0.00003155786908 0.71897131204605 0
vt 0.99996948242188 0.71896362304688 0
vt 0.00005151052028 0.80346298217773 0
vt 0.99996948242188 0.80345541238785 0
vt 0.00003473367906 0.88022798299789 0
vt 0.99996948242188 0.88022232055664 0
vt 0.00003972183913 0.93598747253418 0
vt 0.99996948242188 0.93598181009293 0
vt 0.00004637334132 0.99996948242188 0
vt 1 0.99994242191315 0
vt 1 0.99995040893555 0
vt 0.00003366265082 0.99995040893555 0
vt 1 0 0
vt 0.00003051758176 0 0
vt 1 0.99996948242188 0
vt 0.00003051758176 0.99996948242188 0
vt 0.38926240801811 0.00048828125 0
vt 0.36204451322556 0.00048828125 0
vt 0.38926240801811 0.99365228414536 0
vt 0.36204451322556 0.99365228414536 0
vt 0.35498049855232 0.00048828125 0
vt 0.35498049855232 0.99365228414536 0
vt 0.39398708939552 0.00048828125 0
vt 0.39398708939552 0.99365228414536 0
vt 0.25 0.99996948242188 0
vt 0.25 0 0
vt 0.4917297065258 0.99996948242188 0
vt 0.4917297065258 0 0
vt 0.5 0.99996948242188 0
vt 0.5 0 0
vt 0.74172967672348 0.99996948242188 0
vt 0.74172967672348 0 0
vt 0.75 0.99996948242188 0
vt 0.75 0 0
vt 0.99172967672348 0.99996948242188 0
vt 0.99172967672348 0 0
vt 0.24173359572887 0.99996948242188 0
vt 0.24173359572887 0 0
vt 0.99070739746094 0.44471740722656 0
vt 0.99749761819839 0.39935302734375 0
vt 0.99749761819839 0.99996709823608 0
vt 0.98359680175781 0.48402404785156 0
vt 0.97239691019058 0.52779394388199 0
vt 0.80659478902817 0.80863189697266 0
vt 0.84245300292969 0.77006912231445 0
vt 0.45345309376717 0.9916552901268 0
vt 0.52160638570786 0.97625160217285 0
vt 0.40344241261482 0.99774372577667 0
vt 0.99565118551254 0.39935302734375 0
vt 0.99749761819839 0.34666442871094 0
vt 0.96124267578125 0.56198883056641 0
vt 0.94789117574692 0.5966796875 0
vt 0.92373657226562 0.64923858642578 0
vt 0.89900207519531 0.69322198629379 0
vt 0.8709716796875 0.73449712991714 0
vt 0.75642400979996 0.85448461771011 0
vt 0.70854192972183 0.89019203186035 0
vt 0.65663152933121 0.92133331298828 0
vt 0.59516912698746 0.95025730133057 0
vt 0.34581759572029 0.9999685883522 0
vt 0.99913018941879 0.99996709823608 0
vt 0.99913018941879 0.34666442871094 0
vt 0.99913018941879 0.39935302734375 0
vt 0.00042942911386 0.99980980157852 0
vt 0.00050623709103 0.00001525878906 0
vt 0.08368492126465 0.99982607364655 0
vt 0.08376312255859 0.00003051757812 0
vt 0.16693879663944 0.99984240531921 0
vt 0.16701890528202 0.00004577636719 0
vt 0.25019070506096 0.99985861778259 0
vt 0.25026699900627 0.00006103515625 0
vt 0.33345028758049 0.99987477064133 0
vt 0.33352661132812 0.00007629394531 0
vt 0.41670230031013 0.99989092350006 0
vt 0.41677859425545 0.00009155273438 0
vt 0.49996191263199 0.99990677833557 0
vt 0.50003051757812 0.00010681152344 0
vt 0.58320617675781 0.99992257356644 0
vt 0.58328247070312 0.0001220703125 0
vt 0.66647338867188 0.99993807077408 0
vt 0.66654968261719 0.00013732910156 0
vt 0.74972528219223 0.99995362758636 0
vt 0.74980157613754 0.00015258789062 0
vt 0.83297729492188 0.99996900558472 0
vt 0.83305358886719 0.00016784667969 0
vt 0.91622918844223 0.99996888637543 0
vt 0.91630548238754 0.00018310546875 0
vt 0.99948120117188 0.99994242191315 0
vt 0.99955749511719 0.00019836425781 0
# 119 texture coordinates

o Default
usemtl metal_bars_A
f 3/1/1 2/2/2 1/3/3
f 1/3/3 2/2/2 4/4/4
f 2/2/2 5/5/5 4/4/4
f 212/6/6 3/1/1 1/3/3
f 6/7/7 3/1/1 212/6/6
f 213/8/8 6/7/7 212/6/6
f 7/9/9 6/7/7 213/8/8
f 214/10/10 7/9/9 213/8/8
f 8/11/11 7/9/9 214/10/10
f 4/4/4 5/5/5 126/12/5
f 215/13/12 8/11/11 214/10/10
f 9/14/13 8/11/11 215/13/12
f 10/15/14 9/14/13 215/13/12
f 11/16/15 9/14/13 10/15/14
f 216/17/16 11/16/15 10/15/14
f 12/18/17 11/16/15 216/17/16
f 13/19/18 12/18/17 216/17/16
f 14/20/19 12/18/17 13/19/18
f 15/21/20 14/20/19 13/19/18
f 16/22/21 14/20/19 15/21/20
f 17/23/22 16/22/21 15/21/20
f 18/24/23 16/22/21 17/23/22
f 19/25/24 18/24/23 17/23/22
f 20/26/25 18/24/23 19/25/24
f 21/27/26 20/26/25 19/25/24
f 22/28/27 20/26/25 21/27/26
f 23/29/28 22/28/27 21/27/26
f 24/30/29 22/28/27 23/29/28
f 25/31/30 24/30/29 23/29/28
f 26/32/31 24/30/29 25/31/30
f 27/33/32 26/32/31 25/31/30
f 28/34/33 26/32/31 27/33/32
f 218/35/34 28/34/33 27/33/32
f 29/36/35 28/34/33 218/35/34
f 219/37/36 29/36/35 218/35/34
f 30/38/37 29/36/35 219/37/36
f 220/39/38 30/38/37 219/37/36
f 31/40/38 30/38/37 220/39/38
f 226/1/39 239/2/40 32/3/41
f 32/3/41 239/2/40 33/4/42
f 239/2/40 117/5/43 33/4/42
f 34/6/44 226/1/39 32/3/41
f 227/7/45 226/1/39 34/6/44
f 147/8/46 227/7/45 34/6/44
f 228/9/47 227/7/45 147/8/46
f 149/10/48 228/9/47 147/8/46
f 240/11/49 228/9/47 149/10/48
f 33/4/42 117/5/43 177/12/43
f 151/13/50 240/11/49 149/10/48
f 229/14/51 240/11/49 151/13/50
f 153/15/52 229/14/51 151/13/50
f 241/16/53 229/14/51 153/15/52
f 155/17/54 241/16/53 153/15/52
f 35/18/55 241/16/53 155/17/54
f 36/19/56 35/18/55 155/17/54
f 243/20/57 35/18/55 36/19/56
f 158/21/58 243/20/57 36/19/56
f 244/22/59 243/20/57 158/21/58
f 160/23/60 244/22/59 158/21/58
f 37/24/61 244/22/59 160/23/60
f 38/25/62 37/24/61 160/23/60
f 39/26/63 37/24/61 38/25/62
f 163/27/64 39/26/63 38/25/62
f 230/28/65 39/26/63 163/27/64
f 165/29/66 230/28/65 163/27/64
f 231/30/67 230/28/65 165/29/66
f 167/31/68 231/30/67 165/29/66
f 232/32/69 231/30/67 167/31/68
f 40/33/70 232/32/69 167/31/68
f 233/34/71 232/32/69 40/33/70
f 41/35/72 233/34/71 40/33/70
f 234/36/73 233/34/71 41/35/72
f 42/37/74 234/36/73 41/35/72
f 235/38/75 234/36/73 42/37/74
f 329/39/76 235/38/75 42/37/74
f 325/40/76 235/38/75 329/39/76
f 187/1/78 44/2/79 278/3/80
f 278/3/80 44/2/79 277/4/81
f 44/2/79 131/5/82 277/4/81
f 45/6/83 187/1/78 278/3/80
f 46/7/84 187/1/78 45/6/83
f 47/8/85 46/7/84 45/6/83
f 192/9/86 46/7/84 47/8/85
f 48/10/87 192/9/86 47/8/85
f 49/11/88 192/9/86 48/10/87
f 277/4/81 131/5/82 280/12/82
f 50/13/89 49/11/88 48/10/87
f 195/14/90 49/11/88 50/13/89
f 51/15/91 195/14/90 50/13/89
f 197/16/92 195/14/90 51/15/91
f 52/17/93 197/16/92 51/15/91
f 199/18/94 197/16/92 52/17/93
f 288/19/95 199/18/94 52/17/93
f 53/20/96 199/18/94 288/19/95
f 290/21/97 53/20/96 288/19/95
f 54/22/98 53/20/96 290/21/97
f 292/23/99 54/22/98 290/21/97
f 55/24/100 54/22/98 292/23/99
f 294/25/101 55/24/100 292/23/99
f 56/26/102 55/24/100 294/25/101
f 296/27/103 56/26/102 294/25/101
f 57/28/104 56/26/102 296/27/103
f 298/29/105 57/28/104 296/27/103
f 206/30/106 57/28/104 298/29/105
f 58/31/107 206/30/106 298/29/105
f 59/32/108 206/30/106 58/31/107
f 60/33/109 59/32/108 58/31/107
f 61/34/110 59/32/108 60/33/109
f 62/35/111 61/34/110 60/33/109
f 63/36/112 61/34/110 62/35/111
f 64/37/113 63/36/112 62/35/111
f 65/38/114 63/36/112 64/37/113
f 220/39/115 65/38/114 64/37/113
f 97/40/115 65/38/114 220/39/115
f 69/47/118 68/48/119 67/49/120
f 67/49/120 68/48/119 327/50/121
f 171/51/122 327/50/121 68/48/119
f 329/52/122 327/50/121 171/51/122
f 71/53/123 69/47/118 70/54/123
f 70/54/123 69/47/118 67/49/120
f 223/47/125 221/48/126 77/49/127
f 77/49/127 221/48/126 78/50/128
f 280/51/129 78/50/128 221/48/126
f 79/52/129 78/50/128 280/51/129
f 222/53/130 223/47/125 80/54/130
f 80/54/130 223/47/125 77/49/127
f 75/43/137 325/44/137 97/45/137
f 97/45/137 325/44/137 66/46/137
f 119/47/138 118/48/139 175/49/140
f 175/49/140 118/48/139 174/50/141
f 238/51/142 174/50/141 118/48/139
f 177/52/142 174/50/141 238/51/142
f 121/53/143 119/47/138 120/54/143
f 120/54/143 119/47/138 175/49/140
f 124/47/144 123/48/145 122/49/146
f 122/49/146 123/48/145 125/50/147
f 126/51/148 125/50/147 123/48/145
f 238/52/148 125/50/147 126/51/148
f 127/53/149 124/47/144 121/54/149
f 121/54/149 124/47/144 122/49/146
f 133/47/125 129/48/126 135/49/127
f 135/49/127 129/48/126 130/50/128
f 190/51/129 130/50/128 129/48/126
f 131/52/129 130/50/128 190/51/129
f 134/53/130 133/47/125 132/54/130
f 132/54/130 133/47/125 135/49/127
f 141/47/144 140/48/145 124/49/146
f 124/49/146 140/48/145 123/50/147
f 5/51/148 123/50/147 140/48/145
f 126/52/148 123/50/147 5/51/148
f 142/53/149 141/47/144 127/54/149
f 127/54/149 141/47/144 124/49/146
f 32/1/39 33/2/40 143/3/41
f 143/3/41 33/2/40 144/4/42
f 33/2/40 177/5/43 144/4/42
f 145/6/44 32/1/39 143/3/41
f 34/7/45 32/1/39 145/6/44
f 146/8/46 34/7/45 145/6/44
f 147/9/47 34/7/45 146/8/46
f 148/10/48 147/9/47 146/8/46
f 149/11/49 147/9/47 148/10/48
f 144/4/42 177/5/43 178/12/43
f 150/13/50 149/11/49 148/10/48
f 151/14/51 149/11/49 150/13/50
f 152/15/52 151/14/51 150/13/50
f 153/16/53 151/14/51 152/15/52
f 154/17/54 153/16/53 152/15/52
f 155/18/55 153/16/53 154/17/54
f 156/19/56 155/18/55 154/17/54
f 36/20/57 155/18/55 156/19/56
f 157/21/58 36/20/57 156/19/56
f 158/22/59 36/20/57 157/21/58
f 159/23/60 158/22/59 157/21/58
f 160/24/61 158/22/59 159/23/60
f 161/25/62 160/24/61 159/23/60
f 38/26/63 160/24/61 161/25/62
f 162/27/64 38/26/63 161/25/62
f 163/28/65 38/26/63 162/27/64
f 164/29/66 163/28/65 162/27/64
f 165/30/67 163/28/65 164/29/66
f 166/31/68 165/30/67 164/29/66
f 167/32/69 165/30/67 166/31/68
f 168/33/70 167/32/69 166/31/68
f 40/34/71 167/32/69 168/33/70
f 169/35/72 40/34/71 168/33/70
f 41/36/73 40/34/71 169/35/72
f 170/37/74 41/36/73 169/35/72
f 42/38/75 41/36/73 170/37/74
f 171/39/76 42/38/75 170/37/74
f 329/40/76 42/38/75 171/39/76
f 175/47/138 174/48/139 180/49/140
f 180/49/140 174/48/139 176/50/141
f 177/51/142 176/50/141 174/48/139
f 178/52/142 176/50/141 177/51/142
f 120/53/143 175/47/138 179/54/143
f 179/54/143 175/47/138 180/49/140
f 189/1/78 188/2/79 187/3/80
f 187/3/80 188/2/79 44/4/81
f 188/2/79 190/5/82 44/4/81
f 46/6/83 189/1/78 187/3/80
f 191/7/84 189/1/78 46/6/83
f 192/8/85 191/7/84 46/6/83
f 193/9/86 191/7/84 192/8/85
f 49/10/87 193/9/86 192/8/85
f 194/11/88 193/9/86 49/10/87
f 44/4/81 190/5/82 131/12/82
f 195/13/89 194/11/88 49/10/87
f 196/14/90 194/11/88 195/13/89
f 197/15/91 196/14/90 195/13/89
f 198/16/92 196/14/90 197/15/91
f 199/17/93 198/16/92 197/15/91
f 200/18/94 198/16/92 199/17/93
f 53/19/95 200/18/94 199/17/93
f 201/20/96 200/18/94 53/19/95
f 54/21/97 201/20/96 53/19/95
f 202/22/98 201/20/96 54/21/97
f 55/23/99 202/22/98 54/21/97
f 203/24/100 202/22/98 55/23/99
f 56/25/101 203/24/100 55/23/99
f 204/26/102 203/24/100 56/25/101
f 57/27/103 204/26/102 56/25/101
f 205/28/104 204/26/102 57/27/103
f 206/29/105 205/28/104 57/27/103
f 207/30/106 205/28/104 206/29/105
f 59/31/107 207/30/106 206/29/105
f 208/32/108 207/30/106 59/31/107
f 61/33/109 208/32/108 59/31/107
f 209/34/110 208/32/108 61/33/109
f 63/35/111 209/34/110 61/33/109
f 210/36/112 209/34/110 63/35/111
f 65/37/113 210/36/112 63/35/111
f 211/38/114 210/36/112 65/37/113
f 97/39/115 211/38/114 65/37/113
f 66/40/115 211/38/114 97/39/115
f 1/1/1 4/2/2 100/3/3
f 100/3/3 4/2/2 99/4/4
f 4/2/2 126/5/5 99/4/4
f 108/6/6 1/1/1 100/3/3
f 212/7/7 1/1/1 108/6/6
f 109/8/8 212/7/7 108/6/6
f 213/9/9 212/7/7 109/8/8
f 101/10/10 213/9/9 109/8/8
f 214/11/11 213/9/9 101/10/10
f 99/4/4 126/5/5 238/12/5
f 102/13/12 214/11/11 101/10/10
f 215/14/13 214/11/11 102/13/12
f 103/15/14 215/14/13 102/13/12
f 10/16/15 215/14/13 103/15/14
f 110/17/16 10/16/15 103/15/14
f 216/18/17 10/16/15 110/17/16
f 111/19/18 216/18/17 110/17/16
f 13/20/19 216/18/17 111/19/18
f 104/21/20 13/20/19 111/19/18
f 15/22/21 13/20/19 104/21/20
f 105/23/22 15/22/21 104/21/20
f 17/24/23 15/22/21 105/23/22
f 217/25/24 17/24/23 105/23/22
f 19/26/25 17/24/23 217/25/24
f 106/27/26 19/26/25 217/25/24
f 21/28/27 19/26/25 106/27/26
f 112/29/28 21/28/27 106/27/26
f 23/30/29 21/28/27 112/29/28
f 113/31/30 23/30/29 112/29/28
f 25/32/31 23/30/29 113/31/30
f 114/33/32 25/32/31 113/31/30
f 27/34/33 25/32/31 114/33/32
f 115/35/34 27/34/33 114/33/32
f 218/36/35 27/34/33 115/35/34
f 116/37/36 218/36/35 115/35/34
f 219/38/37 218/36/35 116/37/36
f 97/39/38 219/38/37 116/37/36
f 220/40/38 219/38/37 97/39/38
f 135/47/125 130/48/126 223/49/127
f 223/49/127 130/48/126 221/50/128
f 131/51/129 221/50/128 130/48/126
f 280/52/129 221/50/128 131/51/129
f 132/53/130 135/47/125 222/54/130
f 222/54/130 135/47/125 223/49/127
f 278/1/78 277/2/79 276/3/80
f 276/3/80 277/2/79 279/4/81
f 277/2/79 280/5/82 279/4/81
f 281/6/83 278/1/78 276/3/80
f 45/7/84 278/1/78 281/6/83
f 282/8/85 45/7/84 281/6/83
f 47/9/86 45/7/84 282/8/85
f 283/10/87 47/9/86 282/8/85
f 48/11/88 47/9/86 283/10/87
f 279/4/81 280/5/82 79/12/82
f 284/13/89 48/11/88 283/10/87
f 50/14/90 48/11/88 284/13/89
f 285/15/91 50/14/90 284/13/89
f 51/16/92 50/14/90 285/15/91
f 286/17/93 51/16/92 285/15/91
f 52/18/94 51/16/92 286/17/93
f 287/19/95 52/18/94 286/17/93
f 288/20/96 52/18/94 287/19/95
f 289/21/97 288/20/96 287/19/95
f 290/22/98 288/20/96 289/21/97
f 291/23/99 290/22/98 289/21/97
f 292/24/100 290/22/98 291/23/99
f 293/25/101 292/24/100 291/23/99
f 294/26/102 292/24/100 293/25/101
f 295/27/103 294/26/102 293/25/101
f 296/28/104 294/26/102 295/27/103
f 297/29/105 296/28/104 295/27/103
f 298/30/106 296/28/104 297/29/105
f 299/31/107 298/30/106 297/29/105
f 58/32/108 298/30/106 299/31/107
f 300/33/109 58/32/108 299/31/107
f 60/34/110 58/32/108 300/33/109
f 301/35/111 60/34/110 300/33/109
f 62/36/112 60/34/110 301/35/111
f 302/37/113 62/36/112 301/35/111
f 64/38/114 62/36/112 302/37/113
f 31/39/115 64/38/114 302/37/113
f 220/40/115 64/38/114 31/39/115
f 67/47/118 327/48/119 331/49/120
f 331/49/120 327/48/119 328/50/121
f 329/51/122 328/50/121 327/48/119
f 325/52/122 328/50/121 329/51/122
f 70/53/123 67/47/118 330/54/123
f 330/54/123 67/47/118 331/49/120

usemtl metal_plate_B
f 271/41/77 181/42/77 43/43/77
f 43/43/77 181/42/77 270/44/77
f 66/41/117 325/42/117 136/43/117
f 136/43/117 325/42/117 326/44/117
f 93/55/131 91/56/131 94/57/131
f 94/57/131 91/56/131 81/58/131
f 84/59/132 83/60/132 82/61/132
f 82/61/132 83/60/132 85/62/132
f 86/63/117 95/64/117 96/65/117
f 96/65/117 95/64/117 87/66/117
f 89/46/77 88/44/77 90/67/77
f 90/67/77 88/44/77 92/68/77
f 92/68/133 91/56/133 90/67/133
f 90/67/133 91/56/133 93/55/133
f 81/58/134 83/60/134 94/57/134
f 94/57/134 83/60/134 84/59/134
f 85/62/135 95/64/135 82/61/135
f 82/61/135 95/64/135 86/63/135
f 87/66/136 88/43/136 96/65/136
f 96/65/136 88/43/136 89/45/136
f 224/41/117 66/42/117 225/43/117
f 225/43/117 66/42/117 136/44/117
f 182/41/132 272/42/132 139/43/132
f 139/43/132 272/42/132 173/44/132
f 171/41/77 266/42/77 76/43/77
f 76/43/77 266/42/77 247/44/77
f 249/55/131 259/56/131 248/57/131
f 248/57/131 259/56/131 250/58/131
f 251/59/132 260/60/132 261/61/132
f 261/61/132 260/60/132 252/62/132
f 262/63/117 253/64/117 263/65/117
f 263/65/117 253/64/117 254/66/117
f 257/46/77 256/44/77 255/67/77
f 255/67/77 256/44/77 258/68/77
f 258/68/133 259/56/133 255/67/133
f 255/67/133 259/56/133 249/55/133
f 250/58/134 260/60/134 248/57/134
f 248/57/134 260/60/134 251/59/134
f 252/62/135 253/64/135 261/61/135
f 261/61/135 253/64/135 262/63/135
f 254/66/136 256/43/136 263/65/136
f 263/65/136 256/43/136 257/45/136
f 181/41/77 171/42/77 270/43/77
f 270/43/77 171/42/77 76/44/77
f 182/94/151 139/95/151 303/96/152
f 303/96/152 139/95/151 304/97/153
f 303/96/152 304/97/153 305/98/154
f 305/98/154 304/97/153 306/99/155
f 305/98/154 306/99/155 307/100/156
f 307/100/156 306/99/155 308/101/157
f 307/100/156 308/101/157 309/102/158
f 309/102/158 308/101/157 310/103/159
f 309/102/158 310/103/159 311/104/160
f 311/104/160 310/103/159 312/105/161
f 311/104/160 312/105/161 313/106/162
f 313/106/162 312/105/161 314/107/163
f 313/106/162 314/107/163 315/108/164
f 315/108/164 314/107/163 316/109/165
f 315/108/164 316/109/165 317/110/166
f 317/110/166 316/109/165 318/111/167
f 317/110/166 318/111/167 319/112/168
f 319/112/168 318/111/167 320/113/169
f 319/112/168 320/113/169 321/114/170
f 321/114/170 320/113/169 322/115/171
f 321/114/170 322/115/171 323/116/172
f 323/116/172 322/115/171 324/117/173
f 323/116/172 324/117/173 325/118/174
f 325/118/174 324/117/173 326/119/174

usemtl floor_A
f 73/43/116 139/44/116 76/45/116
f 76/45/116 139/44/116 270/46/116
f 72/43/116 326/44/116 264/45/116
f 264/45/116 326/44/116 73/46/116
f 264/43/116 73/44/116 247/45/116
f 247/45/116 73/44/116 76/46/116
f 183/43/116 186/44/116 128/45/116
f 128/45/116 186/44/116 137/46/116
f 186/43/116 225/44/116 137/45/116
f 137/45/116 225/44/116 136/46/116
f 128/43/116 137/44/116 273/45/116
f 273/45/116 137/44/116 72/46/116
f 326/43/116 138/44/116 73/45/116
f 73/45/116 138/44/116 139/46/116
f 137/43/116 136/44/116 72/45/116
f 72/45/116 136/44/116 326/46/116
f 139/43/116 173/44/116 270/45/116
f 270/45/116 173/44/116 43/46/116
f 267/43/116 128/44/116 275/45/116
f 275/45/116 128/44/116 273/46/116
f 268/43/116 183/44/116 267/45/116
f 267/45/116 183/44/116 128/46/116
f 274/43/137 74/44/137 31/45/137
f 31/45/137 74/44/137 220/46/137

usemtl concrete_A
f 75/41/124 74/42/124 72/43/124
f 72/43/124 74/42/124 273/44/124
f 100/69/131 98/70/131 75/71/131
f 108/72/131 100/69/131 75/71/131
f 109/73/131 108/72/131 75/71/131
f 105/74/131 104/75/131 75/71/131
f 115/76/131 114/77/131 75/71/131
f 115/76/131 75/71/131 116/78/131
f 99/79/117 98/70/117 238/80/117
f 99/79/117 100/69/117 98/70/117
f 101/81/117 75/71/117 109/73/117
f 102/82/117 75/71/117 101/81/117
f 103/83/117 75/71/117 102/82/117
f 110/84/117 75/71/117 103/83/117
f 111/85/117 75/71/117 110/84/117
f 104/75/117 75/71/117 111/85/117
f 217/86/117 75/71/117 105/74/117
f 106/87/117 75/71/117 217/86/117
f 112/88/117 75/71/117 106/87/117
f 113/89/117 75/71/117 112/88/117
f 114/77/117 75/71/117 113/89/117
f 116/78/117 97/90/117 75/71/117
f 107/91/117 98/70/117 75/71/117
f 117/92/117 238/80/117 98/93/117
f 239/79/132 238/80/132 98/70/132
f 239/79/132 98/70/132 226/69/132
f 226/69/132 98/70/132 75/71/132
f 228/73/132 227/72/132 75/71/132
f 240/81/132 228/73/132 75/71/132
f 229/82/132 240/81/132 75/71/132
f 241/83/132 229/82/132 75/71/132
f 242/84/132 241/83/132 75/71/132
f 243/85/132 242/84/132 75/71/132
f 244/75/132 243/85/132 75/71/132
f 246/86/132 245/74/132 75/71/132
f 230/87/132 246/86/132 75/71/132
f 232/89/132 231/88/132 75/71/132
f 233/77/132 232/89/132 75/71/132
f 234/76/132 233/77/132 75/71/132
f 234/76/132 75/71/132 235/78/132
f 235/78/132 75/71/132 325/90/132
f 227/72/77 75/71/77 226/69/77
f 245/74/77 75/71/77 244/75/77
f 231/88/77 75/71/77 230/87/77
f 236/91/77 98/70/77 75/71/77
f 237/92/77 238/80/77 98/93/77
f 265/41/131 75/42/131 264/43/131
f 264/43/131 75/42/131 72/44/131
f 266/41/131 265/42/131 247/43/131
f 247/43/131 265/42/131 264/44/131
f 74/41/124 274/42/124 273/43/124
f 273/43/124 274/42/124 275/44/124

usemtl plaster_A
f 329/43/137 182/44/137 325/45/137
f 325/45/137 182/44/137 172/46/137
f 171/43/137 181/44/137 329/45/137
f 329/45/137 181/44/137 182/46/137
f 181/43/137 271/44/137 182/45/137
f 182/45/137 271/44/137 272/46/137

usemtl brick_A
f 185/41/150 184/42/150 183/43/150
f 183/43/150 184/42/150 186/44/150
f 184/41/150 224/42/150 186/43/150
f 186/43/150 224/42/150 225/44/150
f 269/41/150 185/42/150 268/43/150
f 268/43/150 185/42/150 183/44/150

