# WaveFront *.obj file (generated by CINEMA 4D)

mtllib ./sector_05.mtl

v 4.00005006790161 4 3.99990010261536
v 4.00002479553223 3.99990010261536 7.99989986419678
v -3.99975299835205 -0.00009996462177 8.00010108947754
v 0.00005006790161 -0.0000001115129 -0.00009989737737
v 8.00004959106445 3 7.99989986419678
v 3.9999508857727 3 12.00010013580322
v 8.00004959106445 3 12.00010013580322
v 3.99994993209839 3.00000095367432 7.99989986419678
v 3.99990010261536 -0.00010498890333 11.25
v 8.00010013580322 4.00009489059448 11.25
v 3.99990010261536 4.00009489059448 11.25
v 8.00010013580322 -0.00010496639879 11.25
v 0.02404475025833 1.03248298168182 7.99999904632568
v -0.00000047683727 1.1793669462204 7.99999904632568
v -0.00000047683727 1.1793669462204 12
v 0.02404475025833 1.15764105319977 7.99999904632568
v -0.00000143051102 3.51599907875061 3.75
v -0.00000143051102 4 3.26600003242493
v -0.00000143051102 4 3.73399996757507
v 4 4 3.26600003242493
v -0.00000143051102 3.98399996757507 3.25
v -0.00000143051102 3.5 3.73399996757507
v -0.00000143051102 3.5 3.26600003242493
v 4 3.5 3.73399996757507
v 4 3.51600003242493 3.75
v -0.00000143051102 3.98399996757507 3.75
v 4 4 3.73399996757507
v 4 3.98399996757507 3.75
v 4 3.98399996757507 3.25
v -0.00000143051102 3.51599907875061 3.25
v 4 3.5 3.26600003242493
v 4 3.51600003242493 3.25
v -3.99975299835205 -0.00009998721362 -4.00010013580322
v 8.00010013580322 -0.00010498890333 8.75
v 3.99990010261536 4.00009489059448 8.75
v 8.00010013580322 4.00009489059448 8.75
v 3.99990010261536 -0.00010496639879 8.75
v 4 4.00017499923706 0.00017642970488
v 0.00014769479458 0.99990022182465 7.99989986419678
v 0.1541749984026 1.83165299892426 7.99989986419678
v 0.45278009772301 2.38926410675049 7.99989986419678
v 0.60467249155045 2.59123301506042 7.99989986419678
v 0.95162552595139 2.94412302970886 7.99989986419678
v 1.1717209815979 3.12122011184692 7.99989986419678
v 3.64619493484497 3.9895920753479 7.99989986419678
v 0.00000003304935 1.24195003509521 8.00024795532227
v 0.0417611412704 1.45012605190277 7.99989986419678
v 0.08540810644627 1.63063299655914 7.99989986419678
v 0.30462971329689 2.14794993400574 7.99989986419678
v 1.7755880355835 3.49686789512634 7.99989986419678
v -0.00005006790161 4.00000095367432 7.99989986419678
v -0.00999996718019 1.24195003509521 8.00024795532227
v -0.00999996904284 1 8.00024795532227
v 3.97595500946045 3.96751689910889 16
v 4 3.82063293457031 12
v 3.97595500946045 3.84235906600952 16
v 4 3.82063293457031 16
v -4.5 4 -3.53200006484985
v -4.5 0 -4.46799993515015
v -4.5 4 -4.46799993515015
v -3.53200006484985 4 -3.5
v -4.46799993515015 0 -3.5
v -3.5 0 -3.53200006484985
v -3.53200006484985 4 -4.5
v -4.46799993515015 0 -4.5
v -4.46799993515015 4 -4.5
v -4.5 0 -3.53200006484985
v -4.46799993515015 4 -3.5
v -3.53200006484985 0 -3.5
v -3.5 4 -3.53200006484985
v -3.5 4 -4.46799993515015
v -3.53200006484985 0 -4.5
v -3.5 0 -4.46799993515015
v 4 4.00017023086548 -4
v 0.00000000028194 4.00010013580322 0.00009994395077
v -0.00000143051102 3.98399996757507 -1
v -0.00000143051102 3.51599907875061 -1
v 4 3.98399996757507 -1
v -0.00000143051102 4 -1.48399996757507
v -0.00000143051102 4 -1.01600003242493
v -0.00000143051102 3.51599907875061 -1.5
v 4 3.98399996757507 -1.5
v -0.00000143051102 3.98399996757507 -1.5
v 4 3.51600003242493 -1.5
v 4 3.5 -1.01600003242493
v -0.00000143051102 3.5 -1.01600003242493
v 4 3.51600003242493 -1
v 4 4 -1.01600003242493
v 4 4 -1.48399996757507
v 4 3.5 -1.48399996757507
v -0.00000143051102 3.5 -1.48399996757507
v -0.00000000089014 0.15764090418816 -3.97595500946045
v -4 0.03248323872685 -3.97595500946045
v -0.00000045189009 -0.00010005960212 -4.00010204315186
v -4 0.15764090418816 -3.97595500946045
v -4 0.17936690151691 -4
v -4.5 4 4.46799993515015
v -4.5 0 3.53200006484985
v -3.53200006484985 4 4.5
v -4.46799993515015 0 4.5
v -4.46799993515015 4 4.5
v -3.5 0 4.46799993515015
v -3.5 0 3.53200006484985
v -4.46799993515015 4 3.5
v -3.53200006484985 0 3.5
v -4.46799993515015 0 3.5
v -4.5 4 3.53200006484985
v -4.5 0 4.46799993515015
v -3.53200006484985 0 4.5
v -3.5 4 4.46799993515015
v -3.5 4 3.53200006484985
v -3.53200006484985 4 3.5
v -0.00000000018342 0.03248323872685 -3.97595500946045
v 4 0.0324832610786 -3.97595500946045
v 4 0 -4
v 4 0.17936690151691 -4
v -0.00000000101282 0.17936690151691 -4
v 4 0.15764090418816 -3.97595500946045
v 3.97595000267029 3.84236407279968 4
v 3.97595000267029 3.96752190589905 8.00000095367432
v 3.97595000267029 3.96752190589905 4.00000095367432
v 3.99999499320984 3.82063794136047 4
v 0.00004935264951 -0.00000055157221 4.00010013580322
v 3.9999508857727 -0.0000001223956 7.99989986419678
v 4.00005006790161 -0.0000001115129 3.99990010261536
v -3.53200006484985 4 0.50000017881393
v -4.46799993515015 0 0.50000011920929
v -4.46799993515015 4 0.50000011920929
v -3.5 4 0.46800020337105
v -4.46799993515015 4 -0.50000017881393
v -4.46799993515015 0 -0.50000017881393
v -4.5 0 -0.46800020337105
v -4.5 4 -0.46800020337105
v -4.5 4 0.46800011396408
v -4.5 0 0.46800011396408
v -3.5 0 0.46800020337105
v -3.53200006484985 0 0.50000017881393
v -3.5 4 -0.46800011396408
v -3.53200006484985 0 -0.50000011920929
v -3.5 0 -0.46800011396408
v -3.53200006484985 4 -0.50000011920929
v 3.97595500946045 3.96751689910889 12
v 3.99999499320984 3.82063794136047 8
v 3.97595500946045 3.84235906600952 12
v 3.97595000267029 3.84236407279968 8
v 0.00005006790161 4 4.00010013580322
v -0.00000298035798 4.00017499923706 11.99983024597168
v 0.00000000001192 4.00009489059448 7.99989986419678
v 0.04176073893905 1.45012605190277 11.99989986419678
v 0.01148527022451 1.24185001850128 15.99989986419678
v 0.04176073893905 1.45012605190277 15.99989986419678
v 0.01148527022451 1.24185001850128 11.99989986419678
v 0 1 16
v 0.08540771156549 1.63063299655914 11.99989986419678
v 0.08540771156549 1.63063299655914 15.99989986419678
v 0.15417459607124 1.83165299892426 11.99989986419678
v 0.15417459607124 1.83165299892426 15.99989986419678
v 0.22261990606785 1.98863196372986 15.99989986419678
v 0.30462929606438 2.14795088768005 11.99989986419678
v 0.30462929606438 2.14795088768005 15.99989986419678
v 0.45277979969978 2.38926410675049 11.99989986419678
v 0.45277979969978 2.38926410675049 15.99989986419678
v 0.60467207431793 2.59123301506042 11.99989986419678
v 0.60467207431793 2.59123301506042 15.99989986419678
v 0.77666878700256 2.78079390525818 11.99989986419678
v 0.77666878700256 2.78079390525818 15.99989986419678
v 0.95162522792816 2.94412302970886 15.99989986419678
v 1.1717209815979 3.12122106552124 15.99989986419678
v 1.47967803478241 3.33175206184387 15.99989986419678
v 1.77558696269989 3.49686789512634 15.99989986419678
v 2.09222292900085 3.63871908187866 15.99989986419678
v 2.4694139957428 3.7715380191803 15.99989986419678
v 2.92091798782349 3.89090204238892 11.99989986419678
v 2.92091798782349 3.89090204238892 15.99989986419678
v 3.33927392959595 3.96163392066956 11.99989986419678
v 3.33927392959595 3.96163392066956 15.99989986419678
v 3.64619493484497 3.9895920753479 11.99989986419678
v 3.64619493484497 3.9895920753479 15.99989986419678
v 4 4.00017023086548 16
v 8.00004959106445 -0.00000055157221 12.00010013580322
v 8 4.00009489059448 7.99989795684814
v 8 4.00009489059448 12.00010013580322
v 8.00004959106445 -0.0000001115129 7.99989986419678
v 0.00004935264951 -0.00000055157221 8.00010013580322
v 0.02404523082078 1.03248298168182 16
v 0.02404475025833 1.03248298168182 12
v 0.02404523082078 1.15764105319977 16
v 0 1.1793669462204 16
v 0.02404475025833 1.15764105319977 12
v -0.00000143051102 3.98399996757507 -3.5
v -0.00000143051102 3.51599907875061 -3.5
v 4 3.98399996757507 -3.5
v 4 3.98399996757507 -4
v 4 3.5 -3.51600003242493
v -0.00000143051102 3.5 -3.51600003242493
v 4 3.51600003242493 -3.5
v 4 4 -3.51600003242493
v -0.00000143051102 4 -3.51600003242493
v -0.00000143051102 4 -3.98399996757507
v 4 4 -3.98399996757507
v -0.00000143051102 3.98399996757507 -4
v -0.00000143051102 3.51599907875061 -4
v 4 3.5 -3.98399996757507
v 4 3.51600003242493 -4
v -0.00000143051102 3.5 -3.98399996757507
v -0.00000045189009 4.00010013580322 -4.00010204315186
v 4 -0.00000496633083 0.00017642970488
v 4 -0.00000498863619 -3.95000290870666
v 3.99361300468445 4.00017499923706 -3.97445607185364
v 3.9499979019165 4.00017499923706 -4.00000476837158
v 3.9499979019165 -0.00000498891904 -4.00000476837158
v 3.99361300468445 -0.00000498877398 -3.97445607185364
v 3.97445106506348 -0.00000498888312 -3.99361801147461
v 4 4.00017499923706 -3.95000290870666
v 3.97445106506348 4.00017499923706 -3.99361801147461
v -0.00009489058721 -0.00010498890333 3.79999995231628
v 4.0001049041748 4.00009489059448 3.79999995231628
v -0.00009489058721 4.00009489059448 3.79999995231628
v 4.0001049041748 -0.00010496639879 3.79999995231628
v -3.79975295066834 2.20001006126404 -0.89994382858276
v -3.79975295066834 -0.00009998423047 -4.00010013580322
v -3.79975295066834 4.00010013580322 -0.00010011759878
v -3.79975295066834 4.00010013580322 -4.00010013580322
v -3.79975295066834 0.39991998672485 -3.10005497932434
v -3.99975299835205 4.00010013580322 -0.00010014670261
v -3.99975299835205 -0.00009998721362 -0.00010012410348
v -3.99975299835205 0.39991998672485 -3.10005497932434
v -3.99975299835205 4.00010013580322 -4.00010013580322
v -3.82374691963196 0.42662158608437 -0.92162197828293
v -3.82374691963196 0.42075601220131 -0.93591088056564
v -3.79975295066834 0.39991998672485 -0.89994382858276
v -3.82374691963196 0.42075601220131 -3.0640881061554
v -3.97491908073425 0.42075589299202 -0.93591088056564
v -3.97491788864136 0.42662158608437 -3.07837605476379
v -3.82374691963196 0.42662158608437 -3.07837605476379
v -3.97491908073425 0.42662158608437 -0.92162197828293
v -3.82374691963196 0.44078230857849 -0.91570347547531
v -3.82374691963196 2.15914797782898 -0.91570347547531
v -3.97491908073425 0.44078230857849 -0.91570347547531
v -3.99975299835205 0.39991998672485 -0.89994382858276
v -3.99975299835205 2.20001006126404 -0.89994382858276
v -3.97491908073425 2.1733078956604 -0.92162197828293
v -3.82374691963196 2.17917394638062 -0.93591088056564
v -3.82374691963196 2.17917394638062 -3.0640881061554
v -3.97491788864136 2.17917394638062 -3.0640881061554
v -3.82374691963196 2.1733078956604 -3.07837605476379
v -3.82374691963196 2.1733078956604 -0.92162197828293
v -3.82374691963196 2.15914797782898 -3.08429503440857
v -3.82374691963196 0.44078230857849 -3.08429503440857
v -3.97491788864136 2.1733078956604 -3.07837605476379
v -3.79975295066834 2.20001006126404 -3.10005497932434
v -3.97491788864136 0.44078230857849 -3.08429503440857
v -3.97491788864136 0.42075589299202 -3.0640881061554
v -3.97491908073425 2.15914797782898 -0.91570347547531
v -3.97491788864136 2.15914797782898 -3.08429503440857
v -3.99975299835205 2.20001006126404 -3.10005497932434
v -3.97491908073425 2.17917394638062 -0.93591088056564
v 4 -0.0001000202974 10.63726997375488
v 4.03000497817993 2.41076898574829 10.61867046356201
v 4.03000497817993 2.42483997344971 10.6130199432373
v 4.03000497817993 -0.00010002060299 10.61867046356201
v 4.16329622268677 2.41076898574829 10.61867046356201
v 4.16329622268677 -0.00010002060299 10.61867046356201
v 4.16329622268677 2.41076898574829 9.41185569763184
v 4.16329622268677 -0.00010003859643 9.41185569763184
v 4.03000497817993 2.42483997344971 9.41750431060791
v 4.03000497817993 2.41076898574829 9.41185569763184
v 4.03000497817993 -0.00010003859643 9.41185569763184
v 4 2.44423890113831 9.39325523376465
v 4 -0.00010003880016 9.39325523376465
v 4.16329622268677 2.43066906929016 10.59937953948975
v 4.16329622268677 2.42483997344971 10.6130199432373
v 4.16329622268677 2.43066906929016 9.43113994598389
v 4.16329622268677 2.42483997344971 9.41750335693359
v 4.03000497817993 2.43066906929016 10.59937953948975
v 4.03000497817993 2.43066906929016 9.43113994598389
v 4 2.44423890113831 10.63726997375488
v 4.19999980926514 -0.00009999999747 12.00010013580322
v 4.19999980926514 2.44423890113831 10.63726997375488
v 4.19999980926514 -0.0001000202974 10.63726997375488
v 4.19999980926514 4.00010013580322 12.00010013580322
v 4.19999980926514 2.44423890113831 9.39325523376465
v 4.19999980926514 4.00010013580322 7.99989795684814
v 4.19999980926514 -0.00010003880016 9.39325523376465
v 4.19999980926514 -0.00010005960212 7.99989795684814
v 8.00017166137695 4.00017499923706 16
v 8.00017166137695 -0.00000498891904 16
v 4.00005006790161 -0.0000001115129 11.99989986419678
v 4 4.00017499923706 15.94999980926514
v 4.00638723373413 4.00017499923706 15.97445964813232
v 4.02554893493652 -0.00000498888312 15.99361991882324
v 4.0500020980835 4.00017499923706 16.00000953674316
v 4.02554893493652 4.00017499923706 15.99361991882324
v 4 -0.00000498863619 15.94999980926514
v 4.00638723373413 -0.00000498877398 15.97445964813232
v 4.00005006790161 -0.00000055157221 16.00009918212891
v 4.0500020980835 -0.00000498891904 16.00000953674316
v 0.0114856697619 1.24185001850128 7.99989986419678
v 0.0001472967997 0.99990022182465 11.99989986419678
v 0.22262029349804 1.98863196372986 7.99989986419678
v 0.22261990606785 1.98863196372986 11.99989986419678
v 0.77666920423508 2.78079390525818 7.99989986419678
v 0.95162522792816 2.94412302970886 11.99989986419678
v 1.1717209815979 3.12122106552124 11.99989986419678
v 1.47967898845673 3.33175206184387 7.99989986419678
v 1.47967803478241 3.33175206184387 11.99989986419678
v 1.77558696269989 3.49686789512634 11.99989986419678
v 2.09222292900085 3.63871908187866 7.99989986419678
v 2.09222292900085 3.63871908187866 11.99989986419678
v 2.46941494941711 3.7715380191803 7.99989986419678
v 2.4694139957428 3.7715380191803 11.99989986419678
v 2.92091798782349 3.8909010887146 7.99989986419678
v 3.33927392959595 3.96163392066956 7.99989986419678
v 4.00002479553223 3.99990010261536 11.99989986419678
v 0.03000535070896 2.41076898574829 -1.3813339471817
v -0.0000001505621 2.44423890113831 -1.36273300647736
v 0.03000535070896 2.42483997344971 -1.38698196411133
v 0.03000535070896 -0.00010002060299 -1.3813339471817
v 0.163295596838 2.41076898574829 -1.3813339471817
v 0.163295596838 -0.00010002060299 -1.3813339471817
v 0.163295596838 2.42483997344971 -1.38698196411133
v 0.1999998986721 -0.0001000202974 -1.36273300647736
v 0.19999979436398 -0.00010003880016 -2.60674500465393
v 0.16329550743103 2.41076898574829 -2.58814406394958
v 0.16329550743103 -0.00010003859643 -2.58814406394958
v 0.03000520914793 2.42483997344971 -2.58249592781067
v 0.03000520914793 2.41076898574829 -2.58814406394958
v 0.03000520914793 -0.00010003859643 -2.58814406394958
v -0.00000029145301 2.44423890113831 -2.60674500465393
v -0.00000029443319 -0.00010003880016 -2.60674500465393
v -0.0000001535423 -0.0001000202974 -1.36273300647736
v 0.163295596838 2.43066906929016 -1.40061795711517
v 0.1999998986721 2.44423890113831 -1.36273300647736
v 0.16329550743103 2.43066906929016 -2.56886005401611
v 0.16329550743103 2.42483997344971 -2.58249592781067
v 0.03000535070896 2.43066906929016 -1.40061795711517
v 0.03000520914793 2.43066906929016 -2.56886005401611
v 0.19999960064888 4.00009489059448 -0.00009632111323
v 0.19999979436398 2.44423890113831 -2.60674500465393
v 0.19999960064888 4.00010013580322 -4.00010204315186
v 0.19999960064888 -0.00010005960212 -4.00010204315186
v -3.79975295066834 -0.00009996165318 8.00010108947754
v -3.79975295066834 0.39991998672485 7.10005617141724
v -3.79975295066834 4.00010013580322 8.00010108947754
v -3.79975295066834 0.39991998672485 4.89994478225708
v -3.97491908073425 0.42075589299202 7.06408882141113
v -3.99975299835205 4.00010013580322 8.00010108947754
v -3.99975299835205 4.00010013580322 4.00010108947754
v -3.99975299835205 -0.00009996462177 4.00010108947754
v -3.82374691963196 0.42662158608437 7.07837820053101
v -3.82374691963196 0.42075601220131 7.06408882141113
v -3.82374691963196 0.42075601220131 4.93591213226318
v -3.82374691963196 0.44078230857849 7.08429622650146
v -3.79975295066834 2.20001006126404 7.10005617141724
v -3.82374691963196 2.15914797782898 7.08429622650146
v -3.97491908073425 0.44078230857849 7.08429622650146
v -3.97491908073425 2.15914797782898 7.08429622650146
v -3.99975299835205 0.39991998672485 7.10005617141724
v -3.97491908073425 2.1733078956604 7.07837820053101
v -3.82374691963196 2.1733078956604 4.92162418365479
v -3.82374691963196 2.15914797782898 4.91570520401001
v -3.82374691963196 0.44078230857849 4.91570520401001
v -3.97491788864136 2.15914797782898 4.91570520401001
v -3.97491788864136 2.1733078956604 4.92162418365479
v -3.97491788864136 0.44078230857849 4.91570520401001
v -3.99975299835205 2.20001006126404 4.89994478225708
v -3.82374691963196 2.17917394638062 7.06408882141113
v -3.82374691963196 2.17917394638062 4.93591213226318
v -3.79975295066834 2.20001006126404 4.89994478225708
v -3.97491908073425 0.42662158608437 7.07837820053101
v -3.99975299835205 2.20001006126404 7.10005617141724
v -3.97491788864136 2.17917394638062 4.93591213226318
v -3.97491788864136 0.42662158608437 4.92162418365479
v -3.99975299835205 0.39991998672485 4.89994478225708
v -3.97491788864136 0.42075589299202 4.93591213226318
v -3.82374691963196 0.42662158608437 4.92162418365479
v -3.97491908073425 2.17917394638062 7.06408882141113
v -3.82374691963196 2.1733078956604 7.07837820053101
v 0.19999960064888 -0.00010498890333 -0.00009632111323
v 0.20000010728836 4.00009489059448 4.0001049041748
v 0.20000010728836 -0.00010496639879 4.0001049041748
v -0.00004935264951 -0.0000001223956 11.99989986419678
v -4.00017499923706 -0.00000496633083 16
v -0.04999710991979 4.00017499923706 16
v -4.00017499923706 4.00017499923706 16
v 0.00000491425089 4.00017499923706 15.94999980926514
v -0.04999716952443 -0.00000498863619 16
v -0.02554406970739 -0.00000498877398 15.99361038208008
v -0.0063823480159 -0.00000498888312 15.97445011138916
v 0.00000485538885 -0.00000498891904 15.94999980926514
v -0.00000004437551 4.00017023086548 16
v -0.02554401010275 4.00017499923706 15.99361038208008
v -0.00638228887692 4.00017499923706 15.97445011138916
v 4 3.98399996757507 1.25
v -0.00000143051102 4 0.76599997282028
v -0.00000143051102 4 1.23399996757507
v 4 3.98399996757507 0.75
v -0.00000143051102 3.5 1.23399996757507
v 4 3.51600003242493 1.25
v 4 3.5 1.23399996757507
v -0.00000143051102 3.51599907875061 1.25
v -0.00000143051102 3.98399996757507 1.25
v 4 4 1.23399996757507
v 4 4 0.76599997282028
v -0.00000143051102 3.98399996757507 0.75
v -0.00000143051102 3.51599907875061 0.75
v 4 3.5 0.76599997282028
v 4 3.51600003242493 0.75
v -0.00000143051102 3.5 0.76599997282028
v -0.00005006790161 -0.00000056245489 16.00009918212891
v -3.79975295066834 -0.00009996165318 4.00010108947754
v -3.79975295066834 2.20001006126404 3.10005593299866
v -3.79975295066834 -0.00009998423047 -0.00010009499965
v -3.79975295066834 4.00010013580322 4.00010108947754
v -3.79975295066834 2.20001006126404 0.89994531869888
v -3.79975295066834 0.39991998672485 0.89994531869888
v -3.97491908073425 0.42662158608437 3.07837796211243
v -3.99975299835205 0.39991998672485 3.10005593299866
v -3.97491908073425 0.42075589299202 3.06408905982971
v -3.82374691963196 0.42075601220131 3.06408905982971
v -3.79975295066834 0.39991998672485 3.10005593299866
v -3.82374691963196 0.42075601220131 0.93591237068176
v -3.97491788864136 0.42075589299202 0.93591237068176
v -3.82374691963196 0.44078230857849 3.08429598808289
v -3.82374691963196 2.15914797782898 3.08429598808289
v -3.82374691963196 0.42662158608437 3.07837796211243
v -3.82374691963196 2.17917394638062 3.06408905982971
v -3.82374691963196 2.17917394638062 0.93591237068176
v -3.97491908073425 2.1733078956604 3.07837796211243
v -3.82374691963196 2.15914797782898 0.91570508480072
v -3.82374691963196 0.44078230857849 0.91570508480072
v -3.82374691963196 0.42662158608437 0.92162358760834
v -3.82374691963196 2.1733078956604 0.92162358760834
v -3.97491908073425 0.44078230857849 3.08429598808289
v -3.99975299835205 2.20001006126404 3.10005593299866
v -3.97491788864136 2.17917394638062 0.93591237068176
v -3.99975299835205 2.20001006126404 0.89994531869888
v -3.97491788864136 2.1733078956604 0.92162358760834
v -3.97491788864136 0.44078230857849 0.91570508480072
v -3.97491788864136 0.42662158608437 0.92162358760834
v -3.99975299835205 0.39991998672485 0.89994531869888
v -3.97491908073425 2.15914797782898 3.08429598808289
v -3.97491788864136 2.15914797782898 0.91570508480072
v -3.97491908073425 2.17917394638062 3.06408905982971
v -3.82374691963196 2.1733078956604 3.07837796211243
# 445 vertices

vn -1 0 0
vn 0 0 1
vn 1 0 0
vn 0 0 -1
vn -0.70710676908493 0 -0.70710676908493
vn -0.70710676908493 0 0.70710676908493
vn 0.70710676908493 0 0.70710676908493
vn 0.70710676908493 0 -0.70710676908493
vn -0.38229277729988 0.90608978271484 -0.18125545978546
vn -0.74385267496109 0.3548167347908 -0.566381752491
vn -0.37106919288635 0.58966690301895 -0.71735668182373
vn -0.76433402299881 0.52567106485367 0.37344801425934
vn 0.77495622634888 0.51498121023178 -0.36638388037682
vn 0.32444748282433 0.93640375137329 -0.13372287154198
vn 0.37738335132599 0.71582835912704 -0.58751302957535
vn 0.39013475179672 0.90280389785767 0.18094204366207
vn -0.31835216283798 0.93839985132217 0.13437855243683
vn -0.37126356363297 0.71740126609802 0.58949029445648
vn 0.75469821691513 0.34716114401817 0.55669540166855
vn 0.37719485163689 0.58763647079468 0.71582639217377
vn 0.29135218262672 -0.13662894070148 -0.94680857658386
vn 0.75468474626541 -0.34716933965683 -0.5567085146904
vn 0.34091654419899 0.1830992847681 -0.92209035158157
vn -0.28534558415413 0.13731336593628 -0.94853729009628
vn -0.33331418037415 -0.18350093066692 -0.92478597164154
vn 0.37719485163689 -0.58763647079468 -0.71582639217377
vn -0.76433402299881 -0.52567106485367 -0.37344801425934
vn -0.37126356363297 -0.71740126609802 -0.58949029445648
vn 0.32444748282433 -0.93640375137329 0.13372287154198
vn 0.77495622634888 -0.51498121023178 0.36638388037682
vn 0.39013475179672 -0.90280389785767 -0.18094204366207
vn -0.31835216283798 -0.93839985132217 -0.13437855243683
vn -0.38229277729988 -0.90608978271484 0.18125545978546
vn 0.37738335132599 -0.71582835912704 0.58751302957535
vn -0.37106919288635 -0.58966690301895 0.71735668182373
vn 0.34094417095184 -0.18309733271599 0.92208051681519
vn 0.29138076305389 0.13662770390511 0.94679993391037
vn -0.28534558415413 -0.13731336593628 0.94853729009628
vn -0.33331418037415 0.18350093066692 0.92478597164154
vn -0.74385267496109 -0.3548167347908 0.566381752491
vn -0.63724833726883 -0.64599877595901 -0.42023825645447
vn -0.31412926316261 -0.18043994903564 -0.93207520246506
vn -0.52689135074615 0 -0.84993261098862
vn -0.31647792458534 -0.72486478090286 -0.61189275979996
vn -0.18178598582745 0 -0.98333811759949
vn 0.22934676706791 -0.14037685096264 -0.96316891908646
vn 0.3088493347168 0 -0.95111095905304
vn 0.27759894728661 -0.60876142978668 -0.74320143461227
vn 0.58483380079269 -0.46364188194275 -0.6655867099762
vn 0.45204472541809 0 -0.89199525117874
vn 0.56282967329025 -0.6884897351265 0.45738896727562
vn 0.27037784457207 -0.18237692117691 0.94532245397568
vn 0.45204472541809 0 0.89199525117874
vn 0.27750599384308 -0.73223459720612 0.62195092439651
vn 0.15440739691257 0 0.98800724744797
vn -0.3166064620018 -0.59946155548096 0.73512321710587
vn -0.26475790143013 -0.13703534007072 0.95452845096588
vn -0.36360266804695 0 0.93155413866043
vn -0.66027265787125 -0.43076479434967 0.61520862579346
vn -0.52689135074615 0 0.84993261098862
vn 0.22612635791302 -0.95481812953949 -0.19284489750862
vn 0.19909706711769 -0.96854740381241 0.14925247430801
vn -0.2315981388092 -0.96183079481125 -0.1457527577877
vn -0.26513016223907 -0.94520598649979 0.19050371646881
vn -0.08484537899494 0 0.99639415740967
vn -0.16969238221645 0 0.9854970574379
vn -0.9854970574379 0 0.16969238221645
vn -0.99639415740967 0 0.08484537899494
vn -0.90886002779007 0 0.41710123419762
vn -0.81927889585495 0 0.57339525222778
vn -0.57339525222778 0 0.81927889585495
vn -0.41710123419762 0 0.90886002779007
vn 0.00018750583695 0.99999994039536 -0.00018750583695
vn 0.0002500077826 0.99999994039536 -0.0001250038913
vn 0.0003750116739 0.99999994039536 -0.00009375291847
vn 0.0001250038913 0.99999994039536 -0.0002500077826
vn 0.00009375291847 0.99999994039536 -0.0003750116739
vn 0.00034376070835 -0.99999994039536 -0.00009375291847
vn 0.0002500077826 -0.99999994039536 -0.0001250038913
vn 0.00018750583695 -0.99999994039536 -0.00018750583695
vn 0.0001250038913 -0.99999994039536 -0.0002500077826
vn 0.00009375291847 -0.99999994039536 -0.00034376070835
vn 0.99639415740967 0 0.08484537899494
vn 0.9854970574379 0 0.16969238221645
vn 0.16969238221645 0 0.9854970574379
vn 0.08484537899494 0 0.99639415740967
vn 0.41710123419762 0 0.90886002779007
vn 0.57339525222778 0 0.81927889585495
vn 0.81927889585495 0 0.57339525222778
vn 0.90886002779007 0 0.41710123419762
vn -0.00018750583695 0.99999994039536 -0.00018750583695
vn -0.0001250038913 0.99999994039536 -0.0002500077826
vn -0.00009375291847 0.99999994039536 -0.0003750116739
vn -0.0002500077826 0.99999994039536 -0.0001250038913
vn -0.0003750116739 0.99999994039536 -0.00009375291847
vn -0.00009375291847 -0.99999994039536 -0.00034376070835
vn -0.0001250038913 -0.99999994039536 -0.0002500077826
vn -0.00018750583695 -0.99999994039536 -0.00018750583695
vn -0.0002500077826 -0.99999994039536 -0.0001250038913
vn -0.00034376070835 -0.99999994039536 -0.00009375291847
vn 0 1 0
vn 0 -1 0
vn 0 -0.70710676908493 0.70710676908493
vn 0 0.70710676908493 0.70710676908493
vn 0 0.70710676908493 -0.70710676908493
vn 0 -0.70710676908493 -0.70710676908493
vn 0.84458541870117 0.53542083501816 0
vn 0.97822165489197 -0.20756310224533 0
vn 0.96350538730621 0.26768898963928 0
vn 0.90974473953247 -0.41516810655594 0
vn 0.80376422405243 -0.59494799375534 0
vn 0.67041891813278 0.74198281764984 0
vn -0.84458541870117 -0.53542083501816 0
vn -0.97822165489197 0.20756310224533 0
vn -0.96350538730621 -0.26768898963928 0
vn -0.90974473953247 0.41516810655594 0
vn -0.80376422405243 0.59494799375534 0
vn -0.67041891813278 -0.74198281764984 0
vn 0 0.53542083501816 0.84458541870117
vn 0 -0.20756310224533 0.97822165489197
vn 0 0.26768898963928 0.96350538730621
vn 0 -0.41516810655594 0.90974473953247
vn 0 -0.59494799375534 0.80376422405243
vn 0 0.74198281764984 0.67041891813278
vn 0.97880041599274 -0.20481650531292 0
vn 0.99375385046005 -0.11159418523312 0
vn 0.98467326164246 -0.17440927028656 0
vn 0.99685716629028 -0.07921981066465 0
vn 0.99890506267548 -0.04678266122937 0
vn 0.96429860591888 -0.264817237854 0
vn 0.95568704605103 -0.29438447952271 0
vn 0.9370259642601 -0.3492596745491 0
vn 0.9271844625473 -0.37460514903069 0
vn 0.90789532661438 -0.41919687390327 0
vn 0.89871048927307 -0.4385424554348 0
vn 0.87736475467682 -0.47982400655746 0
vn 0.86505806446075 -0.50167179107666 0
vn 0.83536231517792 -0.54969972372055 0
vn 0.81768000125885 -0.57567298412323 0
vn 0.78040516376495 -0.62527418136597 0
vn 0.7608579993248 -0.64891839027405 0
vn 0.7217338681221 -0.69217067956924 0
vn 0.70232498645782 -0.7118564248085 0
vn 0.66430371999741 -0.7474627494812 0
vn 0.64579230546951 -0.76351308822632 0
vn 0.60645550489426 -0.79511737823486 0
vn 0.58559894561768 -0.81060093641281 0
vn 0.53916454315186 -0.84220045804977 0
vn 0.51341539621353 -0.85814023017883 0
vn 0.46150624752045 -0.88713693618774 0
vn 0.43534937500954 -0.90026158094406 0
vn 0.38356778025627 -0.92351275682449 0
vn 0.35797369480133 -0.93373167514801 0
vn 0.3068183362484 -0.95176810026169 0
vn 0.28128978610039 -0.95962285995483 0
vn 0.2261625379324 -0.97408956289291 0
vn 0.19650073349476 -0.98050367832184 0
vn 0.14146949350834 -0.98994261026382 0
vn 0.11609599739313 -0.99323797225952 0
vn 0.07018768042326 -0.99753379821777 0
vn 0.04965706169605 -0.99876630306244 0
vn 0.02909416332841 -0.99957668781281 0
vn 0.0003750116739 -0.99999994039536 -0.00009375291847
vn 0.00009375291847 -0.99999994039536 -0.0003750116739
vn 0.00034376070835 0.99999994039536 -0.00009375291847
vn 0.00009375291847 0.99999994039536 -0.00034376070835
# 166 normals

vt 1 0.99995040893555 0
vt 0.00003366265082 0.99995040893555 0
vt 1 0 0
vt 0.00003051758176 0 0
vt 0.25 0.99996948242188 0
vt 0.25 0 0
vt 0.4917297065258 0.99996948242188 0
vt 0.4917297065258 0 0
vt 0.5 0.99996948242188 0
vt 0.5 0 0
vt 0.74172967672348 0.99996948242188 0
vt 0.74172967672348 0 0
vt 0.75 0.99996948242188 0
vt 0.75 0 0
vt 0.99172967672348 0.99996948242188 0
vt 0.99172967672348 0 0
vt 0.00003051758176 0.99996948242188 0
vt 0.24173359572887 0.99996948242188 0
vt 0.24173359572887 0 0
vt 1 0.99996948242188 0
vt 0.77499389648438 0.10000610351562 0
vt 0.77499389648438 0.55000311136246 0
vt 0.22499850392342 0.55000311136246 0
vt 0.22499850392342 0.10000610351562 0
vt 0.76576191186905 0.10621213912964 0
vt 0.77474898099899 0.10000610351562 0
vt 0.76933217048645 0.10621213912964 0
vt 0.77474898099899 0.14998340606689 0
vt 0.76576191186905 0.14398801326752 0
vt 0.76933217048645 0.14398801326752 0
vt 0.23398570716381 0.14398801326752 0
vt 0.23398570716381 0.10621213912964 0
vt 0.2304152995348 0.10621213912964 0
vt 0.22499850392342 0.14998364448547 0
vt 0.2304152995348 0.14398801326752 0
vt 0.76898187398911 0.53813171386719 0
vt 0.77499389648438 0.54831701517105 0
vt 0.76898187398911 0.11021423339844 0
vt 0.76898187398911 0.10667419433594 0
vt 0.73135381937027 0.10667419433594 0
vt 0.73135381937027 0.11021423339844 0
vt 0.73135381937027 0.53813171386719 0
vt 0.76898187398911 0.54166412353516 0
vt 0.72515869140625 0.10000610351562 0
vt 0.72515869140625 0.54831701517105 0
vt 0.73135381937027 0.54166412353516 0
vt 0.23399570584297 0.54400062561035 0
vt 0.76636350154877 0.54400062561035 0
vt 0.77536058425903 0.55000311136246 0
vt 0.76636350154877 0.50618278980255 0
vt 0.23399570584297 0.50618278980255 0
vt 0.76993781328201 0.50618278980255 0
vt 0.23042130470276 0.54400062561035 0
vt 0.77536058425903 0.49997007846832 0
vt 0.76993781328201 0.54400062561035 0
vt 0.23042130470276 0.50618278980255 0
vt 0.27500709891319 0.55008333921432 0
vt 0.26900759339333 0.53986638784409 0
vt 0.27500709891319 0.10000610351562 0
vt 0.26900759339333 0.54340714216232 0
vt 0.26900759339333 0.11022293567657 0
vt 0.23120810091496 0.53986638784409 0
vt 0.23120810091496 0.54340714216232 0
vt 0.23120810091496 0.11022293567657 0
vt 0.22499850392342 0.55008333921432 0
vt 0.26900759339333 0.10668218135834 0
vt 0.23120810091496 0.10668218135834 0
vt 0.22499850392342 0.49997007846832 0
vt 0.39063331484795 0.6104764342308 0
vt 0.3831393122673 0.60211712121964 0
vt 0.39063331484795 0 0
vt 0.3831393122673 0.60563141107559 0
vt 0.3831393122673 0 0
vt 0.34984990954399 0.60211712121964 0
vt 0.34984990954399 0 0
vt 0.34984990954399 0.60563141107559 0
vt 0.34068301320076 0.6104764342308 0
vt 0.34068301320076 0 0
vt 0.60206282138824 0.60612642765045 0
vt 0.6124519109726 0.59843909740448 0
vt 0.60041892528534 0.00024914741516 0
vt 0.61278480291367 0.60222584009171 0
vt 0.61047172546387 0.00020158290863 0
vt 0.64576977491379 0.60234713554382 0
vt 0.64615827798843 0.59866583347321 0
vt 0.64302957057953 0.00003325939178 0
vt 0.65501427650452 0.60617631673813 0
vt 0.65165710449219 0 0
vt 1 0.00003051757812 0
vt 0.65930181741714 0 0
vt 0.65930181741714 0.61106109619141 0
vt 0.00004864018047 0.99995231628418 0
vt 0.34831240773201 0.61106109619141 0
vt 0.00003624055898 0.00003051757812 0
vt 0.34832000732422 0 0
vt 0.34088331460953 0.55971342325211 0
vt 0.34592780470848 0.56982684135437 0
vt 0.3495826125145 0.56952118873596 0
vt 0.65248972177505 0.55927819013596 0
vt 0.64412009716034 0.56876319646835 0
vt 0.6476349234581 0.56905102729797 0
vt 0.34914571046829 0.60248428583145 0
vt 0.64437389373779 0.60165703296661 0
vt 0.3456229865551 0.60208374261856 0
vt 0.65315097570419 0.60991668701172 0
vt 0.64802151918411 0.6012356877327 0
vt 0.34068301320076 0.61104583740234 0
vt 0.00004768465078 0.00003051757812 0
vt 0.00005245301872 0.99995291233063 0
vt 0.65165710449219 0.61104583740234 0
vt 0.99998468160629 0.99995297193527 0
vt 0.99998468160629 0.00003051757812 0
vt 0.01253014989197 0 0
vt 0.01253325026482 0.99995040893555 0
vt 0.98750042915344 0 0
vt 0.98750042915344 0.99995040893555 0
vt 0.00003361701965 0.99995040893555 0
vt 0.99583351612091 0.99995040893555 0
vt 0.99583351612091 0 0
vt 1.00416600704193 0.99995040893555 0
vt 1.00416696071625 0 0
vt 1.01250004768372 0.00000011920929 0
vt 1.01250004768372 0.99995052814484 0
vt 0.99884921312332 0.99271547794342 0
vt 1.00063598155975 0.99589782953262 0
vt 1.00395202636719 0.99788492918015 0
vt 0.99580812454224 0.99519562721252 0
vt 0.99168318510056 0.99615037441254 0
vt 0.99565118551254 0.39935302734375 0
vt 0.99749761819839 0.34666442871094 0
vt 0.99749761819839 0.39935302734375 0
vt 0.99070739746094 0.44471740722656 0
vt 0.99749761819839 0.99996709823608 0
vt 0.65663152933121 0.92133331298828 0
vt 0.70854192972183 0.89019203186035 0
vt 0.59516912698746 0.95025730133057 0
vt 0.52160638570786 0.97625160217285 0
vt 0.45345309376717 0.9916552901268 0
vt 0.40344241261482 0.99774372577667 0
vt 0.34581759572029 0.9999685883522 0
vt 0.99913018941879 0.99996709823608 0
vt 0.99913018941879 0.39935302734375 0
vt 0.99913018941879 0.34666442871094 0
vt 0.98359680175781 0.48402404785156 0
vt 0.97239691019058 0.52779394388199 0
vt 0.96124267578125 0.56198883056641 0
vt 0.94789117574692 0.5966796875 0
vt 0.92373657226562 0.64923858642578 0
vt 0.89900207519531 0.69322198629379 0
vt 0.8709716796875 0.73449712991714 0
vt 0.84245300292969 0.77006912231445 0
vt 0.80659478902817 0.80863189697266 0
vt 0.75642400979996 0.85448461771011 0
vt 0.37500759959221 0.99996948242188 0
vt 0.37500759959221 0 0
vt 0.49587249755859 0.99996948242188 0
vt 0.49587249755859 0 0
vt 0.50000762939453 0.99996948242188 0
vt 0.50000762939453 0 0
vt 0.62087249755859 0.99996948242188 0
vt 0.62087249755859 0 0
vt 0.62500762939453 0.99996948242188 0
vt 0.62500762939453 0 0
vt 0.74587249755859 0.99996948242188 0
vt 0.74587249755859 0 0
vt 0.25002288818359 0.99996948242188 0
vt 0.25002288818359 0 0
vt 0.37087440490723 0.99996948242188 0
vt 0.37087440490723 0 0
vt 0.75000762939453 0 0
vt 0.75000762939453 0.99996948242188 0
vt 0.38926240801811 0.00048828125 0
vt 0.36204451322556 0.00048828125 0
vt 0.38926240801811 0.99365228414536 0
vt 0.36204451322556 0.99365228414536 0
vt 0.35498049855232 0.00048828125 0
vt 0.35498049855232 0.99365228414536 0
vt 0.39398708939552 0.00048828125 0
vt 0.39398708939552 0.99365228414536 0
vt 0.99996948242188 0.08192443847656 0
vt 0.99996948242188 0.04383850097656 0
vt 0.00005350727952 0.08192443847656 0
vt 0.00003473367906 0.04385375976562 0
vt 0.99996948242188 0 0
vt 0.00005069654071 0.11552429199219 0
vt 0.99996948242188 0.11552429199219 0
vt 0.00005912873894 0.15396118164062 0
vt 0.99996948242188 0.15396118164062 0
vt 0.0000428641215 0.18495178222656 0
vt 0.99996948242188 0.1849365234375 0
vt 0.00003051758176 0.00001525878906 0
vt 0.00003340375042 0.2173615694046 0
vt 0.99996948242188 0.2173615694046 0
vt 0.00004936661935 0.26860058307648 0
vt 0.99996948242188 0.26858520507812 0
vt 0.00004908535993 0.31431579589844 0
vt 0.99996948242188 0.31431579589844 0
vt 0.00003621447831 0.36062622070312 0
vt 0.99996948242188 0.36062622070312 0
vt 0.00005217735088 0.40393078327179 0
vt 0.99996948242188 0.40393078327179 0
vt 0.00003739539898 0.45504760742188 0
vt 0.99996948242188 0.45503234863281 0
vt 0.00005136150867 0.52253723144531 0
vt 0.99996948242188 0.52252960205078 0
vt 0.00003671738887 0.58384698629379 0
vt 0.99996948242188 0.58383941650391 0
vt 0.00003252271927 0.64662170410156 0
vt 0.99996948242188 0.64661413431168 0
vt 0.00003155786908 0.71897131204605 0
vt 0.99996948242188 0.71896362304688 0
vt 0.00005151052028 0.80346298217773 0
vt 0.99996948242188 0.80345541238785 0
vt 0.00003473367906 0.88022798299789 0
vt 0.99996948242188 0.88022232055664 0
vt 0.00003972183913 0.93598747253418 0
vt 0.99996948242188 0.93598181009293 0
vt 0.00004637334132 0.99996948242188 0
vt 1 0.99994242191315 0
vt 0.01253009028733 0 0
vt 0.99999988079071 0 0
vt 0.01253009028733 0.99995040893555 0
vt 0.99999678134918 0.99995040893555 0
vt 0.02502965927124 0 0
vt 1.01250004768372 0 0
vt 0.02502965927124 0.99995040893555 0
vt 1.01249599456787 0.99995040893555 0
vt 0.01669663004577 0.99995040893555 0
vt 0.01669657044113 0 0
vt 0.00836360454559 0.99995040893555 0
vt 0.0083634853363 0 0
vt 0.00003051758176 0.00000011920929 0
vt 0.00003051758176 0.99995052814484 0
vt 0.01368093956262 0.99271547794342 0
vt 0.00857774354517 0.99788492918015 0
vt 0.01189391966909 0.99589782953262 0
vt 0.01672198995948 0.99519562721252 0
vt 0.02084686048329 0.99615037441254 0
# 238 texture coordinates

o Default
usemtl concrete_C
f 2/1/1 1/2/1 124/3/1
f 124/3/1 1/2/1 125/4/1
f 1/1/2 146/2/2 125/3/2
f 125/3/2 146/2/2 123/4/2
f 60/5/1 59/6/1 58/7/1
f 58/7/1 59/6/1 67/8/1
f 68/9/2 62/10/2 61/11/2
f 61/11/2 62/10/2 69/12/2
f 70/13/3 63/14/3 71/15/3
f 71/15/3 63/14/3 73/16/3
f 64/17/4 72/4/4 66/18/4
f 66/18/4 72/4/4 65/19/4
f 65/19/5 59/6/5 66/18/5
f 66/18/5 59/6/5 60/5/5
f 67/8/6 62/10/6 58/7/6
f 58/7/6 62/10/6 68/9/6
f 69/12/7 63/14/7 61/11/7
f 61/11/7 63/14/7 70/13/7
f 73/16/8 72/3/8 71/15/8
f 71/15/8 72/3/8 64/20/8
f 107/5/1 98/6/1 97/7/1
f 97/7/1 98/6/1 108/8/1
f 101/9/2 100/10/2 99/11/2
f 99/11/2 100/10/2 109/12/2
f 110/13/3 102/14/3 111/15/3
f 111/15/3 102/14/3 103/16/3
f 112/17/4 105/4/4 104/18/4
f 104/18/4 105/4/4 106/19/4
f 106/19/5 98/6/5 104/18/5
f 104/18/5 98/6/5 107/5/5
f 108/8/6 100/10/6 97/7/6
f 97/7/6 100/10/6 101/9/6
f 109/12/7 102/14/7 99/11/7
f 99/11/7 102/14/7 110/13/7
f 103/16/8 105/3/8 111/15/8
f 111/15/8 105/3/8 112/20/8
f 146/1/1 75/2/1 123/3/1
f 123/3/1 75/2/1 4/4/1
f 133/5/1 132/6/1 134/7/1
f 134/7/1 132/6/1 135/8/1
f 128/9/2 127/10/2 126/11/2
f 126/11/2 127/10/2 137/12/2
f 129/13/3 136/14/3 138/15/3
f 138/15/3 136/14/3 140/16/3
f 141/17/4 139/4/4 130/18/4
f 130/18/4 139/4/4 131/19/4
f 131/19/5 132/6/5 130/18/5
f 130/18/5 132/6/5 133/5/5
f 135/8/6 127/10/6 134/7/6
f 134/7/6 127/10/6 128/9/6
f 137/12/7 136/14/7 126/11/7
f 126/11/7 136/14/7 129/13/7
f 140/16/8 139/3/8 138/15/8
f 138/15/8 139/3/8 141/20/8
f 148/1/3 147/2/3 184/3/3
f 184/3/3 147/2/3 382/4/3
f 218/1/4 217/2/4 216/3/4
f 216/3/4 217/2/4 219/4/4
f 231/21/3 220/22/3 413/3/3
f 413/3/3 221/4/3 231/21/3
f 413/3/3 220/22/3 222/20/3
f 220/22/3 251/23/3 222/20/3
f 222/20/3 251/23/3 223/17/3
f 221/4/3 223/17/3 224/24/3
f 224/24/3 223/17/3 251/23/3
f 231/21/3 221/4/3 224/24/3
f 233/25/9 240/26/10 236/27/11
f 227/24/12 240/26/10 233/25/9
f 226/3/1 225/20/1 240/21/1
f 240/21/1 227/24/1 226/3/1
f 240/21/1 225/20/1 241/22/1
f 225/20/1 228/17/1 241/22/1
f 241/22/1 228/17/1 256/23/1
f 227/24/1 256/23/1 33/4/1
f 33/4/1 256/23/1 228/17/1
f 226/3/1 227/24/1 33/4/1
f 231/28/13 230/29/14 229/30/15
f 230/29/14 231/28/13 232/31/16
f 230/29/14 233/25/9 229/30/15
f 232/31/16 253/32/17 230/29/14
f 230/29/14 253/32/17 233/25/9
f 253/32/17 232/31/16 234/33/18
f 233/25/9 253/32/17 227/24/12
f 232/31/16 231/28/13 224/34/19
f 224/34/19 235/35/20 232/31/16
f 234/33/18 232/31/16 235/35/20
f 229/30/15 233/25/9 236/27/11
f 238/36/21 220/37/22 237/38/23
f 237/38/23 220/37/22 231/21/13
f 231/21/13 229/39/15 237/38/23
f 229/39/15 236/40/11 237/38/23
f 239/41/24 238/36/21 237/38/23
f 237/38/23 236/40/11 239/41/24
f 254/42/25 238/36/21 239/41/24
f 238/36/21 254/42/25 247/43/26
f 240/44/10 254/42/25 239/41/24
f 241/45/27 254/42/25 240/44/10
f 247/43/26 254/42/25 242/46/28
f 244/47/29 251/23/30 243/48/31
f 243/48/31 251/23/30 220/49/22
f 257/50/32 244/47/29 243/48/31
f 245/51/33 244/47/29 257/50/32
f 257/50/32 243/48/31 242/52/28
f 244/47/29 245/51/33 246/53/34
f 241/54/27 245/51/33 257/50/32
f 242/52/28 243/48/31 247/55/26
f 246/53/34 245/51/33 250/56/35
f 251/57/30 248/58/36 224/59/19
f 251/57/30 246/60/34 248/58/36
f 224/59/19 248/58/36 249/61/37
f 248/58/36 255/62/38 249/61/37
f 255/62/38 248/58/36 250/63/35
f 250/63/35 248/58/36 246/60/34
f 249/61/37 255/62/38 252/64/39
f 256/65/40 252/64/39 255/62/38
f 227/24/12 252/64/39 256/65/40
f 252/64/39 235/66/20 249/61/37
f 234/67/18 235/66/20 252/64/39
f 243/48/31 220/49/22 247/55/26
f 251/23/30 244/47/29 246/53/34
f 236/40/11 240/44/10 239/41/24
f 256/68/40 245/51/33 241/54/27
f 256/68/40 250/56/35 245/51/33
f 227/24/12 234/67/18 252/64/39
f 227/24/12 253/32/17 234/67/18
f 241/45/27 242/46/28 254/42/25
f 256/65/40 255/62/38 250/63/35
f 224/59/19 249/61/37 235/66/20
f 241/54/27 257/50/32 242/52/28
f 220/37/22 238/36/21 247/43/26
f 277/69/41 259/70/42 258/71/43
f 259/70/42 277/69/41 260/72/44
f 258/71/43 259/70/42 261/73/45
f 262/74/46 261/73/45 259/70/42
f 263/75/47 261/73/45 262/74/46
f 262/74/46 259/70/42 272/76/48
f 272/76/48 259/70/42 260/72/44
f 279/77/49 262/74/46 272/76/48
f 279/77/49 263/75/47 262/74/46
f 280/78/50 263/75/47 279/77/49
f 282/79/51 264/80/52 284/81/53
f 282/79/51 274/82/54 264/80/52
f 284/81/53 264/80/52 265/83/55
f 266/84/56 264/80/52 274/82/54
f 267/85/57 264/80/52 266/84/56
f 267/85/57 265/83/55 264/80/52
f 268/86/58 265/83/55 267/85/57
f 267/85/57 269/87/59 268/86/58
f 269/87/59 267/85/57 266/84/56
f 268/86/58 269/87/59 270/88/60
f 288/89/1 314/20/1 258/90/1
f 258/90/1 314/20/1 277/91/1
f 2/92/1 277/91/1 314/20/1
f 269/93/1 277/91/1 2/92/1
f 124/94/1 269/93/1 2/92/1
f 270/95/1 269/93/1 124/94/1
f 279/96/49 272/97/48 271/98/61
f 279/96/49 271/98/61 282/99/51
f 282/99/51 271/98/61 273/100/62
f 282/99/51 273/100/62 274/101/54
f 271/98/61 275/102/63 273/100/62
f 273/100/62 276/103/64 274/101/54
f 273/100/62 275/102/63 276/103/64
f 275/102/63 271/98/61 260/104/44
f 260/104/44 271/98/61 272/97/48
f 277/77/41 275/102/63 260/104/44
f 277/77/41 276/103/64 275/102/63
f 269/105/59 276/103/64 277/77/41
f 269/105/59 266/106/56 276/103/64
f 274/101/54 276/103/64 266/106/56
f 280/78/3 279/107/3 278/108/3
f 278/108/3 279/107/3 281/109/3
f 282/110/3 281/109/3 279/107/3
f 283/111/3 281/109/3 282/110/3
f 284/88/3 283/111/3 282/110/3
f 285/112/3 283/111/3 284/88/3
f 287/3/2 286/1/2 297/113/65
f 286/1/2 292/114/66 297/113/65
f 294/115/67 289/116/68 288/4/1
f 289/116/68 314/117/1 288/4/1
f 290/118/69 289/116/68 294/115/67
f 295/119/70 290/118/69 294/115/67
f 293/120/71 290/118/69 295/119/70
f 291/121/72 293/120/71 295/119/70
f 297/122/65 292/123/66 291/121/72
f 292/123/66 293/120/71 291/121/72
f 296/124/73 295/125/74 294/126/75
f 296/124/73 291/127/76 295/125/74
f 296/124/73 297/128/77 291/127/76
f 289/126/78 290/125/79 179/124/80
f 290/125/79 293/127/81 179/124/80
f 293/127/81 292/128/82 179/124/80
f 316/69/41 315/70/42 331/71/43
f 315/70/42 316/69/41 317/72/44
f 331/71/43 315/70/42 318/73/45
f 319/74/46 318/73/45 315/70/42
f 320/75/47 318/73/45 319/74/46
f 319/74/46 315/70/42 321/76/48
f 321/76/48 315/70/42 317/72/44
f 333/77/49 319/74/46 321/76/48
f 333/77/49 320/75/47 319/74/46
f 322/78/50 320/75/47 333/77/49
f 339/79/51 324/80/52 323/81/53
f 339/79/51 335/82/54 324/80/52
f 323/81/53 324/80/52 325/83/55
f 326/84/56 324/80/52 335/82/54
f 327/85/57 324/80/52 326/84/56
f 327/85/57 325/83/55 324/80/52
f 328/86/58 325/83/55 327/85/57
f 327/85/57 329/87/59 328/86/58
f 329/87/59 327/85/57 326/84/56
f 328/86/58 329/87/59 330/88/60
f 4/89/1 75/20/1 331/90/1
f 331/90/1 75/20/1 316/91/1
f 206/92/1 316/91/1 75/20/1
f 329/93/1 316/91/1 206/92/1
f 94/94/1 329/93/1 206/92/1
f 330/95/1 329/93/1 94/94/1
f 333/96/49 321/97/48 332/98/61
f 333/96/49 332/98/61 339/99/51
f 339/99/51 332/98/61 334/100/62
f 339/99/51 334/100/62 335/101/54
f 332/98/61 336/102/63 334/100/62
f 334/100/62 337/103/64 335/101/54
f 334/100/62 336/102/63 337/103/64
f 336/102/63 332/98/61 317/104/44
f 317/104/44 332/98/61 321/97/48
f 316/77/41 336/102/63 317/104/44
f 316/77/41 337/103/64 336/102/63
f 329/105/59 337/103/64 316/77/41
f 329/105/59 326/106/56 337/103/64
f 335/101/54 337/103/64 326/106/56
f 322/78/3 333/107/3 379/108/3
f 379/108/3 333/107/3 338/109/3
f 339/110/3 338/109/3 333/107/3
f 340/111/3 338/109/3 339/110/3
f 323/88/3 340/111/3 339/110/3
f 341/112/3 340/111/3 323/88/3
f 343/21/3 354/22/3 342/3/3
f 342/3/3 411/4/3 343/21/3
f 342/3/3 354/22/3 344/20/3
f 354/22/3 369/23/3 344/20/3
f 344/20/3 369/23/3 414/17/3
f 411/4/3 414/17/3 345/24/3
f 345/24/3 414/17/3 369/23/3
f 343/21/3 411/4/3 345/24/3
f 346/25/9 358/26/10 370/27/11
f 374/24/12 358/26/10 346/25/9
f 3/3/1 347/20/1 358/21/1
f 358/21/1 374/24/1 3/3/1
f 358/21/1 347/20/1 371/22/1
f 347/20/1 348/17/1 371/22/1
f 371/22/1 348/17/1 366/23/1
f 374/24/1 366/23/1 349/4/1
f 349/4/1 366/23/1 348/17/1
f 3/3/1 374/24/1 349/4/1
f 343/28/13 351/29/14 350/30/15
f 351/29/14 343/28/13 352/31/16
f 351/29/14 346/25/9 350/30/15
f 352/31/16 375/32/17 351/29/14
f 351/29/14 375/32/17 346/25/9
f 375/32/17 352/31/16 373/33/18
f 346/25/9 375/32/17 374/24/12
f 352/31/16 343/28/13 345/34/19
f 345/34/19 376/35/20 352/31/16
f 373/33/18 352/31/16 376/35/20
f 350/30/15 346/25/9 370/27/11
f 355/36/21 354/37/22 353/38/23
f 353/38/23 354/37/22 343/21/13
f 343/21/13 350/39/15 353/38/23
f 350/39/15 370/40/11 353/38/23
f 356/41/24 355/36/21 353/38/23
f 353/38/23 370/40/11 356/41/24
f 357/42/25 355/36/21 356/41/24
f 355/36/21 357/42/25 378/43/26
f 358/44/10 357/42/25 356/41/24
f 371/45/27 357/42/25 358/44/10
f 378/43/26 357/42/25 359/46/28
f 368/47/29 369/23/30 367/48/31
f 367/48/31 369/23/30 354/49/22
f 377/50/32 368/47/29 367/48/31
f 372/51/33 368/47/29 377/50/32
f 377/50/32 367/48/31 359/52/28
f 368/47/29 372/51/33 360/53/34
f 371/54/27 372/51/33 377/50/32
f 359/52/28 367/48/31 378/55/26
f 360/53/34 372/51/33 364/56/35
f 369/57/30 361/58/36 345/59/19
f 369/57/30 360/60/34 361/58/36
f 345/59/19 361/58/36 362/61/37
f 361/58/36 363/62/38 362/61/37
f 363/62/38 361/58/36 364/63/35
f 364/63/35 361/58/36 360/60/34
f 362/61/37 363/62/38 365/64/39
f 366/65/40 365/64/39 363/62/38
f 374/24/12 365/64/39 366/65/40
f 365/64/39 376/66/20 362/61/37
f 373/67/18 376/66/20 365/64/39
f 367/48/31 354/49/22 378/55/26
f 369/23/30 368/47/29 360/53/34
f 370/40/11 358/44/10 356/41/24
f 366/68/40 372/51/33 371/54/27
f 366/68/40 364/56/35 372/51/33
f 374/24/12 373/67/18 365/64/39
f 374/24/12 375/32/17 373/67/18
f 371/45/27 359/46/28 357/42/25
f 366/65/40 363/62/38 364/63/35
f 345/59/19 362/61/37 376/66/20
f 371/54/27 377/50/32 359/52/28
f 354/37/22 355/36/21 378/43/26
f 338/1/3 380/2/3 379/3/3
f 379/3/3 380/2/3 381/4/3
f 382/3/3 147/1/3 390/113/83
f 147/1/3 386/114/84 390/113/83
f 387/115/85 384/116/86 383/4/2
f 384/116/86 385/117/2 383/4/2
f 392/118/87 384/116/86 387/115/85
f 388/119/88 392/118/87 387/115/85
f 393/120/89 392/118/87 388/119/88
f 389/121/90 393/120/89 388/119/88
f 390/122/83 386/123/84 389/121/90
f 386/123/84 393/120/89 389/121/90
f 410/124/91 388/125/92 387/126/93
f 410/124/91 389/127/94 388/125/92
f 410/124/91 390/128/95 389/127/94
f 384/126/96 392/125/97 391/124/98
f 392/125/97 393/127/99 391/124/98
f 393/127/99 386/128/100 391/124/98
f 421/21/3 412/22/3 411/3/3
f 411/3/3 413/4/3 421/21/3
f 411/3/3 412/22/3 414/20/3
f 412/22/3 415/23/3 414/20/3
f 414/20/3 415/23/3 222/17/3
f 413/4/3 222/17/3 416/24/3
f 416/24/3 222/17/3 415/23/3
f 421/21/3 413/4/3 416/24/3
f 419/25/9 418/26/10 417/27/11
f 441/24/12 418/26/10 419/25/9
f 349/3/1 348/20/1 418/21/1
f 418/21/1 441/24/1 349/3/1
f 418/21/1 348/20/1 435/22/1
f 348/20/1 225/17/1 435/22/1
f 435/22/1 225/17/1 437/23/1
f 441/24/1 437/23/1 226/4/1
f 226/4/1 437/23/1 225/17/1
f 349/3/1 441/24/1 226/4/1
f 421/28/13 420/29/14 426/30/15
f 420/29/14 421/28/13 422/31/16
f 420/29/14 419/25/9 426/30/15
f 422/31/16 423/32/17 420/29/14
f 420/29/14 423/32/17 419/25/9
f 423/32/17 422/31/16 440/33/18
f 419/25/9 423/32/17 441/24/12
f 422/31/16 421/28/13 416/34/19
f 416/34/19 432/35/20 422/31/16
f 440/33/18 422/31/16 432/35/20
f 426/30/15 419/25/9 417/27/11
f 425/36/21 412/37/22 424/38/23
f 424/38/23 412/37/22 421/21/13
f 421/21/13 426/39/15 424/38/23
f 426/39/15 417/40/11 424/38/23
f 434/41/24 425/36/21 424/38/23
f 424/38/23 417/40/11 434/41/24
f 442/42/25 425/36/21 434/41/24
f 425/36/21 442/42/25 445/43/26
f 418/44/10 442/42/25 434/41/24
f 435/45/27 442/42/25 418/44/10
f 445/43/26 442/42/25 429/46/28
f 428/47/29 415/23/30 427/48/31
f 427/48/31 415/23/30 412/49/22
f 444/50/32 428/47/29 427/48/31
f 436/51/33 428/47/29 444/50/32
f 444/50/32 427/48/31 429/52/28
f 428/47/29 436/51/33 433/53/34
f 435/54/27 436/51/33 444/50/32
f 429/52/28 427/48/31 445/55/26
f 433/53/34 436/51/33 438/56/35
f 415/57/30 430/58/36 416/59/19
f 415/57/30 433/60/34 430/58/36
f 416/59/19 430/58/36 431/61/37
f 430/58/36 443/62/38 431/61/37
f 443/62/38 430/58/36 438/63/35
f 438/63/35 430/58/36 433/60/34
f 431/61/37 443/62/38 439/64/39
f 437/65/40 439/64/39 443/62/38
f 441/24/12 439/64/39 437/65/40
f 439/64/39 432/66/20 431/61/37
f 440/67/18 432/66/20 439/64/39
f 427/48/31 412/49/22 445/55/26
f 415/23/30 428/47/29 433/53/34
f 417/40/11 418/44/10 434/41/24
f 437/68/40 436/51/33 435/54/27
f 437/68/40 438/56/35 436/51/33
f 441/24/12 440/67/18 439/64/39
f 441/24/12 423/32/17 440/67/18
f 435/45/27 429/46/28 442/42/25
f 437/65/40 443/62/38 438/63/35
f 416/59/19 431/61/37 432/66/20
f 435/54/27 444/50/32 429/52/28
f 412/37/22 425/36/21 445/43/26

usemtl concrete_A
f 347/1/4 148/2/4 3/3/4
f 3/3/4 148/2/4 184/4/4
f 11/1/4 10/2/4 9/3/4
f 9/3/4 10/2/4 12/4/4
f 36/1/2 35/2/2 34/3/2
f 34/3/2 35/2/2 37/4/2
f 298/129/4 39/130/4 46/131/4
f 47/132/4 46/131/4 148/133/4
f 308/134/4 50/135/4 148/133/4
f 310/136/4 308/134/4 148/133/4
f 312/137/4 310/136/4 148/133/4
f 313/138/4 312/137/4 148/133/4
f 313/138/4 148/133/4 45/139/4
f 45/139/4 148/133/4 2/140/4
f 51/141/4 148/133/4 52/142/4
f 52/142/4 148/133/4 46/131/4
f 52/142/4 46/131/4 53/143/4
f 53/143/4 46/131/4 39/130/4
f 46/131/2 47/132/2 298/129/2
f 47/132/2 148/133/2 48/144/2
f 48/144/2 148/133/2 40/145/2
f 40/145/2 148/133/2 300/146/2
f 300/146/2 148/133/2 49/147/2
f 49/147/2 148/133/2 41/148/2
f 41/148/2 148/133/2 42/149/2
f 42/149/2 148/133/2 302/150/2
f 302/150/2 148/133/2 43/151/2
f 43/151/2 148/133/2 44/152/2
f 44/152/2 148/133/2 305/153/2
f 305/153/2 148/133/2 50/135/2
f 51/141/2 46/131/2 148/133/2
f 52/142/2 46/131/2 51/141/2
f 52/142/2 39/130/2 46/131/2
f 53/143/2 39/130/2 52/142/2
f 182/1/1 181/2/1 180/3/1
f 180/3/1 181/2/1 183/4/1

usemtl floor_B
f 115/3/101 94/4/101 207/20/101
f 207/20/101 94/4/101 4/17/101
f 207/3/101 4/4/101 125/20/101
f 125/20/101 4/4/101 123/17/101

usemtl plaster_A
f 7/3/102 6/4/102 5/20/102
f 5/20/102 6/4/102 8/17/102
f 179/3/102 391/4/102 314/20/102
f 314/20/102 391/4/102 147/17/102
f 17/154/2 25/155/2 26/156/2
f 26/156/2 25/155/2 28/157/2
f 19/158/101 27/159/101 18/160/101
f 18/160/101 27/159/101 20/161/101
f 21/162/4 29/163/4 30/164/4
f 30/164/4 29/163/4 32/165/4
f 23/166/102 31/167/102 22/168/102
f 22/168/102 31/167/102 24/169/102
f 24/169/103 25/155/103 22/168/103
f 22/168/103 25/155/103 17/154/103
f 28/157/104 27/159/104 26/156/104
f 26/156/104 27/159/104 19/158/104
f 20/161/105 29/163/105 18/160/105
f 18/160/105 29/163/105 21/162/105
f 32/165/106 31/170/106 30/164/106
f 30/164/106 31/170/106 23/171/106
f 75/3/102 225/4/102 206/20/102
f 206/20/102 225/4/102 228/17/102
f 1/3/102 146/4/102 38/20/102
f 38/20/102 146/4/102 75/17/102
f 38/3/102 75/4/102 74/20/102
f 74/20/102 75/4/102 206/17/102
f 77/154/2 87/155/2 76/156/2
f 76/156/2 87/155/2 78/157/2
f 80/158/101 88/159/101 79/160/101
f 79/160/101 88/159/101 89/161/101
f 83/162/4 82/163/4 81/164/4
f 81/164/4 82/163/4 84/165/4
f 91/166/102 90/167/102 86/168/102
f 86/168/102 90/167/102 85/169/102
f 85/169/103 87/155/103 86/168/103
f 86/168/103 87/155/103 77/154/103
f 78/157/104 88/159/104 76/156/104
f 76/156/104 88/159/104 80/158/104
f 89/161/105 82/163/105 79/160/105
f 79/160/105 82/163/105 83/162/105
f 84/165/106 90/170/106 81/164/106
f 81/164/106 90/170/106 91/171/106
f 2/3/102 51/4/102 1/20/102
f 1/20/102 51/4/102 146/17/102
f 314/3/102 147/4/102 2/20/102
f 2/20/102 147/4/102 51/17/102
f 148/3/102 347/4/102 146/20/102
f 146/20/102 347/4/102 348/17/102
f 146/3/102 348/4/102 75/20/102
f 75/20/102 348/4/102 225/17/102
f 191/154/2 196/155/2 190/156/2
f 190/156/2 196/155/2 192/157/2
f 198/158/101 197/159/101 199/160/101
f 199/160/101 197/159/101 200/161/101
f 201/162/4 193/163/4 202/164/4
f 202/164/4 193/163/4 204/165/4
f 205/166/102 203/167/102 195/168/102
f 195/168/102 203/167/102 194/169/102
f 194/169/103 196/155/103 195/168/103
f 195/168/103 196/155/103 191/154/103
f 192/157/104 197/159/104 190/156/104
f 190/156/104 197/159/104 198/158/104
f 200/161/105 193/163/105 199/160/105
f 199/160/105 193/163/105 201/162/105
f 204/165/106 203/170/106 202/164/106
f 202/164/106 203/170/106 205/171/106
f 401/154/2 399/155/2 402/156/2
f 402/156/2 399/155/2 394/157/2
f 396/158/101 403/159/101 395/160/101
f 395/160/101 403/159/101 404/161/101
f 405/162/4 397/163/4 406/164/4
f 406/164/4 397/163/4 408/165/4
f 409/166/102 407/167/102 398/168/102
f 398/168/102 407/167/102 400/169/102
f 400/169/103 399/155/103 398/168/103
f 398/168/103 399/155/103 401/154/103
f 394/157/104 403/159/104 402/156/104
f 402/156/104 403/159/104 396/158/104
f 404/161/105 397/163/105 395/160/105
f 395/160/105 397/163/105 405/162/105
f 408/165/106 407/170/106 406/164/106
f 406/164/106 407/170/106 409/171/106

usemtl metal_bars_A
f 189/172/107 186/173/108 16/174/109
f 16/174/109 186/173/108 13/175/110
f 299/176/111 13/175/110 186/173/108
f 39/177/111 13/175/110 299/176/111
f 15/178/112 189/172/107 14/179/112
f 14/179/112 189/172/107 16/174/109
f 56/172/113 54/173/114 144/174/115
f 144/174/115 54/173/114 142/175/116
f 179/176/117 142/175/116 54/173/114
f 314/177/117 142/175/116 179/176/117
f 57/178/118 56/172/113 55/179/118
f 55/179/118 56/172/113 144/174/115
f 95/172/119 93/173/120 92/174/121
f 92/174/121 93/173/120 113/175/122
f 33/176/123 113/175/122 93/173/120
f 94/177/123 113/175/122 33/176/123
f 96/178/124 95/172/119 117/179/124
f 117/179/124 95/172/119 92/174/121
f 92/172/119 113/173/120 118/174/121
f 118/174/121 113/173/120 114/175/122
f 94/176/123 114/175/122 113/173/120
f 115/177/123 114/175/122 94/176/123
f 117/178/124 92/172/119 116/179/124
f 116/179/124 92/172/119 118/174/121
f 145/172/113 120/173/114 119/174/115
f 119/174/115 120/173/114 121/175/116
f 2/176/117 121/175/116 120/173/114
f 1/177/117 121/175/116 2/176/117
f 143/178/118 145/172/113 122/179/118
f 122/179/118 145/172/113 119/174/115
f 144/172/113 142/173/114 145/174/115
f 145/174/115 142/173/114 120/175/116
f 314/176/117 120/175/116 142/173/114
f 2/177/117 120/175/116 314/176/117
f 55/178/118 144/172/113 143/179/118
f 143/179/118 144/172/113 145/174/115
f 151/180/125 150/181/126 149/182/127
f 149/182/127 150/181/126 152/183/128
f 150/181/126 153/184/129 152/183/128
f 154/185/130 151/180/125 149/182/127
f 155/186/131 151/180/125 154/185/130
f 156/187/132 155/186/131 154/185/130
f 157/188/133 155/186/131 156/187/132
f 301/189/134 157/188/133 156/187/132
f 158/190/135 157/188/133 301/189/134
f 152/183/128 153/184/129 299/191/129
f 159/192/136 158/190/135 301/189/134
f 160/193/137 158/190/135 159/192/136
f 161/194/138 160/193/137 159/192/136
f 162/195/139 160/193/137 161/194/138
f 163/196/140 162/195/139 161/194/138
f 164/197/141 162/195/139 163/196/140
f 165/198/142 164/197/141 163/196/140
f 166/199/143 164/197/141 165/198/142
f 303/200/144 166/199/143 165/198/142
f 167/201/145 166/199/143 303/200/144
f 304/202/146 167/201/145 303/200/144
f 168/203/147 167/201/145 304/202/146
f 306/204/148 168/203/147 304/202/146
f 169/205/149 168/203/147 306/204/148
f 307/206/150 169/205/149 306/204/148
f 170/207/151 169/205/149 307/206/150
f 309/208/152 170/207/151 307/206/150
f 171/209/153 170/207/151 309/208/152
f 311/210/154 171/209/153 309/208/152
f 172/211/155 171/209/153 311/210/154
f 173/212/156 172/211/155 311/210/154
f 174/213/157 172/211/155 173/212/156
f 175/214/158 174/213/157 173/212/156
f 176/215/159 174/213/157 175/214/158
f 177/216/160 176/215/159 175/214/158
f 178/217/161 176/215/159 177/216/160
f 314/218/162 178/217/161 177/216/160
f 179/219/162 178/217/161 314/218/162
f 187/172/107 185/173/108 189/174/109
f 189/174/109 185/173/108 186/175/110
f 153/176/111 186/175/110 185/173/108
f 299/177/111 186/175/110 153/176/111
f 188/178/112 187/172/107 15/179/112
f 15/179/112 187/172/107 189/174/109
f 149/180/125 152/181/126 47/182/127
f 47/182/127 152/181/126 298/183/128
f 152/181/126 299/184/129 298/183/128
f 48/185/130 149/180/125 47/182/127
f 154/186/131 149/180/125 48/185/130
f 40/187/132 154/186/131 48/185/130
f 156/188/133 154/186/131 40/187/132
f 300/189/134 156/188/133 40/187/132
f 301/190/135 156/188/133 300/189/134
f 298/183/128 299/184/129 39/191/129
f 49/192/136 301/190/135 300/189/134
f 159/193/137 301/190/135 49/192/136
f 41/194/138 159/193/137 49/192/136
f 161/195/139 159/193/137 41/194/138
f 42/196/140 161/195/139 41/194/138
f 163/197/141 161/195/139 42/196/140
f 302/198/142 163/197/141 42/196/140
f 165/199/143 163/197/141 302/198/142
f 43/200/144 165/199/143 302/198/142
f 303/201/145 165/199/143 43/200/144
f 44/202/146 303/201/145 43/200/144
f 304/203/147 303/201/145 44/202/146
f 305/204/148 304/203/147 44/202/146
f 306/205/149 304/203/147 305/204/148
f 50/206/150 306/205/149 305/204/148
f 307/207/151 306/205/149 50/206/150
f 308/208/152 307/207/151 50/206/150
f 309/209/153 307/207/151 308/208/152
f 310/210/154 309/209/153 308/208/152
f 311/211/155 309/209/153 310/210/154
f 312/212/156 311/211/155 310/210/154
f 173/213/157 311/211/155 312/212/156
f 313/214/158 173/213/157 312/212/156
f 175/215/159 173/213/157 313/214/158
f 45/216/160 175/215/159 313/214/158
f 177/217/161 175/215/159 45/216/160
f 2/218/162 177/217/161 45/216/160
f 314/219/162 177/217/161 2/218/162

usemtl floor_A
f 124/3/101 184/4/101 288/20/101
f 288/20/101 184/4/101 382/17/101
f 125/3/101 123/4/101 124/20/101
f 124/20/101 123/4/101 184/17/101
f 94/3/101 33/4/101 4/20/101
f 4/20/101 33/4/101 226/17/101
f 123/3/101 349/4/101 184/20/101
f 184/20/101 349/4/101 3/17/101
f 288/3/101 382/4/101 296/20/101
f 296/20/101 382/4/101 410/17/101
f 4/3/101 226/4/101 123/20/101
f 123/20/101 226/4/101 349/17/101

usemtl brick_A
f 206/1/2 228/2/2 94/3/2
f 94/3/2 228/2/2 33/4/2
f 94/220/2 211/221/65 206/222/2
f 206/222/2 211/221/65 210/223/66
f 208/224/67 207/225/1 214/226/68
f 214/226/68 207/225/1 38/227/1
f 209/228/69 208/224/67 214/226/68
f 212/229/70 208/224/67 209/228/69
f 215/230/71 212/229/70 209/228/69
f 213/231/72 212/229/70 215/230/71
f 211/232/65 213/231/72 210/233/66
f 210/233/66 213/231/72 215/230/71
f 115/234/80 208/235/163 212/236/79
f 115/234/80 212/236/79 213/237/81
f 115/234/80 213/237/81 211/238/164
f 214/235/165 74/234/73 209/236/74
f 209/236/74 74/234/73 215/237/76
f 215/237/76 74/234/73 210/238/166

usemtl floor_C_wet
f 183/3/101 124/4/101 180/20/101
f 180/20/101 124/4/101 288/17/101

