# WaveFront *.obj file (generated by CINEMA 4D)

mtllib ./sector_11.mtl

v -36 0.00009489058721 -40.00009918212891
v -52.00019836425781 0 -36
v -52.00004959106445 0.00000055157221 -31.99990081787109
v -52.00004959106445 -8 -48.00009918212891
v -28 -4.00010013580322 -27.99995040893555
v -28 -4.00010013580322 -32.00004959106445
v -56 -3.99990510940552 -47.99990081787109
v -31.79974937438965 -4.00010013580322 -23.99990081787109
v -31.79974937438965 -1.79999005794525 -24.89994049072266
v -31.79974937438965 -3.60008001327515 -24.89994049072266
v -31.79974937438965 0.00010013580322 -23.99990081787109
v -31.79974937438965 0.00010013580322 -27.99990081787109
v -31.79974937438965 -3.60008001327515 -27.10004997253418
v -31.97492027282715 -3.5733790397644 -24.9216194152832
v -31.9997501373291 -3.60008001327515 -27.10004997253418
v -31.99995040893555 0.00000056245489 -23.99990081787109
v -31.82374954223633 -3.5733790397644 -24.9216194152832
v -31.82374954223633 -3.57924389839172 -24.93590927124023
v -31.82374954223633 -3.57924389839172 -27.06409072875977
v -31.97492027282715 -3.57924389839172 -24.93590927124023
v -31.82374954223633 -3.55921792984009 -24.91570091247559
v -31.97492027282715 -1.82669198513031 -24.9216194152832
v -31.82374954223633 -1.82082605361938 -24.93590927124023
v -31.82374954223633 -1.82082605361938 -27.06409072875977
v -31.97492027282715 -1.82082605361938 -24.93590927124023
v -31.97492027282715 -1.82082605361938 -27.06409072875977
v -31.82374954223633 -1.82669198513031 -27.0783805847168
v -31.9997501373291 -1.79999005794525 -24.89994049072266
v -31.82374954223633 -1.84085202217102 -27.08429908752441
v -31.79974937438965 -1.79999005794525 -27.10004997253418
v -31.97492027282715 -1.84085202217102 -27.08429908752441
v -31.97492027282715 -3.55921792984009 -27.08429908752441
v -31.82374954223633 -3.5733790397644 -27.0783805847168
v -31.97492027282715 -3.55921792984009 -24.91570091247559
v -31.9997501373291 -3.60008001327515 -24.89994049072266
v -31.9997501373291 -1.79999005794525 -27.10004997253418
v -31.97492027282715 -3.5733790397644 -27.0783805847168
v -31.97492027282715 -3.57924389839172 -27.06409072875977
v -31.97492027282715 -1.84085202217102 -24.91570091247559
v -31.97492027282715 -1.82669198513031 -27.0783805847168
v -31.82374954223633 -3.55921792984009 -27.08429908752441
v -31.82374954223633 -1.82669198513031 -24.9216194152832
v -31.82374954223633 -1.84085202217102 -24.91570091247559
v -27.99995040893555 -4 -23.99990081787109
v -48.00009918212891 -4.0001049041748 -52
v -31.9997501373291 0.00010013580322 -32.00009918212891
v -56.00004959106445 0.00000055157221 -47.99990081787109
v -51.47789001464844 0 -40.03422164916992
v -51.47789001464844 -4 -40.03422164916992
v -50.96472930908203 0 -40.13629913330078
v -50.96472930908203 -4 -40.13629913330078
v -50.46926116943359 0 -40.30448150634766
v -50.46926116943359 -4 -40.30448150634766
v -50 0 -40.5359001159668
v -50 -4 -40.5359001159668
v -49.56494903564453 0 -40.82658004760742
v -49.17156982421875 0 -41.17156982421875
v -48.82659149169922 0 -41.56494903564453
v -48.5359001159668 0 -42
v -48.30448150634766 0 -42.46926116943359
v -48.13629913330078 0 -42.9647216796875
v -48.13629913330078 -4 -42.9647216796875
v -48.03422164916992 0 -43.47789001464844
v -48.03422164916992 -4 -43.47789001464844
v -48 -4 -43.99980163574219
v -31.99995040893555 -8.00000095367432 -35.99990081787109
v -39.99995040893555 0.0000001223956 -40.00009918212891
v -32.00009918212891 -8.0001049041748 -52
v -43.99995040893555 0.0000001223956 -48.00009918212891
v -52.00004959106445 -8 -52.00009918212891
v -51.99990081787109 -4.0001049041748 -52
v -56 -8.0001049041748 -52.00009918212891
v -52.00019836425781 0 -48
v -51.99990081787109 0.00009489058721 -52
v -48.00004959106445 0.0000001115129 -48.00009918212891
v -41.5 0.46800020337105 -48
v -41.5 -0.46800071001053 -44
v -42.5 0.46799969673157 -44
v -42.46799850463867 0.50000017881393 -48
v -41.5 0.46799969673157 -44
v -42.46799850463867 -0.50000071525574 -44
v -35.99995040893555 0.00000056245489 -47.99990081787109
v -36 0 -36.00022125244141
v -56.00009918212891 0.00009489058721 -52
v -56 -3.99990510940552 -52.00009918212891
v -35.99995040893555 0.00000056245489 -43.99990081787109
v -32.52210998535156 -4 -47.96577835083008
v -32.00009918212891 -3.99990510940552 -48
v -32.52210998535156 -8 -47.96577835083008
v -33.0352783203125 -4 -47.86370086669922
v -33.0352783203125 -8 -47.86370086669922
v -33.53073883056641 -8 -47.69551849365234
v -34 -8 -47.4640998840332
v -34.43505096435547 -4 -47.17340850830078
v -34.43505096435547 -8 -47.17340850830078
v -34.82843017578125 -4 -46.82843017578125
v -34.82843017578125 -8 -46.82843017578125
v -35.17341995239258 -8 -46.43505096435547
v -35.4640998840332 -4 -46
v -35.4640998840332 -8 -46
v -35.69551849365234 -4 -45.53073883056641
v -35.69551849365234 -8 -45.53073883056641
v -35.86370086669922 -4 -45.03527069091797
v -35.86370086669922 -8 -45.03527069091797
v -35.96577835083008 -8 -44.52210998535156
v -36.00004959106445 -8 -48.00009918212891
v -43.99995040893555 0.00000056245489 -43.99990081787109
v -35.99990081787109 -4.0001049041748 -52
v -35.99990081787109 -8.0001049041748 -52
v -32.52210998535156 0 -47.96577835083008
v -33.0352783203125 0 -47.86370086669922
v -33.53073883056641 0 -47.69551849365234
v -33.53073883056641 -4 -47.69551849365234
v -34 0 -47.4640998840332
v -34 -4 -47.4640998840332
v -34.43505096435547 0 -47.17340850830078
v -34.82843017578125 0 -46.82843017578125
v -35.17341995239258 0 -46.43505096435547
v -35.17341995239258 -4 -46.43505096435547
v -35.4640998840332 0 -46
v -35.69551849365234 0 -45.53073883056641
v -35.86370086669922 0 -45.03527069091797
v -35.96577835083008 0 -44.52210998535156
v -35.96577835083008 -4 -44.52210998535156
v -36 -3.99990510940552 -44.00009918212891
v -39.99990081787109 -8.0001049041748 -52
v -31.99995040893555 -8.00000095367432 -43.99990081787109
v -32.00009918212891 -8.0001049041748 -48
v -32.00004959106445 0.00000055157221 -47.99990081787109
v -31.99995040893555 0.00000056245489 -43.99990081787109
v -48.03422164916992 0 -32.52210998535156
v -48.13629913330078 0 -33.03527069091797
v -48.30448150634766 0 -33.53073883056641
v -48.5359001159668 0 -34
v -48.82659149169922 0 -34.43505096435547
v -49.17156982421875 0 -34.82843017578125
v -49.17156982421875 -4 -34.82843017578125
v -49.56494903564453 0 -35.17340850830078
v -49.56494903564453 -4 -35.17340850830078
v -50 0 -35.4640998840332
v -50.46926116943359 0 -35.69551849365234
v -50.96472930908203 0 -35.86370086669922
v -51.47789001464844 0 -35.96577835083008
v -51.47789001464844 -4 -35.96577835083008
v -48.00004959106445 0.00000055157221 -31.99990081787109
v -27.99990081787109 0.00000156360898 -23.99995040893555
v -31.99995040893555 0.0000001223956 -28.00009918212891
v -36.00004959106445 -8.00000095367432 -23.99990081787109
v -31.99990081787109 -4.0001049041748 -24
v -47.96577835083008 -4 -27.4778995513916
v -47.96577835083008 0 -27.4778995513916
v -47.86370086669922 -4 -26.96471977233887
v -47.86370086669922 0 -26.96471977233887
v -47.69551849365234 0 -26.46927070617676
v -47.4640998840332 -4 -26
v -47.4640998840332 0 -26
v -47.17340850830078 0 -25.56495094299316
v -46.82843017578125 0 -25.17156982421875
v -46.43505096435547 0 -24.82658958435059
v -46 -4 -24.5359001159668
v -46 0 -24.5359001159668
v -45.53073883056641 -4 -24.30447959899902
v -45.53073883056641 0 -24.30447959899902
v -45.03527069091797 -4 -24.13629913330078
v -45.03527069091797 0 -24.13629913330078
v -44.52210998535156 -4 -24.03421974182129
v -44.52210998535156 0 -24.03421974182129
v -31.99995040893555 -8 -28.00009918212891
v -36.00004959106445 -8 -32.00009918212891
v -31.99982070922852 -8 -32
v -36.00004959106445 -8 -28.00009918212891
v -47.99995040893555 -8.00000095367432 -39.99990081787109
v -52.00004959106445 -8.00000095367432 -43.99990081787109
v -52.00019836425781 -8 -40
v -51.47789001464844 -8 -40.03422164916992
v -50.96472930908203 -8 -40.13629913330078
v -50.46926116943359 -8 -40.30448150634766
v -50 -8 -40.5359001159668
v -49.56494903564453 -4 -40.82658004760742
v -49.56494903564453 -8 -40.82658004760742
v -49.17156982421875 -4 -41.17156982421875
v -49.17156982421875 -8 -41.17156982421875
v -48.82659149169922 -4 -41.56494903564453
v -48.82659149169922 -8 -41.56494903564453
v -48.5359001159668 -4 -42
v -48.5359001159668 -8 -42
v -48.30448150634766 -4 -42.46926116943359
v -48.30448150634766 -8 -42.46926116943359
v -48.13629913330078 -8 -42.9647216796875
v -48.03422164916992 -8 -43.47789001464844
v -52.00019836425781 -4 -40
v -39.99990081787109 -3.99990510940552 -24
v -39.99995040893555 0.00000056245489 -23.99990081787109
v -36.00009918212891 -4.0001049041748 -24
v -35.99990081787109 0.00009489058721 -52
v -28 0.00009989737737 -32.00004959106445
v -28 0.00009989737737 -27.99995040893555
v -32 -8 -32.46799850463867
v -32 -8 -31.5319995880127
v -31.9680004119873 -8 -31.5
v -31.9680004119873 -4 -31.5
v -31 -8 -31.5319995880127
v -31 -8 -32.46799850463867
v -31.9680004119873 -4 -32.5
v -31.9680004119873 -8 -32.5
v -32 -4 -32.46799850463867
v -32 -4 -31.5319995880127
v -31.0319995880127 -4 -31.5
v -31.0319995880127 -8 -31.5
v -31 -4 -31.5319995880127
v -31 -4 -32.46799850463867
v -31.0319995880127 -8 -32.5
v -31.0319995880127 -4 -32.5
v -41.5 -0.46800071001053 -52
v -41.5 -0.46800020337105 -48
v -42.46799850463867 -0.50000071525574 -52
v -41.53200149536133 -0.50000017881393 -48
v -41.53200149536133 -0.50000071525574 -52
v -42.46799850463867 -0.50000017881393 -48
v -42.5 -0.46800020337105 -48
v -42.5 -0.46800071001053 -52
v -42.5 0.46799969673157 -52
v -42.5 0.46800020337105 -48
v -42.46799850463867 0.49999970197678 -52
v -41.53200149536133 0.49999970197678 -52
v -41.53200149536133 0.50000017881393 -48
v -41.5 0.46799969673157 -52
v -44.00009918212891 -8.0001049041748 -52
v -28.75 -4 -23.5319995880127
v -28.75 -8 -24.4680004119873
v -28.75 -4 -24.4680004119873
v -28.75 -8 -23.5319995880127
v -27.7819995880127 -4 -23.5
v -28.7180004119873 -8 -23.5
v -28.7180004119873 -4 -23.5
v -27.7819995880127 -8 -23.5
v -27.75 -4 -24.4680004119873
v -27.75 -8 -23.5319995880127
v -27.75 -4 -23.5319995880127
v -27.75 -8 -24.4680004119873
v -28.7180004119873 -4 -24.5
v -27.7819995880127 -8 -24.5
v -27.7819995880127 -4 -24.5
v -28.7180004119873 -8 -24.5
v -41.53200149536133 0.49999970197678 -44
v -42.46799850463867 0.49999970197678 -44
v -41.53200149536133 -0.50000071525574 -40
v -41.53200149536133 -0.50000071525574 -44
v -42.46799850463867 -0.50000071525574 -40
v -42.5 0.46799969673157 -40
v -41.5 0.46799969673157 -40
v -41.5 -0.46800071001053 -40
v -42.5 -0.46800071001053 -44
v -31.99995040893555 -8.00000095367432 -23.99990081787109
v -27.99995040893555 0.00000056245489 -47.99990081787109
v -36 -8.0001049041748 -44.00009918212891
v -44.00004959106445 0.0000001115129 -40.00009918212891
v -40.00004959106445 0.00000055157221 -43.99990081787109
v -48 -4 -31.99979972839355
v -43.99980163574219 -4 -24
v -39.99990081787109 -8.0001049041748 -24
v -41.53200149536133 0.49999970197678 -32
v -41.5 0.46800020337105 -36
v -41.53200149536133 -0.50000071525574 -32
v -41.53200149536133 -0.50000017881393 -36
v -42.5 0.46800020337105 -36
v -42.5 0.46799969673157 -32
v -42.46799850463867 0.49999970197678 -32
v -42.46799850463867 -0.50000071525574 -32
v -48.03422164916992 -4 -32.52210998535156
v -47.99995040893555 -8.00000095367432 -31.99990081787109
v -48.03422164916992 -8 -32.52210998535156
v -48.13629913330078 -4 -33.03527069091797
v -48.13629913330078 -8 -33.03527069091797
v -48.30448150634766 -4 -33.53073883056641
v -48.30448150634766 -8 -33.53073883056641
v -48.5359001159668 -4 -34
v -48.5359001159668 -8 -34
v -48.82659149169922 -4 -34.43505096435547
v -48.82659149169922 -8 -34.43505096435547
v -49.17156982421875 -8 -34.82843017578125
v -49.56494903564453 -8 -35.17340850830078
v -50 -4 -35.4640998840332
v -50 -8 -35.4640998840332
v -50.46926116943359 -4 -35.69551849365234
v -50.46926116943359 -8 -35.69551849365234
v -50.96472930908203 -4 -35.86370086669922
v -50.96472930908203 -8 -35.86370086669922
v -51.47789001464844 -8 -35.96577835083008
v -52.00019836425781 -4 -36
v -47.99995040893555 0.00000056245489 -39.99990081787109
v -44.00004959106445 0.0000001115129 -32.00009918212891
v -39.99995040893555 0.0000001223956 -32.00009918212891
v -42.46799850463867 0.50000017881393 -24
v -42.46799850463867 0.50000017881393 -28
v -41.5 -0.46800020337105 -28
v -42.46799850463867 -0.50000017881393 -28
v -41.53200149536133 -0.50000017881393 -24
v -42.46799850463867 -0.50000017881393 -24
v -42.5 -0.46800020337105 -24
v -42.5 -0.46800020337105 -28
v -42.5 0.46800020337105 -24
v -41.53200149536133 0.50000017881393 -28
v -41.5 0.46800020337105 -24
v -41.53200149536133 0.50000017881393 -24
v -41.5 0.46800020337105 -28
v -41.5 -0.46800020337105 -24
v -56 -8.0001049041748 -47.99990081787109
v -40.00009918212891 0.00009489058721 -52
v -40.00004959106445 0.00000055157221 -47.99990081787109
v -47.99995040893555 0.0000001223956 -44.00009918212891
v -36.00004959106445 0.00000055157221 -31.99990081787109
v -31.99995040893555 0.0000001223956 -36.00009918212891
v -36 -3.99990510940552 -40.00009918212891
v -36.00004959106445 -8 -40.00009918212891
v -41.5 -0.46800071001053 -32
v -42.5 0.46800020337105 -28
v -41.5 0.46799969673157 -32
v -41.53200149536133 -0.50000017881393 -28
v -42.5 -0.46800071001053 -32
v -52.00004959106445 -8 -36.00009918212891
v -47.99995040893555 -8 -36.00009918212891
v -52.00004959106445 -8.00000095367432 -31.99990081787109
v -41.53200149536133 0.49999970197678 -40
v -41.53200149536133 0.50000017881393 -36
v -41.5 -0.46800020337105 -36
v -42.5 -0.46800020337105 -36
v -42.5 -0.46800071001053 -40
v -42.46799850463867 0.50000017881393 -36
v -42.46799850463867 0.49999970197678 -40
v -42.46799850463867 -0.50000017881393 -36
v -47.99995040893555 -8.00000095367432 -43.99990081787109
v -48.03422164916992 -8 -44.52210998535156
v -48.13629913330078 -8 -45.03527069091797
v -48.30448150634766 -4 -45.53073883056641
v -48.30448150634766 -8 -45.53073883056641
v -48.5359001159668 -8 -46
v -48.82659149169922 -8 -46.43505096435547
v -49.17156982421875 -8 -46.82843017578125
v -49.56494903564453 -4 -47.17340850830078
v -49.56494903564453 -8 -47.17340850830078
v -50 -8 -47.4640998840332
v -50.46926116943359 -8 -47.69551849365234
v -50.96472930908203 -8 -47.86370086669922
v -51.47789001464844 -8 -47.96577835083008
v -39.99995040893555 0.00000056245489 -35.99990081787109
v -35.96577835083008 0 -35.47792053222656
v -35.96577835083008 -4 -35.47792053222656
v -35.86370849609375 0 -34.96474075317383
v -35.69552993774414 0 -34.46929168701172
v -35.69552993774414 -4 -34.46929168701172
v -35.464111328125 0 -34.00001907348633
v -35.17343139648438 0 -33.56496810913086
v -35.17343139648438 -4 -33.56496810913086
v -34.82844161987305 0 -33.17158889770508
v -34.82844161987305 -4 -33.17158889770508
v -34.43505859375 0 -32.82659912109375
v -34.43505859375 -4 -32.82659912109375
v -34.00001907348633 0 -32.53591156005859
v -34.00001907348633 -4 -32.53591156005859
v -33.5307502746582 0 -32.30448913574219
v -33.03530120849609 0 -32.13629913330078
v -33.03530120849609 -4 -32.13629913330078
v -32.52212905883789 0 -32.03422927856445
v -32.52212905883789 -4 -32.03422927856445
v -31.79974937438965 -4.00010013580322 -27.99990081787109
v -31.79974937438965 -1.79999005794525 -28.89994049072266
v -31.79974937438965 -3.60008001327515 -28.89994049072266
v -31.79974937438965 -4.00010013580322 -32.00009918212891
v -31.79974937438965 0.00010013580322 -32.00009918212891
v -31.97492027282715 -3.57924389839172 -28.93590927124023
v -31.9997501373291 -4.00010013580322 -27.99990081787109
v -31.99982070922852 -4 -32
v -31.82374954223633 -3.57924389839172 -28.93590927124023
v -31.82374954223633 -3.57924389839172 -31.06409072875977
v -31.97492027282715 -3.5733790397644 -31.0783805847168
v -31.82374954223633 -3.5733790397644 -31.0783805847168
v -31.82374954223633 -3.55921792984009 -28.91570091247559
v -31.82374954223633 -1.84085202217102 -28.91570091247559
v -31.82374954223633 -3.5733790397644 -28.9216194152832
v -31.97492027282715 -3.5733790397644 -28.9216194152832
v -31.97492027282715 -3.55921792984009 -28.91570091247559
v -31.9997501373291 -3.60008001327515 -28.89994049072266
v -31.97492027282715 -1.82669198513031 -28.9216194152832
v -31.82374954223633 -1.82082605361938 -31.06409072875977
v -31.97492027282715 -1.82082605361938 -28.93590927124023
v -31.82374954223633 -1.82669198513031 -28.9216194152832
v -31.82374954223633 -1.84085202217102 -31.08429908752441
v -31.79974937438965 -1.79999005794525 -31.10004997253418
v -31.82374954223633 -1.82669198513031 -31.0783805847168
v -31.82374954223633 -3.55921792984009 -31.08429908752441
v -31.97492027282715 -1.84085202217102 -31.08429908752441
v -31.97492027282715 -3.55921792984009 -31.08429908752441
v -31.9997501373291 -3.60008001327515 -31.10004997253418
v -31.82374954223633 -1.82082605361938 -28.93590927124023
v -31.97492027282715 -1.82082605361938 -31.06409072875977
v -31.9997501373291 -1.79999005794525 -31.10004997253418
v -31.97492027282715 -1.82669198513031 -31.0783805847168
v -31.97492027282715 -3.57924389839172 -31.06409072875977
v -31.97492027282715 -1.84085202217102 -28.91570091247559
v -31.79974937438965 -3.60008001327515 -31.10004997253418
v -31.9997501373291 -1.79999005794525 -28.89994049072266
v -43.99990081787109 -4.0001049041748 -52
v -48.00009918212891 0.00009489058721 -52
v -43.99990081787109 0.00009489058721 -52
v -36.00004959106445 0.0000001115129 -28.00009918212891
v -39.99995040893555 0.0000001223956 -28.00009918212891
v -36.00004959106445 0.00000055157221 -23.99990081787109
v -48.00004959106445 0.00000055157221 -23.99990081787109
v -48.00004959106445 0.0000001115129 -28.00009918212891
v -44.00004959106445 0.00000055157221 -23.99990081787109
v -36.00004959106445 -8.00000095367432 -35.99990081787109
v -36 -4 -36.00022125244141
v -35.96577835083008 -8 -35.47792053222656
v -35.86370849609375 -4 -34.96474075317383
v -35.86370849609375 -8 -34.96474075317383
v -35.69552993774414 -8 -34.46929168701172
v -35.464111328125 -4 -34.00001907348633
v -35.464111328125 -8 -34.00001907348633
v -35.17343139648438 -8 -33.56496810913086
v -34.82844161987305 -8 -33.17158889770508
v -34.43505859375 -8 -32.82659912109375
v -34.00001907348633 -8 -32.53591156005859
v -33.5307502746582 -4 -32.30448913574219
v -33.5307502746582 -8 -32.30448913574219
v -33.03530120849609 -8 -32.13629913330078
v -32.52212905883789 -8 -32.03422927856445
v -48.03422164916992 0 -44.52210998535156
v -48.03422164916992 -4 -44.52210998535156
v -48.13629913330078 0 -45.03527069091797
v -48.13629913330078 -4 -45.03527069091797
v -48.30448150634766 0 -45.53073883056641
v -48.5359001159668 0 -46
v -48.5359001159668 -4 -46
v -48.82659149169922 0 -46.43505096435547
v -48.82659149169922 -4 -46.43505096435547
v -49.17156982421875 0 -46.82843017578125
v -49.17156982421875 -4 -46.82843017578125
v -49.56494903564453 0 -47.17340850830078
v -50 0 -47.4640998840332
v -50 -4 -47.4640998840332
v -50.46926116943359 0 -47.69551849365234
v -50.46926116943359 -4 -47.69551849365234
v -50.96472930908203 0 -47.86370086669922
v -50.96472930908203 -4 -47.86370086669922
v -51.47789001464844 0 -47.96577835083008
v -51.47789001464844 -4 -47.96577835083008
v -52.00019836425781 -4 -48
v -28 -3.99990510940552 -47.99990081787109
v -28 -8.0001049041748 -47.99990081787109
v -43.99995040893555 0.0000001223956 -36.00009918212891
v -48.00004959106445 0.0000001115129 -36.00009918212891
v -47.99995040893555 -8 -48.00009918212891
v -47.99995040893555 -8 -52.00009918212891
v -40.00009918212891 -4.0001049041748 -52
v -32 -4 -27.5319995880127
v -32 -4 -28.4680004119873
v -32 -8 -27.5319995880127
v -31.9680004119873 -8 -27.5
v -31.0319995880127 -8 -27.5
v -31 -4 -28.4680004119873
v -31 -4 -27.5319995880127
v -31.0319995880127 -8 -28.5
v -31.0319995880127 -4 -28.5
v -31.9680004119873 -4 -28.5
v -32 -8 -28.4680004119873
v -31.9680004119873 -8 -28.5
v -31.9680004119873 -4 -27.5
v -31.0319995880127 -4 -27.5
v -31 -8 -27.5319995880127
v -31 -8 -28.4680004119873
v -28.00000953674316 -3.99990510940552 -52.00009918212891
v -32.00009918212891 0.00009489058721 -52
v -27.99990081787109 0.00009489058721 -52
v -32.00009918212891 -4.0001049041748 -52
v -52.00004959106445 0.00000055157221 -39.99990081787109
v -52.00004959106445 0.0000001115129 -44.00009918212891
v -31.99995040893555 -8 -40.00009918212891
v -47.96577835083008 -8 -27.4778995513916
v -48 -8 -28.00020027160645
v -47.86370086669922 -8 -26.96471977233887
v -47.69551849365234 -8 -26.46927070617676
v -47.69551849365234 -4 -26.46927070617676
v -47.4640998840332 -8 -26
v -47.17340850830078 -8 -25.56495094299316
v -47.17340850830078 -4 -25.56495094299316
v -46.82843017578125 -8 -25.17156982421875
v -46.82843017578125 -4 -25.17156982421875
v -46.43505096435547 -8 -24.82658958435059
v -46.43505096435547 -4 -24.82658958435059
v -46 -8 -24.5359001159668
v -45.53073883056641 -8 -24.30447959899902
v -45.03527069091797 -8 -24.13629913330078
v -44.52210998535156 -8 -24.03421974182129
v -43.99980163574219 -8 -24
v -48 -4 -28.00020027160645
v -44.00004959106445 0.0000001115129 -28.00009918212891
v -32 -8 -24.4680004119873
v -32 -4 -24.4680004119873
v -31.0319995880127 -4 -23.5
v -31.9680004119873 -8 -23.5
v -31 -4 -24.4680004119873
v -31 -8 -23.5319995880127
v -31 -4 -23.5319995880127
v -31.9680004119873 -4 -24.5
v -31.9680004119873 -8 -24.5
v -32 -4 -23.5319995880127
v -32 -8 -23.5319995880127
v -31.9680004119873 -4 -23.5
v -31.0319995880127 -8 -23.5
v -31.0319995880127 -8 -24.5
v -31 -8 -24.4680004119873
v -31.0319995880127 -4 -24.5
v -28.00000953674316 -8.0001049041748 -52.00009918212891
# 514 vertices

vn 0 -1 0
vn 0 0 -1
vn 0 1 0
vn 1 0 0
vn -0.38229277729988 0.90608978271484 -0.18125545978546
vn -0.74385267496109 0.3548167347908 -0.566381752491
vn -0.37106919288635 0.58966690301895 -0.71735668182373
vn -0.76433402299881 0.52567106485367 0.37344801425934
vn -1 0 0
vn 0.77495622634888 0.51498121023178 -0.36638388037682
vn 0.32444748282433 0.93640375137329 -0.13372287154198
vn 0.37738335132599 0.71582835912704 -0.58751302957535
vn 0.39013475179672 0.90280389785767 0.18094204366207
vn -0.31835216283798 0.93839985132217 0.13437855243683
vn -0.37126356363297 0.71740126609802 0.58949029445648
vn 0.75469821691513 0.34716114401817 0.55669540166855
vn 0.37719485163689 0.58763647079468 0.71582639217377
vn 0.29135218262672 -0.13662894070148 -0.94680857658386
vn 0.75468474626541 -0.34716933965683 -0.5567085146904
vn 0.34091654419899 0.1830992847681 -0.92209035158157
vn -0.28534558415413 0.13731336593628 -0.94853729009628
vn -0.33331418037415 -0.18350093066692 -0.92478597164154
vn 0.37719485163689 -0.58763647079468 -0.71582639217377
vn -0.76433402299881 -0.52567106485367 -0.37344801425934
vn -0.37126356363297 -0.71740126609802 -0.58949029445648
vn 0.32444748282433 -0.93640375137329 0.13372287154198
vn 0.77495622634888 -0.51498121023178 0.36638388037682
vn 0.39013475179672 -0.90280389785767 -0.18094204366207
vn -0.31835216283798 -0.93839985132217 -0.13437855243683
vn -0.38229277729988 -0.90608978271484 0.18125545978546
vn 0.37738335132599 -0.71582835912704 0.58751302957535
vn -0.37106919288635 -0.58966690301895 0.71735668182373
vn 0.34094417095184 -0.18309733271599 0.92208051681519
vn 0.29138076305389 0.13662770390511 0.94679993391037
vn -0.28534558415413 -0.13731336593628 0.94853729009628
vn -0.33331418037415 0.18350093066692 0.92478597164154
vn -0.74385267496109 -0.3548167347908 0.566381752491
vn 0 0 1
vn 0 0 -1
vn 0.03271963447332 0 0.99946457147598
vn 0.10881585627794 0 0.9940619468689
vn 0.15212762355804 0 0.98836088180542
vn 0.23765753209591 0 0.97134900093079
vn 0.27984762191772 0 0.96004444360733
vn 0.36241307854652 0 0.93201756477356
vn 0.40276059508324 0 0.91530537605286
vn 0.48095270991325 0 0.87674653530121
vn 0.51879549026489 0 0.85489839315414
vn 0.59129458665848 0 0.80645567178726
vn 0.62595188617706 0 0.77986168861389
vn 0.6914843916893 0 0.72239136695862
vn 0.72239136695862 0 0.6914843916893
vn 0.77986168861389 0 0.62595188617706
vn 0.80645567178726 0 0.59129458665848
vn 0.85489839315414 0 0.51879549026489
vn 0.87674653530121 0 0.48095270991325
vn 0.91530537605286 0 0.40276059508324
vn 0.93201756477356 0 0.36241307854652
vn 0.96004444360733 0 0.27984762191772
vn 0.97134900093079 0 0.23765753209591
vn 0.98836088180542 0 0.15212762355804
vn 0.9940619468689 0 0.10881585627794
vn 0.99946457147598 0 0.03271963447332
vn 1 0 0
vn -1 0 0
vn -0.70710676908493 0.70710676908493 0
vn 0.70710676908493 0.70710676908493 0
vn 0.70710676908493 -0.70710676908493 0
vn -0.70710676908493 -0.70710676908493 0
vn 0 0 1
vn -0.03271963447332 0 -0.99946457147598
vn -0.10881585627794 0 -0.9940619468689
vn -0.15212762355804 0 -0.98836088180542
vn -0.23765753209591 0 -0.97134900093079
vn -0.27984762191772 0 -0.96004444360733
vn -0.36241307854652 0 -0.93201756477356
vn -0.40276059508324 0 -0.91530537605286
vn -0.48095270991325 0 -0.87674653530121
vn -0.51879549026489 0 -0.85489839315414
vn -0.59129458665848 0 -0.80645567178726
vn -0.62595188617706 0 -0.77986168861389
vn -0.6914843916893 0 -0.72239136695862
vn -0.72239136695862 0 -0.6914843916893
vn -0.77986168861389 0 -0.62595188617706
vn -0.80645567178726 0 -0.59129458665848
vn -0.85489839315414 0 -0.51879549026489
vn -0.87674653530121 0 -0.48095270991325
vn -0.91530537605286 0 -0.40276059508324
vn -0.93201756477356 0 -0.36241307854652
vn -0.96004444360733 0 -0.27984762191772
vn -0.97134900093079 0 -0.23765753209591
vn -0.98836088180542 0 -0.15212762355804
vn -0.9940619468689 0 -0.10881585627794
vn -0.99946457147598 0 -0.03271963447332
vn 0.99946457147598 0 -0.03271963447332
vn 0.9940619468689 0 -0.10881585627794
vn 0.98836088180542 0 -0.15212762355804
vn 0.97134900093079 0 -0.23765753209591
vn 0.96004444360733 0 -0.27984762191772
vn 0.93201756477356 0 -0.36241307854652
vn 0.91530537605286 0 -0.40276059508324
vn 0.87674653530121 0 -0.48095270991325
vn 0.85489839315414 0 -0.51879549026489
vn 0.80645567178726 0 -0.59129458665848
vn 0.77986168861389 0 -0.62595188617706
vn 0.72239136695862 0 -0.6914843916893
vn 0.6914843916893 0 -0.72239136695862
vn 0.62595188617706 0 -0.77986168861389
vn 0.59129458665848 0 -0.80645567178726
vn 0.51879549026489 0 -0.85489839315414
vn 0.48095270991325 0 -0.87674653530121
vn 0.40276059508324 0 -0.91530537605286
vn 0.36241307854652 0 -0.93201756477356
vn 0.27984762191772 0 -0.96004444360733
vn 0.23765753209591 0 -0.97134900093079
vn 0.15212762355804 0 -0.98836088180542
vn 0.10881585627794 0 -0.9940619468689
vn 0.03271963447332 0 -0.99946457147598
vn -0.70710676908493 0 -0.70710676908493
vn -0.70710676908493 0 0.70710676908493
vn 0.70710676908493 0 0.70710676908493
vn 0.70710676908493 0 -0.70710676908493
vn -0.99946558475494 0 0.03268841654062
vn -0.9940619468689 0 0.10881585627794
vn -0.98836088180542 0 0.15212762355804
vn -0.9713562130928 0 0.23762805759907
vn -0.96004444360733 0 0.27984762191772
vn -0.93201756477356 0 0.36241307854652
vn -0.91530537605286 0 0.40276059508324
vn -0.87674653530121 0 0.48095270991325
vn -0.85489839315414 0 0.51879549026489
vn -0.80645567178726 0 0.59129458665848
vn -0.77986168861389 0 0.62595188617706
vn -0.72239136695862 0 0.6914843916893
vn -0.6914843916893 0 0.72239136695862
vn -0.62595188617706 0 0.77986168861389
vn -0.59129458665848 0 0.80645567178726
vn -0.51879549026489 0 0.85489839315414
vn -0.48097676038742 0 0.87673336267471
vn -0.40276059508324 0 0.91530537605286
vn -0.36241307854652 0 0.93201756477356
vn -0.27984762191772 0 0.96004444360733
vn -0.23765753209591 0 0.97134900093079
vn -0.15215817093849 0 0.98835617303848
vn -0.10884673893452 0 0.99405854940414
vn -0.03271963447332 0 0.99946457147598
# 146 normals

vt 1 0 0
vt 0.00003051758176 0 0
vt 1 0.99996948242188 0
vt 0.00003051758176 0.99996948242188 0
vt 1 0.99995040893555 0
vt 0.00003366265082 0.99995040893555 0
vt 0.77499389648438 0.10000610351562 0
vt 0.77499389648438 0.55000311136246 0
vt 0.22499850392342 0.55000311136246 0
vt 0.22499850392342 0.10000610351562 0
vt 0.76576191186905 0.10621213912964 0
vt 0.77474898099899 0.10000610351562 0
vt 0.76933217048645 0.10621213912964 0
vt 0.77474898099899 0.14998340606689 0
vt 0.76576191186905 0.14398801326752 0
vt 0.76933217048645 0.14398801326752 0
vt 0.23398570716381 0.14398801326752 0
vt 0.23398570716381 0.10621213912964 0
vt 0.2304152995348 0.10621213912964 0
vt 0.22499850392342 0.14998364448547 0
vt 0.2304152995348 0.14398801326752 0
vt 0.76898187398911 0.53813171386719 0
vt 0.77499389648438 0.54831701517105 0
vt 0.76898187398911 0.11021423339844 0
vt 0.76898187398911 0.10667419433594 0
vt 0.73135381937027 0.10667419433594 0
vt 0.73135381937027 0.11021423339844 0
vt 0.73135381937027 0.53813171386719 0
vt 0.76898187398911 0.54166412353516 0
vt 0.72515869140625 0.10000610351562 0
vt 0.72515869140625 0.54831701517105 0
vt 0.73135381937027 0.54166412353516 0
vt 0.23399570584297 0.54400062561035 0
vt 0.76636350154877 0.54400062561035 0
vt 0.77536058425903 0.55000311136246 0
vt 0.76636350154877 0.50618278980255 0
vt 0.23399570584297 0.50618278980255 0
vt 0.76993781328201 0.50618278980255 0
vt 0.23042130470276 0.54400062561035 0
vt 0.77536058425903 0.49997007846832 0
vt 0.76993781328201 0.54400062561035 0
vt 0.23042130470276 0.50618278980255 0
vt 0.27500709891319 0.55008333921432 0
vt 0.26900759339333 0.53986638784409 0
vt 0.27500709891319 0.10000610351562 0
vt 0.26900759339333 0.54340714216232 0
vt 0.26900759339333 0.11022293567657 0
vt 0.23120810091496 0.53986638784409 0
vt 0.23120810091496 0.54340714216232 0
vt 0.23120810091496 0.11022293567657 0
vt 0.22499850392342 0.55008333921432 0
vt 0.26900759339333 0.10668218135834 0
vt 0.23120810091496 0.10668218135834 0
vt 0.22499850392342 0.49997007846832 0
vt 0.00042942911386 0.99980980157852 0
vt 0.00050623709103 0.00001525878906 0
vt 0.08368492126465 0.99982607364655 0
vt 0.08376312255859 0.00003051757812 0
vt 0.16693879663944 0.99984240531921 0
vt 0.16701890528202 0.00004577636719 0
vt 0.25019070506096 0.99985861778259 0
vt 0.25026699900627 0.00006103515625 0
vt 0.33345028758049 0.99987477064133 0
vt 0.33352661132812 0.00007629394531 0
vt 0.41670230031013 0.99989092350006 0
vt 0.41677859425545 0.00009155273438 0
vt 0.49996191263199 0.99990677833557 0
vt 0.50003051757812 0.00010681152344 0
vt 0.58320617675781 0.99992257356644 0
vt 0.58328247070312 0.0001220703125 0
vt 0.66647338867188 0.99993807077408 0
vt 0.66654968261719 0.00013732910156 0
vt 0.74972528219223 0.99995362758636 0
vt 0.74980157613754 0.00015258789062 0
vt 0.83297729492188 0.99996900558472 0
vt 0.83305358886719 0.00016784667969 0
vt 0.91622918844223 0.99996888637543 0
vt 0.91630548238754 0.00018310546875 0
vt 0.99948120117188 0.99994242191315 0
vt 0.99955749511719 0.00019836425781 0
vt 0.25 0.99996948242188 0
vt 0.25 0 0
vt 0.4917297065258 0.99996948242188 0
vt 0.4917297065258 0 0
vt 0.5 0.99996948242188 0
vt 0.5 0 0
vt 0.74172967672348 0.99996948242188 0
vt 0.74172967672348 0 0
vt 0.75 0.99996948242188 0
vt 0.75 0 0
vt 0.99172967672348 0.99996948242188 0
vt 0.99172967672348 0 0
vt 0.24173359572887 0.99996948242188 0
vt 0.24173359572887 0 0
# 94 texture coordinates

o Default
usemtl plaster_A
f 67/1/1 1/2/1 346/3/1
f 346/3/1 1/2/1 83/4/1
f 476/1/1 291/2/1 2/3/1
f 2/3/1 291/2/1 452/4/1
f 2/1/1 452/2/1 3/3/1
f 3/3/1 452/2/1 145/4/1
f 147/1/1 46/2/1 197/3/1
f 197/3/1 46/2/1 196/4/1
f 84/1/1 74/2/1 47/3/1
f 47/3/1 74/2/1 73/4/1
f 291/1/1 257/2/1 452/3/1
f 452/3/1 257/2/1 451/4/1
f 258/1/1 86/2/1 67/3/1
f 67/3/1 86/2/1 1/4/1
f 404/1/1 405/2/1 75/3/1
f 75/3/1 405/2/1 69/4/1
f 74/1/1 404/2/1 73/3/1
f 73/3/1 404/2/1 75/4/1
f 312/1/1 46/2/1 406/3/1
f 406/3/1 46/2/1 147/4/1
f 195/1/1 473/2/1 82/3/1
f 82/3/1 473/2/1 129/4/1
f 346/1/1 83/2/1 293/3/1
f 293/3/1 83/2/1 312/4/1
f 73/1/1 75/2/1 477/3/1
f 477/3/1 75/2/1 311/4/1
f 69/1/1 310/2/1 107/3/1
f 107/3/1 310/2/1 258/4/1
f 82/1/1 129/2/1 86/3/1
f 86/3/1 129/2/1 130/4/1
f 16/1/1 147/2/1 146/3/1
f 146/3/1 147/2/1 197/4/1
f 293/1/1 312/2/1 407/3/1
f 407/3/1 312/2/1 406/4/1
f 107/1/1 258/2/1 257/3/1
f 257/3/1 258/2/1 67/4/1
f 310/1/1 82/2/1 258/3/1
f 258/3/1 82/2/1 86/4/1
f 311/1/1 107/2/1 291/3/1
f 291/3/1 107/2/1 257/4/1
f 451/1/1 346/2/1 292/3/1
f 292/3/1 346/2/1 293/4/1
f 405/1/1 309/2/1 69/3/1
f 69/3/1 309/2/1 310/4/1
f 75/1/1 69/2/1 311/3/1
f 311/3/1 69/2/1 107/4/1
f 83/1/1 313/2/1 312/3/1
f 312/3/1 313/2/1 46/4/1
f 309/1/1 195/2/1 310/3/1
f 310/3/1 195/2/1 82/4/1
f 257/1/1 67/2/1 451/3/1
f 451/3/1 67/2/1 346/4/1
f 145/1/1 292/2/1 410/3/1
f 410/3/1 292/2/1 497/4/1
f 407/1/1 406/2/1 193/3/1
f 193/3/1 406/2/1 408/4/1
f 410/1/1 497/2/1 409/3/1
f 409/3/1 497/2/1 411/4/1
f 473/1/1 474/2/1 129/3/1
f 129/3/1 474/2/1 255/4/1
f 452/1/1 451/2/1 145/3/1
f 145/3/1 451/2/1 292/4/1
f 292/1/1 293/2/1 497/3/1
f 497/3/1 293/2/1 407/4/1
f 477/1/1 311/2/1 476/3/1
f 476/3/1 311/2/1 291/4/1
f 497/1/1 407/2/1 411/3/1
f 411/3/1 407/2/1 193/4/1
f 406/1/1 147/2/1 408/3/1
f 408/3/1 147/2/1 16/4/1

usemtl concrete_E
f 7/5/2 448/6/2 308/1/2
f 308/1/2 448/6/2 4/2/2
f 84/5/4 47/6/4 85/1/4
f 85/1/4 47/6/4 7/2/4
f 45/5/38 71/6/38 454/1/38
f 454/1/38 71/6/38 70/2/38
f 47/5/39 73/6/39 7/1/39
f 7/1/39 73/6/39 448/2/39
f 476/55/40 191/56/40 48/57/41
f 48/57/41 191/56/40 49/58/42
f 48/57/41 49/58/42 50/59/43
f 50/59/43 49/58/42 51/60/44
f 50/59/43 51/60/44 52/61/45
f 52/61/45 51/60/44 53/62/46
f 52/61/45 53/62/46 54/63/47
f 54/63/47 53/62/46 55/64/48
f 54/63/47 55/64/48 56/65/49
f 56/65/49 55/64/48 179/66/50
f 56/65/49 179/66/50 57/67/51
f 57/67/51 179/66/50 181/68/52
f 57/67/51 181/68/52 58/69/53
f 58/69/53 181/68/52 183/70/54
f 58/69/53 183/70/54 59/71/55
f 59/71/55 183/70/54 185/72/56
f 59/71/55 185/72/56 60/73/57
f 60/73/57 185/72/56 187/74/58
f 60/73/57 187/74/58 61/75/59
f 61/75/59 187/74/58 62/76/60
f 61/75/59 62/76/60 63/77/61
f 63/77/61 62/76/60 64/78/62
f 63/77/61 64/78/62 311/79/63
f 311/79/63 64/78/62 65/80/63
f 71/5/38 85/6/38 70/1/38
f 70/1/38 85/6/38 72/2/38
f 404/5/38 74/6/38 45/1/38
f 45/1/38 74/6/38 71/2/38
f 74/5/38 84/6/38 71/1/38
f 71/1/38 84/6/38 85/2/38
f 1/5/9 86/6/9 314/1/9
f 314/1/9 86/6/9 125/2/9
f 88/55/71 128/56/71 87/57/72
f 87/57/72 128/56/71 89/58/73
f 87/57/72 89/58/73 90/59/74
f 90/59/74 89/58/73 91/60/75
f 90/59/74 91/60/75 113/61/76
f 113/61/76 91/60/75 92/62/77
f 113/61/76 92/62/77 115/63/78
f 115/63/78 92/62/77 93/64/79
f 115/63/78 93/64/79 94/65/80
f 94/65/80 93/64/79 95/66/81
f 94/65/80 95/66/81 96/67/82
f 96/67/82 95/66/81 97/68/83
f 96/67/82 97/68/83 119/69/84
f 119/69/84 97/68/83 98/70/85
f 119/69/84 98/70/85 99/71/86
f 99/71/86 98/70/85 100/72/87
f 99/71/86 100/72/87 101/73/88
f 101/73/88 100/72/87 102/74/89
f 101/73/88 102/74/89 103/75/90
f 103/75/90 102/74/89 104/76/91
f 103/75/90 104/76/91 124/77/92
f 124/77/92 104/76/91 105/78/93
f 124/77/92 105/78/93 125/79/94
f 125/79/94 105/78/93 256/80/94
f 475/5/38 108/6/38 68/1/38
f 68/1/38 108/6/38 109/2/38
f 259/5/4 496/6/4 271/1/4
f 271/1/4 496/6/4 480/2/4
f 129/55/71 88/56/71 110/57/72
f 110/57/72 88/56/71 87/58/73
f 110/57/72 87/58/73 111/59/74
f 111/59/74 87/58/73 90/60/75
f 111/59/74 90/60/75 112/61/76
f 112/61/76 90/60/75 113/62/77
f 112/61/76 113/62/77 114/63/78
f 114/63/78 113/62/77 115/64/79
f 114/63/78 115/64/79 116/65/80
f 116/65/80 115/64/79 94/66/81
f 116/65/80 94/66/81 117/67/82
f 117/67/82 94/66/81 96/68/83
f 117/67/82 96/68/83 118/69/84
f 118/69/84 96/68/83 119/70/85
f 118/69/84 119/70/85 120/71/86
f 120/71/86 119/70/85 99/72/87
f 120/71/86 99/72/87 121/73/88
f 121/73/88 99/72/87 101/74/89
f 121/73/88 101/74/89 122/75/90
f 122/75/90 101/74/89 103/76/91
f 122/75/90 103/76/91 123/77/92
f 123/77/92 103/76/91 124/78/93
f 123/77/92 124/78/93 86/79/94
f 86/79/94 124/78/93 125/80/94
f 145/55/95 259/56/95 131/57/96
f 131/57/96 259/56/95 270/58/97
f 131/57/96 270/58/97 132/59/98
f 132/59/98 270/58/97 273/60/99
f 132/59/98 273/60/99 133/61/100
f 133/61/100 273/60/99 275/62/101
f 133/61/100 275/62/101 134/63/102
f 134/63/102 275/62/101 277/64/103
f 134/63/102 277/64/103 135/65/104
f 135/65/104 277/64/103 279/66/105
f 135/65/104 279/66/105 136/67/106
f 136/67/106 279/66/105 137/68/107
f 136/67/106 137/68/107 138/69/108
f 138/69/108 137/68/107 139/70/109
f 138/69/108 139/70/109 140/71/110
f 140/71/110 139/70/109 283/72/111
f 140/71/110 283/72/111 141/73/112
f 141/73/112 283/72/111 285/74/113
f 141/73/112 285/74/113 142/75/114
f 142/75/114 285/74/113 287/76/115
f 142/75/114 287/76/115 143/77/116
f 143/77/116 287/76/115 144/78/117
f 143/77/116 144/78/117 2/79/118
f 2/79/118 144/78/117 290/80/118
f 194/5/39 149/6/39 148/1/39
f 148/1/39 149/6/39 254/2/39
f 151/57/97 150/58/96 410/55/95
f 410/55/95 150/58/96 496/56/95
f 151/57/97 152/60/98 150/58/96
f 153/59/99 152/60/98 151/57/97
f 153/59/99 483/62/100 152/60/98
f 154/61/101 483/62/100 153/59/99
f 154/61/101 155/64/102 483/62/100
f 156/63/103 155/64/102 154/61/101
f 156/63/103 486/66/104 155/64/102
f 157/65/105 486/66/104 156/63/103
f 157/65/105 488/68/106 486/66/104
f 158/67/107 488/68/106 157/65/105
f 158/67/107 490/70/108 488/68/106
f 159/69/109 490/70/108 158/67/107
f 159/69/109 160/72/110 490/70/108
f 161/71/111 160/72/110 159/69/109
f 161/71/111 162/74/112 160/72/110
f 163/73/113 162/74/112 161/71/111
f 163/73/113 164/76/114 162/74/112
f 165/75/115 164/76/114 163/73/113
f 165/75/115 166/78/116 164/76/114
f 167/77/117 166/78/116 165/75/115
f 167/77/117 260/80/118 166/78/116
f 411/79/118 260/80/118 167/77/117
f 411/5/39 193/6/39 260/1/39
f 260/1/39 193/6/39 192/2/39
f 191/55/40 174/56/40 49/57/41
f 49/57/41 174/56/40 175/58/42
f 49/57/41 175/58/42 51/59/43
f 51/59/43 175/58/42 176/60/44
f 51/59/43 176/60/44 53/61/45
f 53/61/45 176/60/44 177/62/46
f 53/61/45 177/62/46 55/63/47
f 55/63/47 177/62/46 178/64/48
f 55/63/47 178/64/48 179/65/49
f 179/65/49 178/64/48 180/66/50
f 179/65/49 180/66/50 181/67/51
f 181/67/51 180/66/50 182/68/52
f 181/67/51 182/68/52 183/69/53
f 183/69/53 182/68/52 184/70/54
f 183/69/53 184/70/54 185/71/55
f 185/71/55 184/70/54 186/72/56
f 185/71/55 186/72/56 187/73/57
f 187/73/57 186/72/56 188/74/58
f 187/73/57 188/74/58 62/75/59
f 62/75/59 188/74/58 189/76/60
f 62/75/59 189/76/60 64/77/61
f 64/77/61 189/76/60 190/78/62
f 64/77/61 190/78/62 65/79/63
f 65/79/63 190/78/62 332/80/63
f 192/5/39 194/6/39 261/1/39
f 261/1/39 194/6/39 148/2/39
f 193/5/39 408/6/39 192/1/39
f 192/1/39 408/6/39 194/2/39
f 473/5/38 195/6/38 475/1/38
f 475/1/38 195/6/38 108/2/38
f 83/5/9 1/6/9 413/1/9
f 413/1/9 1/6/9 314/2/9
f 206/81/9 198/82/9 207/83/9
f 207/83/9 198/82/9 199/84/9
f 201/85/70 200/86/70 208/87/70
f 208/87/70 200/86/70 209/88/70
f 210/89/4 202/90/4 211/91/4
f 211/91/4 202/90/4 203/92/4
f 213/4/2 212/2/2 204/93/2
f 204/93/2 212/2/2 205/94/2
f 205/94/119 198/82/119 204/93/119
f 204/93/119 198/82/119 206/81/119
f 199/84/120 200/86/120 207/83/120
f 207/83/120 200/86/120 201/85/120
f 209/88/121 202/90/121 208/87/121
f 208/87/121 202/90/121 210/89/121
f 203/92/122 212/1/122 211/91/122
f 211/91/122 212/1/122 213/3/122
f 231/81/9 230/82/9 229/83/9
f 229/83/9 230/82/9 232/84/9
f 235/85/70 234/86/70 233/87/70
f 233/87/70 234/86/70 236/88/70
f 239/89/4 238/90/4 237/91/4
f 237/91/4 238/90/4 240/92/4
f 243/4/2 242/2/2 241/93/2
f 241/93/2 242/2/2 244/94/2
f 244/94/119 230/82/119 241/93/119
f 241/93/119 230/82/119 231/81/119
f 232/84/120 234/86/120 229/83/120
f 229/83/120 234/86/120 235/85/120
f 236/88/121 238/90/121 233/87/121
f 233/87/121 238/90/121 239/89/121
f 240/92/122 242/1/122 237/91/122
f 237/91/122 242/1/122 243/3/122
f 255/5/9 474/6/9 449/1/9
f 449/1/9 474/6/9 472/2/9
f 314/5/9 125/6/9 315/1/9
f 315/1/9 125/6/9 256/2/9
f 145/5/4 410/6/4 259/1/4
f 259/1/4 410/6/4 496/2/4
f 260/5/39 192/6/39 495/1/39
f 495/1/39 192/6/39 261/2/39
f 129/5/2 255/6/2 88/1/2
f 88/1/2 255/6/2 449/2/2
f 259/55/95 271/56/95 270/57/96
f 270/57/96 271/56/95 272/58/97
f 270/57/96 272/58/97 273/59/98
f 273/59/98 272/58/97 274/60/99
f 273/59/98 274/60/99 275/61/100
f 275/61/100 274/60/99 276/62/101
f 275/61/100 276/62/101 277/63/102
f 277/63/102 276/62/101 278/64/103
f 277/63/102 278/64/103 279/65/104
f 279/65/104 278/64/103 280/66/105
f 279/65/104 280/66/105 137/67/106
f 137/67/106 280/66/105 281/68/107
f 137/67/106 281/68/107 139/69/108
f 139/69/108 281/68/107 282/70/109
f 139/69/108 282/70/109 283/71/110
f 283/71/110 282/70/109 284/72/111
f 283/71/110 284/72/111 285/73/112
f 285/73/112 284/72/111 286/74/113
f 285/73/112 286/74/113 287/75/114
f 287/75/114 286/74/113 288/76/115
f 287/75/114 288/76/115 144/77/116
f 144/77/116 288/76/115 289/78/117
f 144/77/116 289/78/117 290/79/118
f 290/79/118 289/78/117 321/80/118
f 85/5/4 7/6/4 72/1/4
f 72/1/4 7/6/4 308/2/4
f 413/5/9 314/6/9 412/1/9
f 412/1/9 314/6/9 315/2/9
f 65/55/95 332/56/95 429/57/96
f 429/57/96 332/56/95 333/58/97
f 429/57/96 333/58/97 431/59/98
f 431/59/98 333/58/97 334/60/99
f 431/59/98 334/60/99 335/61/100
f 335/61/100 334/60/99 336/62/101
f 335/61/100 336/62/101 434/63/102
f 434/63/102 336/62/101 337/64/103
f 434/63/102 337/64/103 436/65/104
f 436/65/104 337/64/103 338/66/105
f 436/65/104 338/66/105 438/67/106
f 438/67/106 338/66/105 339/68/107
f 438/67/106 339/68/107 340/69/108
f 340/69/108 339/68/107 341/70/109
f 340/69/108 341/70/109 441/71/110
f 441/71/110 341/70/109 342/72/111
f 441/71/110 342/72/111 443/73/112
f 443/73/112 342/72/111 343/74/113
f 443/73/112 343/74/113 445/75/114
f 445/75/114 343/74/113 344/76/115
f 445/75/114 344/76/115 447/77/116
f 447/77/116 344/76/115 345/78/117
f 447/77/116 345/78/117 448/79/118
f 448/79/118 345/78/117 4/80/118
f 83/55/123 413/56/123 347/57/124
f 347/57/124 413/56/123 348/58/125
f 347/57/124 348/58/125 349/59/126
f 349/59/126 348/58/125 415/60/127
f 349/59/126 415/60/127 350/61/128
f 350/61/128 415/60/127 351/62/129
f 350/61/128 351/62/129 352/63/130
f 352/63/130 351/62/129 418/64/131
f 352/63/130 418/64/131 353/65/132
f 353/65/132 418/64/131 354/66/133
f 353/65/132 354/66/133 355/67/134
f 355/67/134 354/66/133 356/68/135
f 355/67/134 356/68/135 357/69/136
f 357/69/136 356/68/135 358/70/137
f 357/69/136 358/70/137 359/71/138
f 359/71/138 358/70/137 360/72/139
f 359/71/138 360/72/139 361/73/140
f 361/73/140 360/72/139 424/74/141
f 361/73/140 424/74/141 362/75/142
f 362/75/142 424/74/141 363/76/143
f 362/75/142 363/76/143 364/77/144
f 364/77/144 363/76/143 365/78/145
f 364/77/144 365/78/145 46/79/146
f 46/79/146 365/78/145 373/80/146
f 413/55/123 412/56/123 348/57/124
f 348/57/124 412/56/123 414/58/125
f 348/57/124 414/58/125 415/59/126
f 415/59/126 414/58/125 416/60/127
f 415/59/126 416/60/127 351/61/128
f 351/61/128 416/60/127 417/62/129
f 351/61/128 417/62/129 418/63/130
f 418/63/130 417/62/129 419/64/131
f 418/63/130 419/64/131 354/65/132
f 354/65/132 419/64/131 420/66/133
f 354/65/132 420/66/133 356/67/134
f 356/67/134 420/66/133 421/68/135
f 356/67/134 421/68/135 358/69/136
f 358/69/136 421/68/135 422/70/137
f 358/69/136 422/70/137 360/71/138
f 360/71/138 422/70/137 423/72/139
f 360/71/138 423/72/139 424/73/140
f 424/73/140 423/72/139 425/74/141
f 424/73/140 425/74/141 363/75/142
f 363/75/142 425/74/141 426/76/143
f 363/75/142 426/76/143 365/77/144
f 365/77/144 426/76/143 427/78/145
f 365/77/144 427/78/145 373/79/146
f 373/79/146 427/78/145 170/80/146
f 408/5/39 16/6/39 194/1/39
f 194/1/39 16/6/39 149/2/39
f 311/55/95 65/56/95 428/57/96
f 428/57/96 65/56/95 429/58/97
f 428/57/96 429/58/97 430/59/98
f 430/59/98 429/58/97 431/60/99
f 430/59/98 431/60/99 432/61/100
f 432/61/100 431/60/99 335/62/101
f 432/61/100 335/62/101 433/63/102
f 433/63/102 335/62/101 434/64/103
f 433/63/102 434/64/103 435/65/104
f 435/65/104 434/64/103 436/66/105
f 435/65/104 436/66/105 437/67/106
f 437/67/106 436/66/105 438/68/107
f 437/67/106 438/68/107 439/69/108
f 439/69/108 438/68/107 340/70/109
f 439/69/108 340/70/109 440/71/110
f 440/71/110 340/70/109 441/72/111
f 440/71/110 441/72/111 442/73/112
f 442/73/112 441/72/111 443/74/113
f 442/73/112 443/74/113 444/75/114
f 444/75/114 443/74/113 445/76/115
f 444/75/114 445/76/115 446/77/116
f 446/77/116 445/76/115 447/78/117
f 446/77/116 447/78/117 73/79/118
f 73/79/118 447/78/117 448/80/118
f 88/5/2 449/6/2 128/1/2
f 128/1/2 449/6/2 450/2/2
f 472/5/38 475/6/38 514/1/38
f 514/1/38 475/6/38 68/2/38
f 457/81/9 466/82/9 456/83/9
f 456/83/9 466/82/9 458/84/9
f 468/85/70 459/86/70 469/87/70
f 469/87/70 459/86/70 460/88/70
f 462/89/4 470/90/4 461/91/4
f 461/91/4 470/90/4 471/92/4
f 464/4/2 463/2/2 465/93/2
f 465/93/2 463/2/2 467/94/2
f 467/94/119 466/82/119 465/93/119
f 465/93/119 466/82/119 457/81/119
f 458/84/120 459/86/120 456/83/120
f 456/83/120 459/86/120 468/85/120
f 460/88/121 470/90/121 469/87/121
f 469/87/121 470/90/121 462/89/121
f 471/92/122 463/1/122 461/91/122
f 461/91/122 463/1/122 464/3/122
f 474/5/38 473/6/38 472/1/38
f 472/1/38 473/6/38 475/2/38
f 150/57/97 479/58/96 496/55/95
f 496/55/95 479/58/96 480/56/95
f 150/57/97 481/60/98 479/58/96
f 152/59/99 481/60/98 150/57/97
f 152/59/99 482/62/100 481/60/98
f 483/61/101 482/62/100 152/59/99
f 483/61/101 484/64/102 482/62/100
f 155/63/103 484/64/102 483/61/101
f 155/63/103 485/66/104 484/64/102
f 486/65/105 485/66/104 155/63/103
f 486/65/105 487/68/106 485/66/104
f 488/67/107 487/68/106 486/65/105
f 488/67/107 489/70/108 487/68/106
f 490/69/109 489/70/108 488/67/107
f 490/69/109 491/72/110 489/70/108
f 160/71/111 491/72/110 490/69/109
f 160/71/111 492/74/112 491/72/110
f 162/73/113 492/74/112 160/71/111
f 162/73/113 493/76/114 492/74/112
f 164/75/115 493/76/114 162/73/113
f 164/75/115 494/78/116 493/76/114
f 166/77/117 494/78/116 164/75/115
f 166/77/117 495/80/118 494/78/116
f 260/79/118 495/80/118 166/77/117
f 499/81/9 498/82/9 507/83/9
f 507/83/9 498/82/9 508/84/9
f 509/85/70 501/86/70 500/87/70
f 500/87/70 501/86/70 510/88/70
f 504/89/4 503/90/4 502/91/4
f 502/91/4 503/90/4 512/92/4
f 513/4/2 511/2/2 505/93/2
f 505/93/2 511/2/2 506/94/2
f 506/94/119 498/82/119 505/93/119
f 505/93/119 498/82/119 499/81/119
f 508/84/120 501/86/120 507/83/120
f 507/83/120 501/86/120 509/85/120
f 510/88/121 503/90/121 500/87/121
f 500/87/121 503/90/121 504/89/121
f 512/92/122 511/1/122 502/91/122
f 502/91/122 511/1/122 513/3/122
f 449/5/9 472/6/9 450/1/9
f 450/1/9 472/6/9 514/2/9

usemtl floor_A
f 308/1/3 4/2/3 72/3/3
f 72/3/3 4/2/3 70/4/3
f 66/1/3 412/2/3 170/3/3
f 170/3/3 412/2/3 169/4/3
f 514/1/3 68/2/3 450/3/3
f 450/3/3 68/2/3 128/4/3
f 68/1/3 109/2/3 128/3/3
f 128/3/3 109/2/3 106/4/3
f 128/1/3 106/2/3 127/3/3
f 127/3/3 106/2/3 256/4/3
f 170/1/3 169/2/3 168/3/3
f 168/3/3 169/2/3 171/4/3
f 332/1/3 173/2/3 172/3/3
f 172/3/3 173/2/3 174/4/3
f 168/1/3 171/2/3 254/3/3
f 254/3/3 171/2/3 148/4/3
f 322/1/3 321/2/3 271/3/3
f 271/3/3 321/2/3 323/4/3
f 454/1/3 70/2/3 453/3/3
f 453/3/3 70/2/3 4/4/3
f 478/1/3 315/2/3 66/3/3
f 66/3/3 315/2/3 412/4/3
f 453/1/3 4/2/3 332/3/3
f 332/3/3 4/2/3 173/4/3

usemtl floor_B
f 6/1/3 373/2/3 5/3/3
f 5/3/3 373/2/3 372/4/3
f 5/1/3 372/2/3 44/3/3
f 44/3/3 372/2/3 149/4/3

usemtl metal_plate_A
f 10/7/4 9/8/4 8/1/4
f 8/1/4 366/2/4 10/7/4
f 8/1/4 9/8/4 11/3/4
f 9/8/4 30/9/4 11/3/4
f 11/3/4 30/9/4 12/4/4
f 366/2/4 12/4/4 13/10/4
f 13/10/4 12/4/4 30/9/4
f 10/7/4 366/2/4 13/10/4
f 20/11/5 35/12/6 14/13/7
f 15/10/8 35/12/6 20/11/5
f 149/1/9 16/3/9 35/7/9
f 35/7/9 15/10/9 149/1/9
f 35/7/9 16/3/9 28/8/9
f 16/3/9 147/4/9 28/8/9
f 28/8/9 147/4/9 36/9/9
f 15/10/9 36/9/9 372/2/9
f 372/2/9 36/9/9 147/4/9
f 149/1/9 15/10/9 372/2/9
f 10/14/10 18/15/11 17/16/12
f 18/15/11 10/14/10 19/17/13
f 18/15/11 20/11/5 17/16/12
f 19/17/13 38/18/14 18/15/11
f 18/15/11 38/18/14 20/11/5
f 38/18/14 19/17/13 37/19/15
f 20/11/5 38/18/14 15/10/8
f 19/17/13 10/14/10 13/20/16
f 13/20/16 33/21/17 19/17/13
f 37/19/15 19/17/13 33/21/17
f 17/16/12 20/11/5 14/13/7
f 43/22/18 9/23/19 21/24/20
f 21/24/20 9/23/19 10/7/10
f 10/7/10 17/25/12 21/24/20
f 17/25/12 14/26/7 21/24/20
f 34/27/21 43/22/18 21/24/20
f 21/24/20 14/26/7 34/27/21
f 39/28/22 43/22/18 34/27/21
f 43/22/18 39/28/22 42/29/23
f 35/30/6 39/28/22 34/27/21
f 28/31/24 39/28/22 35/30/6
f 42/29/23 39/28/22 22/32/25
f 24/33/26 30/9/27 23/34/28
f 23/34/28 30/9/27 9/35/19
f 25/36/29 24/33/26 23/34/28
f 26/37/30 24/33/26 25/36/29
f 25/36/29 23/34/28 22/38/25
f 24/33/26 26/37/30 27/39/31
f 28/40/24 26/37/30 25/36/29
f 22/38/25 23/34/28 42/41/23
f 27/39/31 26/37/30 40/42/32
f 30/43/27 29/44/33 13/45/16
f 30/43/27 27/46/31 29/44/33
f 13/45/16 29/44/33 41/47/34
f 29/44/33 31/48/35 41/47/34
f 31/48/35 29/44/33 40/49/32
f 40/49/32 29/44/33 27/46/31
f 41/47/34 31/48/35 32/50/36
f 36/51/37 32/50/36 31/48/35
f 15/10/8 32/50/36 36/51/37
f 32/50/36 33/52/17 41/47/34
f 37/53/15 33/52/17 32/50/36
f 23/34/28 9/35/19 42/41/23
f 30/9/27 24/33/26 27/39/31
f 14/26/7 35/30/6 34/27/21
f 36/54/37 26/37/30 28/40/24
f 36/54/37 40/42/32 26/37/30
f 15/10/8 37/53/15 32/50/36
f 15/10/8 38/18/14 37/53/15
f 28/31/24 22/32/25 39/28/22
f 36/51/37 31/48/35 40/49/32
f 13/45/16 41/47/34 33/52/17
f 28/40/24 25/36/29 22/38/25
f 9/23/19 43/22/18 42/29/23
f 146/1/9 197/2/9 44/3/9
f 44/3/9 197/2/9 5/4/9
f 16/1/2 146/2/2 149/3/2
f 149/3/2 146/2/2 44/4/2
f 196/1/70 46/2/70 6/3/70
f 6/3/70 46/2/70 373/4/70
f 197/1/9 196/2/9 5/3/9
f 5/3/9 196/2/9 6/4/9
f 368/7/4 367/8/4 366/1/4
f 366/1/4 369/2/4 368/7/4
f 366/1/4 367/8/4 12/3/4
f 367/8/4 389/9/4 12/3/4
f 12/3/4 389/9/4 370/4/4
f 369/2/4 370/4/4 401/10/4
f 401/10/4 370/4/4 389/9/4
f 368/7/4 369/2/4 401/10/4
f 371/11/5 383/12/6 381/13/7
f 394/10/8 383/12/6 371/11/5
f 372/1/9 147/3/9 383/7/9
f 383/7/9 394/10/9 372/1/9
f 383/7/9 147/3/9 402/8/9
f 147/3/9 46/4/9 402/8/9
f 402/8/9 46/4/9 397/9/9
f 394/10/9 397/9/9 373/2/9
f 373/2/9 397/9/9 46/4/9
f 372/1/9 394/10/9 373/2/9
f 368/14/10 374/15/11 380/16/12
f 374/15/11 368/14/10 375/17/13
f 374/15/11 371/11/5 380/16/12
f 375/17/13 399/18/14 374/15/11
f 374/15/11 399/18/14 371/11/5
f 399/18/14 375/17/13 376/19/15
f 371/11/5 399/18/14 394/10/8
f 375/17/13 368/14/10 401/20/16
f 401/20/16 377/21/17 375/17/13
f 376/19/15 375/17/13 377/21/17
f 380/16/12 371/11/5 381/13/7
f 379/22/18 367/23/19 378/24/20
f 378/24/20 367/23/19 368/7/10
f 368/7/10 380/25/12 378/24/20
f 380/25/12 381/26/7 378/24/20
f 382/27/21 379/22/18 378/24/20
f 378/24/20 381/26/7 382/27/21
f 400/28/22 379/22/18 382/27/21
f 379/22/18 400/28/22 387/29/23
f 383/30/6 400/28/22 382/27/21
f 402/31/24 400/28/22 383/30/6
f 387/29/23 400/28/22 384/32/25
f 385/33/26 389/9/27 395/34/28
f 395/34/28 389/9/27 367/35/19
f 386/36/29 385/33/26 395/34/28
f 396/37/30 385/33/26 386/36/29
f 386/36/29 395/34/28 384/38/25
f 385/33/26 396/37/30 390/39/31
f 402/40/24 396/37/30 386/36/29
f 384/38/25 395/34/28 387/41/23
f 390/39/31 396/37/30 398/42/32
f 389/43/27 388/44/33 401/45/16
f 389/43/27 390/46/31 388/44/33
f 401/45/16 388/44/33 391/47/34
f 388/44/33 392/48/35 391/47/34
f 392/48/35 388/44/33 398/49/32
f 398/49/32 388/44/33 390/46/31
f 391/47/34 392/48/35 393/50/36
f 397/51/37 393/50/36 392/48/35
f 394/10/8 393/50/36 397/51/37
f 393/50/36 377/52/17 391/47/34
f 376/53/15 377/52/17 393/50/36
f 395/34/28 367/35/19 387/41/23
f 389/9/27 385/33/26 390/39/31
f 381/26/7 383/30/6 382/27/21
f 397/54/37 396/37/30 402/40/24
f 397/54/37 398/42/32 396/37/30
f 394/10/8 376/53/15 393/50/36
f 394/10/8 399/18/14 376/53/15
f 402/31/24 384/32/25 400/28/22
f 397/51/37 392/48/35 398/49/32
f 401/45/16 391/47/34 377/52/17
f 402/40/24 386/36/29 384/38/25
f 367/23/19 379/22/18 387/29/23

usemtl brick_A
f 403/5/38 45/6/38 228/1/38
f 228/1/38 45/6/38 454/2/38
f 309/5/38 405/6/38 455/1/38
f 455/1/38 405/6/38 403/2/38
f 108/5/38 455/6/38 109/1/38
f 109/1/38 455/6/38 126/2/38
f 455/5/38 403/6/38 126/1/38
f 126/1/38 403/6/38 228/2/38
f 405/5/38 404/6/38 403/1/38
f 403/1/38 404/6/38 45/2/38
f 195/5/38 309/6/38 108/1/38
f 108/1/38 309/6/38 455/2/38

usemtl concrete_A
f 79/81/3 246/82/3 226/83/3
f 226/83/3 246/82/3 245/84/3
f 76/85/64 80/86/64 215/87/64
f 215/87/64 80/86/64 77/88/64
f 217/89/1 248/90/1 219/91/1
f 219/91/1 248/90/1 81/92/1
f 220/4/65 253/2/65 223/93/65
f 223/93/65 253/2/65 78/94/65
f 78/94/66 246/82/66 223/93/66
f 223/93/66 246/82/66 79/81/66
f 245/84/67 80/86/67 226/83/67
f 226/83/67 80/86/67 76/85/67
f 77/88/68 248/90/68 215/87/68
f 215/87/68 248/90/68 217/89/68
f 81/92/69 253/1/69 219/91/69
f 219/91/69 253/1/69 220/3/69
f 224/81/3 79/82/3 225/83/3
f 225/83/3 79/82/3 226/84/3
f 227/85/64 76/86/64 214/87/64
f 214/87/64 76/86/64 215/88/64
f 218/89/1 217/90/1 216/91/1
f 216/91/1 217/90/1 219/92/1
f 221/4/65 220/2/65 222/93/65
f 222/93/65 220/2/65 223/94/65
f 223/94/66 79/82/66 222/93/66
f 222/93/66 79/82/66 224/81/66
f 226/84/67 76/86/67 225/83/67
f 225/83/67 76/86/67 227/85/67
f 215/88/68 217/90/68 214/87/68
f 214/87/68 217/90/68 218/89/68
f 219/92/69 220/1/69 216/91/69
f 216/91/69 220/1/69 221/3/69
f 246/81/3 330/82/3 245/83/3
f 245/83/3 330/82/3 324/84/3
f 80/85/64 251/86/64 77/87/64
f 77/87/64 251/86/64 252/88/64
f 248/89/1 247/90/1 81/91/1
f 81/91/1 247/90/1 249/92/1
f 253/4/65 328/2/65 78/93/65
f 78/93/65 328/2/65 250/94/65
f 250/94/66 330/82/66 78/93/66
f 78/93/66 330/82/66 246/81/66
f 324/84/67 251/86/67 245/83/67
f 245/83/67 251/86/67 80/85/67
f 252/88/68 247/90/68 77/87/68
f 77/87/68 247/90/68 248/89/68
f 249/92/69 328/1/69 81/91/69
f 81/91/69 328/1/69 253/3/69
f 329/81/3 268/82/3 325/83/3
f 325/83/3 268/82/3 262/84/3
f 263/85/64 318/86/64 326/87/64
f 326/87/64 318/86/64 316/88/64
f 265/89/1 264/90/1 331/91/1
f 331/91/1 264/90/1 269/92/1
f 327/4/65 320/2/65 266/93/65
f 266/93/65 320/2/65 267/94/65
f 267/94/66 268/82/66 266/93/66
f 266/93/66 268/82/66 329/81/66
f 262/84/67 318/86/67 325/83/67
f 325/83/67 318/86/67 263/85/67
f 316/88/68 264/90/68 326/87/68
f 326/87/68 264/90/68 265/89/68
f 269/92/69 320/1/69 331/91/69
f 331/91/69 320/1/69 327/3/69
f 295/81/3 294/82/3 303/83/3
f 303/83/3 294/82/3 305/84/3
f 306/85/64 304/86/64 296/87/64
f 296/87/64 304/86/64 307/88/64
f 319/89/1 298/90/1 297/91/1
f 297/91/1 298/90/1 299/92/1
f 301/4/65 300/2/65 317/93/65
f 317/93/65 300/2/65 302/94/65
f 302/94/66 294/82/66 317/93/66
f 317/93/66 294/82/66 295/81/66
f 305/84/67 304/86/67 303/83/67
f 303/83/67 304/86/67 306/85/67
f 307/88/68 298/90/68 296/87/68
f 296/87/68 298/90/68 319/89/68
f 299/92/69 300/1/69 297/91/69
f 297/91/69 300/1/69 301/3/69
f 268/81/3 295/82/3 262/83/3
f 262/83/3 295/82/3 303/84/3
f 318/85/64 306/86/64 316/87/64
f 316/87/64 306/86/64 296/88/64
f 264/89/1 319/90/1 269/91/1
f 269/91/1 319/90/1 297/92/1
f 320/4/65 301/2/65 267/93/65
f 267/93/65 301/2/65 317/94/65
f 317/94/66 295/82/66 267/93/66
f 267/93/66 295/82/66 268/81/66
f 303/84/67 306/86/67 262/83/67
f 262/83/67 306/86/67 318/85/67
f 296/88/68 319/90/68 316/87/68
f 316/87/68 319/90/68 264/89/68
f 297/92/69 301/1/69 269/91/69
f 269/91/69 301/1/69 320/3/69
f 330/81/3 329/82/3 324/83/3
f 324/83/3 329/82/3 325/84/3
f 251/85/64 263/86/64 252/87/64
f 252/87/64 263/86/64 326/88/64
f 247/89/1 265/90/1 249/91/1
f 249/91/1 265/90/1 331/92/1
f 328/4/65 327/2/65 250/93/65
f 250/93/65 327/2/65 266/94/65
f 266/94/66 329/82/66 250/93/66
f 250/93/66 329/82/66 330/81/66
f 325/84/67 263/86/67 324/83/67
f 324/83/67 263/86/67 251/85/67
f 326/88/68 265/90/68 252/87/68
f 252/87/68 265/90/68 247/89/68
f 331/92/69 327/1/69 249/91/69
f 249/91/69 327/1/69 328/3/69

