# WaveFront *.obj file (generated by CINEMA 4D)

mtllib ./sector_09.mtl

v -56.0001106262207 -12 0.00009965897334
v -56.0001106262207 -12 4.00010013580322
v -54.5 -12.00010013580322 -4.00010013580322
v -54.5 -7.99990510940552 -4.00010013580322
v -54.5 -12.00010013580322 -0.00009994042921
v -44 0.00009489058721 -7.99989986419678
v -47.9998893737793 0.0000004400593 -4.00010013580322
v -44 0.00009489058721 -4.00010204315186
v -47.9998893737793 -0 -7.99989986419678
v -52 -12.00010013580322 4.00010013580322
v -52 -7.99990510940552 4.00010013580322
v -47.9998893737793 -12 -4.00010013580322
v -48.00009918212891 -12.00010013580322 -0.00000000000258
v -52.0001106262207 0.0000006739678 -4.00010013580322
v -52.0001106262207 0.00000023390849 -7.99989986419678
v -48 -12.00010013580322 -2.63726711273193
v -48.03001022338867 -9.58923053741455 -2.61866593360901
v -48.03001022338867 -12.00010013580322 -2.61866593360901
v -48.16329956054688 -9.58923053741455 -2.61866593360901
v -48.16329956054688 -12.00010013580322 -2.61866593360901
v -48.16329956054688 -9.57515907287598 -2.61301803588867
v -48.20000076293945 -12.00010013580322 -2.63726711273193
v -48.16329956054688 -9.58923053741455 -1.4118560552597
v -48.16329956054688 -12.00010013580322 -1.4118560552597
v -48.03001022338867 -9.58923053741455 -1.4118560552597
v -48.03001022338867 -12.00010013580322 -1.4118560552597
v -48 -9.55576038360596 -2.63726711273193
v -48.00009918212891 -7.99990510940552 -0.00000000000258
v -48 -12.00010013580322 -1.39325499534607
v -48.16329956054688 -9.56933116912842 -2.59938192367554
v -48.20000076293945 -9.55576038360596 -2.63726711273193
v -48.20000076293945 -9.55576038360596 -1.39325499534607
v -48.16329956054688 -9.56933116912842 -1.43113994598389
v -48.16329956054688 -9.57515907287598 -1.41750395298004
v -48.03001022338867 -9.56933116912842 -2.59938192367554
v -48.03001022338867 -9.56933116912842 -1.43113994598389
v -48.03001022338867 -9.57515907287598 -2.61301803588867
v -48 -9.55576038360596 -1.39325499534607
v -48.03001022338867 -9.57515907287598 -1.41750395298004
v -48.20000076293945 -12.00010013580322 -4.00010013580322
v -48.20000076293945 -7.99989986419678 -4.00010013580322
v -48.20000076293945 -7.99989986419678 0.00010156630015
v -48.20000076293945 -12.00010013580322 -1.39325499534607
v -48.20000076293945 -12.00010013580322 0.00010156630015
v -48.0001106262207 -12 -7.99989986419678
v -44 -12.00010013580322 -7.99989986419678
v -44 -12.00010013580322 -4.00010204315186
v -44.5 0 4.46799993515015
v -44.5 -4 3.53200006484985
v -44.5 0 3.53200006484985
v -44.5 -4 4.46799993515015
v -44.46799850463867 -4 4.5
v -44.46799850463867 0 4.5
v -43.53200149536133 -4 4.5
v -43.5 0 3.53200006484985
v -43.5 0 4.46799993515015
v -43.5 -4 3.53200006484985
v -43.53200149536133 -4 3.5
v -44.46799850463867 -4 3.5
v -44.46799850463867 0 3.5
v -43.53200149536133 0 4.5
v -43.5 -4 4.46799993515015
v -43.53200149536133 0 3.5
v -44.5 0 0.46800011396408
v -44.5 0 -0.46800020337105
v -43.5 -4 0.46800020337105
v -43.5 -4 -0.46800011396408
v -44.46799850463867 0 -0.50000017881393
v -44.46799850463867 -4 -0.50000017881393
v -44.46799850463867 -4 0.50000011920929
v -44.46799850463867 0 0.50000011920929
v -43.53200149536133 0 0.50000017881393
v -43.5 0 0.46800020337105
v -43.5 0 -0.46800011396408
v -43.53200149536133 0 -0.50000011920929
v -52.0001106262207 -9.24999904632568 -4.00010013580322
v -56.0001106262207 -9.24999904632568 -0.00009965897334
v -52.0001106262207 -9.25 0.00009989737737
v -56.0001106262207 -9.24999904632568 -4.00010013580322
v -52.0001106262207 -0.00001167992014 4.00010013580322
v -44 0.00009489058721 0.00009999999747
v -44 0.00010013580322 4.00010013580322
v -44.5 -12 -10.4680004119873
v -44.5 -8 -10.4680004119873
v -44.46799850463867 -12 -9.5
v -43.5 -12 -10.4680004119873
v -44.46799850463867 -8 -10.5
v -43.53200149536133 -8 -10.5
v -44.46799850463867 -12 -10.5
v -44.5 -8 -9.5319995880127
v -44.5 -12 -9.5319995880127
v -43.5 -12 -9.5319995880127
v -43.53200149536133 -12 -9.5
v -43.53200149536133 -12 -10.5
v -44 -7.99990510940552 -7.99989986419678
v -44 -3.99990510940552 -11.99989986419678
v -44 -3.99990510940552 -8.00010108947754
v -44 -7.99990510940552 -4.00010204315186
v -48 -12 -5.99999809265137
v -48 -7.99990510940552 -3.99989891052246
v -48 -8 -5.99999809265137
v -45.36272811889648 -12.00010013580322 -16.00000953674316
v -45.38132858276367 -9.58923053741455 -16.03001022338867
v -45.36272811889648 -9.55576038360596 -16.00000953674316
v -45.38697814941406 -9.57515907287598 -16.03001022338867
v -45.38132858276367 -12.00010013580322 -16.03001022338867
v -45.38132858276367 -9.58923053741455 -16.16329956054688
v -45.38132858276367 -12.00010013580322 -16.16329956054688
v -45.38697814941406 -9.57515907287598 -16.16329956054688
v -45.36272811889648 -9.55576038360596 -16.20001029968262
v -45.36272811889648 -12.00010013580322 -16.20001029968262
v -46.60673904418945 -12.00010013580322 -16.20001983642578
v -46.58813858032227 -9.58923053741455 -16.16330909729004
v -46.60673904418945 -9.55576038360596 -16.20001983642578
v -46.58248901367188 -9.57515907287598 -16.16330909729004
v -46.58813858032227 -12.00010013580322 -16.16330909729004
v -46.58250045776367 -9.57515907287598 -16.03001976013184
v -46.58813858032227 -9.58923053741455 -16.03001976013184
v -46.58813858032227 -12.00010013580322 -16.03001976013184
v -46.60673904418945 -9.55576038360596 -16.00001907348633
v -46.60673904418945 -12.00010013580322 -16.00001907348633
v -43.9998893737793 -12 -16.00009918212891
v -45.40061950683594 -9.56933116912842 -16.16329956054688
v -46.5688591003418 -9.56933116912842 -16.16330909729004
v -45.40061950683594 -9.56933116912842 -16.03001022338867
v -46.5688591003418 -9.56933116912842 -16.03001976013184
v -43.99990081787109 -12.00010013580322 -16.20000076293945
v -43.99990081787109 -7.99989986419678 -16.20000076293945
v -52 -3.99990510940552 -16.00009918212891
v -43.99990081787109 -8.0001049041748 -16
v -56.0001106262207 -9.25 4.00010013580322
v -51.9998893737793 -9.25 4.00010013580322
v -52.0001106262207 0.00000023390849 -11.99989986419678
v -52.50009918212891 -8.0001049041748 -16.20000076293945
v -48.50009918212891 -3.99990510940552 -16.20000076293945
v -52.50009918212891 -3.99990510940552 -16.20000076293945
v -48.50009918212891 -8.0001049041748 -16.20000076293945
v -44.46799850463867 -4 -9.5
v -44.46799850463867 -4 -10.5
v -44.46799850463867 0 -10.5
v -44.5 -4 -10.4680004119873
v -44.5 0 -10.4680004119873
v -44.5 0 -9.5319995880127
v -44.46799850463867 0 -9.5
v -43.53200149536133 0 -9.5
v -43.5 0 -9.5319995880127
v -43.5 0 -10.4680004119873
v -43.53200149536133 -4 -10.5
v -43.53200149536133 0 -10.5
v -51.53200149536133 -4 -15.5
v -51.5 0 -15.5319995880127
v -52.46799850463867 -4 -16.5
v -52.46799850463867 0 -16.5
v -52.5 0 -16.4680004119873
v -52.5 0 -15.5319995880127
v -52.46799850463867 -4 -15.5
v -52.46799850463867 0 -15.5
v -51.53200149536133 0 -15.5
v -51.5 0 -16.4680004119873
v -51.53200149536133 -4 -16.5
v -51.53200149536133 0 -16.5
v -44.5 -12 -16.4680004119873
v -44.5 -12 -15.5319995880127
v -44.46799850463867 -12 -15.5
v -43.53200149536133 -12 -15.5
v -43.53200149536133 -12 -16.5
v -44.46799850463867 -12 -16.5
v -43.5 -12 -15.5319995880127
v -43.5 -12 -16.4680004119873
v -43.53200149536133 -8 -16.5
v -52 -8.0001049041748 -11.99989986419678
v -52 -3.99990510940552 -11.99989986419678
v -44.5 0 -5.46799993515015
v -44.46799850463867 0 -4.5
v -43.5 0 -4.53200006484985
v -44.46799850463867 0 -5.5
v -44.46799850463867 -4 -5.5
v -44.5 0 -4.53200006484985
v -43.53200149536133 0 -4.5
v -43.5 -4 -4.53200006484985
v -43.53200149536133 -4 -4.5
v -43.5 0 -5.46799993515015
v -43.53200149536133 -4 -5.5
v -43.53200149536133 0 -5.5
v -48 -12 -12
v -47.9998893737793 -9.25 -4.00010013580322
v -47.9998893737793 -9.25 0.00009989737737
v -44.5 -4 -9.5319995880127
v -43.53200149536133 -8 -9.5
v -43.5 -8 -9.5319995880127
v -43.5 -8 -10.4680004119873
v -44.46799850463867 -8 -9.5
v -43.53200149536133 -4 -9.5
v -43.5 -4 -9.5319995880127
v -43.5 -4 -10.4680004119873
v -48.00009918212891 -3.99990510940552 -0.00000000000258
v -48.00009918212891 -4.0001049041748 4
v -47.9998893737793 -0.00001169079042 4.00010013580322
v -44 -4.00010013580322 4.00010013580322
v -47.9998893737793 0.00001235388027 -0.00009989737737
v -44.5 -8 -0.46800020337105
v -43.53200149536133 -4 0.50000017881393
v -44.46799850463867 -8 -0.50000017881393
v -44.5 -4 -0.46800020337105
v -44.5 -4 0.46800011396408
v -44.46799850463867 -8 0.50000011920929
v -43.53200149536133 -8 0.50000017881393
v -43.53200149536133 -8 -0.50000011920929
v -43.53200149536133 -4 -0.50000011920929
v -52 -4.0001049041748 4.00010204315186
v -48 -6.4424262046814 -3.6545569896698
v -48 -6.67213106155396 -4.00940608978271
v -48 -6.89166212081909 -4.33655595779419
v -48 -6.87586116790771 -4.31957006454468
v -48 -6.67213106155396 -4.3023681640625
v -48 -7.11119222640991 -4.66370820999146
v -48 -7.09539079666138 -4.64672088623047
v -48 -6.89166212081909 -4.62951898574829
v -48 -7.33123397827148 -4.99084901809692
v -48 -7.3149209022522 -4.97387218475342
v -48 -7.11119222640991 -4.95666980743408
v -48 -7.56093883514404 -5.34569787979126
v -48 -7.54513788223267 -5.32871198654175
v -48 -7.34089803695679 -5.31151914596558
v -48 -7.78046894073486 -5.67284917831421
v -48 -7.76466798782349 -5.65586185455322
v -48 -7.56093883514404 -5.63865995407104
v -48 -6.68793201446533 -4.31935501098633
v -48 -6.90746307373047 -4.64650583267212
v -48 -7.12699317932129 -4.97365713119507
v -48 -7.35721015930176 -5.32849597930908
v -48 -7.57673978805542 -5.65564680099487
v -48 -7.78046894073486 -5.96581077575684
v -48 -7.98419904708862 -5.98301315307617
v -48 -7.79626989364624 -5.98279809951782
v -48 -4.2160849571228 -0.299963504076
v -48 -4.19977283477783 -0.28298568725586
v -48 -4 -0.27551889419556
v -48 -4.44579076766968 -0.6548119187355
v -48 -4.4299898147583 -0.63782548904419
v -48 -4.22574901580811 -0.62063217163086
v -48 -4.6653208732605 -0.98196321725845
v -48 -4.64951992034912 -0.96497631072998
v -48 -4.44579076766968 -0.9477744102478
v -48 -4.88485097885132 -1.3091139793396
v -48 -4.86905097961426 -1.29212701320648
v -48 -4.6653208732605 -1.27492594718933
v -48 -5.11455678939819 -1.66396200656891
v -48 -5.09875583648682 -1.64697599411011
v -48 -4.89451599121094 -1.62978303432465
v -48 -4.01580095291138 -0.29250618815422
v -48 -4.24206113815308 -0.6376103758812
v -48 -4.46159219741821 -0.96476131677628
v -48 -4.68112182617188 -1.29191303253174
v -48 -4.91082811355591 -1.64676094055176
v -48 -5.11455678939819 -1.95692503452301
v -48 -5.31828594207764 -1.97412705421448
v -48 -5.33408689498901 -1.9911140203476
v -48 -5.55361795425415 -2.31826400756836
v -48 -5.53781700134277 -2.30127811431885
v -48 -5.33408689498901 -2.28407597541809
v -48 -5.77366018295288 -2.64540600776672
v -48 -5.75734710693359 -2.62842798233032
v -48 -5.55361795425415 -2.61122703552246
v -48 -6.00336503982544 -3.00025510787964
v -48 -5.98756408691406 -2.98326802253723
v -48 -5.78332281112671 -2.96607494354248
v -48 -6.22289609909058 -3.32740592956543
v -48 -6.20709419250488 -3.3104190826416
v -48 -6.00336503982544 -3.29321694374084
v -48 -6.42662477493286 -3.63756990432739
v -48 -6.22289609909058 -3.62036895751953
v -48 -5.34988880157471 -2.3010630607605
v -48 -5.56941890716553 -2.62821388244629
v -48 -5.79963493347168 -2.98305296897888
v -48 -6.01916599273682 -3.31020498275757
v -48 -6.23869705200195 -3.63735604286194
v -48 -6.45208978652954 -3.97522592544556
v -48 -6.65633010864258 -3.99241900444031
v -48 -6.46840190887451 -3.99220395088196
v -52 -7.78046894073486 -5.67284917831421
v -52 -8 -5.99999809265137
v -52 -7.56093883514404 -5.34569692611694
v -52 -7.33123397827148 -4.99084901809692
v -52 -7.11119222640991 -4.66370677947998
v -52 -6.89166212081909 -4.33655595779419
v -52 -6.67213106155396 -4.0094051361084
v -52 -6.4424262046814 -3.6545569896698
v -52 -6.22289609909058 -3.32740497589111
v -52 -6.00336503982544 -3.00025510787964
v -52 -5.77366018295288 -2.64540600776672
v -52 -5.55361795425415 -2.31826400756836
v -52 -5.33408689498901 -1.99111294746399
v -52 -5.11455678939819 -1.66396200656891
v -52 -4.88485097885132 -1.3091139793396
v -52 -4.6653208732605 -0.98196268081665
v -52 -4.44579076766968 -0.6548113822937
v -52 -4.2160849571228 -0.29996299743652
v -52 -7.09539079666138 -4.64671993255615
v -52 -6.87586116790771 -4.31956911087036
v -52 -6.65633010864258 -3.99241805076599
v -52 -6.42662477493286 -3.63756990432739
v -52 -6.20709419250488 -3.3104190826416
v -52 -5.98756408691406 -2.98326802253723
v -52 -5.75734710693359 -2.62842798233032
v -52 -5.53781700134277 -2.30127692222595
v -52 -5.31828594207764 -1.97412598133087
v -52 -5.09875583648682 -1.64697599411011
v -52 -4.86905097961426 -1.29212701320648
v -52 -4.64951992034912 -0.96497577428818
v -52 -4.4299898147583 -0.63782501220703
v -52 -4.19977283477783 -0.2829852104187
v -52 -4.22574901580811 -0.6206316947937
v -52 -4.24206113815308 -0.63761001825333
v -52 -6.89166212081909 -4.62951898574829
v -52 -6.90746307373047 -4.6465048789978
v -52 -6.00336503982544 -3.29321694374084
v -52 -6.01916599273682 -3.31020402908325
v -52 -5.11455678939819 -1.9569239616394
v -52 -5.13035821914673 -1.97391104698181
v -52 -4 -0.27551838755608
v -52 -4.01580095291138 -0.29250571131706
v -52 -7.98419904708862 -5.98301315307617
v -52 -7.78046894073486 -5.96581077575684
v -52 -7.79626989364624 -5.98279809951782
v -52 -7.76466798782349 -5.65586185455322
v -52 -7.56093883514404 -5.63865995407104
v -52 -7.57673978805542 -5.65564680099487
v -52 -7.54513788223267 -5.32871103286743
v -52 -7.34089803695679 -5.31151819229126
v -52 -7.35721015930176 -5.32849597930908
v -52 -7.3149209022522 -4.9738712310791
v -52 -7.11119222640991 -4.95666885375977
v -52 -7.12699317932129 -4.97365617752075
v -52 -6.67213106155396 -4.3023681640625
v -52 -6.68793201446533 -4.31935501098633
v -52 -6.45208978652954 -3.97522497177124
v -52 -6.46840190887451 -3.99220299720764
v -52 -6.22289609909058 -3.62036800384521
v -52 -6.23869609832764 -3.63735508918762
v -52 -5.78332281112671 -2.96607494354248
v -52 -5.79963493347168 -2.98305296897888
v -52 -5.55361795425415 -2.61122608184814
v -52 -5.56941890716553 -2.62821292877197
v -52 -5.33408689498901 -2.28407502174377
v -52 -5.34988784790039 -2.30106210708618
v -52 -4.89451599121094 -1.62978303432465
v -52 -4.91082811355591 -1.64675998687744
v -52 -4.6653208732605 -1.27492499351501
v -52 -4.68112182617188 -1.29191195964813
v -52 -4.44579076766968 -0.947773873806
v -52 -4.46159219741821 -0.96476078033447
v -48 -5.13035821914673 -1.97391200065613
v -44.5 0 -15.5319995880127
v -44.5 0 -16.4680004119873
v -43.53200149536133 0 -15.5
v -44.46799850463867 0 -15.5
v -43.53200149536133 -4 -15.5
v -44.46799850463867 0 -16.5
v -44.5 -4 -15.5319995880127
v -43.5 -4 -15.5319995880127
v -43.5 0 -15.5319995880127
v -43.5 0 -16.4680004119873
v -43.5 -4 -16.4680004119873
v -43.53200149536133 0 -16.5
v -52.5 -8 -15.5319995880127
v -52.5 -12 -16.4680004119873
v -52.5 -8 -16.4680004119873
v -52.5 -12 -15.5319995880127
v -51.53200149536133 -8 -15.5
v -52.46799850463867 -12 -15.5
v -51.5 -12 -15.5319995880127
v -52.46799850463867 -8 -16.5
v -52.46799850463867 -12 -16.5
v -51.53200149536133 -12 -15.5
v -51.5 -8 -15.5319995880127
v -51.5 -8 -16.4680004119873
v -51.53200149536133 -12 -16.5
v -51.5 -12 -16.4680004119873
v -44 -12.00010013580322 -12.00010013580322
v -52 -3.99990510940552 -8.00010013580322
v -44.5 -12 -0.46800020337105
v -44.5 -12 0.46800011396408
v -43.53200149536133 -12 0.50000017881393
v -43.5 -8 -0.46800011396408
v -43.5 -12 0.46800020337105
v -43.5 -12 -0.46800011396408
v -43.53200149536133 -12 -0.50000011920929
v -44.46799850463867 -12 -0.50000017881393
v -44.5 -8 0.46800011396408
v -44.46799850463867 -12 0.50000011920929
v -43.5 -8 0.46800020337105
v -43.99990081787109 -4.00010013580322 -16.20025062561035
v -47.99990081787109 -4.00010013580322 -16.20025062561035
v -43.99990081787109 0.00010013580322 -16.20025062561035
v -44.9216194152832 -3.5733790397644 -16.02507972717285
v -47.99990081787109 -4.00010013580322 -16.0002498626709
v -44.9216194152832 -3.5733790397644 -16.17625045776367
v -44.93590927124023 -3.57924389839172 -16.17625045776367
v -47.06409072875977 -3.57924389839172 -16.17625045776367
v -44.93590927124023 -3.57924389839172 -16.02507972717285
v -47.0783805847168 -3.5733790397644 -16.02507972717285
v -44.91569900512695 -3.55921792984009 -16.17625045776367
v -44.89994049072266 -1.79999005794525 -16.20025062561035
v -44.89994049072266 -3.60008001327515 -16.20025062561035
v -44.91569900512695 -3.55921792984009 -16.02507972717285
v -44.9216194152832 -1.82669198513031 -16.02507972717285
v -44.93590927124023 -1.82082605361938 -16.17625045776367
v -47.10005950927734 -1.79999005794525 -16.20025062561035
v -47.06409072875977 -1.82082605361938 -16.17625045776367
v -44.93590927124023 -1.82082605361938 -16.02507972717285
v -47.06409072875977 -1.82082605361938 -16.02507972717285
v -47.08430099487305 -1.84085202217102 -16.17625045776367
v -47.0783805847168 -1.82669198513031 -16.17625045776367
v -47.08430099487305 -3.55921792984009 -16.17625045776367
v -47.08430099487305 -1.84085202217102 -16.02507972717285
v -47.0783805847168 -1.82669198513031 -16.02507972717285
v -47.08430099487305 -3.55921792984009 -16.02507972717285
v -47.10005950927734 -1.79999005794525 -16.0002498626709
v -47.0783805847168 -3.5733790397644 -16.17625045776367
v -44.9216194152832 -1.82669198513031 -16.17625045776367
v -44.89994049072266 -3.60008001327515 -16.0002498626709
v -44.89994049072266 -1.79999005794525 -16.0002498626709
v -47.10005950927734 -3.60008001327515 -16.0002498626709
v -47.06409072875977 -3.57924389839172 -16.02507972717285
v -44.91569900512695 -1.84085202217102 -16.02507972717285
v -47.10005950927734 -3.60008001327515 -16.20025062561035
v -44.91569900512695 -1.84085202217102 -16.17625045776367
v -47.99990081787109 -12.00010013580322 -16
v -52 -12.00010013580322 -11.99989986419678
v -44.4998893737793 -3.99990510940552 -16.20000076293945
v -44.4998893737793 -8.0001049041748 -16.20000076293945
v -43.9998893737793 0.0000004400593 -16.00009918212891
v -43.9998893737793 -0 -11.99989986419678
v -52.5 -4 -15.5319995880127
v -52.5 -4 -16.4680004119873
v -51.5 -4 -16.4680004119873
v -51.5 -4 -15.5319995880127
v -52.46799850463867 -8 -15.5
v -51.53200149536133 -8 -16.5
v -52 -7.99990510940552 -3.99989795684814
v -52 -3.99990510940552 0.00010156630015
v -52 -3.99990510940552 -3.99989795684814
v -48 -10.4424295425415 -9.65455722808838
v -48 -10.67212963104248 -10.00940990447998
v -48 -10.8916597366333 -10.33656024932861
v -48 -10.8758602142334 -10.31956958770752
v -48 -10.67212963104248 -10.30237007141113
v -48 -11.11118984222412 -10.66370964050293
v -48 -11.09539031982422 -10.64671993255615
v -48 -10.8916597366333 -10.62952041625977
v -48 -11.33123016357422 -10.9908504486084
v -48 -11.31492042541504 -10.97387027740479
v -48 -11.11118984222412 -10.95666980743408
v -48 -11.56093978881836 -11.34570026397705
v -48 -11.54514026641846 -11.32870960235596
v -48 -11.34090042114258 -11.31151962280273
v -48 -11.78046989440918 -11.67284965515137
v -48 -11.76467037200928 -11.65585994720459
v -48 -11.56093978881836 -11.6386604309082
v -48 -10.6879301071167 -10.31935977935791
v -48 -10.90746021270752 -10.64651012420654
v -48 -11.12699031829834 -10.97366046905518
v -48 -11.35721015930176 -11.32849979400635
v -48 -11.57674026489258 -11.65565013885498
v -48 -11.78046989440918 -11.96580982208252
v -48 -11.98419952392578 -11.98301029205322
v -48 -11.7962703704834 -11.9827995300293
v -48 -8.21608543395996 -6.29996299743652
v -48 -8.19977378845215 -6.28298616409302
v -48 -8 -6.27551889419556
v -48 -8.44579124450684 -6.65481185913086
v -48 -8.4299898147583 -6.63782501220703
v -48 -8.22574901580811 -6.62063217163086
v -48 -8.66532135009766 -6.98196315765381
v -48 -8.64952087402344 -6.96497583389282
v -48 -8.44579124450684 -6.94777393341064
v -48 -8.88485145568848 -7.3091139793396
v -48 -8.86905097961426 -7.29212713241577
v -48 -8.66532135009766 -7.27492618560791
v -48 -9.11455726623535 -7.66396188735962
v -48 -9.09875583648682 -7.64697599411011
v -48 -8.89451599121094 -7.62978315353394
v -48 -8.01580142974854 -6.29250621795654
v -48 -8.24206161499023 -6.63760995864868
v -48 -8.46159172058105 -6.96476078033447
v -48 -8.68112182617188 -7.29191303253174
v -48 -8.91082763671875 -7.64676094055176
v -48 -9.11455726623535 -7.95692491531372
v -48 -9.31828689575195 -7.9741268157959
v -48 -9.33408737182617 -7.99111413955688
v -48 -9.55361652374268 -8.31826400756836
v -48 -9.53781700134277 -8.30127716064453
v -48 -9.33408737182617 -8.28407573699951
v -48 -9.77365970611572 -8.64540672302246
v -48 -9.75734710693359 -8.62842845916748
v -48 -9.55361652374268 -8.61122703552246
v -48 -10.0033597946167 -9.0002555847168
v -48 -9.98756408691406 -8.98326873779297
v -48 -9.78332328796387 -8.96607494354248
v -48 -10.222900390625 -9.32740592956543
v -48 -10.20709037780762 -9.3104190826416
v -48 -10.0033597946167 -9.29321765899658
v -48 -10.42661952972412 -9.63757038116455
v -48 -10.222900390625 -9.62036895751953
v -48 -9.34988880157471 -8.30106258392334
v -48 -9.56941890716553 -8.62821388244629
v -48 -9.79963493347168 -8.98305320739746
v -48 -10.01916980743408 -9.31020545959473
v -48 -10.2386999130249 -9.63735580444336
v -48 -10.4520902633667 -9.9752254486084
v -48 -10.65633010864258 -9.99241828918457
v -48 -10.46840000152588 -9.99220371246338
v -52 -11.78046989440918 -11.67284965515137
v -52 -11.56093978881836 -11.34570026397705
v -52 -11.33123016357422 -10.9908504486084
v -52 -11.11118984222412 -10.66370964050293
v -52 -10.8916597366333 -10.33656024932861
v -52 -10.67212963104248 -10.00940990447998
v -52 -10.4424295425415 -9.65455627441406
v -52 -10.222900390625 -9.32740592956543
v -52 -10.0033597946167 -9.00025463104248
v -52 -9.77365970611572 -8.64540576934814
v -52 -9.55361652374268 -8.31826400756836
v -52 -9.33408737182617 -7.99111318588257
v -52 -9.11455726623535 -7.66396188735962
v -52 -8.88485145568848 -7.3091139793396
v -52 -8.66532135009766 -6.98196315765381
v -52 -8.44579124450684 -6.65481090545654
v -52 -8.21608543395996 -6.29996299743652
v -52 -11.09539031982422 -10.64671993255615
v -52 -10.8758602142334 -10.31956958770752
v -52 -10.65633010864258 -9.99241828918457
v -52 -10.42661952972412 -9.63756942749023
v -52 -10.20709037780762 -9.3104190826416
v -52 -9.98756408691406 -8.98326778411865
v -52 -9.75734710693359 -8.62842845916748
v -52 -9.53781700134277 -8.30127716064453
v -52 -9.31828689575195 -7.97412586212158
v -52 -9.09875583648682 -7.64697599411011
v -52 -8.86905097961426 -7.29212713241577
v -52 -8.64951992034912 -6.96497583389282
v -52 -8.4299898147583 -6.63782501220703
v -52 -8.19977283477783 -6.2829852104187
v -52 -8.22574901580811 -6.62063217163086
v -52 -8.24206161499023 -6.63760995864868
v -52 -10.8916597366333 -10.62952041625977
v -52 -10.90746021270752 -10.64651012420654
v -52 -10.0033597946167 -9.29321670532227
v -52 -10.01916980743408 -9.31020355224609
v -52 -9.11455726623535 -7.9569239616394
v -52 -9.13035774230957 -7.97391080856323
v -52 -8 -6.27551794052124
v -52 -8.01580142974854 -6.29250621795654
v -52 -11.98419952392578 -11.98301029205322
v -52 -11.78046989440918 -11.96580982208252
v -52 -11.7962703704834 -11.9827995300293
v -52 -11.76467037200928 -11.65585994720459
v -52 -11.56093978881836 -11.6386604309082
v -52 -11.57674026489258 -11.65565013885498
v -52 -11.54514026641846 -11.32870960235596
v -52 -11.34090042114258 -11.31151962280273
v -52 -11.35721015930176 -11.32849979400635
v -52 -11.31492042541504 -10.97387027740479
v -52 -11.11118984222412 -10.95666980743408
v -52 -11.12699031829834 -10.97366046905518
v -52 -10.67212963104248 -10.30237007141113
v -52 -10.6879301071167 -10.31935024261475
v -52 -10.4520902633667 -9.9752254486084
v -52 -10.46840000152588 -9.99220371246338
v -52 -10.222900390625 -9.62036800384521
v -52 -10.2386999130249 -9.63735485076904
v -52 -9.78332328796387 -8.96607494354248
v -52 -9.79963493347168 -8.98305320739746
v -52 -9.55361652374268 -8.61122608184814
v -52 -9.56941890716553 -8.62821292877197
v -52 -9.33408737182617 -8.2840747833252
v -52 -9.34988784790039 -8.30106258392334
v -52 -8.89451599121094 -7.62978315353394
v -52 -8.91082763671875 -7.64675998687744
v -52 -8.66532135009766 -7.27492523193359
v -52 -8.68112182617188 -7.29191207885742
v -52 -8.44579124450684 -6.94777393341064
v -52 -8.46159172058105 -6.96476078033447
v -52 -12 -5.99999713897705
v -48 -9.13035774230957 -7.97391176223755
v -56.00009918212891 -7.99990510940552 -4
v -44.5 -4 -4.53200006484985
v -44.5 -4 -5.46799993515015
v -43.5 -4 -5.46799993515015
v -44.5 -8 -4.53200006484985
v -44.46799850463867 -4 -4.5
v -43.5 -8 -5.46799993515015
v -49.36272811889648 -12.00010013580322 -16.00000953674316
v -49.38132858276367 -9.58923053741455 -16.03001022338867
v -49.38132858276367 -12.00010013580322 -16.03001022338867
v -49.38132858276367 -9.58923053741455 -16.16329956054688
v -49.38132858276367 -12.00010013580322 -16.16329956054688
v -50.58813858032227 -9.58923053741455 -16.16330909729004
v -50.58813858032227 -12.00010013580322 -16.16330909729004
v -50.58250045776367 -9.57515907287598 -16.03001976013184
v -50.58813858032227 -9.58923053741455 -16.03001976013184
v -50.58813858032227 -12.00010013580322 -16.03001976013184
v -50.60673904418945 -9.55576038360596 -16.00001907348633
v -48.00009918212891 -8.0001049041748 -16
v -49.36272811889648 -9.55576038360596 -16.00000953674316
v -52 -8.0001049041748 -16.00009918212891
v -52 -12.00010013580322 -16.00009918212891
v -50.60673904418945 -12.00010013580322 -16.00001907348633
v -49.40061950683594 -9.56933116912842 -16.16329956054688
v -49.38697814941406 -9.57515907287598 -16.16329956054688
v -50.60673904418945 -9.55576038360596 -16.20001983642578
v -50.5688591003418 -9.56933116912842 -16.16330909729004
v -50.58248901367188 -9.57515907287598 -16.16330909729004
v -49.40061950683594 -9.56933116912842 -16.03001022338867
v -50.5688591003418 -9.56933116912842 -16.03001976013184
v -49.38697814941406 -9.57515907287598 -16.03001022338867
v -47.99990081787109 -12.00010013580322 -16.20000076293945
v -49.36272811889648 -9.55576038360596 -16.20001029968262
v -49.36272811889648 -12.00010013580322 -16.20001029968262
v -47.99990081787109 -7.99989986419678 -16.20000076293945
v -52.00009918212891 -7.99989986419678 -16.20001983642578
v -50.60673904418945 -12.00010013580322 -16.20001983642578
v -52.00009918212891 -12.00010013580322 -16.20001983642578
v -44 -4.00010013580322 3.20005989074707
v -43.96998977661133 -1.58923101425171 3.18145895004272
v -44 -1.5557609796524 3.20005989074707
v -43.96998977661133 -1.57516002655029 3.17581105232239
v -43.96998977661133 -4.00010013580322 3.18145895004272
v -43.83670043945312 -1.58923101425171 3.18145895004272
v -43.83670043945312 -4.00010013580322 3.18145895004272
v -43.83670043945312 -1.57516002655029 3.17581105232239
v -43.79999923706055 -1.5557609796524 3.20005989074707
v -43.79999923706055 -4.00010013580322 0.79993867874146
v -43.83670043945312 -4.00010013580322 0.81853991746902
v -43.96998977661133 -1.58923101425171 0.81853991746902
v -43.96998977661133 -4.00010013580322 0.81853991746902
v -44 -1.5557609796524 0.79993867874146
v -44 -4.00010013580322 0.79993867874146
v -43.83670043945312 -1.58923101425171 0.81853991746902
v -43.83670043945312 -1.56933104991913 3.16217494010925
v -43.83670043945312 -1.56933104991913 0.8378239274025
v -43.83670043945312 -1.57516002655029 0.8241879940033
v -43.96998977661133 -1.56933104991913 3.16217494010925
v -43.96998977661133 -1.57516002655029 0.8241879940033
v -43.79999923706055 -4.00010013580322 4.00010013580322
v -43.79999923706055 -4.00010013580322 3.20005989074707
v -43.79999923706055 0.00010013580322 4.00010013580322
v -43.79999923706055 -1.5557609796524 0.79993867874146
v -43.79999923706055 0.00010013580322 -0.00010156630015
v -43.79999923706055 -4.00010013580322 -0.00010156630015
v -43.96998977661133 -1.56933104991913 0.8378239274025
v -44 -7.99990510940552 -12.00010013580322
v -48.0001106262207 0.00000023390849 -11.99989986419678
v -43.99990081787109 -3.99990510940552 -16
v -44 -4.0001049041748 -4.00010204315186
v -52.0001106262207 -12 0.00009965897334
v -52.00009918212891 -7.99990510940552 -0.00000000000258
v -44 -4.0001049041748 0.00009994042921
v -43.99990081787109 -12.00010013580322 0.0000001032409
v -56.0001106262207 -12 -4.00010013580322
v -56.00009918212891 -12.00010013580322 3.75000190734863
v -51.99990081787109 -7.99990510940552 3.75000190734863
v -56.00009918212891 -7.99990510940552 3.75000190734863
v -51.99990081787109 -12.00010013580322 3.75000190734863
v -52 -12.00010013580322 -3.99989795684814
v -54.5 -7.99990510940552 4.00010204315186
v -54.5 -7.99990510940552 -0.00009999999747
v -54.5 -12.00010013580322 4.00010204315186
v -52 -12.00010013580322 -8.00010013580322
v -52 -7.99990510940552 -8.00010013580322
v -44.5 -12 -4.53200006484985
v -43.53200149536133 -8 -4.5
v -44.46799850463867 -12 -4.5
v -43.53200149536133 -12 -4.5
v -43.5 -12 -4.53200006484985
v -43.5 -8 -4.53200006484985
v -43.5 -12 -5.46799993515015
v -43.53200149536133 -12 -5.5
v -43.53200149536133 -8 -5.5
v -44.46799850463867 -8 -5.5
v -44.5 -12 -5.46799993515015
v -44.46799850463867 -12 -5.5
v -44.5 -8 -5.46799993515015
v -44.46799850463867 -8 -4.5
v -48.89994049072266 -1.79999005794525 -16.20025062561035
v -48.89994049072266 -3.60008001327515 -16.20025062561035
v -52.00009918212891 -4.00010013580322 -16.20025062561035
v -47.99990081787109 0.00010013580322 -16.20025062561035
v -52.00009918212891 0.00010013580322 -16.20025062561035
v -48.89994049072266 -3.60008001327515 -16.0002498626709
v -48.93590927124023 -3.57924389839172 -16.02507972717285
v -51.10005950927734 -3.60008001327515 -16.0002498626709
v -48.0001106262207 0.0000006739678 -16.00009918212891
v -52.00009918212891 0.00010013580322 -16.0002498626709
v -48.93590927124023 -3.57924389839172 -16.17625045776367
v -51.06409072875977 -3.57924389839172 -16.17625045776367
v -51.0783805847168 -3.5733790397644 -16.02507972717285
v -48.91569900512695 -3.55921792984009 -16.17625045776367
v -48.91569900512695 -1.84085202217102 -16.17625045776367
v -48.9216194152832 -3.5733790397644 -16.17625045776367
v -48.91569900512695 -1.84085202217102 -16.02507972717285
v -48.9216194152832 -1.82669198513031 -16.17625045776367
v -48.93590927124023 -1.82082605361938 -16.02507972717285
v -48.89994049072266 -1.79999005794525 -16.0002498626709
v -51.0783805847168 -1.82669198513031 -16.02507972717285
v -51.08430099487305 -1.84085202217102 -16.17625045776367
v -51.10005950927734 -1.79999005794525 -16.20025062561035
v -51.0783805847168 -1.82669198513031 -16.17625045776367
v -51.08430099487305 -1.84085202217102 -16.02507972717285
v -51.08430099487305 -3.55921792984009 -16.02507972717285
v -51.10005950927734 -1.79999005794525 -16.0002498626709
v -51.0783805847168 -3.5733790397644 -16.17625045776367
v -48.93590927124023 -1.82082605361938 -16.17625045776367
v -51.06409072875977 -1.82082605361938 -16.17625045776367
v -48.91569900512695 -3.55921792984009 -16.02507972717285
v -48.9216194152832 -3.5733790397644 -16.02507972717285
v -51.06409072875977 -1.82082605361938 -16.02507972717285
v -51.06409072875977 -3.57924389839172 -16.02507972717285
v -48.9216194152832 -1.82669198513031 -16.02507972717285
v -51.08430099487305 -3.55921792984009 -16.17625045776367
v -51.10005950927734 -3.60008001327515 -16.20025062561035
v -43.99990081787109 -7.99990510940552 0.0000001032409
v -52.0001106262207 0.00001236475964 -0.00009965897334
v -44.5 -4 -16.4680004119873
v -43.53200149536133 -8 -15.5
v -43.5 -8 -16.4680004119873
v -44.46799850463867 -4 -16.5
v -44.5 -8 -16.4680004119873
v -44.46799850463867 -8 -16.5
v -44.46799850463867 -8 -15.5
v -44.5 -8 -15.5319995880127
v -44.46799850463867 -4 -15.5
v -43.5 -8 -15.5319995880127
v -43.53200149536133 -4 -16.5
# 735 vertices

vn -1 0 0
vn 0 1 0
vn 1 0 0
vn 0 -1 0
vn 0.63724833726883 -0.64599877595901 0.42023825645447
vn 0.31412926316261 -0.18043994903564 0.93207520246506
vn 0.52689135074615 0 0.84993261098862
vn 0.31647792458534 -0.72486478090286 0.61189275979996
vn 0.18178598582745 0 0.98333811759949
vn -0.22934676706791 -0.14037685096264 0.96316891908646
vn -0.3088493347168 0 0.95111095905304
vn -0.27759894728661 -0.60876142978668 0.74320143461227
vn -0.58483380079269 -0.46364188194275 0.6655867099762
vn -0.45204472541809 0 0.89199525117874
vn -0.56282967329025 -0.6884897351265 -0.45738896727562
vn -0.27037784457207 -0.18237692117691 -0.94532245397568
vn -0.45204472541809 0 -0.89199525117874
vn -0.27750599384308 -0.73223459720612 -0.62195092439651
vn -0.15440739691257 0 -0.98800724744797
vn 0.3166064620018 -0.59946155548096 -0.73512321710587
vn 0.26475790143013 -0.13703534007072 -0.95452845096588
vn 0.36360266804695 0 -0.93155413866043
vn 0.66027265787125 -0.43076479434967 -0.61520862579346
vn 0.52689135074615 0 -0.84993261098862
vn -0.22613309323788 -0.95481538772583 0.19285064935684
vn -0.19909706711769 -0.96854740381241 -0.14925247430801
vn 0.2315981388092 -0.96183079481125 0.1457527577877
vn 0.26513016223907 -0.94520598649979 -0.19050371646881
vn 0 0 1
vn 0 0 -1
vn -0.70710676908493 0 -0.70710676908493
vn -0.70710676908493 0 0.70710676908493
vn 0.70710676908493 0 0.70710676908493
vn 0.70710676908493 0 -0.70710676908493
vn 0 0 1
vn -0.42023825645447 -0.64599877595901 0.63724833726883
vn -0.93208438158035 -0.18044172227383 0.31410112977028
vn -0.84993261098862 0 0.52689135074615
vn -0.61189275979996 -0.72486478090286 0.31647792458534
vn -0.98333811759949 0 0.18178598582745
vn -0.96316200494766 -0.14037583768368 -0.2293763756752
vn -0.95111095905304 0 -0.3088493347168
vn -0.74320143461227 -0.60876142978668 -0.27759894728661
vn -0.6655867099762 -0.46364188194275 -0.58483380079269
vn -0.89199525117874 0 -0.45204472541809
vn 0.45738896727562 -0.6884897351265 -0.56282967329025
vn 0.94532245397568 -0.18237692117691 -0.27037784457207
vn 0.89199525117874 0 -0.45204472541809
vn 0.62195092439651 -0.73223459720612 -0.27750599384308
vn 0.98800724744797 0 -0.15440739691257
vn 0.7351159453392 -0.59945565462112 0.31663459539413
vn 0.95452845096588 -0.13703534007072 0.26475790143013
vn 0.93155413866043 0 0.36360266804695
vn 0.61519593000412 -0.4307559132576 0.6602903008461
vn 0.84993261098862 0 0.52689135074615
vn -0.19285064935684 -0.95481538772583 -0.22613309323788
vn 0.14925247430801 -0.96854740381241 -0.19909706711769
vn -0.1457527577877 -0.96183079481125 0.2315981388092
vn 0.19050371646881 -0.94520598649979 0.26513016223907
vn 0 0 -1
vn -0.18125545978546 0.90608978271484 0.38229277729988
vn -0.566381752491 0.3548167347908 0.74385267496109
vn -0.71735668182373 0.58966690301895 0.37106919288635
vn 0.37344801425934 0.52567106485367 0.76433402299881
vn -0.36638388037682 0.51498121023178 -0.77495622634888
vn -0.13372287154198 0.93640375137329 -0.32444748282433
vn -0.58751302957535 0.71582835912704 -0.37738335132599
vn 0.18094204366207 0.90280389785767 -0.39013475179672
vn 0.13437855243683 0.93839985132217 0.31835216283798
vn 0.58949029445648 0.71740126609802 0.37126356363297
vn 0.55669540166855 0.34716114401817 -0.75469821691513
vn 0.71582639217377 0.58763647079468 -0.37719485163689
vn -0.94680857658386 -0.13662894070148 -0.29135218262672
vn -0.5567085146904 -0.34716933965683 -0.75468474626541
vn -0.92209035158157 0.1830992847681 -0.34091654419899
vn -0.94853729009628 0.13731336593628 0.28534558415413
vn -0.92478597164154 -0.18350093066692 0.33331418037415
vn -0.71581119298935 -0.58764958381653 -0.37720328569412
vn -0.37344801425934 -0.52567106485367 0.76433402299881
vn -0.58949029445648 -0.71740126609802 0.37126356363297
vn 0.13372287154198 -0.93640375137329 -0.32444748282433
vn 0.36638388037682 -0.51498121023178 -0.77495622634888
vn -0.18094204366207 -0.90280389785767 -0.39013475179672
vn -0.13437855243683 -0.93839985132217 0.31835216283798
vn 0.18125545978546 -0.90608978271484 0.38229277729988
vn 0.58751302957535 -0.71582835912704 -0.37738335132599
vn 0.71735668182373 -0.58966690301895 0.37106919288635
vn 0.92208051681519 -0.18309733271599 -0.34094417095184
vn 0.94679993391037 0.13662770390511 -0.29138076305389
vn 0.94853729009628 -0.13731336593628 0.28534558415413
vn 0.92478597164154 0.18350093066692 0.33331418037415
vn 0.566381752491 -0.3548167347908 0.74385267496109
vn -0.63724833726883 -0.64599877595901 -0.42023825645447
vn -0.31412926316261 -0.18043994903564 -0.93207520246506
vn -0.52689135074615 0 -0.84993261098862
vn -0.31647792458534 -0.72486478090286 -0.61189275979996
vn -0.18178598582745 0 -0.98333811759949
vn 0.22934676706791 -0.14037685096264 -0.96316891908646
vn 0.3088493347168 0 -0.95111095905304
vn 0.27759894728661 -0.60876142978668 -0.74320143461227
vn 0.58483380079269 -0.46364188194275 -0.6655867099762
vn 0.45204472541809 0 -0.89199525117874
vn 0.56282967329025 -0.6884897351265 0.45738896727562
vn 0.27038583159447 -0.18238231539726 0.94531911611557
vn 0.45204472541809 0 0.89199525117874
vn 0.15440739691257 0 0.98800724744797
vn -0.26475790143013 -0.13703534007072 0.95452845096588
vn -0.36360266804695 0 0.93155413866043
vn -0.66027265787125 -0.43076479434967 0.61520862579346
vn -0.52689135074615 0 0.84993261098862
vn -0.3166064620018 -0.59946155548096 0.73512321710587
vn 0.27750599384308 -0.73223459720612 0.62195092439651
vn 0.22613309323788 -0.95481538772583 -0.19285064935684
vn 0.19909706711769 -0.96854740381241 0.14925247430801
vn -0.2315981388092 -0.96183079481125 -0.1457527577877
vn -0.26513016223907 -0.94520598649979 0.19050371646881
# 116 normals

vt 1 0.99995040893555 0
vt 0.00003366265082 0.99995040893555 0
vt 1 0 0
vt 0.00003051758176 0 0
vt 1 0.99996948242188 0
vt 0.00003051758176 0.99996948242188 0
vt 0.39063331484795 0.6104764342308 0
vt 0.3831393122673 0.60211712121964 0
vt 0.39063331484795 0 0
vt 0.3831393122673 0.60563141107559 0
vt 0.3831393122673 0 0
vt 0.34984990954399 0.60211712121964 0
vt 0.34984990954399 0 0
vt 0.34984990954399 0.60563141107559 0
vt 0.34068301320076 0.6104764342308 0
vt 0.34068301320076 0 0
vt 0.60206282138824 0.60612642765045 0
vt 0.6124519109726 0.59843909740448 0
vt 0.60041892528534 0.00024914741516 0
vt 0.61278480291367 0.60222584009171 0
vt 0.61047172546387 0.00020158290863 0
vt 0.64576977491379 0.60234713554382 0
vt 0.64615827798843 0.59866583347321 0
vt 0.64302957057953 0.00003325939178 0
vt 0.65501427650452 0.60617631673813 0
vt 0.65165710449219 0 0
vt 1 0.00003051757812 0
vt 0.65930181741714 0 0
vt 0.65930181741714 0.61106109619141 0
vt 0.00004864018047 0.99995231628418 0
vt 0.34831240773201 0.61106109619141 0
vt 0.00003624055898 0.00003051757812 0
vt 0.34832000732422 0 0
vt 0.34088331460953 0.55971342325211 0
vt 0.34592780470848 0.56982684135437 0
vt 0.3495826125145 0.56952118873596 0
vt 0.65248972177505 0.55927819013596 0
vt 0.64412009716034 0.56876319646835 0
vt 0.6476349234581 0.56905102729797 0
vt 0.34914571046829 0.60248428583145 0
vt 0.64437389373779 0.60165703296661 0
vt 0.3456229865551 0.60208374261856 0
vt 0.65315097570419 0.60991668701172 0
vt 0.64802151918411 0.6012356877327 0
vt 0.34068301320076 0.61104583740234 0
vt 0.00004768465078 0.00003051757812 0
vt 0.00005245301872 0.99995291233063 0
vt 0.65165710449219 0.61104583740234 0
vt 0.99998468160629 0.99995297193527 0
vt 0.99998468160629 0.00003051757812 0
vt 0.25 0.99996948242188 0
vt 0.25 0 0
vt 0.4917297065258 0.99996948242188 0
vt 0.4917297065258 0 0
vt 0.5 0.99996948242188 0
vt 0.5 0 0
vt 0.74172967672348 0.99996948242188 0
vt 0.74172967672348 0 0
vt 0.75 0.99996948242188 0
vt 0.75 0 0
vt 0.99172967672348 0.99996948242188 0
vt 0.99172967672348 0 0
vt 0.24173359572887 0.99996948242188 0
vt 0.24173359572887 0 0
vt 0.5 0.99995040893555 0
vt 0.00001549720946 0.99995040893555 0
vt 0.0000140666998 0 0
vt 1.06936299800873 0.33196711540222 0
vt 0.9750109910965 0.38939344882965 0
vt 0 0 0
vt 1.15635001659393 0.27708458900452 0
vt 1.15183401107788 0.28103494644165 0
vt 1.14725995063782 0.33196711540222 0
vt 1.24333798885345 0.2222021818161 0
vt 1.23882102966309 0.22615218162537 0
vt 1.23424696922302 0.27708458900452 0
vt 1.33032298088074 0.16719150543213 0
vt 1.32580804824829 0.17126977443695 0
vt 1.32123398780823 0.2222021818161 0
vt 1.42467498779297 0.10976529121399 0
vt 1.4201580286026 0.11371541023254 0
vt 1.41558694839478 0.16477560997009 0
vt 1.51166200637817 0.05488252639771 0
vt 1.50714504718781 0.05883288383484 0
vt 1.50257194042206 0.10976529121399 0
vt 1.15177702903748 0.32801687717438 0
vt 1.23876404762268 0.27313423156738 0
vt 1.3257509469986 0.21825170516968 0
vt 1.42010104656219 0.16069769859314 0
vt 1.50708794593811 0.10581493377686 0
vt 1.59413301944733 0.00395035743713 0
vt 1.58955895900726 0.05488252639771 0
vt 1.5986499786377 0 0
vt 1.59407603740692 0.05093240737915 0
vt 0.08304619789124 0.94597858190536 0
vt -0.00135040294845 1 0
vt 0.07853174209595 0.95005667209625 0
vt 0.07654643058777 1 0
vt 0.17739820480347 0.88855230808258 0
vt 0.17288160324097 0.89250248670578 0
vt 0.16830989718437 0.94356262683868 0
vt 0.26438549160957 0.83366972208023 0
vt 0.25986889004707 0.83761990070343 0
vt 0.25529500842094 0.88855230808258 0
vt 0.351372808218 0.77878701686859 0
vt 0.34685608744621 0.78273737430573 0
vt 0.34228220582008 0.83366972208023 0
vt 0.44572478532791 0.72136074304581 0
vt 0.44120788574219 0.72531092166901 0
vt 0.43663659691811 0.77637112140656 0
vt 0.08106327056885 0.9960498213768 0
vt 0.17282439768314 0.93948459625244 0
vt 0.25981160998344 0.88460206985474 0
vt 0.34679898619652 0.82971942424774 0
vt 0.44115099310875 0.77229309082031 0
vt 0.52819538116455 0.6704283952713 0
vt 0.52362161874771 0.72136074304581 0
vt 0.53271198272705 0.6664782166481 0
vt 0.61969941854477 0.61159551143646 0
vt 0.61518281698227 0.61554569005966 0
vt 0.6106088757515 0.6664782166481 0
vt 0.70668441057205 0.55658513307571 0
vt 0.70217001438141 0.56066310405731 0
vt 0.69759619235992 0.61159551143646 0
vt 0.8010361790657 0.49915874004364 0
vt 0.79651981592178 0.50310903787613 0
vt 0.79194819927216 0.55416923761368 0
vt 0.88802361488342 0.44427609443665 0
vt 0.88350701332092 0.44822633266449 0
vt 0.87893319129944 0.49915874004364 0
vt 0.97049427032471 0.39334380626678 0
vt 0.96592062711716 0.44427609443665 0
vt 0.615125477314 0.66252779960632 0
vt 0.70211297273636 0.60764533281326 0
vt 0.79646247625351 0.55009108781815 0
vt 0.88344979286194 0.4952085018158 0
vt 0.9704372882843 0.44032597541809 0
vt 1.06484603881836 0.33591747283936 0
vt 1.06027495861053 0.3869776725769 0
vt 1.06478905677795 0.38289952278137 0
vt 1.51166200637817 0.05488276481628 0
vt 1.33032298088074 0.16719174385071 0
vt 1.06936299800873 0.33196723461151 0
vt 0.97501087188721 0.38939368724823 0
vt 0.88802361488342 0.44427621364594 0
vt 0.88350701332092 0.44822657108307 0
vt 1.23876404762268 0.27313458919525 0
vt 0.52813822031021 0.71741038560867 0
vt 1.58955895900726 0.05488276481628 0
vt 1.4201580286026 0.11371564865112 0
vt 1.41558599472046 0.16477560997009 0
vt 1.15177702903748 0.32801699638367 0
vt 1.14725995063782 0.33196723461151 0
vt 0.96592038869858 0.44427621364594 0
vt 0 1 0
vt 1 1 0
vt 0.77499389648438 0.10000610351562 0
vt 0.77499389648438 0.55000311136246 0
vt 0.22499850392342 0.55000311136246 0
vt 0.22499850392342 0.10000610351562 0
vt 0.76576191186905 0.10621213912964 0
vt 0.77474898099899 0.10000610351562 0
vt 0.76933217048645 0.10621213912964 0
vt 0.77474898099899 0.14998340606689 0
vt 0.76576191186905 0.14398801326752 0
vt 0.76933217048645 0.14398801326752 0
vt 0.23398570716381 0.14398801326752 0
vt 0.23398570716381 0.10621213912964 0
vt 0.2304152995348 0.10621213912964 0
vt 0.22499850392342 0.14998364448547 0
vt 0.2304152995348 0.14398801326752 0
vt 0.76898187398911 0.53813171386719 0
vt 0.77499389648438 0.54831701517105 0
vt 0.76898187398911 0.11021423339844 0
vt 0.76898187398911 0.10667419433594 0
vt 0.73135381937027 0.10667419433594 0
vt 0.73135381937027 0.11021423339844 0
vt 0.73135381937027 0.53813171386719 0
vt 0.76898187398911 0.54166412353516 0
vt 0.72515869140625 0.10000610351562 0
vt 0.72515869140625 0.54831701517105 0
vt 0.73135381937027 0.54166412353516 0
vt 0.23399570584297 0.54400062561035 0
vt 0.76636350154877 0.54400062561035 0
vt 0.77536058425903 0.55000311136246 0
vt 0.76636350154877 0.50618278980255 0
vt 0.23399570584297 0.50618278980255 0
vt 0.76993781328201 0.50618278980255 0
vt 0.23042130470276 0.54400062561035 0
vt 0.77536058425903 0.49997007846832 0
vt 0.76993781328201 0.54400062561035 0
vt 0.23042130470276 0.50618278980255 0
vt 0.27500709891319 0.55008333921432 0
vt 0.26900759339333 0.53986638784409 0
vt 0.27500709891319 0.10000610351562 0
vt 0.26900759339333 0.54340714216232 0
vt 0.26900759339333 0.11022293567657 0
vt 0.23120810091496 0.53986638784409 0
vt 0.23120810091496 0.54340714216232 0
vt 0.23120810091496 0.11022293567657 0
vt 0.22499850392342 0.55008333921432 0
vt 0.26900759339333 0.10668218135834 0
vt 0.23120810091496 0.10668218135834 0
vt 0.22499850392342 0.49997007846832 0
vt 0.24982069432735 0.60895544290543 0
vt 0.24234390258789 0.60061651468277 0
vt 0.24982069432735 0 0
vt 0.24234390258789 0.60412603616714 0
vt 0.24234390258789 0 0
vt 0.20914080739021 0.60061651468277 0
vt 0.20914080739021 0 0
vt 0.20914080739021 0.60412603616714 0
vt 0.1999969035387 0.60895544290543 0
vt 0.1999969035387 0 0
vt 0.75009161233902 0.60975652933121 0
vt 0.75924682617188 0.60140234231949 0
vt 0.75009161233902 0 0
vt 0.75924682617188 0 0
vt 0.79249572753906 0.60140234231949 0
vt 0.79249572753906 0 0
vt 0.79998779296875 0.60975652933121 0
vt 0.79998779296875 0 0
vt 0.79400628805161 0.59820562601089 0
vt 0.76023858785629 0.59819793701172 0
vt 0.79359441995621 0.60207372903824 0
vt 0.76054382324219 0.60186773538589 0
vt 0.75006097555161 0.60565954446793 0
vt 0.00003051758176 0.99995702505112 0
vt 0.1999969035387 0.61106109619141 0
vt 0.79998779296875 0.61106109619141 0
vt 0.1987762004137 0.56096649169922 0
vt 0.20484919846058 0.57015991210938 0
vt 0.2082671970129 0.57015991210938 0
vt 0.79998779296875 0.56096649169922 0
vt 0.79049682617188 0.57015991210938 0
vt 0.79389947652817 0.57015991210938 0
vt 0.2082671970129 0.60354614257812 0
vt 0.79049682617188 0.60354614257812 0
vt 0.20484919846058 0.60354614257812 0
vt 0.1987762004137 0.61106109619141 0
vt 0.79389947652817 0.60354614257812 0
vt 0.80343627929688 0.60612493753433 0
# 242 texture coordinates

o Default
usemtl concrete_A
f 8/1/1 6/2/1 656/3/1
f 656/3/1 6/2/1 97/4/1
f 4/1/3 668/2/3 3/3/3
f 3/3/3 668/2/3 5/4/3
f 11/1/1 658/2/1 10/3/1
f 10/3/1 658/2/1 657/4/1
f 98/1/1 95/2/1 47/3/1
f 47/3/1 95/2/1 46/4/1
f 100/1/35 441/2/35 12/3/35
f 12/3/35 441/2/35 666/4/35
f 97/1/1 96/2/1 95/3/1
f 95/3/1 96/2/1 653/4/1
f 659/1/1 656/2/1 723/3/1
f 723/3/1 656/2/1 98/4/1
f 653/1/1 130/2/1 380/3/1
f 380/3/1 130/2/1 122/4/1
f 6/1/1 434/2/1 97/3/1
f 97/3/1 434/2/1 96/4/1
f 434/1/1 433/2/1 96/3/1
f 96/3/1 433/2/1 655/4/1
f 441/1/35 587/2/35 666/3/35
f 666/3/35 587/2/35 661/4/35
f 627/205/93 626/206/94 625/207/95
f 626/206/94 627/205/93 628/208/96
f 625/207/95 626/206/94 629/209/97
f 630/210/98 629/209/97 626/206/94
f 631/211/99 629/209/97 630/210/98
f 630/210/98 626/206/94 632/212/100
f 632/212/100 626/206/94 628/208/96
f 633/213/101 630/210/98 632/212/100
f 633/213/101 631/211/99 630/210/98
f 647/214/102 631/211/99 633/213/101
f 649/215/103 640/216/104 634/217/105
f 634/217/105 640/216/104 635/218/106
f 636/219/107 635/218/106 640/216/104
f 637/220/108 635/218/106 636/219/107
f 636/219/107 638/221/109 637/220/108
f 637/220/108 638/221/109 639/222/110
f 636/223/107 640/224/104 645/225/111
f 645/225/111 640/224/104 643/226/112
f 649/227/103 643/226/112 640/224/104
f 199/4/1 82/228/1 625/214/1
f 625/214/1 82/228/1 627/229/1
f 81/5/1 627/229/1 82/228/1
f 638/230/1 627/229/1 81/5/1
f 659/3/1 638/230/1 81/5/1
f 639/222/1 638/230/1 659/3/1
f 633/231/101 632/232/100 641/233/113
f 633/231/101 641/233/113 649/234/103
f 649/234/103 641/233/113 642/235/114
f 649/234/103 642/235/114 643/236/112
f 641/233/113 644/237/115 642/235/114
f 642/235/114 652/238/116 643/236/112
f 642/235/114 644/237/115 652/238/116
f 644/237/115 641/233/113 628/239/96
f 628/239/96 641/233/113 632/232/100
f 627/240/93 644/237/115 628/239/96
f 627/240/93 652/238/116 644/237/115
f 638/230/109 652/238/116 627/240/93
f 643/236/112 652/238/116 645/241/111
f 647/214/3 633/229/3 646/4/3
f 646/4/3 633/229/3 648/228/3
f 649/230/3 648/228/3 633/229/3
f 650/5/3 648/228/3 649/230/3
f 634/222/3 650/5/3 649/230/3
f 651/3/3 650/5/3 634/222/3
f 638/230/109 645/241/111 652/238/116
f 638/242/109 636/223/107 645/225/111
f 96/1/1 655/2/1 653/3/1
f 653/3/1 655/2/1 130/4/1
f 656/1/1 97/2/1 98/3/1
f 98/3/1 97/2/1 95/4/1
f 658/1/30 28/2/30 657/3/30
f 657/3/30 28/2/30 13/4/30
f 196/1/30 659/2/30 28/3/30
f 28/3/30 659/2/30 723/4/30
f 723/1/1 98/2/1 660/3/1
f 660/3/1 98/2/1 47/4/1
f 664/1/60 663/2/60 662/3/60
f 662/3/60 663/2/60 665/4/60
f 81/1/1 8/2/1 659/3/1
f 659/3/1 8/2/1 656/4/1
f 668/1/3 667/2/3 5/3/3
f 5/3/3 667/2/3 669/4/3
f 95/1/1 653/2/1 46/3/1
f 46/3/1 653/2/1 380/4/1
f 28/1/30 723/2/30 13/3/30
f 13/3/30 723/2/30 660/4/30

usemtl floor_D
f 657/3/2 1/4/2 10/5/2
f 10/5/2 1/4/2 2/6/2
f 666/3/2 661/4/2 657/5/2
f 657/5/2 661/4/2 1/6/2
f 12/3/2 666/4/2 13/5/2
f 13/5/2 666/4/2 657/6/2

usemtl plaster_A
f 8/3/4 7/4/4 6/5/4
f 6/5/4 7/4/4 9/6/4
f 6/3/4 9/4/4 434/5/4
f 434/5/4 9/4/4 654/6/4
f 7/3/4 14/4/4 9/5/4
f 9/5/4 14/4/4 15/6/4
f 82/3/4 198/4/4 81/5/4
f 81/5/4 198/4/4 200/6/4
f 81/3/4 200/4/4 8/5/4
f 8/5/4 200/4/4 7/6/4
f 9/3/4 15/4/4 654/5/4
f 654/5/4 15/4/4 133/6/4
f 654/3/4 133/4/4 694/5/4
f 694/5/4 133/4/4 695/6/4
f 200/3/4 724/4/4 7/5/4
f 7/5/4 724/4/4 14/6/4
f 198/3/4 80/4/4 200/5/4
f 200/5/4 80/4/4 724/6/4
f 434/3/4 654/4/4 433/5/4
f 433/5/4 654/4/4 694/6/4

usemtl floor_C_wet
f 47/3/2 12/4/2 660/5/2
f 660/5/2 12/4/2 13/6/2
f 122/3/2 429/4/2 380/5/2
f 380/5/2 429/4/2 185/6/2

usemtl concrete_D
f 27/7/5 17/8/6 16/9/7
f 17/8/6 27/7/5 37/10/8
f 16/9/7 17/8/6 18/11/9
f 19/12/10 18/11/9 17/8/6
f 20/13/11 18/11/9 19/12/10
f 19/12/10 17/8/6 21/14/12
f 21/14/12 17/8/6 37/10/8
f 31/15/13 19/12/10 21/14/12
f 31/15/13 20/13/11 19/12/10
f 22/16/14 20/13/11 31/15/13
f 32/17/15 23/18/16 43/19/17
f 32/17/15 34/20/18 23/18/16
f 43/19/17 23/18/16 24/21/19
f 39/22/20 23/18/16 34/20/18
f 25/23/21 23/18/16 39/22/20
f 25/23/21 24/21/19 23/18/16
f 26/24/22 24/21/19 25/23/21
f 25/23/21 38/25/23 26/24/22
f 38/25/23 25/23/21 39/22/20
f 26/24/22 38/25/23 29/26/24
f 12/27/3 100/5/3 16/28/3
f 16/28/3 100/5/3 27/29/3
f 28/30/3 27/29/3 100/5/3
f 38/31/3 27/29/3 28/30/3
f 13/32/3 38/31/3 28/30/3
f 29/33/3 38/31/3 13/32/3
f 31/34/13 21/35/12 30/36/25
f 31/34/13 30/36/25 32/37/15
f 32/37/15 30/36/25 33/38/26
f 32/37/15 33/38/26 34/39/18
f 30/36/25 35/40/27 33/38/26
f 33/38/26 36/41/28 34/39/18
f 33/38/26 35/40/27 36/41/28
f 35/40/27 30/36/25 37/42/8
f 37/42/8 30/36/25 21/35/12
f 27/15/5 35/40/27 37/42/8
f 27/15/5 36/41/28 35/40/27
f 38/43/23 36/41/28 27/15/5
f 38/43/23 39/44/20 36/41/28
f 34/39/18 36/41/28 39/44/20
f 22/16/1 31/45/1 40/46/1
f 40/46/1 31/45/1 41/47/1
f 32/48/1 41/47/1 31/45/1
f 42/49/1 41/47/1 32/48/1
f 43/26/1 42/49/1 32/48/1
f 44/50/1 42/49/1 43/26/1
f 101/65/3 100/66/3 99/56/3
f 99/56/3 100/66/3 12/67/3
f 104/7/36 103/8/37 102/9/38
f 103/8/37 104/7/36 105/10/39
f 102/9/38 103/8/37 106/11/40
f 107/12/41 106/11/40 103/8/37
f 108/13/42 106/11/40 107/12/41
f 107/12/41 103/8/37 109/14/43
f 109/14/43 103/8/37 105/10/39
f 110/15/44 107/12/41 109/14/43
f 110/15/44 108/13/42 107/12/41
f 111/16/45 108/13/42 110/15/44
f 114/17/46 113/18/47 112/19/48
f 114/17/46 115/20/49 113/18/47
f 112/19/48 113/18/47 116/21/50
f 117/22/51 113/18/47 115/20/49
f 118/23/52 113/18/47 117/22/51
f 118/23/52 116/21/50 113/18/47
f 119/24/53 116/21/50 118/23/52
f 118/23/52 120/25/54 119/24/53
f 120/25/54 118/23/52 117/22/51
f 119/24/53 120/25/54 121/26/55
f 122/27/29 130/5/29 102/28/29
f 102/28/29 130/5/29 104/29/29
f 605/30/29 104/29/29 130/5/29
f 120/31/29 104/29/29 605/30/29
f 429/32/29 120/31/29 605/30/29
f 121/33/29 120/31/29 429/32/29
f 110/34/44 109/35/43 123/36/56
f 110/34/44 123/36/56 114/37/46
f 114/37/46 123/36/56 124/38/57
f 114/37/46 124/38/57 115/39/49
f 123/36/56 125/40/58 124/38/57
f 124/38/57 126/41/59 115/39/49
f 124/38/57 125/40/58 126/41/59
f 125/40/58 123/36/56 105/42/39
f 105/42/39 123/36/56 109/35/43
f 104/15/36 125/40/58 105/42/39
f 104/15/36 126/41/59 125/40/58
f 120/43/54 126/41/59 104/15/36
f 120/43/54 117/44/51 126/41/59
f 115/39/49 126/41/59 117/44/51
f 111/16/30 110/45/30 127/46/30
f 127/46/30 110/45/30 128/47/30
f 114/48/30 128/47/30 110/45/30
f 621/49/30 128/47/30 114/48/30
f 112/26/30 621/49/30 114/48/30
f 618/50/30 621/49/30 112/26/30
f 397/1/35 129/2/35 605/3/35
f 605/3/35 129/2/35 607/4/35
f 136/1/60 135/2/60 134/3/60
f 134/3/60 135/2/60 137/4/60
f 212/68/3 211/69/3 28/70/3
f 213/71/3 212/68/3 28/70/3
f 214/72/3 212/68/3 213/71/3
f 212/68/3 214/72/3 215/73/3
f 216/74/3 213/71/3 28/70/3
f 217/75/3 213/71/3 216/74/3
f 213/71/3 217/75/3 218/76/3
f 219/77/3 216/74/3 28/70/3
f 220/78/3 216/74/3 219/77/3
f 216/74/3 220/78/3 221/79/3
f 222/80/3 219/77/3 28/70/3
f 223/81/3 219/77/3 222/80/3
f 219/77/3 223/81/3 224/82/3
f 225/83/3 222/80/3 28/70/3
f 226/84/3 222/80/3 225/83/3
f 222/80/3 226/84/3 227/85/3
f 215/73/3 214/72/3 228/86/3
f 218/76/3 217/75/3 229/87/3
f 221/79/3 220/78/3 230/88/3
f 224/82/3 223/81/3 231/89/3
f 227/85/3 226/84/3 232/90/3
f 225/83/3 234/91/3 233/92/3
f 234/91/3 225/83/3 101/93/3
f 101/93/3 225/83/3 28/70/3
f 233/92/3 234/91/3 235/94/3
f 236/95/3 196/96/3 28/70/3
f 237/97/3 196/96/3 236/95/3
f 196/96/3 237/97/3 238/98/3
f 239/99/3 236/95/3 28/70/3
f 240/100/3 236/95/3 239/99/3
f 236/95/3 240/100/3 241/101/3
f 242/102/3 239/99/3 28/70/3
f 243/103/3 239/99/3 242/102/3
f 239/99/3 243/103/3 244/104/3
f 245/105/3 242/102/3 28/70/3
f 246/106/3 242/102/3 245/105/3
f 242/102/3 246/106/3 247/107/3
f 248/108/3 245/105/3 28/70/3
f 249/109/3 245/105/3 248/108/3
f 245/105/3 249/109/3 250/110/3
f 238/98/3 237/97/3 251/111/3
f 241/101/3 240/100/3 252/112/3
f 244/104/3 243/103/3 253/113/3
f 247/107/3 246/106/3 254/114/3
f 250/110/3 249/109/3 255/115/3
f 248/108/3 257/116/3 256/117/3
f 257/116/3 248/108/3 258/118/3
f 258/118/3 248/108/3 28/70/3
f 259/119/3 258/118/3 28/70/3
f 260/120/3 258/118/3 259/119/3
f 258/118/3 260/120/3 261/121/3
f 262/122/3 259/119/3 28/70/3
f 263/123/3 259/119/3 262/122/3
f 259/119/3 263/123/3 264/124/3
f 265/125/3 262/122/3 28/70/3
f 266/126/3 262/122/3 265/125/3
f 262/122/3 266/126/3 267/127/3
f 268/128/3 265/125/3 28/70/3
f 269/129/3 265/125/3 268/128/3
f 265/125/3 269/129/3 270/130/3
f 211/69/3 268/128/3 28/70/3
f 271/131/3 268/128/3 211/69/3
f 268/128/3 271/131/3 272/132/3
f 261/121/3 260/120/3 273/133/3
f 264/124/3 263/123/3 274/134/3
f 267/127/3 266/126/3 275/135/3
f 270/130/3 269/129/3 276/136/3
f 272/132/3 271/131/3 277/137/3
f 211/69/3 279/138/3 278/139/3
f 279/138/3 211/69/3 212/68/3
f 278/139/3 279/138/3 280/140/3
f 282/93/1 658/70/1 281/141/1
f 281/141/1 658/70/1 283/80/1
f 283/80/1 658/70/1 284/142/1
f 284/142/1 658/70/1 285/74/1
f 285/74/1 658/70/1 286/71/1
f 286/71/1 658/70/1 287/143/1
f 287/143/1 658/70/1 288/144/1
f 288/144/1 658/70/1 289/145/1
f 289/145/1 658/70/1 290/125/1
f 290/125/1 658/70/1 291/122/1
f 291/122/1 658/70/1 292/119/1
f 292/119/1 658/70/1 293/118/1
f 293/118/1 658/70/1 294/108/1
f 294/108/1 658/70/1 295/105/1
f 295/105/1 658/70/1 296/102/1
f 296/102/1 658/70/1 297/99/1
f 297/99/1 658/70/1 298/95/1
f 298/95/1 658/70/1 442/96/1
f 299/75/1 285/74/1 286/71/1
f 300/72/1 286/71/1 287/143/1
f 301/138/1 287/143/1 288/144/1
f 302/131/1 288/144/1 289/145/1
f 303/146/1 289/145/1 290/125/1
f 304/126/1 290/125/1 291/122/1
f 305/123/1 291/122/1 292/119/1
f 306/120/1 292/119/1 293/118/1
f 307/116/1 293/118/1 294/108/1
f 308/109/1 294/108/1 295/105/1
f 309/106/1 295/105/1 296/102/1
f 310/103/1 296/102/1 297/99/1
f 311/100/1 297/99/1 298/95/1
f 312/97/1 298/95/1 442/96/1
f 313/101/1 311/100/1 298/95/1
f 314/112/1 311/100/1 313/101/1
f 316/147/1 299/75/1 315/76/1
f 315/76/1 299/75/1 286/71/1
f 318/136/1 303/146/1 317/130/1
f 317/130/1 303/146/1 290/125/1
f 320/148/1 307/116/1 319/117/1
f 319/117/1 307/116/1 294/108/1
f 322/111/1 312/97/1 321/98/1
f 321/98/1 312/97/1 442/96/1
f 323/91/1 282/93/1 281/141/1
f 324/149/1 323/91/1 281/141/1
f 325/94/1 323/91/1 324/149/1
f 326/84/1 281/141/1 283/80/1
f 327/85/1 326/84/1 283/80/1
f 328/90/1 326/84/1 327/85/1
f 329/150/1 283/80/1 284/142/1
f 330/151/1 329/150/1 284/142/1
f 331/89/1 329/150/1 330/151/1
f 332/78/1 284/142/1 285/74/1
f 333/79/1 332/78/1 285/74/1
f 334/88/1 332/78/1 333/79/1
f 336/152/1 300/72/1 335/153/1
f 335/153/1 300/72/1 287/143/1
f 338/140/1 301/138/1 337/139/1
f 337/139/1 301/138/1 288/144/1
f 340/137/1 302/131/1 339/154/1
f 339/154/1 302/131/1 289/145/1
f 342/135/1 304/126/1 341/127/1
f 341/127/1 304/126/1 291/122/1
f 344/134/1 305/123/1 343/124/1
f 343/124/1 305/123/1 292/119/1
f 346/133/1 306/120/1 345/121/1
f 345/121/1 306/120/1 293/118/1
f 348/115/1 308/109/1 347/110/1
f 347/110/1 308/109/1 295/105/1
f 350/114/1 309/106/1 349/107/1
f 349/107/1 309/106/1 296/102/1
f 352/113/1 310/103/1 351/104/1
f 351/104/1 310/103/1 297/99/1
f 28/70/29 196/155/29 658/3/29
f 658/3/29 196/155/29 442/156/29
f 256/117/3 257/116/3 353/148/3
f 405/157/60 404/158/60 393/3/60
f 393/3/60 394/4/60 405/157/60
f 393/3/60 404/158/60 395/5/60
f 404/158/60 409/159/60 395/5/60
f 395/5/60 409/159/60 689/6/60
f 394/4/60 689/6/60 427/160/60
f 427/160/60 689/6/60 409/159/60
f 405/157/60 394/4/60 427/160/60
f 401/161/61 422/162/62 396/163/63
f 424/160/64 422/162/62 401/161/61
f 655/3/35 433/5/35 422/157/35
f 422/157/35 424/160/35 655/3/35
f 422/157/35 433/5/35 423/158/35
f 433/5/35 694/6/35 423/158/35
f 423/158/35 694/6/35 419/159/35
f 424/160/35 419/159/35 397/4/35
f 397/4/35 419/159/35 694/6/35
f 655/3/35 424/160/35 397/4/35
f 405/164/65 399/165/66 398/166/67
f 399/165/66 405/164/65 400/167/68
f 399/165/66 401/161/61 398/166/67
f 400/167/68 425/168/69 399/165/66
f 399/165/66 425/168/69 401/161/61
f 425/168/69 400/167/68 402/169/70
f 401/161/61 425/168/69 424/160/64
f 400/167/68 405/164/65 427/170/71
f 427/170/71 420/171/72 400/167/68
f 402/169/70 400/167/68 420/171/72
f 398/166/67 401/161/61 396/163/63
f 428/172/73 404/173/74 403/174/75
f 403/174/75 404/173/74 405/157/65
f 405/157/65 398/175/67 403/174/75
f 398/175/67 396/176/63 403/174/75
f 406/177/76 428/172/73 403/174/75
f 403/174/75 396/176/63 406/177/76
f 426/178/77 428/172/73 406/177/76
f 428/172/73 426/178/77 421/179/78
f 422/180/62 426/178/77 406/177/76
f 423/181/79 426/178/77 422/180/62
f 421/179/78 426/178/77 407/182/80
f 410/183/81 409/159/82 408/184/83
f 408/184/83 409/159/82 404/185/74
f 411/186/84 410/183/81 408/184/83
f 412/187/85 410/183/81 411/186/84
f 411/186/84 408/184/83 407/188/80
f 410/183/81 412/187/85 414/189/86
f 423/190/79 412/187/85 411/186/84
f 407/188/80 408/184/83 421/191/78
f 414/189/86 412/187/85 417/192/87
f 409/193/82 413/194/88 427/195/71
f 409/193/82 414/196/86 413/194/88
f 427/195/71 413/194/88 415/197/89
f 413/194/88 416/198/90 415/197/89
f 416/198/90 413/194/88 417/199/87
f 417/199/87 413/194/88 414/196/86
f 415/197/89 416/198/90 418/200/91
f 419/201/92 418/200/91 416/198/90
f 424/160/64 418/200/91 419/201/92
f 418/200/91 420/202/72 415/197/89
f 402/203/70 420/202/72 418/200/91
f 408/184/83 404/185/74 421/191/78
f 409/159/82 410/183/81 414/189/86
f 396/176/63 422/180/62 406/177/76
f 419/204/92 412/187/85 423/190/79
f 419/204/92 417/192/87 412/187/85
f 424/160/64 402/203/70 418/200/91
f 424/160/64 425/168/69 402/203/70
f 423/181/79 407/182/80 426/178/77
f 419/201/92 416/198/90 417/199/87
f 427/195/71 415/197/89 420/202/72
f 423/190/79 411/186/84 407/188/80
f 404/173/74 428/172/73 421/179/78
f 135/1/60 431/2/60 137/3/60
f 137/3/60 431/2/60 432/4/60
f 445/68/3 444/69/3 99/70/3
f 446/71/3 445/68/3 99/70/3
f 447/72/3 445/68/3 446/71/3
f 445/68/3 447/72/3 448/73/3
f 449/74/3 446/71/3 99/70/3
f 450/75/3 446/71/3 449/74/3
f 446/71/3 450/75/3 451/76/3
f 452/77/3 449/74/3 99/70/3
f 453/78/3 449/74/3 452/77/3
f 449/74/3 453/78/3 454/79/3
f 455/80/3 452/77/3 99/70/3
f 456/81/3 452/77/3 455/80/3
f 452/77/3 456/81/3 457/82/3
f 458/83/3 455/80/3 99/70/3
f 459/84/3 455/80/3 458/83/3
f 455/80/3 459/84/3 460/85/3
f 448/73/3 447/72/3 461/86/3
f 451/76/3 450/75/3 462/87/3
f 454/79/3 453/78/3 463/88/3
f 457/82/3 456/81/3 464/89/3
f 460/85/3 459/84/3 465/90/3
f 458/83/3 467/91/3 466/92/3
f 467/91/3 458/83/3 185/93/3
f 185/93/3 458/83/3 99/70/3
f 466/92/3 467/91/3 468/94/3
f 469/95/3 101/96/3 99/70/3
f 470/97/3 101/96/3 469/95/3
f 101/96/3 470/97/3 471/98/3
f 472/99/3 469/95/3 99/70/3
f 473/100/3 469/95/3 472/99/3
f 469/95/3 473/100/3 474/101/3
f 475/102/3 472/99/3 99/70/3
f 476/103/3 472/99/3 475/102/3
f 472/99/3 476/103/3 477/104/3
f 478/105/3 475/102/3 99/70/3
f 479/106/3 475/102/3 478/105/3
f 475/102/3 479/106/3 480/107/3
f 481/108/3 478/105/3 99/70/3
f 482/109/3 478/105/3 481/108/3
f 478/105/3 482/109/3 483/110/3
f 471/98/3 470/97/3 484/111/3
f 474/101/3 473/100/3 485/112/3
f 477/104/3 476/103/3 486/113/3
f 480/107/3 479/106/3 487/114/3
f 483/110/3 482/109/3 488/115/3
f 481/108/3 490/116/3 489/117/3
f 490/116/3 481/108/3 491/118/3
f 491/118/3 481/108/3 99/70/3
f 492/119/3 491/118/3 99/70/3
f 493/120/3 491/118/3 492/119/3
f 491/118/3 493/120/3 494/121/3
f 495/122/3 492/119/3 99/70/3
f 496/123/3 492/119/3 495/122/3
f 492/119/3 496/123/3 497/124/3
f 498/125/3 495/122/3 99/70/3
f 499/126/3 495/122/3 498/125/3
f 495/122/3 499/126/3 500/127/3
f 501/128/3 498/125/3 99/70/3
f 502/129/3 498/125/3 501/128/3
f 498/125/3 502/129/3 503/130/3
f 444/69/3 501/128/3 99/70/3
f 504/131/3 501/128/3 444/69/3
f 501/128/3 504/131/3 505/132/3
f 494/121/3 493/120/3 506/133/3
f 497/124/3 496/123/3 507/134/3
f 500/127/3 499/126/3 508/135/3
f 503/130/3 502/129/3 509/136/3
f 505/132/3 504/131/3 510/137/3
f 444/69/3 512/138/3 511/139/3
f 512/138/3 444/69/3 445/68/3
f 511/139/3 512/138/3 513/140/3
f 430/93/1 585/70/1 514/141/1
f 514/141/1 585/70/1 515/80/1
f 515/80/1 585/70/1 516/142/1
f 516/142/1 585/70/1 517/74/1
f 517/74/1 585/70/1 518/71/1
f 518/71/1 585/70/1 519/143/1
f 519/143/1 585/70/1 520/144/1
f 520/144/1 585/70/1 521/145/1
f 521/145/1 585/70/1 522/125/1
f 522/125/1 585/70/1 523/122/1
f 523/122/1 585/70/1 524/119/1
f 524/119/1 585/70/1 525/118/1
f 525/118/1 585/70/1 526/108/1
f 526/108/1 585/70/1 527/105/1
f 527/105/1 585/70/1 528/102/1
f 528/102/1 585/70/1 529/99/1
f 529/99/1 585/70/1 530/95/1
f 530/95/1 585/70/1 282/96/1
f 531/75/1 517/74/1 518/71/1
f 532/72/1 518/71/1 519/143/1
f 533/138/1 519/143/1 520/144/1
f 534/131/1 520/144/1 521/145/1
f 535/146/1 521/145/1 522/125/1
f 536/126/1 522/125/1 523/122/1
f 537/123/1 523/122/1 524/119/1
f 538/120/1 524/119/1 525/118/1
f 539/116/1 525/118/1 526/108/1
f 540/109/1 526/108/1 527/105/1
f 541/106/1 527/105/1 528/102/1
f 542/103/1 528/102/1 529/99/1
f 543/100/1 529/99/1 530/95/1
f 544/97/1 530/95/1 282/96/1
f 545/101/1 543/100/1 530/95/1
f 546/112/1 543/100/1 545/101/1
f 548/147/1 531/75/1 547/76/1
f 547/76/1 531/75/1 518/71/1
f 550/136/1 535/146/1 549/130/1
f 549/130/1 535/146/1 522/125/1
f 552/148/1 539/116/1 551/117/1
f 551/117/1 539/116/1 526/108/1
f 554/111/1 544/97/1 553/98/1
f 553/98/1 544/97/1 282/96/1
f 555/91/1 430/93/1 514/141/1
f 556/149/1 555/91/1 514/141/1
f 557/94/1 555/91/1 556/149/1
f 558/84/1 514/141/1 515/80/1
f 559/85/1 558/84/1 515/80/1
f 560/90/1 558/84/1 559/85/1
f 561/150/1 515/80/1 516/142/1
f 562/151/1 561/150/1 516/142/1
f 563/89/1 561/150/1 562/151/1
f 564/78/1 516/142/1 517/74/1
f 565/79/1 564/78/1 517/74/1
f 566/88/1 564/78/1 565/79/1
f 568/152/1 532/72/1 567/153/1
f 567/153/1 532/72/1 519/143/1
f 570/140/1 533/138/1 569/139/1
f 569/139/1 533/138/1 520/144/1
f 572/137/1 534/131/1 571/154/1
f 571/154/1 534/131/1 521/145/1
f 574/135/1 536/126/1 573/127/1
f 573/127/1 536/126/1 523/122/1
f 576/134/1 537/123/1 575/124/1
f 575/124/1 537/123/1 524/119/1
f 578/133/1 538/120/1 577/121/1
f 577/121/1 538/120/1 525/118/1
f 580/115/1 540/109/1 579/110/1
f 579/110/1 540/109/1 527/105/1
f 582/114/1 541/106/1 581/107/1
f 581/107/1 541/106/1 528/102/1
f 584/113/1 542/103/1 583/104/1
f 583/104/1 542/103/1 529/99/1
f 99/70/29 101/155/29 585/3/29
f 585/3/29 101/155/29 282/156/29
f 489/117/3 490/116/3 586/148/3
f 606/7/36 595/8/37 594/9/38
f 595/8/37 606/7/36 617/10/39
f 594/9/38 595/8/37 596/11/40
f 597/12/41 596/11/40 595/8/37
f 598/13/42 596/11/40 597/12/41
f 597/12/41 595/8/37 611/14/43
f 611/14/43 595/8/37 617/10/39
f 619/15/44 597/12/41 611/14/43
f 619/15/44 598/13/42 597/12/41
f 620/16/45 598/13/42 619/15/44
f 612/17/46 599/18/47 623/19/48
f 612/17/46 614/20/49 599/18/47
f 623/19/48 599/18/47 600/21/50
f 601/22/51 599/18/47 614/20/49
f 602/23/52 599/18/47 601/22/51
f 602/23/52 600/21/50 599/18/47
f 603/24/53 600/21/50 602/23/52
f 602/23/52 604/25/54 603/24/53
f 604/25/54 602/23/52 601/22/51
f 603/24/53 604/25/54 609/26/55
f 429/27/29 605/5/29 594/28/29
f 594/28/29 605/5/29 606/29/29
f 607/30/29 606/29/29 605/5/29
f 604/31/29 606/29/29 607/30/29
f 608/32/29 604/31/29 607/30/29
f 609/33/29 604/31/29 608/32/29
f 619/34/44 611/35/43 610/36/56
f 619/34/44 610/36/56 612/37/46
f 612/37/46 610/36/56 613/38/57
f 612/37/46 613/38/57 614/39/49
f 610/36/56 615/40/58 613/38/57
f 613/38/57 616/41/59 614/39/49
f 613/38/57 615/40/58 616/41/59
f 615/40/58 610/36/56 617/42/39
f 617/42/39 610/36/56 611/35/43
f 606/15/36 615/40/58 617/42/39
f 606/15/36 616/41/59 615/40/58
f 604/43/54 616/41/59 606/15/36
f 604/43/54 601/44/51 616/41/59
f 614/39/49 616/41/59 601/44/51
f 620/16/30 619/45/30 618/46/30
f 618/46/30 619/45/30 621/47/30
f 612/48/30 621/47/30 619/45/30
f 622/49/30 621/47/30 612/48/30
f 623/26/30 622/49/30 612/48/30
f 624/50/30 622/49/30 623/26/30
f 655/1/35 397/2/35 130/3/35
f 130/3/35 397/2/35 605/4/35
f 687/157/60 686/158/60 394/3/60
f 394/3/60 688/4/60 687/157/60
f 394/3/60 686/158/60 689/5/60
f 686/158/60 708/159/60 689/5/60
f 689/5/60 708/159/60 690/6/60
f 688/4/60 690/6/60 722/160/60
f 722/160/60 690/6/60 708/159/60
f 687/157/60 688/4/60 722/160/60
f 692/161/61 691/162/62 717/163/63
f 693/160/64 691/162/62 692/161/61
f 397/3/35 694/5/35 691/157/35
f 691/157/35 693/160/35 397/3/35
f 691/157/35 694/5/35 705/158/35
f 694/5/35 695/6/35 705/158/35
f 705/158/35 695/6/35 712/159/35
f 693/160/35 712/159/35 129/4/35
f 129/4/35 712/159/35 695/6/35
f 397/3/35 693/160/35 129/4/35
f 687/164/65 696/165/66 701/166/67
f 696/165/66 687/164/65 697/167/68
f 696/165/66 692/161/61 701/166/67
f 697/167/68 719/168/69 696/165/66
f 696/165/66 719/168/69 692/161/61
f 719/168/69 697/167/68 698/169/70
f 692/161/61 719/168/69 693/160/64
f 697/167/68 687/164/65 722/170/71
f 722/170/71 713/171/72 697/167/68
f 698/169/70 697/167/68 713/171/72
f 701/166/67 692/161/61 717/163/63
f 700/172/73 686/173/74 699/174/75
f 699/174/75 686/173/74 687/157/65
f 687/157/65 701/175/67 699/174/75
f 701/175/67 717/176/63 699/174/75
f 716/177/76 700/172/73 699/174/75
f 699/174/75 717/176/63 716/177/76
f 702/178/77 700/172/73 716/177/76
f 700/172/73 702/178/77 703/179/78
f 691/180/62 702/178/77 716/177/76
f 705/181/79 702/178/77 691/180/62
f 703/179/78 702/178/77 720/182/80
f 715/183/81 708/159/82 714/184/83
f 714/184/83 708/159/82 686/185/74
f 704/186/84 715/183/81 714/184/83
f 718/187/85 715/183/81 704/186/84
f 704/186/84 714/184/83 720/188/80
f 715/183/81 718/187/85 709/189/86
f 705/190/79 718/187/85 704/186/84
f 720/188/80 714/184/83 703/191/78
f 709/189/86 718/187/85 706/192/87
f 708/193/82 707/194/88 722/195/71
f 708/193/82 709/196/86 707/194/88
f 722/195/71 707/194/88 721/197/89
f 707/194/88 710/198/90 721/197/89
f 710/198/90 707/194/88 706/199/87
f 706/199/87 707/194/88 709/196/86
f 721/197/89 710/198/90 711/200/91
f 712/201/92 711/200/91 710/198/90
f 693/160/64 711/200/91 712/201/92
f 711/200/91 713/202/72 721/197/89
f 698/203/70 713/202/72 711/200/91
f 714/184/83 686/185/74 703/191/78
f 708/159/82 715/183/81 709/189/86
f 717/176/63 691/180/62 716/177/76
f 712/204/92 718/187/85 705/190/79
f 712/204/92 706/192/87 718/187/85
f 693/160/64 698/203/70 711/200/91
f 693/160/64 719/168/69 698/203/70
f 705/181/79 720/182/80 702/178/77
f 712/201/92 710/198/90 706/199/87
f 722/195/71 721/197/89 713/202/72
f 705/190/79 704/186/84 720/188/80
f 686/173/74 700/172/73 703/179/78

usemtl floor_A
f 46/3/2 45/4/2 47/5/2
f 47/5/2 45/4/2 12/6/2
f 78/3/4 77/4/4 76/5/4
f 76/5/4 77/4/4 79/6/4
f 196/3/2 442/4/2 197/5/2
f 197/5/2 442/4/2 210/6/2
f 132/3/4 131/4/4 78/5/4
f 78/5/4 131/4/4 77/6/4
f 187/3/4 78/4/4 186/5/4
f 186/5/4 78/4/4 76/6/4
f 659/3/2 196/4/2 199/5/2
f 199/5/2 196/4/2 197/6/2
f 380/3/2 185/4/2 46/5/2
f 46/5/2 185/4/2 45/6/2
f 429/3/2 608/4/2 185/5/2
f 185/5/2 608/4/2 430/6/2

usemtl brick_A
f 50/51/1 49/52/1 48/53/1
f 48/53/1 49/52/1 51/54/1
f 53/55/29 52/56/29 61/57/29
f 61/57/29 52/56/29 54/58/29
f 56/59/3 62/60/3 55/61/3
f 55/61/3 62/60/3 57/62/3
f 63/6/30 58/4/30 60/63/30
f 60/63/30 58/4/30 59/64/30
f 59/64/31 49/52/31 60/63/31
f 60/63/31 49/52/31 50/51/31
f 51/54/32 52/56/32 48/53/32
f 48/53/32 52/56/32 53/55/32
f 54/58/33 62/60/33 61/57/33
f 61/57/33 62/60/33 56/59/33
f 57/62/34 58/3/34 55/61/34
f 55/61/34 58/3/34 63/5/34
f 65/51/1 204/52/1 64/53/1
f 64/53/1 204/52/1 205/54/1
f 71/55/29 70/56/29 72/57/29
f 72/57/29 70/56/29 202/58/29
f 73/59/3 66/60/3 74/61/3
f 74/61/3 66/60/3 67/62/3
f 75/6/30 209/4/30 68/63/30
f 68/63/30 209/4/30 69/64/30
f 69/64/31 204/52/31 68/63/31
f 68/63/31 204/52/31 65/51/31
f 205/54/32 70/56/32 64/53/32
f 64/53/32 70/56/32 71/55/32
f 202/58/33 66/60/33 72/57/33
f 72/57/33 66/60/33 73/59/33
f 67/62/34 209/3/34 74/61/34
f 74/61/34 209/3/34 75/5/34
f 80/1/30 198/2/30 210/3/30
f 210/3/30 198/2/30 197/4/30
f 84/51/1 83/52/1 90/53/1
f 90/53/1 83/52/1 91/54/1
f 192/55/29 85/56/29 189/57/29
f 189/57/29 85/56/29 93/58/29
f 190/59/3 92/60/3 191/61/3
f 191/61/3 92/60/3 86/62/3
f 88/6/30 94/4/30 87/63/30
f 87/63/30 94/4/30 89/64/30
f 89/64/31 83/52/31 87/63/31
f 87/63/31 83/52/31 84/51/31
f 91/54/32 85/56/32 90/53/32
f 90/53/32 85/56/32 192/55/32
f 93/58/33 92/60/33 189/57/33
f 189/57/33 92/60/33 190/59/33
f 86/62/34 94/3/34 191/61/34
f 191/61/34 94/3/34 88/5/34
f 695/1/3 133/2/3 129/3/3
f 129/3/3 133/2/3 172/4/3
f 142/51/1 141/52/1 143/53/1
f 143/53/1 141/52/1 188/54/1
f 144/55/29 138/56/29 145/57/29
f 145/57/29 138/56/29 193/58/29
f 146/59/3 194/60/3 147/61/3
f 147/61/3 194/60/3 195/62/3
f 149/6/30 148/4/30 140/63/30
f 140/63/30 148/4/30 139/64/30
f 139/64/31 141/52/31 140/63/31
f 140/63/31 141/52/31 142/51/31
f 188/54/32 138/56/32 143/53/32
f 143/53/32 138/56/32 144/55/32
f 193/58/33 194/60/33 145/57/33
f 145/57/33 194/60/33 146/59/33
f 195/62/34 148/3/34 147/61/34
f 147/61/34 148/3/34 149/5/34
f 154/51/1 436/52/1 155/53/1
f 155/53/1 436/52/1 435/54/1
f 157/55/29 156/56/29 158/57/29
f 158/57/29 156/56/29 150/58/29
f 151/59/3 438/60/3 159/61/3
f 159/61/3 438/60/3 437/62/3
f 161/6/30 160/4/30 153/63/30
f 153/63/30 160/4/30 152/64/30
f 152/64/31 436/52/31 153/63/31
f 153/63/31 436/52/31 154/51/31
f 435/54/32 156/56/32 155/53/32
f 155/53/32 156/56/32 157/55/32
f 150/58/33 438/60/33 158/57/33
f 158/57/33 438/60/33 151/59/33
f 437/62/34 160/3/34 159/61/34
f 159/61/34 160/3/34 161/5/34
f 729/51/1 162/52/1 732/53/1
f 732/53/1 162/52/1 163/54/1
f 731/55/29 164/56/29 726/57/29
f 726/57/29 164/56/29 165/58/29
f 734/59/3 168/60/3 727/61/3
f 727/61/3 168/60/3 169/62/3
f 170/6/30 166/4/30 730/63/30
f 730/63/30 166/4/30 167/64/30
f 167/64/31 162/52/31 730/63/31
f 730/63/31 162/52/31 729/51/31
f 163/54/32 164/56/32 732/53/32
f 732/53/32 164/56/32 731/55/32
f 165/58/33 168/60/33 726/57/33
f 726/57/33 168/60/33 734/59/33
f 169/62/34 166/3/34 727/61/34
f 727/61/34 166/3/34 170/5/34
f 172/1/3 381/2/3 171/3/3
f 171/3/3 381/2/3 671/4/3
f 133/1/3 15/2/3 172/3/3
f 172/3/3 15/2/3 381/4/3
f 14/1/3 724/2/3 443/3/3
f 443/3/3 724/2/3 442/4/3
f 173/51/1 589/52/1 178/53/1
f 178/53/1 589/52/1 588/54/1
f 174/55/29 592/56/29 179/57/29
f 179/57/29 592/56/29 181/58/29
f 175/59/3 180/60/3 182/61/3
f 182/61/3 180/60/3 590/62/3
f 184/6/30 183/4/30 176/63/30
f 176/63/30 183/4/30 177/64/30
f 177/64/31 589/52/31 176/63/31
f 176/63/31 589/52/31 173/51/31
f 588/54/32 592/56/32 178/53/32
f 178/53/32 592/56/32 174/55/32
f 181/58/33 180/60/33 179/57/33
f 179/57/33 180/60/33 175/59/33
f 590/62/34 183/3/34 182/61/34
f 182/61/34 183/3/34 184/5/34
f 141/51/1 84/52/1 188/53/1
f 188/53/1 84/52/1 90/54/1
f 138/55/29 192/56/29 193/57/29
f 193/57/29 192/56/29 189/58/29
f 194/59/3 190/60/3 195/61/3
f 195/61/3 190/60/3 191/62/3
f 148/6/30 88/4/30 139/63/30
f 139/63/30 88/4/30 87/64/30
f 87/64/31 84/52/31 139/63/31
f 139/63/31 84/52/31 141/51/31
f 90/54/32 192/56/32 188/53/32
f 188/53/32 192/56/32 138/55/32
f 189/58/33 190/60/33 193/57/33
f 193/57/33 190/60/33 194/59/33
f 191/62/34 88/3/34 195/61/34
f 195/61/34 88/3/34 148/5/34
f 198/1/30 82/2/30 197/3/30
f 197/3/30 82/2/30 199/4/30
f 204/51/1 201/52/1 205/53/1
f 205/53/1 201/52/1 390/54/1
f 70/55/29 206/56/29 202/57/29
f 202/57/29 206/56/29 207/58/29
f 66/59/3 392/60/3 67/61/3
f 67/61/3 392/60/3 385/62/3
f 209/6/30 208/4/30 69/63/30
f 69/63/30 208/4/30 203/64/30
f 203/64/31 201/52/31 69/63/31
f 69/63/31 201/52/31 204/51/31
f 390/54/32 206/56/32 205/53/32
f 205/53/32 206/56/32 70/55/32
f 207/58/33 392/60/33 202/57/33
f 202/57/33 392/60/33 66/59/33
f 385/62/34 208/3/34 67/61/34
f 67/61/34 208/3/34 209/5/34
f 724/1/3 80/2/3 442/3/3
f 442/3/3 80/2/3 210/4/3
f 355/51/1 725/52/1 354/53/1
f 354/53/1 725/52/1 360/54/1
f 357/55/29 733/56/29 356/57/29
f 356/57/29 733/56/29 358/58/29
f 362/59/3 361/60/3 363/61/3
f 363/61/3 361/60/3 364/62/3
f 365/6/30 735/4/30 359/63/30
f 359/63/30 735/4/30 728/64/30
f 728/64/31 725/52/31 359/63/31
f 359/63/31 725/52/31 355/51/31
f 360/54/32 733/56/32 354/53/32
f 354/53/32 733/56/32 357/55/32
f 358/58/33 361/60/33 356/57/33
f 356/57/33 361/60/33 362/59/33
f 364/62/34 735/3/34 363/61/34
f 363/61/34 735/3/34 365/5/34
f 368/51/1 367/52/1 366/53/1
f 366/53/1 367/52/1 369/54/1
f 439/55/29 371/56/29 370/57/29
f 370/57/29 371/56/29 375/58/29
f 376/59/3 372/60/3 377/61/3
f 377/61/3 372/60/3 379/62/3
f 440/6/30 378/4/30 373/63/30
f 373/63/30 378/4/30 374/64/30
f 374/64/31 367/52/31 373/63/31
f 373/63/31 367/52/31 368/51/31
f 369/54/32 371/56/32 366/53/32
f 366/53/32 371/56/32 439/55/32
f 375/58/33 372/60/33 370/57/33
f 370/57/33 372/60/33 376/59/33
f 379/62/34 378/3/34 377/61/34
f 377/61/34 378/3/34 440/5/34
f 15/1/3 14/2/3 381/3/3
f 381/3/3 14/2/3 443/4/3
f 171/1/3 671/2/3 430/3/3
f 430/3/3 671/2/3 670/4/3
f 201/51/1 382/52/1 390/53/1
f 390/53/1 382/52/1 383/54/1
f 206/55/29 391/56/29 207/57/29
f 207/57/29 391/56/29 384/58/29
f 392/59/3 386/60/3 385/61/3
f 385/61/3 386/60/3 387/62/3
f 208/6/30 388/4/30 203/63/30
f 203/63/30 388/4/30 389/64/30
f 389/64/31 382/52/31 203/63/31
f 203/63/31 382/52/31 201/51/31
f 383/54/32 391/56/32 390/53/32
f 390/53/32 391/56/32 206/55/32
f 384/58/33 386/60/33 207/57/33
f 207/57/33 386/60/33 392/59/33
f 387/62/34 388/3/34 385/61/34
f 385/61/34 388/3/34 208/5/34
f 436/51/1 368/52/1 435/53/1
f 435/53/1 368/52/1 366/54/1
f 156/55/29 439/56/29 150/57/29
f 150/57/29 439/56/29 370/58/29
f 438/59/3 376/60/3 437/61/3
f 437/61/3 376/60/3 377/62/3
f 160/6/30 440/4/30 152/63/30
f 152/63/30 440/4/30 373/64/30
f 373/64/31 368/52/31 152/63/31
f 152/63/31 368/52/31 436/51/31
f 366/54/32 439/56/32 435/53/32
f 435/53/32 439/56/32 156/55/32
f 370/58/33 376/60/33 150/57/33
f 150/57/33 376/60/33 438/59/33
f 377/62/34 440/3/34 437/61/34
f 437/61/34 440/3/34 160/5/34
f 443/1/3 442/2/3 441/3/3
f 441/3/3 442/2/3 658/4/3
f 381/1/3 443/2/3 671/3/3
f 671/3/3 443/2/3 441/4/3
f 589/51/1 684/52/1 588/53/1
f 588/53/1 684/52/1 591/54/1
f 592/55/29 685/56/29 181/57/29
f 181/57/29 685/56/29 673/58/29
f 180/59/3 677/60/3 590/61/3
f 590/61/3 677/60/3 593/62/3
f 183/6/30 680/4/30 177/63/30
f 177/63/30 680/4/30 681/64/30
f 681/64/31 684/52/31 177/63/31
f 177/63/31 684/52/31 589/51/31
f 591/54/32 685/56/32 588/53/32
f 588/53/32 685/56/32 592/55/32
f 673/58/33 677/60/33 181/57/33
f 181/57/33 677/60/33 180/59/33
f 593/62/34 680/3/34 590/61/34
f 590/61/34 680/3/34 183/5/34
f 671/1/3 441/2/3 670/3/3
f 670/3/3 441/2/3 666/4/3
f 684/51/1 682/52/1 591/53/1
f 591/53/1 682/52/1 672/54/1
f 685/55/29 674/56/29 673/57/29
f 673/57/29 674/56/29 675/58/29
f 677/59/3 676/60/3 593/61/3
f 593/61/3 676/60/3 678/62/3
f 680/6/30 679/4/30 681/63/30
f 681/63/30 679/4/30 683/64/30
f 683/64/31 682/52/31 681/63/31
f 681/63/31 682/52/31 684/51/31
f 672/54/32 674/56/32 591/53/32
f 591/53/32 674/56/32 685/55/32
f 675/58/33 676/60/33 673/57/33
f 673/57/33 676/60/33 677/59/33
f 678/62/34 679/3/34 593/61/34
f 593/61/34 679/3/34 680/5/34
f 607/1/3 171/2/3 608/3/3
f 608/3/3 171/2/3 430/4/3
f 129/1/3 172/2/3 607/3/3
f 607/3/3 172/2/3 171/4/3
f 725/51/1 729/52/1 360/53/1
f 360/53/1 729/52/1 732/54/1
f 733/55/29 731/56/29 358/57/29
f 358/57/29 731/56/29 726/58/29
f 361/59/3 734/60/3 364/61/3
f 364/61/3 734/60/3 727/62/3
f 735/6/30 170/4/30 728/63/30
f 728/63/30 170/4/30 730/64/30
f 730/64/31 729/52/31 728/63/31
f 728/63/31 729/52/31 725/51/31
f 732/54/32 731/56/32 360/53/32
f 360/53/32 731/56/32 733/55/32
f 726/58/33 734/60/33 358/57/33
f 358/57/33 734/60/33 361/59/33
f 727/62/34 170/3/34 364/61/34
f 364/61/34 170/3/34 735/5/34

