# WaveFront *.obj file (generated by CINEMA 4D)

mtllib ./sector_03.mtl

v 24.00009918212891 4.00009489059448 -24
v 20 -0.00010498890333 -24.00009918212891
v 24.00004959106445 2.75 -19.99990081787109
v 19.99995040893555 2.75 -15.99989986419678
v 24.00004959106445 2.75 -15.99989986419678
v 24.00004959106445 -0.0000001115129 -24.00009918212891
v 24.00004959106445 -0.00000055157221 -15.99989986419678
v 24 -0.00010498890333 -20.00009918212891
v 19.99995040893555 -0.00000056245489 -15.99989986419678
v 20 4.00009489059448 -20.00009918212891
v 20 4.00009489059448 -24.00009918212891
v 24.00004959106445 2.75 -24.00009918212891
v 19.99995040893555 2.75 -19.99990081787109
v 19.99995040893555 2.75000095367432 -24.00009918212891
v 24 4.00009489059448 -20.00009918212891
v 24 -0.00010496749746 -16.20000076293945
v 24 4.00009489059448 -16.20000076293945
v 20 4.00009489059448 -16.20000076293945
v 20 -0.00010498890333 -20.00009918212891
v 20 -0.00010496749746 -16.20000076293945
# 20 vertices

vn -1 0 0
vn 0 0 1
vn 0 -1 0
vn 0 1 0
vn 1 0 0
# 5 normals

vt 1 0.99995040893555 0
vt 0.00003366265082 0.99995040893555 0
vt 1 0 0
vt 0.00003051758176 0 0
vt 1 0.99996948242188 0
vt 0.00003051758176 0.99996948242188 0
vt 0.05005022138357 0 0
vt 0.05005022138357 0.99995040893555 0
vt 0.99999701976776 0.99995040893555 0
# 9 texture coordinates

o Default
usemtl plaster_B
f 15/1/1 1/2/1 8/3/1
f 8/3/1 1/2/1 6/4/1
f 1/1/2 11/2/2 6/3/2
f 6/3/2 11/2/2 2/4/2
f 11/1/5 10/2/5 2/3/5
f 2/3/5 10/2/5 19/4/5
f 8/7/1 16/3/1 15/8/1
f 15/8/1 16/3/1 17/9/1
f 15/8/5 17/9/5 8/7/5
f 8/7/5 17/9/5 16/3/5
f 19/7/1 20/3/1 10/8/1
f 10/8/1 20/3/1 18/9/1
f 10/8/5 18/9/5 19/7/5
f 19/7/5 18/9/5 20/3/5

usemtl plaster_A
f 5/3/3 4/4/3 3/5/3
f 3/5/3 4/4/3 13/6/3
f 3/3/3 13/4/3 12/5/3
f 12/5/3 13/4/3 14/6/3

usemtl floor_B
f 6/3/4 2/4/4 8/5/4
f 8/5/4 2/4/4 19/6/4
f 8/3/4 19/4/4 7/5/4
f 7/5/4 19/4/4 9/6/4

