# WaveFront *.obj file (generated by CINEMA 4D)

mtllib ./sector_10.mtl

v -59.99990081787109 -3.99990510940552 -20
v -64.00009918212891 -3.99990510940552 -20
v -32.00004959106445 -4 -27.99990081787109
v -51.99990081787109 -12.00010013580322 -20
v -28.03409957885742 -8 -28.52209091186523
v -28.03409957885742 -4 -28.52209091186523
v -27.99995040893555 -8 -28.00009918212891
v -28.13618087768555 -8 -29.03524971008301
v -28.13618087768555 -4 -29.03524971008301
v -28.30437088012695 -8 -29.53068923950195
v -28.30437088012695 -4 -29.53068923950195
v -28.53578948974609 -8 -29.99994087219238
v -28.53578948974609 -4 -29.99994087219238
v -28.82649040222168 -8 -30.43497085571289
v -28.82649040222168 -4 -30.43497085571289
v -29.17148971557617 -8 -30.82834053039551
v -29.17148971557617 -4 -30.82834053039551
v -29.56488037109375 -8 -31.17332077026367
v -29.56488037109375 -4 -31.17332077026367
v -29.99994087219238 -8 -31.4640007019043
v -29.99994087219238 -4 -31.4640007019043
v -30.46921920776367 -8 -31.69540977478027
v -30.46921920776367 -4 -31.69540977478027
v -30.96468925476074 -8 -31.86359024047852
v -30.96468925476074 -4 -31.86359024047852
v -31.47788047790527 -8 -31.96566009521484
v -31.47788047790527 -4 -31.96566009521484
v -32.00004959106445 -8 -32.00009918212891
v -27.99995040893555 -8 -32.00009918212891
v -32.00004959106445 -8 -28.00009918212891
v -48.0001106262207 -4 -20.00009918212891
v -31.4778995513916 -8 -16.03421974182129
v -31.4778995513916 -4 -16.03421974182129
v -31.99990081787109 -8.0001049041748 -16
v -30.96471977233887 -8 -16.13629913330078
v -30.96471977233887 -4 -16.13629913330078
v -30.46927070617676 -8 -16.30447959899902
v -30.46927070617676 -4 -16.30447959899902
v -30 -8 -16.5359001159668
v -30 -4 -16.5359001159668
v -29.56495094299316 -8 -16.82658958435059
v -29.56495094299316 -4 -16.82658958435059
v -29.17156982421875 -8 -17.17156982421875
v -29.17156982421875 -4 -17.17156982421875
v -28.82658958435059 -8 -17.56495094299316
v -28.82658958435059 -4 -17.56495094299316
v -28.5359001159668 -8 -18
v -28.5359001159668 -4 -18
v -28.30447959899902 -8 -18.46925926208496
v -28.30447959899902 -4 -18.46925926208496
v -28.13629913330078 -8 -18.96471977233887
v -28.13629913330078 -4 -18.96471977233887
v -28.03421974182129 -8 -19.47789001464844
v -28.03421974182129 -4 -19.47789001464844
v -52.0001106262207 -4 -15.99989986419678
v -51.99990081787109 -7.99990510940552 -16
v -43.9998893737793 -4 -15.99989986419678
v -43.9998893737793 -4 -20.00009918212891
v -40.0001106262207 -4 -15.99989986419678
v -56.00009918212891 -8.0001049041748 -20
v -27.9998893737793 -4 -15.99989986419678
v -27.99995040893555 -4 -32.00009918212891
v -32.00004959106445 -4 -32.00009918212891
v -44.00009918212891 -8.0001049041748 -20
v -43.99990081787109 -12.00010013580322 -20
v -44.00009918212891 -12.00010013580322 -16
v -27.9998893737793 -8.00000095367432 -15.99989986419678
v -64.00009918212891 -8.0001049041748 -20
v -55.99990081787109 -3.99990510940552 -16
v -51.99990081787109 -8.0001049041748 -20
v -32.00004959106445 -8.00000095367432 -23.99990081787109
v -32.04999923706055 -3.99982500076294 -20
v -32.04999923706055 -8.00000476837158 -20
v -32.02553939819336 -3.99982500076294 -20.00638961791992
v -32.02553939819336 -8.00000476837158 -20.00638961791992
v -32.00637817382812 -8.00000476837158 -20.02555084228516
v -32.0001106262207 -8.00000095367432 -19.99990081787109
v -31.99999046325684 -8.00000476837158 -20.04999923706055
v -32.00637817382812 -3.99982500076294 -20.02555084228516
v -31.99999046325684 -3.99982500076294 -20.04999923706055
v -55.99990081787109 -12.00010013580322 -16
v -51.99990081787109 -12.00010013580322 -16
v -55.99990081787109 -12.00010013580322 -20
v -48.0001106262207 -12 -15.99989986419678
v -28 -3.99990510940552 -28.00009918212891
v -60.00009918212891 -12.00010013580322 -16
v -32.0001106262207 -4 -24.00009918212891
v -48.00009918212891 -8.0001049041748 -20
v -48.00009918212891 -12.00010013580322 -20.00027084350586
v -64.00009918212891 -8.0001049041748 -16
v -64.00009918212891 -3.99990510940552 -16
v -60.00009918212891 -8.0001049041748 -16
v -44.00009918212891 -7.99990510940552 -16
v -40.00009918212891 -7.99990510940552 -16
v -35.9998893737793 -4 -15.99989986419678
v -59.99990081787109 -8.0001049041748 -20
v -60.00009918212891 -12.00010013580322 -20
v -40.00009918212891 -3.99990510940552 -20
v -60.00009918212891 -3.99990510940552 -16
v -55.99990081787109 -8.0001049041748 -16
v -35.99990081787109 -7.99990510940552 -16
v -31.9998893737793 -4 -15.99989986419678
v -28 -8.0001049041748 -19.99990081787109
v -28 -3.99990510940552 -24.00009918212891
v -28 -3.99990510940552 -19.99990081787109
v -27.99995040893555 -8.00000095367432 -23.99990081787109
v -56.00009918212891 -3.99990510940552 -20
v -51.99990081787109 -3.99990510940552 -20
v -35.99990081787109 -12.00010013580322 -20
v -40.00009918212891 -8.0001049041748 -20
v -40.00009918212891 -12.00010013580322 -20
v -40.00009918212891 -12.00010013580322 -16
v -35.99990081787109 -12.00010013580322 -16
v -31.9998893737793 -4 -20.00009918212891
v -48.0001106262207 -4 -15.99989986419678
v -35.99990081787109 -8.0001049041748 -20
v -35.99990081787109 -3.99990510940552 -20
# 117 vertices

vn 0 1 0
vn 0 -1 0
vn -0.98836088180542 0 0.15212762355804
vn -0.9940619468689 0 0.10881585627794
vn -0.99946558475494 0 0.03268841654062
vn -0.9713562130928 0 0.23762805759907
vn -0.96005284786224 0 0.27981880307198
vn -0.93202811479568 0 0.36238592863083
vn -0.91530537605286 0 0.40276059508324
vn -0.87675374746323 0 0.48093953728676
vn -0.85492068529129 0 0.51875877380371
vn -0.80648148059845 0 0.59125930070877
vn -0.77988916635513 0 0.62591761350632
vn -0.72239136695862 0 0.6914843916893
vn -0.6915163397789 0 0.72236084938049
vn -0.62595188617706 0 0.77986168861389
vn -0.59129458665848 0 0.80645567178726
vn -0.51881831884384 0 0.85488450527191
vn -0.48097676038742 0 0.87673336267471
vn -0.40278679132462 0 0.91529381275177
vn -0.36241307854652 0 0.93201756477356
vn -0.27984762191772 0 0.96004444360733
vn -0.23765753209591 0 0.97134900093079
vn -0.15215817093849 0 0.98835617303848
vn -0.10884673893452 0 0.99405854940414
vn -0.03271963447332 0 0.99946457147598
vn 0 0 -1
vn -0.15212762355804 0 -0.98836088180542
vn -0.10881585627794 0 -0.9940619468689
vn -0.03271963447332 0 -0.99946457147598
vn -0.23765753209591 0 -0.97134900093079
vn -0.27984762191772 0 -0.96004444360733
vn -0.36241307854652 0 -0.93201756477356
vn -0.40276059508324 0 -0.91530537605286
vn -0.48095270991325 0 -0.87674653530121
vn -0.51879549026489 0 -0.85489839315414
vn -0.59129458665848 0 -0.80645567178726
vn -0.62595188617706 0 -0.77986168861389
vn -0.6914843916893 0 -0.72239136695862
vn -0.72239136695862 0 -0.6914843916893
vn -0.77986168861389 0 -0.62595188617706
vn -0.80645567178726 0 -0.59129458665848
vn -0.85489839315414 0 -0.51879549026489
vn -0.87674653530121 0 -0.48095270991325
vn -0.91530537605286 0 -0.40276059508324
vn -0.93201756477356 0 -0.36241307854652
vn -0.96004444360733 0 -0.27984762191772
vn -0.97134900093079 0 -0.23765753209591
vn -0.98836088180542 0 -0.15212762355804
vn -0.9940619468689 0 -0.10881585627794
vn -0.99946457147598 0 -0.03271963447332
vn 0 0 1
vn 1 0 0
vn 0.99639415740967 0 0.08484537899494
vn 0.9854970574379 0 0.16969238221645
vn 0.16969238221645 0 0.9854970574379
vn 0.08484537899494 0 0.99639415740967
vn 0 0 1
vn 0.41710123419762 0 0.90886002779007
vn 0.57339525222778 0 0.81927889585495
vn 0.81927889585495 0 0.57339525222778
vn 0.90886002779007 0 0.41710123419762
vn -0.00018750583695 0.99999994039536 -0.00018750583695
vn -0.0001250038913 0.99999994039536 -0.0002500077826
vn -0.00009375291847 0.99999994039536 -0.0003750116739
vn -0.0002500077826 0.99999994039536 -0.0001250038913
vn -0.0003750116739 0.99999994039536 -0.00009375291847
vn -0.00009375291847 -0.99999994039536 -0.00034376070835
vn -0.0001250038913 -0.99999994039536 -0.0002500077826
vn -0.00018750583695 -0.99999994039536 -0.00018750583695
vn -0.0002500077826 -0.99999994039536 -0.0001250038913
vn -0.00034376070835 -0.99999994039536 -0.00009375291847
vn -1 0 0
vn -0.00006250195293 0 1
# 74 normals

vt 1 0 0
vt 0.00003051758176 0 0
vt 1 0.99996948242188 0
vt 0.00003051758176 0.99996948242188 0
vt 0.08368492126465 0.99982607364655 0
vt 0.08376312255859 0.00003051757812 0
vt 0.00042942911386 0.99980980157852 0
vt 0.00050623709103 0.00001525878906 0
vt 0.16701890528202 0.00004577636719 0
vt 0.16693879663944 0.99984240531921 0
vt 0.25026699900627 0.00006103515625 0
vt 0.25019070506096 0.99985861778259 0
vt 0.33352661132812 0.00007629394531 0
vt 0.33345028758049 0.99987477064133 0
vt 0.41677859425545 0.00009155273438 0
vt 0.41670230031013 0.99989092350006 0
vt 0.50003051757812 0.00010681152344 0
vt 0.49996191263199 0.99990677833557 0
vt 0.58328247070312 0.0001220703125 0
vt 0.58320617675781 0.99992257356644 0
vt 0.66654968261719 0.00013732910156 0
vt 0.66647338867188 0.99993807077408 0
vt 0.74980157613754 0.00015258789062 0
vt 0.74972528219223 0.99995362758636 0
vt 0.83305358886719 0.00016784667969 0
vt 0.83297729492188 0.99996900558472 0
vt 0.91630548238754 0.00018310546875 0
vt 0.91622918844223 0.99996888637543 0
vt 0.99955749511719 0.00019836425781 0
vt 0.99948120117188 0.99994242191315 0
vt 1 0.99995040893555 0
vt 0.00003366265082 0.99995040893555 0
vt 0.01253014989197 0 0
vt 0.01253325026482 0.99995040893555 0
vt 0.98750042915344 0 0
vt 0.98750042915344 0.99995040893555 0
vt 0.00003361701965 0.99995040893555 0
vt 0.99583351612091 0.99995040893555 0
vt 0.99583351612091 0 0
vt 1.00416600704193 0.99995040893555 0
vt 1.00416696071625 0 0
vt 1.01250004768372 0.00000011920929 0
vt 1.01250004768372 0.99995052814484 0
vt 0.99884921312332 0.99271547794342 0
vt 1.00063598155975 0.99589782953262 0
vt 1.00395202636719 0.99788492918015 0
vt 0.99580812454224 0.99519562721252 0
vt 0.99168318510056 0.99615037441254 0
# 48 texture coordinates

o Default
usemtl floor_B
f 4/1/1 83/2/1 82/3/1
f 82/3/1 83/2/1 81/4/1
f 89/1/1 4/2/1 84/3/1
f 84/3/1 4/2/1 82/4/1
f 111/1/1 65/2/1 112/3/1
f 112/3/1 65/2/1 66/4/1
f 65/1/1 89/2/1 66/3/1
f 66/3/1 89/2/1 84/4/1

usemtl floor_A
f 2/1/2 1/2/2 91/3/2
f 91/3/2 1/2/2 99/4/2
f 3/1/2 85/2/2 87/3/2
f 87/3/2 85/2/2 104/4/2
f 29/1/1 28/2/1 7/3/1
f 7/3/1 28/2/1 30/4/1
f 58/1/1 31/2/1 57/3/1
f 57/3/1 31/2/1 115/4/1
f 58/1/2 98/2/2 57/3/2
f 57/3/2 98/2/2 59/4/2
f 114/1/2 105/2/2 102/3/2
f 102/3/2 105/2/2 61/4/2
f 63/1/2 62/2/2 3/3/2
f 3/3/2 62/2/2 85/4/2
f 103/1/1 77/2/1 67/3/1
f 67/3/1 77/2/1 34/4/1
f 107/1/2 108/2/2 69/3/2
f 69/3/2 108/2/2 55/4/2
f 77/1/1 116/2/1 34/3/1
f 34/3/1 116/2/1 101/4/1
f 1/1/2 107/2/2 99/3/2
f 99/3/2 107/2/2 69/4/2
f 106/1/1 71/2/1 103/3/1
f 103/3/1 71/2/1 77/4/1
f 87/1/2 104/2/2 114/3/2
f 114/3/2 104/2/2 105/4/2
f 108/1/2 31/2/2 55/3/2
f 55/3/2 31/2/2 115/4/2
f 31/1/1 108/2/1 115/3/1
f 115/3/1 108/2/1 55/4/1
f 117/1/2 114/2/2 95/3/2
f 95/3/2 114/2/2 102/4/2
f 31/1/2 58/2/2 115/3/2
f 115/3/2 58/2/2 57/4/2
f 98/1/2 117/2/2 59/3/2
f 59/3/2 117/2/2 95/4/2
f 7/1/1 30/2/1 106/3/1
f 106/3/1 30/2/1 71/4/1

usemtl concrete_E
f 6/5/3 5/6/4 85/7/5
f 85/7/5 5/6/4 7/8/5
f 6/5/3 8/9/6 5/6/4
f 9/10/7 8/9/6 6/5/3
f 9/10/7 10/11/8 8/9/6
f 11/12/9 10/11/8 9/10/7
f 11/12/9 12/13/10 10/11/8
f 13/14/11 12/13/10 11/12/9
f 13/14/11 14/15/12 12/13/10
f 15/16/13 14/15/12 13/14/11
f 15/16/13 16/17/14 14/15/12
f 17/18/15 16/17/14 15/16/13
f 17/18/15 18/19/16 16/17/14
f 19/20/17 18/19/16 17/18/15
f 19/20/17 20/21/18 18/19/16
f 21/22/19 20/21/18 19/20/17
f 21/22/19 22/23/20 20/21/18
f 23/24/21 22/23/20 21/22/19
f 23/24/21 24/25/22 22/23/20
f 25/26/23 24/25/22 23/24/21
f 25/26/23 26/27/24 24/25/22
f 27/28/25 26/27/24 25/26/23
f 27/28/25 28/29/26 26/27/24
f 63/30/26 28/29/26 27/28/25
f 104/31/73 85/32/73 106/1/73
f 106/1/73 85/32/73 7/2/73

usemtl concrete_A
f 57/31/27 59/32/27 93/1/27
f 93/1/27 59/32/27 94/2/27
f 33/5/28 32/6/29 102/7/30
f 102/7/30 32/6/29 34/8/30
f 33/5/28 35/9/31 32/6/29
f 36/10/32 35/9/31 33/5/28
f 36/10/32 37/11/33 35/9/31
f 38/12/34 37/11/33 36/10/32
f 38/12/34 39/13/35 37/11/33
f 40/14/36 39/13/35 38/12/34
f 40/14/36 41/15/37 39/13/35
f 42/16/38 41/15/37 40/14/36
f 42/16/38 43/17/39 41/15/37
f 44/18/40 43/17/39 42/16/38
f 44/18/40 45/19/41 43/17/39
f 46/20/42 45/19/41 44/18/40
f 46/20/42 47/21/43 45/19/41
f 48/22/44 47/21/43 46/20/42
f 48/22/44 49/23/45 47/21/43
f 50/24/46 49/23/45 48/22/44
f 50/24/46 51/25/47 49/23/45
f 52/26/48 51/25/47 50/24/46
f 52/26/48 53/27/49 51/25/47
f 54/28/50 53/27/49 52/26/48
f 54/28/50 103/29/51 53/27/49
f 105/30/51 103/29/51 54/28/50
f 31/31/52 108/32/52 88/1/52
f 88/1/52 108/32/52 70/2/52
f 2/31/53 91/32/53 68/1/53
f 68/1/53 91/32/53 90/2/53
f 69/31/27 55/32/27 100/1/27
f 100/1/27 55/32/27 56/2/27
f 107/31/52 1/32/52 60/1/52
f 60/1/52 1/32/52 96/2/52
f 110/31/52 64/32/52 111/1/52
f 111/1/52 64/32/52 65/2/52
f 88/31/52 70/32/52 89/1/52
f 89/1/52 70/32/52 4/2/52
f 71/1/53 87/31/53 78/33/54
f 87/31/53 80/34/55 78/33/54
f 73/35/56 72/36/57 116/2/58
f 72/36/57 117/37/58 116/2/58
f 74/38/59 72/36/57 73/35/56
f 75/39/60 74/38/59 73/35/56
f 79/40/61 74/38/59 75/39/60
f 76/41/62 79/40/61 75/39/60
f 78/42/54 80/43/55 76/41/62
f 80/43/55 79/40/61 76/41/62
f 77/44/63 75/45/64 73/46/65
f 77/44/63 76/47/66 75/45/64
f 77/44/63 78/48/67 76/47/66
f 72/46/68 74/45/69 114/44/70
f 74/45/69 79/47/71 114/44/70
f 79/47/71 80/48/72 114/44/70
f 100/31/27 56/32/27 81/1/27
f 81/1/27 56/32/27 82/2/27
f 70/31/52 60/32/52 4/1/52
f 4/1/52 60/32/52 83/2/52
f 92/31/27 100/32/27 86/1/27
f 86/1/27 100/32/27 81/2/27
f 64/31/74 88/32/74 65/1/74
f 65/1/74 88/32/74 89/2/74
f 91/31/27 99/32/27 90/1/27
f 90/1/27 99/32/27 92/2/27
f 93/31/27 94/32/27 66/1/27
f 66/1/27 94/32/27 112/2/27
f 58/31/52 31/32/52 64/1/52
f 64/1/52 31/32/52 88/2/52
f 59/31/27 95/32/27 94/1/27
f 94/1/27 95/32/27 101/2/27
f 60/31/52 96/32/52 83/1/52
f 83/1/52 96/32/52 97/2/52
f 98/31/52 58/32/52 110/1/52
f 110/1/52 58/32/52 64/2/52
f 99/31/27 69/32/27 92/1/27
f 92/1/27 69/32/27 100/2/27
f 95/31/27 102/32/27 101/1/27
f 101/1/27 102/32/27 34/2/27
f 105/31/73 104/32/73 103/1/73
f 103/1/73 104/32/73 106/2/73
f 108/31/52 107/32/52 70/1/52
f 70/1/52 107/32/52 60/2/52
f 1/31/52 2/32/52 96/1/52
f 96/1/52 2/32/52 68/2/52
f 116/31/52 110/32/52 109/1/52
f 109/1/52 110/32/52 111/2/52
f 94/31/27 101/32/27 112/1/27
f 112/1/27 101/32/27 113/2/27
f 117/31/52 98/32/52 116/1/52
f 116/1/52 98/32/52 110/2/52

usemtl floor_C_wet
f 96/1/1 68/2/1 92/3/1
f 92/3/1 68/2/1 90/4/1

