# WaveFront *.obj file (generated by CINEMA 4D)

mtllib ./sector_02.mtl

v 17.98868942260742 3.65775990486145 -12
v 17.98868942260742 3.65775990486145 -16
v 18.34223937988281 3.98868608474731 -12
v 18.01131057739258 3.65775990486145 -16
v 18.01131057739258 3.65775990486145 -12
v 18.34223937988281 3.98868608474731 -16
v 18.01131057739258 4.34223890304565 -12
v 18.34223937988281 4.01131391525269 -16
v 18.34223937988281 4.01131296157837 -12
v 18.01131057739258 4.34223985671997 -16
v 17.65776062011719 4.01131296157837 -12
v 17.98868942260742 4.34223890304565 -12
v 17.65776062011719 3.98868608474731 -16
v 17.65776062011719 4.01131391525269 -16
v 17.65776062011719 3.98868608474731 -12
v 17.98868942260742 4.34223985671997 -16
v 17.36273002624512 -0.00009999999747 -12
v 17.3813304901123 2.41076898574829 -11.96998977661133
v 17.3813304901123 -0.00009999954636 -11.96998977661133
v 17.3813304901123 2.41076898574829 -11.83670043945312
v 17.3813304901123 -0.0000999975673 -11.83670043945312
v 17.36273002624512 -0.00009999700706 -11.80000019073486
v 18.5881404876709 2.41076898574829 -11.83670043945312
v 18.5881404876709 -0.0000999975673 -11.83670043945312
v 18.5881404876709 2.41076898574829 -11.96998977661133
v 18.5881404876709 -0.00009999954636 -11.96998977661133
v 19.99995040893555 3.99998688697815 -11.99989986419678
v 18.60674095153809 -0.00009999999747 -12
v 17.40061950683594 2.43066906929016 -11.83670043945312
v 17.3869800567627 2.42483997344971 -11.83670043945312
v 17.36273002624512 2.44423890113831 -11.80000019073486
v 18.5688591003418 2.43066906929016 -11.83670043945312
v 18.58249092102051 2.42483997344971 -11.83670043945312
v 17.40061950683594 2.43066906929016 -11.96998977661133
v 18.5688591003418 2.43066906929016 -11.96998977661133
v 17.3869800567627 2.42483997344971 -11.96998977661133
v 17.36273002624512 2.44423890113831 -12
v 18.60674095153809 2.44423890113831 -12
v 18.58249092102051 2.42483997344971 -11.96998977661133
v 16.00009918212891 -0.00009999700706 -11.80000019073486
v 16.00009918212891 4.00010013580322 -11.80000019073486
v 18.60674095153809 2.44423890113831 -11.80000019073486
v 18.60674095153809 -0.00009999700706 -11.80000019073486
v 12.00004959106445 -0.00000055157221 -7.99989986419678
v 7.99994993209839 -0.00000056245489 -7.99989986419678
v 12.00010013580322 4.00010013580322 -12
v 21.65776062011719 3.98868608474731 -16
v 21.65776062011719 3.98868608474731 -12
v 22.34223937988281 3.98868608474731 -12
v 22.34223937988281 3.98868608474731 -16
v 22.01131057739258 4.34223890304565 -12
v 22.34223937988281 4.01131391525269 -16
v 22.34223937988281 4.01131296157837 -12
v 22.01131057739258 4.34223985671997 -16
v 21.98868942260742 4.34223985671997 -16
v 21.98868942260742 4.34223890304565 -12
v 21.65776062011719 4.01131296157837 -12
v 21.65776062011719 4.01131391525269 -16
v 21.98868942260742 3.65775990486145 -12
v 22.01131057739258 3.65775990486145 -16
v 21.98868942260742 3.65775990486145 -16
v 22.01131057739258 3.65775990486145 -12
v 21.36273002624512 -0.00009999999747 -12
v 21.3813304901123 2.41076898574829 -11.96998977661133
v 21.3869800567627 2.42483997344971 -11.96998977661133
v 21.3813304901123 -0.00009999954636 -11.96998977661133
v 21.3813304901123 2.41076898574829 -11.83670043945312
v 21.3813304901123 -0.0000999975673 -11.83670043945312
v 21.36273002624512 -0.00009999700706 -11.80000019073486
v 22.5881404876709 2.41076898574829 -11.83670043945312
v 22.5881404876709 -0.0000999975673 -11.83670043945312
v 22.5881404876709 2.41076898574829 -11.96998977661133
v 22.5881404876709 -0.00009999954636 -11.96998977661133
v 22.60674095153809 -0.00009999999747 -12
v 21.40061950683594 2.43066906929016 -11.83670043945312
v 21.3869800567627 2.42483997344971 -11.83670043945312
v 22.60674095153809 2.44423890113831 -11.80000019073486
v 22.5688591003418 2.43066906929016 -11.83670043945312
v 22.58249092102051 2.42483997344971 -11.83670043945312
v 21.40061950683594 2.43066906929016 -11.96998977661133
v 22.5688591003418 2.43066906929016 -11.96998977661133
v 21.36273002624512 2.44423890113831 -12
v 22.60674095153809 2.44423890113831 -12
v 22.58249092102051 2.42483997344971 -11.96998977661133
v 19.99990081787109 -0.00009999700706 -11.80000019073486
v 21.36273002624512 2.44423890113831 -11.80000019073486
v 19.99990081787109 4.00010013580322 -11.80000019073486
v 23.99990081787109 4.00010013580322 -11.80000019073486
v 22.60674095153809 -0.00009999700706 -11.80000019073486
v 25.65776062011719 3.98868608474731 -16
v 25.65776062011719 3.98868608474731 -12
v 26.34223937988281 3.98868608474731 -12
v 26.01131057739258 3.65775990486145 -16
v 26.01131057739258 3.65775990486145 -12
v 26.34223937988281 3.98868608474731 -16
v 26.01131057739258 4.34223890304565 -12
v 26.34223937988281 4.01131391525269 -16
v 26.34223937988281 4.01131296157837 -12
v 26.01131057739258 4.34223985671997 -16
v 25.98868942260742 4.34223985671997 -16
v 25.98868942260742 4.34223890304565 -12
v 25.65776062011719 4.01131296157837 -12
v 25.65776062011719 4.01131391525269 -16
v 25.98868942260742 3.65775990486145 -12
v 25.98868942260742 3.65775990486145 -16
v 7.99989986419678 -0.00009999999747 -12
v 4 -0.00010498890333 -16.00009918212891
v 4 -0.00010490680143 -11.99989986419678
v 28.00004959106445 -0.0000001115129 -12.00010013580322
v 28.00009918212891 -0.00010498890333 -16
v 8.00004959106445 4.00001287460327 -16.00009918212891
v 7.99994993209839 -0.0000001223956 -16.00009918212891
v 25.36273002624512 -0.00009999999747 -12
v 25.3813304901123 2.41076898574829 -11.96998977661133
v 25.3813304901123 -0.00009999954636 -11.96998977661133
v 25.3813304901123 2.41076898574829 -11.83670043945312
v 25.3813304901123 -0.0000999975673 -11.83670043945312
v 25.3869800567627 2.42483997344971 -11.83670043945312
v 26.60674095153809 -0.00009999700706 -11.80000019073486
v 26.5881404876709 2.41076898574829 -11.83670043945312
v 26.5881404876709 -0.0000999975673 -11.83670043945312
v 26.58249092102051 2.42483997344971 -11.96998977661133
v 26.5881404876709 2.41076898574829 -11.96998977661133
v 26.5881404876709 -0.00009999954636 -11.96998977661133
v 23.99995040893555 3.99998688697815 -11.99989986419678
v 28.00004959106445 4.00001382827759 -11.99989986419678
v 26.60674095153809 2.44423890113831 -12
v 26.60674095153809 -0.00009999999747 -12
v 25.40061950683594 2.43066906929016 -11.83670043945312
v 26.60674095153809 2.44423890113831 -11.80000019073486
v 26.5688591003418 2.43066906929016 -11.83670043945312
v 26.58249092102051 2.42483997344971 -11.83670043945312
v 25.40061950683594 2.43066906929016 -11.96998977661133
v 26.5688591003418 2.43066906929016 -11.96998977661133
v 25.3869800567627 2.42483997344971 -11.96998977661133
v 25.36273002624512 2.44423890113831 -12
v 23.99990081787109 -0.00009999700706 -11.80000019073486
v 25.36273002624512 2.44423890113831 -11.80000019073486
v 25.36273002624512 -0.00009999700706 -11.80000019073486
v 28.00009918212891 4.00010013580322 -11.80000019073486
v 28.00009918212891 -0.00009999700706 -11.80000019073486
v 22.63726997375488 -0.00009999999747 -16
v 22.6186695098877 2.41076898574829 -16.03001022338867
v 22.6130199432373 2.42483997344971 -16.03001022338867
v 22.6186695098877 -0.00009999999747 -16.03001022338867
v 22.6186695098877 2.41076898574829 -16.16329956054688
v 22.6186695098877 -0.00009999999747 -16.16329956054688
v 21.39325904846191 -0.00009999999747 -16.20000076293945
v 21.4118595123291 2.41076898574829 -16.16329956054688
v 21.4118595123291 -0.00009999999747 -16.16329956054688
v 21.41750907897949 2.42483997344971 -16.03001022338867
v 21.4118595123291 2.41076898574829 -16.03001022338867
v 21.4118595123291 -0.00009999999747 -16.03001022338867
v 21.39325904846191 2.44423890113831 -16
v 21.39325904846191 -0.00009999999747 -16
v 22.59938049316406 2.43066906929016 -16.16329956054688
v 22.6130199432373 2.42483997344971 -16.16329956054688
v 21.4311408996582 2.43066906929016 -16.16329956054688
v 21.41750907897949 2.42483997344971 -16.16329956054688
v 22.59938049316406 2.43066906929016 -16.03001022338867
v 21.4311408996582 2.43066906929016 -16.03001022338867
v 22.63726997375488 2.44423890113831 -16
v 24.00009918212891 -0.00009999999747 -16.20000076293945
v 22.63726997375488 2.44423890113831 -16.20000076293945
v 22.63726997375488 -0.00009999999747 -16.20000076293945
v 24.00009918212891 4.00010013580322 -16.20000076293945
v 21.39325904846191 2.44423890113831 -16.20000076293945
v 19.99990081787109 4.00010013580322 -16.20000076293945
v 19.99990081787109 -0.00009999999747 -16.20000076293945
v 16.00009918212891 4.00010013580322 -12
v 15.99989986419678 4.00009489059448 -16
v 13.36273002624512 -0.00009999999747 -12
v 13.38132953643799 2.41076898574829 -11.96998977661133
v 13.38132953643799 -0.00009999954636 -11.96998977661133
v 13.38132953643799 2.41076898574829 -11.83670043945312
v 13.38132953643799 -0.0000999975673 -11.83670043945312
v 13.36273002624512 -0.00009999700706 -11.80000019073486
v 14.58813953399658 2.41076898574829 -11.83670043945312
v 14.58813953399658 -0.0000999975673 -11.83670043945312
v 14.58813953399658 2.41076898574829 -11.96998977661133
v 14.58813953399658 -0.00009999954636 -11.96998977661133
v 14.60673999786377 -0.00009999999747 -12
v 12.00010013580322 -0.00009999999747 -12
v 13.36273002624512 2.44423890113831 -12
v 14.60673999786377 2.44423890113831 -12
v 13.40062046051025 2.43066906929016 -11.83670043945312
v 13.3869800567627 2.42483997344971 -11.83670043945312
v 13.36273002624512 2.44423890113831 -11.80000019073486
v 14.60673999786377 2.44423890113831 -11.80000019073486
v 14.56886005401611 2.43066906929016 -11.83670043945312
v 14.58248996734619 2.42483997344971 -11.83670043945312
v 13.40062046051025 2.43066906929016 -11.96998977661133
v 14.56886005401611 2.43066906929016 -11.96998977661133
v 13.3869800567627 2.42483997344971 -11.96998977661133
v 14.58248996734619 2.42483997344971 -11.96998977661133
v 12.00010013580322 -0.00009999700706 -11.80000019073486
v 12.00010013580322 4.00010013580322 -11.80000019073486
v 14.60673999786377 -0.00009999700706 -11.80000019073486
v 13.98869037628174 3.65775990486145 -12
v 13.65775966644287 3.98868608474731 -12
v 14.34224033355713 3.98868608474731 -12
v 14.01130962371826 3.65775990486145 -16
v 14.01130962371826 3.65775990486145 -12
v 14.34224033355713 3.98868608474731 -16
v 14.34224033355713 4.01131391525269 -16
v 14.34224033355713 4.01131296157837 -12
v 13.65775966644287 4.01131296157837 -12
v 13.98869037628174 4.34223890304565 -12
v 13.65775966644287 4.01131391525269 -16
v 13.65775966644287 3.98868608474731 -16
v 13.98869037628174 3.65775990486145 -16
v 14.01130962371826 4.34223890304565 -12
v 13.98869037628174 4.34223985671997 -16
v 14.01130962371826 4.34223985671997 -16
v 10.34224033355713 3.98868608474731 -12
v 10.34224033355713 3.98868608474731 -16
v 10.01130962371826 4.34223890304565 -12
v 10.01130962371826 4.34223985671997 -16
v 9.98868656158447 4.34223890304565 -12
v 9.65776062011719 4.01131296157837 -12
v 9.65776062011719 3.98868608474731 -16
v 9.65776062011719 4.01131391525269 -16
v 9.65776062011719 3.98868608474731 -12
v 9.98868656158447 3.65775990486145 -12
v 10.01130962371826 3.65775990486145 -16
v 9.98868656158447 3.65775990486145 -16
v 10.01130962371826 3.65775990486145 -12
v 10.34224033355713 4.01131391525269 -16
v 10.34224033355713 4.01131296157837 -12
v 9.98868656158447 4.34223985671997 -16
v 11.99989986419678 -0.00010496639879 -16
v 23.99995040893555 3.99998688697815 -16.00009918212891
v 4 4.00009489059448 -16.00009918212891
v 11.99989986419678 4.00009489059448 -16
v 19.99995040893555 -0.00000056245489 -7.99989986419678
v 15.99995040893555 -0.00000056245489 -7.99989986419678
v 5.34223985671997 4.01131391525269 -16
v 5.34223985671997 4.01131296157837 -12
v 4.65776014328003 4.01131296157837 -12
v 4.65776014328003 4.01131391525269 -16
v 4.65776014328003 3.98868608474731 -16
v 4.65776014328003 3.98868608474731 -12
v 4.98868608474731 3.65775990486145 -12
v 5.01131296157837 3.65775990486145 -16
v 4.98868608474731 3.65775990486145 -16
v 5.01131296157837 3.65775990486145 -12
v 5.34223985671997 3.98868608474731 -12
v 5.34223985671997 3.98868608474731 -16
v 5.01131391525269 4.34223890304565 -12
v 4.98868703842163 4.34223985671997 -16
v 5.01131391525269 4.34223985671997 -16
v 4.98868703842163 4.34223890304565 -12
v 20.00009918212891 4.00009489059448 -16
v 24.00004959106445 -0.0000001115129 -16.00009918212891
v 4 4.00009489059448 -11.99989986419678
v 28.00004959106445 -0.00000055157221 -7.99989986419678
v 24.00004959106445 -0.0000001115129 -12.00010013580322
v 24.00004959106445 -0.00000055157221 -7.99989986419678
v 15.99995040893555 -0.0000001223956 -16.00009918212891
v 20.00004959106445 -0.0000001115129 -16.00009918212891
v 15.99995040893555 -0.00000056245489 -11.99989986419678
v 9.38133335113525 2.41076898574829 -11.96998977661133
v 9.38133335113525 -0.00009999954636 -11.96998977661133
v 9.38133335113525 2.41076898574829 -11.83670043945312
v 9.38133335113525 -0.0000999975673 -11.83670043945312
v 9.36273193359375 -0.00009999700706 -11.80000019073486
v 10.58813953399658 2.41076898574829 -11.83670043945312
v 10.60673999786377 2.44423890113831 -11.80000019073486
v 10.58248996734619 2.42483997344971 -11.83670043945312
v 10.58813953399658 -0.0000999975673 -11.83670043945312
v 10.58248996734619 2.42483997344971 -11.96998977661133
v 10.58813953399658 2.41076898574829 -11.96998977661133
v 10.58813953399658 -0.00009999954636 -11.96998977661133
v 10.60673999786377 2.44423890113831 -12
v 10.60673999786377 -0.00009999999747 -12
v 9.36273193359375 -0.00009999999747 -12
v 7.99989986419678 4.00010013580322 -12
v 9.4006175994873 2.43066906929016 -11.83670043945312
v 9.38698101043701 2.42483997344971 -11.83670043945312
v 10.56886005401611 2.43066906929016 -11.83670043945312
v 9.4006175994873 2.43066906929016 -11.96998977661133
v 10.56886005401611 2.43066906929016 -11.96998977661133
v 9.38698101043701 2.42483997344971 -11.96998977661133
v 9.36273193359375 2.44423890113831 -12
v 7.99989986419678 -0.00009999700706 -11.80000019073486
v 9.36273193359375 2.44423890113831 -11.80000019073486
v 7.99989986419678 4.00010013580322 -11.80000019073486
v 10.60673999786377 -0.00009999700706 -11.80000019073486
v 19.99995040893555 -0.0000001223956 -12.00010013580322
v 28.00004959106445 4.00001287460327 -16.00009918212891
# 290 vertices

vn -0.70710676908493 -0.70710676908493 0
vn 0.70710676908493 -0.70710676908493 0
vn 0.70710676908493 0.70710676908493 0
vn -0.70710676908493 0.70710676908493 0
vn -1 0 0
vn 0 -1 0
vn 1 0 0
vn 0 1 0
vn 0.42023825645447 -0.64599877595901 -0.63724833726883
vn 0.93207520246506 -0.18043994903564 -0.31412926316261
vn 0.84993261098862 0 -0.52689135074615
vn 0.61189275979996 -0.72486478090286 -0.31647792458534
vn 0.98333811759949 0 -0.18178598582745
vn 0.96316891908646 -0.14037685096264 0.22934676706791
vn 0.95111095905304 0 0.3088493347168
vn 0.74320143461227 -0.60876142978668 0.27759894728661
vn 0.6655867099762 -0.46364188194275 0.58483380079269
vn 0.89199525117874 0 0.45204472541809
vn -0.45738896727562 -0.6884897351265 0.56282967329025
vn -0.94532245397568 -0.18237692117691 0.27037784457207
vn -0.89199525117874 0 0.45204472541809
vn -0.62195092439651 -0.73223459720612 0.27750599384308
vn -0.98800724744797 0 0.15440739691257
vn -0.73512321710587 -0.59946155548096 -0.3166064620018
vn -0.95452845096588 -0.13703534007072 -0.26475790143013
vn -0.93155413866043 0 -0.36360266804695
vn -0.61520862579346 -0.43076479434967 -0.66027265787125
vn -0.84993261098862 0 -0.52689135074615
vn 0 0 -1
vn 0.19285064935684 -0.95481538772583 0.22613309323788
vn -0.14925247430801 -0.96854740381241 0.19909706711769
vn 0.1457527577877 -0.96183079481125 -0.2315981388092
vn -0.19050371646881 -0.94520598649979 -0.26513016223907
vn 0 0 1
vn 0 0 1
vn -0.42023825645447 -0.64599877595901 0.63724833726883
vn -0.93207520246506 -0.18043994903564 0.31412926316261
vn -0.84993261098862 0 0.52689135074615
vn -0.61189275979996 -0.72486478090286 0.31647792458534
vn -0.98333811759949 0 0.18178598582745
vn -0.96316891908646 -0.14037685096264 -0.22934676706791
vn -0.95111095905304 0 -0.3088493347168
vn -0.74320143461227 -0.60876142978668 -0.27759894728661
vn -0.6655867099762 -0.46364188194275 -0.58483380079269
vn -0.89199525117874 0 -0.45204472541809
vn 0.45738896727562 -0.6884897351265 -0.56282967329025
vn 0.94532245397568 -0.18237692117691 -0.27037784457207
vn 0.89199525117874 0 -0.45204472541809
vn 0.62195092439651 -0.73223459720612 -0.27750599384308
vn 0.98800724744797 0 -0.15440739691257
vn 0.73512321710587 -0.59946155548096 0.3166064620018
vn 0.95452845096588 -0.13703534007072 0.26475790143013
vn 0.93155413866043 0 0.36360266804695
vn 0.61520862579346 -0.43076479434967 0.66027265787125
vn 0.84993261098862 0 0.52689135074615
vn -0.19285064935684 -0.95481538772583 -0.22613309323788
vn 0.14925247430801 -0.96854740381241 -0.19909706711769
vn -0.1457527577877 -0.96183079481125 0.2315981388092
vn 0.19050371646881 -0.94520598649979 0.26513016223907
vn 0 0 -1
# 60 normals

vt 0.37500759959221 0.99996948242188 0
vt 0.37500759959221 0 0
vt 0.49587249755859 0.99996948242188 0
vt 0.49587249755859 0 0
vt 0.50000762939453 0.99996948242188 0
vt 0.50000762939453 0 0
vt 0.62087249755859 0.99996948242188 0
vt 0.62087249755859 0 0
vt 0.62500762939453 0.99996948242188 0
vt 0.62500762939453 0 0
vt 0.74587249755859 0.99996948242188 0
vt 0.74587249755859 0 0
vt 0.25002288818359 0.99996948242188 0
vt 0.25002288818359 0 0
vt 0.37087440490723 0.99996948242188 0
vt 0.37087440490723 0 0
vt 0.75000762939453 0 0
vt 0.75000762939453 0.99996948242188 0
vt 0.39063331484795 0.6104764342308 0
vt 0.3831393122673 0.60211712121964 0
vt 0.39063331484795 0 0
vt 0.3831393122673 0.60563141107559 0
vt 0.3831393122673 0 0
vt 0.34984990954399 0.60211712121964 0
vt 0.34984990954399 0 0
vt 0.34984990954399 0.60563141107559 0
vt 0.34068301320076 0.6104764342308 0
vt 0.34068301320076 0 0
vt 0.60206282138824 0.60612642765045 0
vt 0.6124519109726 0.59843909740448 0
vt 0.60041892528534 0.00024914741516 0
vt 0.61278480291367 0.60222584009171 0
vt 0.61047172546387 0.00020158290863 0
vt 0.64576977491379 0.60234713554382 0
vt 0.64615827798843 0.59866583347321 0
vt 0.64302957057953 0.00003325939178 0
vt 0.65501427650452 0.60617631673813 0
vt 0.65165710449219 0 0
vt 1 0.00003051757812 0
vt 1 0.99996948242188 0
vt 0.65930181741714 0 0
vt 0.65930181741714 0.61106109619141 0
vt 0.00004864018047 0.99995231628418 0
vt 0.34831240773201 0.61106109619141 0
vt 0.00003624055898 0.00003051757812 0
vt 0.34832000732422 0 0
vt 0.34088331460953 0.55971342325211 0
vt 0.34592780470848 0.56982684135437 0
vt 0.3495826125145 0.56952118873596 0
vt 0.65248972177505 0.55927819013596 0
vt 0.64412009716034 0.56876319646835 0
vt 0.6476349234581 0.56905102729797 0
vt 0.34914571046829 0.60248428583145 0
vt 0.64437389373779 0.60165703296661 0
vt 0.3456229865551 0.60208374261856 0
vt 0.65315097570419 0.60991668701172 0
vt 0.64802151918411 0.6012356877327 0
vt 0.34068301320076 0.61104583740234 0
vt 0.00004768465078 0.00003051757812 0
vt 0.00005245301872 0.99995291233063 0
vt 0.65165710449219 0.61104583740234 0
vt 0.99998468160629 0.99995297193527 0
vt 0.99998468160629 0.00003051757812 0
vt 1 0 0
vt 0.00003051758176 0 0
vt 0.00003051758176 0.99996948242188 0
vt 1 0.99995040893555 0
vt 0.00003366265082 0.99995040893555 0
# 68 texture coordinates

o Default
usemtl plaster_A
f 15/1/1 13/2/1 1/3/1
f 1/3/1 13/2/1 2/4/1
f 5/5/2 4/6/2 3/7/2
f 3/7/2 4/6/2 6/8/2
f 9/9/3 8/10/3 7/11/3
f 7/11/3 8/10/3 10/12/3
f 12/13/4 16/14/4 11/15/4
f 11/15/4 16/14/4 14/16/4
f 14/16/5 13/2/5 11/15/5
f 11/15/5 13/2/5 15/1/5
f 2/4/6 4/6/6 1/3/6
f 1/3/6 4/6/6 5/5/6
f 6/8/7 8/10/7 3/7/7
f 3/7/7 8/10/7 9/9/7
f 10/12/8 16/17/8 7/11/8
f 7/11/8 16/17/8 12/18/8
f 234/64/6 171/65/6 46/40/6
f 46/40/6 171/65/6 170/66/6
f 48/1/1 47/2/1 59/3/1
f 59/3/1 47/2/1 61/4/1
f 62/5/2 60/6/2 49/7/2
f 49/7/2 60/6/2 50/8/2
f 53/9/3 52/10/3 51/11/3
f 51/11/3 52/10/3 54/12/3
f 56/13/4 55/14/4 57/15/4
f 57/15/4 55/14/4 58/16/4
f 58/16/5 47/2/5 57/15/5
f 57/15/5 47/2/5 48/1/5
f 61/4/6 60/6/6 59/3/6
f 59/3/6 60/6/6 62/5/6
f 50/8/7 52/10/7 49/7/7
f 49/7/7 52/10/7 53/9/7
f 54/12/8 55/17/8 51/11/8
f 51/11/8 55/17/8 56/18/8
f 91/1/1 90/2/1 104/3/1
f 104/3/1 90/2/1 105/4/1
f 94/5/2 93/6/2 92/7/2
f 92/7/2 93/6/2 95/8/2
f 98/9/3 97/10/3 96/11/3
f 96/11/3 97/10/3 99/12/3
f 101/13/4 100/14/4 102/15/4
f 102/15/4 100/14/4 103/16/4
f 103/16/5 90/2/5 102/15/5
f 102/15/5 90/2/5 91/1/5
f 105/4/6 93/6/6 104/3/6
f 104/3/6 93/6/6 94/5/6
f 95/8/7 97/10/7 92/7/7
f 92/7/7 97/10/7 98/9/7
f 99/12/8 100/17/8 96/11/8
f 96/11/8 100/17/8 101/18/8
f 111/64/6 234/65/6 277/40/6
f 277/40/6 234/65/6 46/66/6
f 171/64/6 253/65/6 170/40/6
f 170/40/6 253/65/6 27/66/6
f 200/1/1 210/2/1 199/3/1
f 199/3/1 210/2/1 211/4/1
f 203/5/2 202/6/2 201/7/2
f 201/7/2 202/6/2 204/8/2
f 206/9/3 205/10/3 212/11/3
f 212/11/3 205/10/3 214/12/3
f 208/13/4 213/14/4 207/15/4
f 207/15/4 213/14/4 209/16/4
f 209/16/5 210/2/5 207/15/5
f 207/15/5 210/2/5 200/1/5
f 211/4/6 202/6/6 199/3/6
f 199/3/6 202/6/6 203/5/6
f 204/8/7 205/10/7 201/7/7
f 201/7/7 205/10/7 206/9/7
f 214/12/8 213/17/8 212/11/8
f 212/11/8 213/17/8 208/18/8
f 223/1/1 221/2/1 224/3/1
f 224/3/1 221/2/1 226/4/1
f 227/5/2 225/6/2 215/7/2
f 215/7/2 225/6/2 216/8/2
f 229/9/3 228/10/3 217/11/3
f 217/11/3 228/10/3 218/12/3
f 219/13/4 230/14/4 220/15/4
f 220/15/4 230/14/4 222/16/4
f 222/16/5 221/2/5 220/15/5
f 220/15/5 221/2/5 223/1/5
f 226/4/6 225/6/6 224/3/6
f 224/3/6 225/6/6 227/5/6
f 216/8/7 228/10/7 215/7/7
f 215/7/7 228/10/7 229/9/7
f 218/12/8 230/17/8 217/11/8
f 217/11/8 230/17/8 219/18/8
f 253/64/6 232/65/6 27/40/6
f 27/40/6 232/65/6 125/66/6
f 242/1/1 241/2/1 243/3/1
f 243/3/1 241/2/1 245/4/1
f 246/5/2 244/6/2 247/7/2
f 247/7/2 244/6/2 248/8/2
f 238/9/3 237/10/3 249/11/3
f 249/11/3 237/10/3 251/12/3
f 252/13/4 250/14/4 239/15/4
f 239/15/4 250/14/4 240/16/4
f 240/16/5 241/2/5 239/15/5
f 239/15/5 241/2/5 242/1/5
f 245/4/6 244/6/6 243/3/6
f 243/3/6 244/6/6 246/5/6
f 248/8/7 237/10/7 247/7/7
f 247/7/7 237/10/7 238/9/7
f 251/12/8 250/17/8 249/11/8
f 249/11/8 250/17/8 252/18/8
f 233/64/6 111/65/6 255/40/6
f 255/40/6 111/65/6 277/66/6
f 232/64/6 290/65/6 125/40/6
f 125/40/6 290/65/6 126/66/6

usemtl concrete_C
f 37/19/9 18/20/10 17/21/11
f 18/20/10 37/19/9 36/22/12
f 17/21/11 18/20/10 19/23/13
f 20/24/14 19/23/13 18/20/10
f 21/25/15 19/23/13 20/24/14
f 20/24/14 18/20/10 30/26/16
f 30/26/16 18/20/10 36/22/12
f 31/27/17 20/24/14 30/26/16
f 31/27/17 21/25/15 20/24/14
f 22/28/18 21/25/15 31/27/17
f 42/29/19 23/30/20 43/31/21
f 42/29/19 33/32/22 23/30/20
f 43/31/21 23/30/20 24/33/23
f 39/34/24 23/30/20 33/32/22
f 25/35/25 23/30/20 39/34/24
f 25/35/25 24/33/23 23/30/20
f 26/36/26 24/33/23 25/35/25
f 25/35/25 38/37/27 26/36/26
f 38/37/27 25/35/25 39/34/24
f 26/36/26 38/37/27 28/38/28
f 261/39/29 170/40/29 17/41/29
f 17/41/29 170/40/29 37/42/29
f 27/43/29 37/42/29 170/40/29
f 38/44/29 37/42/29 27/43/29
f 289/45/29 38/44/29 27/43/29
f 28/46/29 38/44/29 289/45/29
f 31/47/17 30/48/16 29/49/30
f 31/47/17 29/49/30 42/50/19
f 42/50/19 29/49/30 32/51/31
f 42/50/19 32/51/31 33/52/22
f 29/49/30 34/53/32 32/51/31
f 32/51/31 35/54/33 33/52/22
f 32/51/31 34/53/32 35/54/33
f 34/53/32 29/49/30 36/55/12
f 36/55/12 29/49/30 30/48/16
f 37/27/9 34/53/32 36/55/12
f 37/27/9 35/54/33 34/53/32
f 38/56/27 35/54/33 37/27/9
f 38/56/27 39/57/24 35/54/33
f 33/52/22 35/54/33 39/57/24
f 22/28/34 31/58/34 40/59/34
f 40/59/34 31/58/34 41/60/34
f 42/61/34 41/60/34 31/58/34
f 87/62/34 41/60/34 42/61/34
f 43/38/34 87/62/34 42/61/34
f 85/63/34 87/62/34 43/38/34
f 82/19/9 64/20/10 63/21/11
f 64/20/10 82/19/9 65/22/12
f 63/21/11 64/20/10 66/23/13
f 67/24/14 66/23/13 64/20/10
f 68/25/15 66/23/13 67/24/14
f 67/24/14 64/20/10 76/26/16
f 76/26/16 64/20/10 65/22/12
f 86/27/17 67/24/14 76/26/16
f 86/27/17 68/25/15 67/24/14
f 69/28/18 68/25/15 86/27/17
f 77/29/19 70/30/20 89/31/21
f 77/29/19 79/32/22 70/30/20
f 89/31/21 70/30/20 71/33/23
f 84/34/24 70/30/20 79/32/22
f 72/35/25 70/30/20 84/34/24
f 72/35/25 71/33/23 70/30/20
f 73/36/26 71/33/23 72/35/25
f 72/35/25 83/37/27 73/36/26
f 83/37/27 72/35/25 84/34/24
f 73/36/26 83/37/27 74/38/28
f 289/39/29 27/40/29 63/41/29
f 63/41/29 27/40/29 82/42/29
f 125/43/29 82/42/29 27/40/29
f 83/44/29 82/42/29 125/43/29
f 257/45/29 83/44/29 125/43/29
f 74/46/29 83/44/29 257/45/29
f 86/47/17 76/48/16 75/49/30
f 86/47/17 75/49/30 77/50/19
f 77/50/19 75/49/30 78/51/31
f 77/50/19 78/51/31 79/52/22
f 75/49/30 80/53/32 78/51/31
f 78/51/31 81/54/33 79/52/22
f 78/51/31 80/53/32 81/54/33
f 80/53/32 75/49/30 65/55/12
f 65/55/12 75/49/30 76/48/16
f 82/27/9 80/53/32 65/55/12
f 82/27/9 81/54/33 80/53/32
f 83/56/27 81/54/33 82/27/9
f 83/56/27 84/57/24 81/54/33
f 79/52/22 81/54/33 84/57/24
f 69/28/34 86/58/34 85/59/34
f 85/59/34 86/58/34 87/60/34
f 77/61/34 87/60/34 86/58/34
f 88/62/34 87/60/34 77/61/34
f 89/38/34 88/62/34 77/61/34
f 137/63/34 88/62/34 89/38/34
f 234/67/35 111/68/35 231/64/35
f 231/64/35 111/68/35 112/65/35
f 136/19/9 114/20/10 113/21/11
f 114/20/10 136/19/9 135/22/12
f 113/21/11 114/20/10 115/23/13
f 116/24/14 115/23/13 114/20/10
f 117/25/15 115/23/13 116/24/14
f 116/24/14 114/20/10 118/26/16
f 118/26/16 114/20/10 135/22/12
f 138/27/17 116/24/14 118/26/16
f 138/27/17 117/25/15 116/24/14
f 139/28/18 117/25/15 138/27/17
f 130/29/19 120/30/20 119/31/21
f 130/29/19 132/32/22 120/30/20
f 119/31/21 120/30/20 121/33/23
f 122/34/24 120/30/20 132/32/22
f 123/35/25 120/30/20 122/34/24
f 123/35/25 121/33/23 120/30/20
f 124/36/26 121/33/23 123/35/25
f 123/35/25 127/37/27 124/36/26
f 127/37/27 123/35/25 122/34/24
f 124/36/26 127/37/27 128/38/28
f 257/39/29 125/40/29 113/41/29
f 113/41/29 125/40/29 136/42/29
f 126/43/29 136/42/29 125/40/29
f 127/44/29 136/42/29 126/43/29
f 109/45/29 127/44/29 126/43/29
f 128/46/29 127/44/29 109/45/29
f 138/47/17 118/48/16 129/49/30
f 138/47/17 129/49/30 130/50/19
f 130/50/19 129/49/30 131/51/31
f 130/50/19 131/51/31 132/52/22
f 129/49/30 133/53/32 131/51/31
f 131/51/31 134/54/33 132/52/22
f 131/51/31 133/53/32 134/54/33
f 133/53/32 129/49/30 135/55/12
f 135/55/12 129/49/30 118/48/16
f 136/27/9 133/53/32 135/55/12
f 136/27/9 134/54/33 133/53/32
f 127/56/27 134/54/33 136/27/9
f 127/56/27 122/57/24 134/54/33
f 132/52/22 134/54/33 122/57/24
f 139/28/34 138/58/34 137/59/34
f 137/59/34 138/58/34 88/60/34
f 130/61/34 88/60/34 138/58/34
f 140/62/34 88/60/34 130/61/34
f 119/38/34 140/62/34 130/61/34
f 141/63/34 140/62/34 119/38/34
f 162/19/36 143/20/37 142/21/38
f 143/20/37 162/19/36 144/22/39
f 142/21/38 143/20/37 145/23/40
f 146/24/41 145/23/40 143/20/37
f 147/25/42 145/23/40 146/24/41
f 146/24/41 143/20/37 157/26/43
f 157/26/43 143/20/37 144/22/39
f 164/27/44 146/24/41 157/26/43
f 164/27/44 147/25/42 146/24/41
f 165/28/45 147/25/42 164/27/44
f 167/29/46 149/30/47 148/31/48
f 167/29/46 159/32/49 149/30/47
f 148/31/48 149/30/47 150/33/50
f 151/34/51 149/30/47 159/32/49
f 152/35/52 149/30/47 151/34/51
f 152/35/52 150/33/50 149/30/47
f 153/36/53 150/33/50 152/35/52
f 152/35/52 154/37/54 153/36/53
f 154/37/54 152/35/52 151/34/51
f 153/36/53 154/37/54 155/38/55
f 254/39/35 232/40/35 142/41/35
f 142/41/35 232/40/35 162/42/35
f 253/43/35 162/42/35 232/40/35
f 154/44/35 162/42/35 253/43/35
f 260/45/35 154/44/35 253/43/35
f 155/46/35 154/44/35 260/45/35
f 164/47/44 157/48/43 156/49/56
f 164/47/44 156/49/56 167/50/46
f 167/50/46 156/49/56 158/51/57
f 167/50/46 158/51/57 159/52/49
f 156/49/56 160/53/58 158/51/57
f 158/51/57 161/54/59 159/52/49
f 158/51/57 160/53/58 161/54/59
f 160/53/58 156/49/56 144/55/39
f 144/55/39 156/49/56 157/48/43
f 162/27/36 160/53/58 144/55/39
f 162/27/36 161/54/59 160/53/58
f 154/56/54 161/54/59 162/27/36
f 154/56/54 151/57/51 161/54/59
f 159/52/49 161/54/59 151/57/51
f 165/28/60 164/58/60 163/59/60
f 163/59/60 164/58/60 166/60/60
f 167/61/60 166/60/60 164/58/60
f 168/62/60 166/60/60 167/61/60
f 148/38/60 168/62/60 167/61/60
f 169/63/60 168/62/60 148/38/60
f 184/19/9 173/20/10 172/21/11
f 173/20/10 184/19/9 194/22/12
f 172/21/11 173/20/10 174/23/13
f 175/24/14 174/23/13 173/20/10
f 176/25/15 174/23/13 175/24/14
f 175/24/14 173/20/10 187/26/16
f 187/26/16 173/20/10 194/22/12
f 188/27/17 175/24/14 187/26/16
f 188/27/17 176/25/15 175/24/14
f 177/28/18 176/25/15 188/27/17
f 189/29/19 178/30/20 198/31/21
f 189/29/19 191/32/22 178/30/20
f 198/31/21 178/30/20 179/33/23
f 195/34/24 178/30/20 191/32/22
f 180/35/25 178/30/20 195/34/24
f 180/35/25 179/33/23 178/30/20
f 181/36/26 179/33/23 180/35/25
f 180/35/25 185/37/27 181/36/26
f 185/37/27 180/35/25 195/34/24
f 181/36/26 185/37/27 182/38/28
f 183/39/29 46/40/29 172/41/29
f 172/41/29 46/40/29 184/42/29
f 170/43/29 184/42/29 46/40/29
f 185/44/29 184/42/29 170/43/29
f 261/45/29 185/44/29 170/43/29
f 182/46/29 185/44/29 261/45/29
f 188/47/17 187/48/16 186/49/30
f 188/47/17 186/49/30 189/50/19
f 189/50/19 186/49/30 190/51/31
f 189/50/19 190/51/31 191/52/22
f 186/49/30 192/53/32 190/51/31
f 190/51/31 193/54/33 191/52/22
f 190/51/31 192/53/32 193/54/33
f 192/53/32 186/49/30 194/55/12
f 194/55/12 186/49/30 187/48/16
f 184/27/9 192/53/32 194/55/12
f 184/27/9 193/54/33 192/53/32
f 185/56/27 193/54/33 184/27/9
f 185/56/27 195/57/24 193/54/33
f 191/52/22 193/54/33 195/57/24
f 177/28/34 188/58/34 196/59/34
f 196/59/34 188/58/34 197/60/34
f 189/61/34 197/60/34 188/58/34
f 41/62/34 197/60/34 189/61/34
f 198/38/34 41/62/34 189/61/34
f 40/63/34 41/62/34 198/38/34
f 290/67/35 232/68/35 110/64/35
f 110/64/35 232/68/35 254/65/35
f 111/67/35 233/68/35 112/64/35
f 112/64/35 233/68/35 107/65/35
f 171/67/35 234/68/35 259/64/35
f 259/64/35 234/68/35 231/65/35
f 253/67/35 171/68/35 260/64/35
f 260/64/35 171/68/35 259/65/35
f 255/67/60 277/68/60 108/64/60
f 108/64/60 277/68/60 106/65/60
f 233/67/7 255/68/7 107/64/7
f 107/64/7 255/68/7 108/65/7
f 284/19/9 262/20/10 276/21/11
f 262/20/10 284/19/9 283/22/12
f 276/21/11 262/20/10 263/23/13
f 264/24/14 263/23/13 262/20/10
f 265/25/15 263/23/13 264/24/14
f 264/24/14 262/20/10 279/26/16
f 279/26/16 262/20/10 283/22/12
f 286/27/17 264/24/14 279/26/16
f 286/27/17 265/25/15 264/24/14
f 266/28/18 265/25/15 286/27/17
f 268/29/19 267/30/20 288/31/21
f 268/29/19 269/32/22 267/30/20
f 288/31/21 267/30/20 270/33/23
f 271/34/24 267/30/20 269/32/22
f 272/35/25 267/30/20 271/34/24
f 272/35/25 270/33/23 267/30/20
f 273/36/26 270/33/23 272/35/25
f 272/35/25 274/37/27 273/36/26
f 274/37/27 272/35/25 271/34/24
f 273/36/26 274/37/27 275/38/28
f 106/39/29 277/40/29 276/41/29
f 276/41/29 277/40/29 284/42/29
f 46/43/29 284/42/29 277/40/29
f 274/44/29 284/42/29 46/43/29
f 183/45/29 274/44/29 46/43/29
f 275/46/29 274/44/29 183/45/29
f 286/47/17 279/48/16 278/49/30
f 286/47/17 278/49/30 268/50/19
f 268/50/19 278/49/30 280/51/31
f 268/50/19 280/51/31 269/52/22
f 278/49/30 281/53/32 280/51/31
f 280/51/31 282/54/33 269/52/22
f 280/51/31 281/53/32 282/54/33
f 281/53/32 278/49/30 283/55/12
f 283/55/12 278/49/30 279/48/16
f 284/27/9 281/53/32 283/55/12
f 284/27/9 282/54/33 281/53/32
f 274/56/27 282/54/33 284/27/9
f 274/56/27 271/57/24 282/54/33
f 269/52/22 282/54/33 271/57/24
f 266/28/34 286/58/34 285/59/34
f 285/59/34 286/58/34 287/60/34
f 268/61/34 287/60/34 286/58/34
f 197/62/34 287/60/34 268/61/34
f 288/38/34 197/62/34 268/61/34
f 196/63/34 197/62/34 288/38/34

usemtl floor_A
f 183/64/8 106/65/8 44/40/8
f 44/40/8 106/65/8 45/66/8
f 110/64/8 254/65/8 109/40/8
f 109/40/8 254/65/8 257/66/8
f 259/64/8 231/65/8 261/40/8
f 261/40/8 231/65/8 183/66/8
f 231/64/8 112/65/8 183/40/8
f 183/40/8 112/65/8 106/66/8
f 289/64/8 261/65/8 235/40/8
f 235/40/8 261/65/8 236/66/8
f 254/64/8 260/65/8 257/40/8
f 257/40/8 260/65/8 289/66/8
f 109/64/8 257/65/8 256/40/8
f 256/40/8 257/65/8 258/66/8
f 260/64/8 259/65/8 289/40/8
f 289/40/8 259/65/8 261/66/8
f 257/64/8 289/65/8 258/40/8
f 258/40/8 289/65/8 235/66/8

usemtl floor_C_wet
f 112/64/8 107/65/8 106/40/8
f 106/40/8 107/65/8 108/66/8

