# WaveFront *.obj file (generated by CINEMA 4D)

mtllib ./sector_04.mtl

v 7.99989986419678 -0.00010496639879 -0.00001335176967
v 8.00010013580322 -0.00010496639879 4.0000171661377
v 9.75 -1.99999904632568 0.01600001938641
v 9.73400020599365 -1.99999904632568 0.5
v 9.73400020599365 1.99227297306061 0.00414111884311
v 9.26599979400635 1.99227297306061 0.00414109090343
v 9.73400020599365 -1.99999904632568 0.00000001394749
v 9.73400020599365 0.12570199370384 0.5
v 9.26599979400635 0.12570199370384 0.5
v 9.26599979400635 -1.99999904632568 0.5
v 9.25 -1.99999904632568 0.4839999973774
v 9.73400020599365 0.15715670585632 0.49585890769958
v 9.25 -1.99999904632568 0.01599998958409
v 9.25 1.88619494438171 0.01599998958409
v 9.26599979400635 -1.99999904632568 -0.00000001394749
v 9.26599979400635 0.15715670585632 0.49585890769958
v 9.25 0.13959540426731 0.4839999973774
v 9.75 0.13959540426731 0.4839999973774
v 9.75 -1.99999904632568 0.4839999973774
v 9.75 1.88619494438171 0.01600001938641
v 11.99999046325684 4.00009489059448 -3.99990010261536
v 4.19999980926514 4.00010013580322 -0.00010013580322
v 4.19999980926514 8.00009536743164 4.0001049041748
v 4.19999980926514 8.00009536743164 -0.00009632111323
v 4.19999980926514 4.00010013580322 4.00010013580322
v 15.51599979400635 6.99999809265137 0.75
v 15.98400020599365 6.99999809265137 0.75
v 15.5 6.99999809265137 1.23399996757507
v 15.5 6.99999809265137 0.76599997282028
v 15.98400020599365 6.99999809265137 1.25
v 15.51599979400635 6.99999809265137 1.25
v 15.99586009979248 3.0077269077301 0.76599997282028
v 15.98400020599365 3.11380505561829 0.75
v 16 6.99999809265137 0.76599997282028
v 15.5 4.87429809570312 0.76599997282028
v 15.51599979400635 4.8604040145874 0.75
v 15.50413990020752 4.8428430557251 1.23399996757507
v 15.5 4.87429809570312 1.23399996757507
v 15.51599979400635 4.8604040145874 1.25
v 15.50413990020752 4.8428430557251 0.76599997282028
v 15.99586009979248 3.0077269077301 1.23399996757507
v 16 6.99999809265137 1.23399996757507
v 15.98400020599365 3.11380505561829 1.25
v 15.51599979400635 6.99999809265137 2.75
v 15.98400020599365 6.99999809265137 2.75
v 15.5 6.99999809265137 3.23399996757507
v 15.5 4.87429809570312 2.76600003242493
v 15.5 4.87429809570312 3.23399996757507
v 15.51599979400635 6.99999809265137 3.25
v 15.99586009979248 3.0077269077301 3.23399996757507
v 15.50413990020752 4.8428430557251 3.23399996757507
v 15.99586009979248 3.0077269077301 2.76600003242493
v 16 6.99999809265137 2.76600003242493
v 15.50413990020752 4.8428430557251 2.76600003242493
v 15.5 6.99999809265137 2.76600003242493
v 15.98400020599365 6.99999809265137 3.25
v 15.98400020599365 3.11380505561829 3.25
v 16 6.99999809265137 3.23399996757507
v 15.51599979400635 4.8604040145874 3.25
v 15.51599979400635 4.8604040145874 2.75
v 15.98400020599365 3.11380505561829 2.75
v 15.98400020599365 6.99999809265137 -3.25
v 15.98400020599365 6.99999809265137 -2.75
v 15.51599979400635 4.8604040145874 -2.75
v 15.51599979400635 6.99999809265137 -2.75
v 15.98400020599365 3.11380505561829 -2.75
v 15.99586009979248 3.0077269077301 -3.23399996757507
v 15.99586009979248 3.0077269077301 -2.76600003242493
v 15.50413990020752 4.8428430557251 -3.23399996757507
v 15.98400020599365 3.11380505561829 -3.25
v 16 6.99999809265137 -3.23399996757507
v 15.51599979400635 4.8604040145874 -3.25
v 15.5 4.87429809570312 -3.23399996757507
v 15.5 6.99999809265137 -3.23399996757507
v 15.5 4.87429809570312 -2.76600003242493
v 15.5 6.99999809265137 -2.76600003242493
v 15.50413990020752 4.8428430557251 -2.76600003242493
v 16 6.99999809265137 -2.76600003242493
v 15.51599979400635 6.99999809265137 -3.25
v 5.74999904632568 -1.99999904632568 0.4839999973774
v 5.26599884033203 -1.99999904632568 0.5
v 5.26599884033203 0.12570199370384 0.5
v 5.24999904632568 -1.99999904632568 0.01599998958409
v 5.24999904632568 0.13959540426731 0.4839999973774
v 5.24999904632568 -1.99999904632568 0.4839999973774
v 5.24999904632568 1.88619494438171 0.01599998958409
v 5.26599884033203 1.99227297306061 0.00414109090343
v 5.73399877548218 0.15715670585632 0.49585890769958
v 5.73399877548218 -1.99999904632568 0.00000001394749
v 5.74999904632568 -1.99999904632568 0.01600001938641
v 5.73399877548218 1.99227297306061 0.00414111884311
v 5.73399877548218 -1.99999904632568 0.5
v 5.73399877548218 0.12570199370384 0.5
v 5.26599884033203 0.15715670585632 0.49585890769958
v 5.26599884033203 -1.99999904632568 -0.00000001394749
v 5.74999904632568 0.13959540426731 0.4839999973774
v 5.74999904632568 1.88619494438171 0.01600001938641
v 15.98400020599365 3.11380505561829 -1.25
v 15.98400020599365 6.99999809265137 -1.25
v 15.5 6.99999809265137 -0.76599997282028
v 15.51599979400635 4.8604040145874 -0.75
v 15.98400020599365 3.11380505561829 -0.75
v 15.99586009979248 3.0077269077301 -0.76599997282028
v 15.50413990020752 4.8428430557251 -0.76599997282028
v 16 6.99999809265137 -1.23399996757507
v 15.5 4.87429809570312 -1.23399996757507
v 15.50413990020752 4.8428430557251 -1.23399996757507
v 15.51599979400635 4.8604040145874 -1.25
v 15.51599979400635 6.99999809265137 -1.25
v 15.5 6.99999809265137 -1.23399996757507
v 15.99586009979248 3.0077269077301 -1.23399996757507
v 15.51599979400635 6.99999809265137 -0.75
v 15.5 4.87429809570312 -0.76599997282028
v 15.98400020599365 6.99999809265137 -0.75
v 16 6.99999809265137 -0.76599997282028
v 16 -0.00010496749746 -11.80000019073486
v 4 -0.00009999999747 4.00010013580322
v 11.99989986419678 -0.00000012239281 -12.00010013580322
v 16.00009918212891 -0.0000001115157 -12.00010013580322
v 11.99989986419678 -0.00000012239281 -8.00010013580322
v 12 -0.00010496749746 -11.80000019073486
v 11.75 -1.99999904632568 0.01600001938641
v 11.73400020599365 -1.99999904632568 0.5
v 11.26599979400635 0.12570199370384 0.5
v 11.25 -1.99999904632568 0.01599998958409
v 11.26599979400635 1.99227297306061 0.00414109090343
v 11.73400020599365 0.15715670585632 0.49585890769958
v 11.73400020599365 -1.99999904632568 0.00000001394749
v 11.73400020599365 0.12570199370384 0.5
v 11.25 0.13959540426731 0.4839999973774
v 11.26599979400635 -1.99999904632568 0.5
v 11.25 -1.99999904632568 0.4839999973774
v 11.25 1.88619494438171 0.01599998958409
v 11.26599979400635 -1.99999904632568 -0.00000001394749
v 11.26599979400635 0.15715670585632 0.49585890769958
v 11.75 -1.99999904632568 0.4839999973774
v 11.75 1.88619494438171 0.01600001938641
v 11.75 0.13959540426731 0.4839999973774
v 11.73400020599365 1.99227297306061 0.00414111884311
v 16 8.00009536743164 0.00009999999747
v 16.00009918212891 8.00009536743164 4.0000171661377
v 12.04176044464111 4.45012617111206 -4.00009918212891
v 12.04160976409912 4.45022487640381 -0.00000014131621
v 11.99999046325684 4.00009489059448 0.00010013580322
v 12.08541011810303 4.63063287734985 -4.00009918212891
v 12.08526039123535 4.63073301315308 -0.0000002685064
v 12.15417003631592 4.83165311813354 -4.00009918212891
v 12.15402984619141 4.83175182342529 -0.00000046735369
v 12.22262001037598 4.98863220214844 -4.00009918212891
v 12.30463027954102 5.14795112609863 -4.00009918212891
v 12.60466957092285 5.59123277664185 -4.00009918212891
v 12.77667045593262 5.78079414367676 -4.00009918212891
v 12.95162010192871 5.94412279129028 -4.00009918212891
v 13.17171955108643 6.12122106552124 -4.00009918212891
v 13.47968006134033 6.33175182342529 -4.00009918212891
v 15.64618968963623 6.9895920753479 -4.00009822845459
v 15.64605045318604 6.98969221115112 -0.00001041104042
v 16.00001907348633 6.99989986419678 -4.00009822845459
v 16 7 -0.00001130600958
v 16 -0.00010496639879 -8.00010108947754
v 8.00010013580322 4.24184989929199 0.0114856697619
v 8.00010013580322 4.45012617111206 0.04176113009453
v 8.00010013580322 3.99990010261536 0.00014769479458
v 12 4.83175182342529 0.15402719378471
v 8.00010013580322 4.83165311813354 0.15417489409447
v 12 4.98873090744019 0.22247250378132
v 8.00010013580322 4.98863220214844 0.22262020409107
v 12 5.14804983139038 0.30448180437088
v 8.00010013580322 5.14795017242432 0.3046295940876
v 12 5.38936281204224 0.452632188797
v 12 5.94422292709351 0.95147752761841
v 8.00010013580322 5.94412279129028 0.95162522792816
v 12 6.12131977081299 1.17157304286957
v 8.00010013580322 6.12122106552124 1.1717209815979
v 12 6.33185195922852 1.47952997684479
v 8.00010013580322 6.33175182342529 1.47967803478241
v 12 6.49696779251099 1.77543902397156
v 8.00010013580322 6.49686813354492 1.77558696269989
v 8.00010013580322 6.96163511276245 3.33927297592163
v 8.00010013580322 6.9895920753479 3.64619398117065
v 8.00010013580322 6.99989986419678 4.00002384185791
v 4 4.00010013580322 4.00010013580322
v 7.99989986419678 8.00009536743164 4
v 3.99990010261536 8.00009536743164 4
v 15.51599979400635 6.99999809265137 -10.75
v 15.98400020599365 3.11380505561829 -10.75
v 15.99586009979248 3.0077269077301 -11.23400020599365
v 15.99586009979248 3.0077269077301 -10.76599979400635
v 15.50413990020752 4.8428430557251 -11.23400020599365
v 15.50413990020752 4.8428430557251 -10.76599979400635
v 16 6.99999809265137 -11.23400020599365
v 15.98400020599365 6.99999809265137 -11.25
v 15.5 4.87429809570312 -11.23400020599365
v 15.5 6.99999809265137 -11.23400020599365
v 15.5 6.99999809265137 -10.76599979400635
v 15.5 4.87429809570312 -10.76599979400635
v 15.98400020599365 6.99999809265137 -10.75
v 16 6.99999809265137 -10.76599979400635
v 15.51599979400635 4.8604040145874 -10.75
v 15.51599979400635 6.99999809265137 -11.25
v 15.98400020599365 3.11380505561829 -11.25
v 15.51599979400635 4.8604040145874 -11.25
v 12.04174995422363 4.45012617111206 -12.00010013580322
v 12.01146984100342 4.24184989929199 -12.00010013580322
v 12.08539962768555 4.63063287734985 -12.00010013580322
v 12.15415954589844 4.83165311813354 -12.00010013580322
v 12.15417003631592 4.83165311813354 -8.00010013580322
v 12.22261047363281 4.98863220214844 -12.00010013580322
v 12.22262001037598 4.98863220214844 -8.00010013580322
v 12.00014019012451 3.99990010261536 -12.00010013580322
v 12.30461978912354 5.14795017242432 -12.00010013580322
v 12.30463027954102 5.14795017242432 -8.00010013580322
v 12.4527702331543 5.38926410675049 -12.00010013580322
v 12.60466003417969 5.59123277664185 -12.00010013580322
v 12.77665996551514 5.78079414367676 -12.00010013580322
v 12.95160961151123 5.94412279129028 -12.00010013580322
v 13.17171001434326 6.12122106552124 -12.00010013580322
v 13.47966957092285 6.33175182342529 -12.00010013580322
v 13.77558040618896 6.49686813354492 -12.00010013580322
v 13.77558994293213 6.49686813354492 -8.00010013580322
v 14.092209815979 6.63871908187866 -12.00010013580322
v 14.46940040588379 6.77153921127319 -12.00010013580322
v 14.46940994262695 6.77153921127319 -8.00010013580322
v 14.9209098815918 6.89090204238892 -12.00010013580322
v 14.92092037200928 6.89090204238892 -8.00010013580322
v 15.33926010131836 6.96163511276245 -12.00010013580322
v 15.64618015289307 6.9895920753479 -12.00010013580322
v 15.64620018005371 6.9895920753479 -8.00010013580322
v 16.00000953674316 6.99989986419678 -12.00010013580322
v 16.00001907348633 6.99989986419678 -8.00010013580322
v 4.26599979400635 -1.99999904632568 0.5
v 4.73400020599365 0.12570199370384 0.5
v 4.73400020599365 -1.99999904632568 0.5
v 4.25 -1.99999904632568 0.01599998958409
v 4.25 -1.99999904632568 0.4839999973774
v 4.26599979400635 0.15715670585632 0.49585890769958
v 4.73400020599365 1.99227297306061 0.00414111884311
v 4.73400020599365 -1.99999904632568 0.00000001394749
v 4.75 -1.99999904632568 0.01600001938641
v 4.25 0.13959540426731 0.4839999973774
v 4.26599979400635 0.12570199370384 0.5
v 4.73400020599365 0.15715670585632 0.49585890769958
v 4.26599979400635 1.99227297306061 0.00414109090343
v 4.25 1.88619494438171 0.01599998958409
v 4.26599979400635 -1.99999904632568 -0.00000001394749
v 4.75 -1.99999904632568 0.4839999973774
v 4.75 1.88619494438171 0.01600001938641
v 4.75 0.13959540426731 0.4839999973774
v 16.00001907348633 8.00009536743164 -12.00010013580322
v 16.00001907348633 3.9998950958252 -12.00010013580322
v 15.98400020599365 6.99999809265137 -7.25
v 15.5 6.99999809265137 -6.76599979400635
v 15.5 6.99999809265137 -7.23400020599365
v 15.98400020599365 6.99999809265137 -6.75
v 15.51599979400635 6.99999809265137 -6.75
v 15.98400020599365 3.11380505561829 -6.75
v 15.99586009979248 3.0077269077301 -6.76599979400635
v 15.50413990020752 4.8428430557251 -6.76599979400635
v 15.99586009979248 3.0077269077301 -7.23400020599365
v 15.98400020599365 3.11380505561829 -7.25
v 16 6.99999809265137 -7.23400020599365
v 15.5 4.87429809570312 -7.23400020599365
v 15.51599979400635 6.99999809265137 -7.25
v 15.5 4.87429809570312 -6.76599979400635
v 15.50413990020752 4.8428430557251 -7.23400020599365
v 16 6.99999809265137 -6.76599979400635
v 15.51599979400635 4.8604040145874 -6.75
v 15.51599979400635 4.8604040145874 -7.25
v 16.00009918212891 -0.00000055157489 0.00009989737737
v 16 4.00009489059448 -3.99990010261536
v 16.00009918212891 -0.00000055157489 4.00010013580322
v 11.99989986419678 -0.00000056245221 4.00010013580322
v 12 4.24195003509521 0.01133796013892
v 12.01134014129639 4.24195003509521 -0.00000005155304
v 12 4.45022487640381 0.04161341115832
v 12 4.63073301315308 0.08526036143303
v 12.2224702835083 4.98873090744019 -0.00000066447302
v 12.30447959899902 5.14804983139038 -0.0000009001231
v 12.45263004302979 5.38936281204224 -0.00000132496598
v 12 5.59133291244507 0.60452461242676
v 12.60451984405518 5.59133291244507 -0.00000176468404
v 12 5.78089380264282 0.7765212059021
v 12.77651977539062 5.78089380264282 -0.00000225626104
v 12.9514799118042 5.94422292709351 -0.00000275070397
v 13.17156982421875 6.12131977081299 -0.00000337849997
v 13.47953033447266 6.33185195922852 -0.00000426017596
v 13.77544021606445 6.49696779251099 -0.00000510207019
v 12.00000953674316 6.63881921768188 2.09207510948181
v 14.09208011627197 6.63881921768188 -0.00000600210615
v 12.00000953674316 6.77163791656494 2.46926593780518
v 14.46926975250244 6.77163791656494 -0.00000707340814
v 12.00000953674316 6.89100122451782 2.92076992988586
v 14.92076969146729 6.89100217819214 -0.00000835606261
v 12.00000953674316 6.9617338180542 3.33912491798401
v 15.33913040161133 6.9617338180542 -0.00000954122697
v 12.00000953674316 6.98969221115112 3.64604592323303
v 12.00000953674316 7 4
v 16.00000953674316 7 3.99998903274536
v 12.04176044464111 4.45012617111206 -8.00010013580322
v 12.01148986816406 4.24184989929199 -4.00009918212891
v 12.01148986816406 4.24184989929199 -8.00010013580322
v 12 4.00009489059448 -4.00010013580322
v 12.08541011810303 4.63063287734985 -8.00010013580322
v 12.00014972686768 3.99990010261536 -8.00010013580322
v 12.45277976989746 5.38926410675049 -8.00010013580322
v 12.45277976989746 5.38926410675049 -4.00009918212891
v 12.60466957092285 5.59123277664185 -8.00010013580322
v 12.77667045593262 5.78079414367676 -8.00010013580322
v 12.95162963867188 5.94412279129028 -8.00010013580322
v 13.17171955108643 6.12122106552124 -8.00010013580322
v 13.47968006134033 6.33175182342529 -8.00010013580322
v 13.77558994293213 6.49686813354492 -4.00009918212891
v 14.09222030639648 6.63871908187866 -8.00010013580322
v 14.09222030639648 6.63871908187866 -4.00009918212891
v 14.46940994262695 6.77153921127319 -4.00009918212891
v 14.92092037200928 6.89090204238892 -4.00009918212891
v 15.33926963806152 6.96163511276245 -8.00010013580322
v 15.33926963806152 6.96163511276245 -4.00009822845459
v 11.99989986419678 -0.00000012239281 -4.00010013580322
v 11.99989986419678 -0.00000056245221 0.00009965897334
v 6.74999904632568 -1.99999904632568 0.4839999973774
v 6.74999904632568 1.88619494438171 0.01600001938641
v 6.74999904632568 -1.99999904632568 0.01600001938641
v 6.26599884033203 -1.99999904632568 0.5
v 6.26599884033203 0.12570199370384 0.5
v 6.24999904632568 -1.99999904632568 0.01599998958409
v 6.24999904632568 0.13959540426731 0.4839999973774
v 6.24999904632568 -1.99999904632568 0.4839999973774
v 6.26599884033203 1.99227297306061 0.00414109090343
v 6.26599884033203 0.15715670585632 0.49585890769958
v 6.73399877548218 -1.99999904632568 0.00000001394749
v 6.73399877548218 -1.99999904632568 0.5
v 6.73399877548218 1.99227297306061 0.00414111884311
v 6.73399877548218 0.15715670585632 0.49585890769958
v 6.73399877548218 0.12570199370384 0.5
v 6.26599884033203 -1.99999904632568 -0.00000001394749
v 6.24999904632568 1.88619494438171 0.01599998958409
v 6.74999904632568 0.13959540426731 0.4839999973774
v 15.51599979400635 6.99999809265137 -5.25
v 15.98400020599365 3.11380505561829 -5.25
v 15.98400020599365 6.99999809265137 -5.25
v 15.98400020599365 6.99999809265137 -4.75
v 15.51599979400635 6.99999809265137 -4.75
v 15.99586009979248 3.0077269077301 -5.23400020599365
v 15.50413990020752 4.8428430557251 -5.23400020599365
v 15.50413990020752 4.8428430557251 -4.76599979400635
v 16 6.99999809265137 -5.23400020599365
v 15.5 6.99999809265137 -5.23400020599365
v 15.51599979400635 4.8604040145874 -4.75
v 15.5 6.99999809265137 -4.76599979400635
v 15.5 4.87429809570312 -4.76599979400635
v 15.5 4.87429809570312 -5.23400020599365
v 15.98400020599365 3.11380505561829 -4.75
v 16 6.99999809265137 -4.76599979400635
v 15.99586009979248 3.0077269077301 -4.76599979400635
v 15.51599979400635 4.8604040145874 -5.25
v 4.00010013580322 4.24184989929199 0.01148574985564
v 4.00010013580322 4.45012617111206 0.04176120087504
v 4 4.00010013580322 -0.00010013580322
v 8.00010013580322 4.63063287734985 0.08540807664394
v 4.00010013580322 4.63063287734985 0.08540815860033
v 4.00010013580322 4.83165311813354 0.1541749984026
v 4.00010013580322 4.98863220214844 0.22262029349804
v 4.00010013580322 5.14795112609863 0.30462971329689
v 8.00010013580322 5.38926410675049 0.45277988910675
v 4.00010013580322 5.38926410675049 0.45278009772301
v 8.00010013580322 5.59123277664185 0.60467231273651
v 4.00010013580322 5.59123277664185 0.60467237234116
v 8.00010013580322 5.78079414367676 0.77666890621185
v 4.00010013580322 5.78079414367676 0.77666902542114
v 4.00010013580322 5.94412279129028 0.95162528753281
v 4.00010013580322 6.12122106552124 1.1717209815979
v 4.00010013580322 6.33175182342529 1.47967803478241
v 4.00010013580322 6.49686813354492 1.77558696269989
v 8.00010013580322 6.63871908187866 2.09222292900085
v 4.00010013580322 6.63871908187866 2.09222292900085
v 8.00010013580322 6.77153921127319 2.4694139957428
v 4.00010013580322 6.77153921127319 2.4694139957428
v 8.00010013580322 6.89090204238892 2.92091798782349
v 4.00010013580322 6.89090204238892 2.92091798782349
v 4.00010013580322 6.96163511276245 3.33927297592163
v 4.00010013580322 6.9895920753479 3.64619398117065
v 4.00010013580322 6.99989986419678 4.00002384185791
v 15.98400020599365 6.99999809265137 -9.25
v 15.5 4.87429809570312 -9.23400020599365
v 15.51599979400635 6.99999809265137 -8.75
v 15.98400020599365 3.11380505561829 -8.75
v 15.99586009979248 3.0077269077301 -9.23400020599365
v 15.99586009979248 3.0077269077301 -8.76599979400635
v 15.50413990020752 4.8428430557251 -9.23400020599365
v 16 6.99999809265137 -9.23400020599365
v 15.51599979400635 6.99999809265137 -9.25
v 15.5 6.99999809265137 -9.23400020599365
v 15.5 6.99999809265137 -8.76599979400635
v 15.5 4.87429809570312 -8.76599979400635
v 15.98400020599365 6.99999809265137 -8.75
v 16 6.99999809265137 -8.76599979400635
v 15.50413990020752 4.8428430557251 -8.76599979400635
v 15.51599979400635 4.8604040145874 -8.75
v 15.51599979400635 4.8604040145874 -9.25
v 15.98400020599365 3.11380505561829 -9.25
v 16 3.9998950958252 0.00009994042921
v 16 8.00009536743164 -3.99990010261536
v 16 3.9998950958252 -3.99990010261536
v 8.26599979400635 -1.99999904632568 0.5
v 8.73400020599365 -1.99999904632568 0.5
v 8.25 -1.99999904632568 0.01599998958409
v 8.25 -1.99999904632568 0.4839999973774
v 8.25 1.88619494438171 0.01599998958409
v 8.73400020599365 0.15715670585632 0.49585890769958
v 8.73400020599365 1.99227297306061 0.00414111884311
v 8.73400020599365 -1.99999904632568 0.00000001394749
v 8.75 -1.99999904632568 0.01600001938641
v 8.25 0.13959540426731 0.4839999973774
v 8.26599979400635 0.15715670585632 0.49585890769958
v 8.26599979400635 0.12570199370384 0.5
v 8.73400020599365 0.12570199370384 0.5
v 8.26599979400635 -1.99999904632568 -0.00000001394749
v 8.26599979400635 1.99227297306061 0.00414109090343
v 8.75 1.88619494438171 0.01600001938641
v 8.75 -1.99999904632568 0.4839999973774
v 8.75 0.13959540426731 0.4839999973774
v 10.26599979400635 -1.99999904632568 0.5
v 10.73400020599365 -1.99999904632568 0.5
v 10.26599979400635 0.12570199370384 0.5
v 10.73400020599365 -1.99999904632568 0.00000001394749
v 10.75 -1.99999904632568 0.01600001938641
v 10.73400020599365 0.12570199370384 0.5
v 10.75 0.13959540426731 0.4839999973774
v 10.25 -1.99999904632568 0.4839999973774
v 10.73400020599365 0.15715670585632 0.49585890769958
v 10.26599979400635 1.99227297306061 0.00414109090343
v 10.25 1.88619494438171 0.01599998958409
v 10.25 -1.99999904632568 0.01599998958409
v 10.26599979400635 -1.99999904632568 -0.00000001394749
v 10.26599979400635 0.15715670585632 0.49585890769958
v 10.25 0.13959540426731 0.4839999973774
v 10.75 -1.99999904632568 0.4839999973774
v 10.75 1.88619494438171 0.01600001938641
v 10.73400020599365 1.99227297306061 0.00414111884311
v 7.73399877548218 0.12570199370384 0.5
v 7.73399877548218 -1.99999904632568 0.5
v 7.24999904632568 -1.99999904632568 0.01599998958409
v 7.24999904632568 0.13959540426731 0.4839999973774
v 7.24999904632568 -1.99999904632568 0.4839999973774
v 7.26599884033203 1.99227297306061 0.00414109090343
v 7.74999904632568 1.88619494438171 0.01600001938641
v 7.73399877548218 -1.99999904632568 0.00000001394749
v 7.74999904632568 -1.99999904632568 0.01600001938641
v 7.73399877548218 0.15715670585632 0.49585890769958
v 7.74999904632568 0.13959540426731 0.4839999973774
v 7.74999904632568 -1.99999904632568 0.4839999973774
v 7.73399877548218 1.99227297306061 0.00414111884311
v 7.26599884033203 0.12570199370384 0.5
v 7.26599884033203 -1.99999904632568 0.5
v 7.26599884033203 0.15715670585632 0.49585890769958
v 7.24999904632568 1.88619494438171 0.01599998958409
v 7.26599884033203 -1.99999904632568 -0.00000001394749
v 16 8.00009536743164 -8.00010108947754
v 16 3.9998950958252 -8.00010108947754
v 4 -0.0001000202974 2.63726806640625
v 4.03000497817993 2.41076898574829 2.61866688728333
v 4 2.44423890113831 2.63726806640625
v 4.03000497817993 2.42483997344971 2.61301898956299
v 4.03000497817993 -0.00010002060299 2.61866688728333
v 4.16329622268677 2.41076898574829 2.61866688728333
v 4.16329622268677 -0.00010002060299 2.61866688728333
v 4.16329622268677 2.42483997344971 2.61301898956299
v 4.16329622268677 2.41076898574829 1.41185700893402
v 4.16329622268677 2.42483997344971 1.41750502586365
v 4.16329622268677 -0.00010003859643 1.41185700893402
v 4.03000497817993 2.41076898574829 1.41185700893402
v 4.03000497817993 -0.00010003859643 1.41185700893402
v 4 2.44423890113831 1.39325594902039
v 4 -0.00010003880016 1.39325594902039
v 4 -0.00010005960212 -0.00010013580322
v 4.16329622268677 2.43066906929016 2.59938311576843
v 4.19999980926514 2.44423890113831 2.63726806640625
v 4.19999980926514 2.44423890113831 1.39325594902039
v 4.16329622268677 2.43066906929016 1.43114101886749
v 4.03000497817993 2.43066906929016 2.59938311576843
v 4.03000497817993 2.43066906929016 1.43114101886749
v 4.03000497817993 2.42483997344971 1.41750502586365
v 4.19999980926514 -0.00009999999747 4.00010013580322
v 4.19999980926514 -0.0001000202974 2.63726806640625
v 4.19999980926514 -0.00010003880016 1.39325594902039
v 4.19999980926514 -0.00010005960212 -0.00010013580322
v 16.00009918212891 -0.0000001115157 -4.00010013580322
v 7.99989986419678 3.9998950958252 4
v 11.99989986419678 8.00009536743164 4
v 11.99989986419678 3.9998950958252 4
v 16.00009918212891 3.9998950958252 -11.80000019073486
v 11.99989986419678 8.00009536743164 -11.80000019073486
v 16.00009918212891 8.00009536743164 -11.80000019073486
v 11.99989986419678 3.9998950958252 -11.80000019073486
v 16.00009918212891 3.9998950958252 4.0000171661377
# 496 vertices

vn 0 1 0
vn 1 0 0
vn 0 0 1
vn -1 0 0
vn 0 0.2588178217411 0.96592617034912
vn 0.70710676908493 0 -0.70710676908493
vn 0.65982991456985 0.09806509315968 0.74498844146729
vn 0.70710676908493 0 0.70710676908493
vn 0.70710802078247 0.18300370872021 0.68301379680634
vn -0.65982991456985 0.09806509315968 0.74498844146729
vn -0.70710676908493 0 0.70710676908493
vn 0 0.13050138950348 0.99144810438156
vn -0.70710676908493 0 -0.70710676908493
vn -0.70710802078247 0.18300370872021 0.68301379680634
vn 0 0 -1
vn -1 0 0
vn 0 0 1
vn -0.96592617034912 -0.2588178217411 0
vn -0.74498844146729 -0.09806509315968 -0.65982991456985
vn -0.68301379680634 -0.18300370872021 -0.70710802078247
vn -0.74498844146729 -0.09806509315968 0.65982991456985
vn -0.99144810438156 -0.13050138950348 0
vn -0.68301379680634 -0.18300370872021 0.70710802078247
vn 0 0 -1
vn 0.97880041599274 -0.20481650531292 0
vn 0.99375385046005 -0.11159418523312 0
vn 0.98467326164246 -0.17440927028656 0
vn 0.99685716629028 -0.07921981066465 0
vn 0.99890506267548 -0.04678266122937 0
vn 0.96429860591888 -0.264817237854 0
vn 0.95568704605103 -0.29438447952271 0
vn 0.9370259642601 -0.3492596745491 0
vn 0.9271844625473 -0.37460514903069 0
vn 0.90789532661438 -0.41919687390327 0
vn 0.89871048927307 -0.4385424554348 0
vn 0.87736475467682 -0.47982400655746 0
vn 0.86505806446075 -0.50167179107666 0
vn 0.83536231517792 -0.54969972372055 0
vn 0.81768000125885 -0.57567298412323 0
vn 0.78040516376495 -0.62527418136597 0
vn 0.7608448266983 -0.64893382787704 0
vn 0.7217338681221 -0.69217067956924 0
vn 0.70232498645782 -0.7118564248085 0
vn 0.66430371999741 -0.7474627494812 0
vn 0.64579230546951 -0.76351308822632 0
vn 0.60645550489426 -0.79511737823486 0
vn 0.58559894561768 -0.81060093641281 0
vn 0.53916454315186 -0.84220045804977 0
vn 0.51341539621353 -0.85814023017883 0
vn 0.46150624752045 -0.88713693618774 0
vn 0.43534937500954 -0.90026158094406 0
vn 0.38356778025627 -0.92351275682449 0
vn 0.35797369480133 -0.93373167514801 0
vn 0.3068183362484 -0.95176810026169 0
vn 0.28128978610039 -0.95962285995483 0
vn 0.2261625379324 -0.97408956289291 0
vn 0.19650073349476 -0.98050367832184 0
vn 0.14146949350834 -0.98994261026382 0
vn 0.11609599739313 -0.99323797225952 0
vn 0.07018768042326 -0.99753379821777 0
vn 0.04965706169605 -0.99876630306244 0
vn 0.02909416332841 -0.99957668781281 0
vn 0 -0.20481650531292 0.97880041599274
vn 0 -0.11159418523312 0.99375385046005
vn 0 -0.17440927028656 0.98467326164246
vn 0 -0.07921981066465 0.99685716629028
vn 0 -0.04678266122937 0.99890506267548
vn 0 -0.264817237854 0.96429860591888
vn 0 -0.29438447952271 0.95568704605103
vn 0 -0.3492596745491 0.9370259642601
vn 0 -0.37460514903069 0.9271844625473
vn 0 -0.41919687390327 0.90789532661438
vn 0 -0.4385424554348 0.89871048927307
vn 0 -0.47982400655746 0.87736475467682
vn 0 -0.50167179107666 0.86505806446075
vn 0 -0.54969972372055 0.83536231517792
vn 0 -0.57567298412323 0.81768000125885
vn 0 -0.62527418136597 0.78040516376495
vn 0 -0.64893382787704 0.7608448266983
vn 0 -0.69217067956924 0.7217338681221
vn 0 -0.7118564248085 0.70232498645782
vn 0 -0.7474627494812 0.66430371999741
vn 0 -0.76351308822632 0.64579230546951
vn 0 -0.79511737823486 0.60645550489426
vn 0 -0.81060093641281 0.58559894561768
vn 0 -0.84220045804977 0.53916454315186
vn 0 -0.85814023017883 0.51341539621353
vn 0 -0.88713693618774 0.46150624752045
vn 0 -0.90026158094406 0.43534937500954
vn 0 -0.92351275682449 0.38356778025627
vn 0 -0.93373167514801 0.35797369480133
vn 0 -0.95176810026169 0.3068183362484
vn 0 -0.95962285995483 0.28128978610039
vn 0 -0.97408956289291 0.2261625379324
vn 0 -0.98050367832184 0.19650073349476
vn 0 -0.98994261026382 0.14146949350834
vn 0 -0.99323797225952 0.11609599739313
vn 0 -0.99753379821777 0.07018768042326
vn 0 -0.99876630306244 0.04965706169605
vn 0 -0.99957668781281 0.02909416332841
vn 0.70488446950912 -0.07921981066465 0.70488446950912
vn 0.70548349618912 -0.06772016733885 0.70548349618912
vn 0.70673507452011 -0.03309451416135 0.7067037820816
vn 0.70161592960358 -0.12437894195318 0.70161592960358
vn 0.69947737455368 -0.1465018093586 0.69947737455368
vn 0.69411396980286 -0.19081807136536 0.69411396980286
vn 0.69089496135712 -0.21300613880157 0.69086366891861
vn 0.68373900651932 -0.25503879785538 0.68370771408081
vn 0.67986708879471 -0.27488443255424 0.67986708879471
vn 0.67215383052826 -0.31051331758499 0.67215383052826
vn 0.6683983206749 -0.3263238966465 0.6683983206749
vn 0.65945518016815 -0.36088466644287 0.65945518016815
vn 0.65417063236237 -0.37963336706162 0.65417063236237
vn 0.64098900556564 -0.42226332426071 0.64095771312714
vn 0.63285827636719 -0.44607272744179 0.63285827636719
vn 0.61504793167114 -0.49338838458061 0.61504793167114
vn 0.6053227186203 -0.51688373088837 0.6053227186203
vn 0.58504712581635 -0.56164020299912 0.58504712581635
vn 0.5745450258255 -0.58292025327682 0.5745450258255
vn 0.5531507730484 -0.62293529510498 0.5531507730484
vn 0.54230815172195 -0.64171934127808 0.54230815172195
vn 0.51832264661789 -0.68023204803467 0.51829141378403
vn 0.50508427619934 -0.69984269142151 0.50508427619934
vn 0.47420006990433 -0.74180090427399 0.47420006990433
vn 0.45635366439819 -0.76386034488678 0.45635366439819
vn 0.41866028308868 -0.80588281154633 0.41866028308868
vn 0.39876636862755 -0.82581520080566 0.39876636862755
vn 0.35776248574257 -0.86256128549576 0.35776248574257
vn 0.3366696536541 -0.87937879562378 0.3366696536541
vn 0.29303881525993 -0.91008597612381 0.29303881525993
vn 0.27047318220139 -0.92395263910294 0.27047318220139
vn 0.22025707364082 -0.95024925470352 0.22025707364082
vn 0.19247323274612 -0.96224117279053 0.19247323274612
vn 0.13990791141987 -0.9802303314209 0.13990791141987
vn 0.11515907943249 -0.98664927482605 0.11515907943249
vn 0.06997082382441 -0.9950920343399 0.06997082382441
vn 0.0495318621397 -0.99754357337952 0.0495318621397
vn 0.01937559619546 -0.99962449073792 0.01937559619546
vn 0.01453136000782 -0.99978882074356 0.01453136000782
vn 0 -1 0
vn -0.63724833726883 -0.64599877595901 -0.42023825645447
vn -0.31412926316261 -0.18043994903564 -0.93207520246506
vn -0.52689135074615 0 -0.84993261098862
vn -0.31647792458534 -0.72486478090286 -0.61189275979996
vn -0.18178598582745 0 -0.98333811759949
vn 0.22934676706791 -0.14037685096264 -0.96316891908646
vn 0.3088493347168 0 -0.95111095905304
vn 0.27759894728661 -0.60876142978668 -0.74320143461227
vn 0.58483380079269 -0.46364188194275 -0.6655867099762
vn 0.45204472541809 0 -0.89199525117874
vn 0.56282967329025 -0.6884897351265 0.45738896727562
vn 0.27037784457207 -0.18237692117691 0.94532245397568
vn 0.45204472541809 0 0.89199525117874
vn 0.27750599384308 -0.73223459720612 0.62195092439651
vn 0.15440739691257 0 0.98800724744797
vn -0.3166064620018 -0.59946155548096 0.73512321710587
vn -0.26475790143013 -0.13703534007072 0.95452845096588
vn -0.36360266804695 0 0.93155413866043
vn -0.66027265787125 -0.43076479434967 0.61520862579346
vn -0.52689135074615 0 0.84993261098862
vn 0.22613309323788 -0.95481538772583 -0.19285064935684
vn 0.19909706711769 -0.96854740381241 0.14925247430801
vn -0.2315981388092 -0.96183079481125 -0.1457527577877
vn -0.26513016223907 -0.94520598649979 0.19050371646881
# 164 normals

vt 1 0 0
vt 0.00003051758176 0 0
vt 1 0.99996948242188 0
vt 0.00003051758176 0.99996948242188 0
vt 0.37900540232658 0.99996948242188 0
vt 0.37900540232658 0.0267333984375 0
vt 0.49600219726562 0.99996948242188 0
vt 0.50399780273438 0.99996948242188 0
vt 0.50399780273438 0.47035217285156 0
vt 0.62100219726562 0.99996948242188 0
vt 0.62100219726562 0.47035217285156 0
vt 0.62899780273438 0.99996948242188 0
vt 0.62899780273438 0.46684277057648 0
vt 0.74600219726562 0.99996948242188 0
vt 0.74600219726562 0.0267333984375 0
vt 0.62100219726562 0.46241760253906 0
vt 0.50399780273438 0.46241760253906 0
vt 0.62100219726562 0 0
vt 0.50399780273438 0 0
vt 0.37500759959221 0.99996948242188 0
vt 0.37100219726562 0.99996948242188 0
vt 0.37500759959221 0.0267333984375 0
vt 0.37100219726562 0.00013732910156 0
vt 0.5 0.46684277057648 0
vt 0.5 0.99996948242188 0
vt 0.49897000193596 0.46241760253906 0
vt 0.49600219726562 0.46684277057648 0
vt 0.37603759765625 0 0
vt 0.625 0.46684277057648 0
vt 0.625 0.99996948242188 0
vt 0.25002288818359 0.0267333984375 0
vt 0.25400540232658 0.00013732910156 0
vt 0.25002288818359 0.99996948242188 0
vt 0.25400540232658 0.99996948242188 0
vt 0.74896240234375 0 0
vt 0.62603759765625 0.46241760253906 0
vt 1 0.99995040893555 0
vt 0.00003366265082 0.99995040893555 0
vt 0.05005022138357 0 0
vt 0.05005022138357 0.99995040893555 0
vt 0.99999701976776 0.99995040893555 0
vt 0.99996948242188 0.08192443847656 0
vt 0.99996948242188 0.04383850097656 0
vt 0.00005350727952 0.08192443847656 0
vt 0.00003473367906 0.04385375976562 0
vt 0.99996948242188 0 0
vt 0.00005069654071 0.11552429199219 0
vt 0.99996948242188 0.11552429199219 0
vt 0.00005912873894 0.15396118164062 0
vt 0.99996948242188 0.15396118164062 0
vt 0.0000428641215 0.18495178222656 0
vt 0.99996948242188 0.1849365234375 0
vt 0.00003051758176 0.00001525878906 0
vt 0.00003340375042 0.2173615694046 0
vt 0.99996948242188 0.2173615694046 0
vt 0.00004936661935 0.26860058307648 0
vt 0.99996948242188 0.26858520507812 0
vt 0.00004908535993 0.31431579589844 0
vt 0.99996948242188 0.31431579589844 0
vt 0.00003621447831 0.36062622070312 0
vt 0.99996948242188 0.36062622070312 0
vt 0.00005217735088 0.40393078327179 0
vt 0.99996948242188 0.40393078327179 0
vt 0.00003739539898 0.45504760742188 0
vt 0.99996948242188 0.45503234863281 0
vt 0.00005136150867 0.52253723144531 0
vt 0.99996948242188 0.52252960205078 0
vt 0.00003671738887 0.58384698629379 0
vt 0.99996948242188 0.58383941650391 0
vt 0.00003252271927 0.64662170410156 0
vt 0.99996948242188 0.64661413431168 0
vt 0.00003155786908 0.71897131204605 0
vt 0.99996948242188 0.71896362304688 0
vt 0.00005151052028 0.80346298217773 0
vt 0.99996948242188 0.80345541238785 0
vt 0.00003473367906 0.88022798299789 0
vt 0.99996948242188 0.88022232055664 0
vt 0.00003972183913 0.93598747253418 0
vt 0.99996948242188 0.93598181009293 0
vt 0.00004637334132 0.99996948242188 0
vt 1 0.99994242191315 0
vt 0.50050348043442 0.05284118652344 0
vt 0.49768069386482 0.05284118652344 0
vt 0.49903869628906 0 0
vt 0.49394229054451 0.09855651855469 0
vt 0.50433349609375 0.09854125976562 0
vt 0.488525390625 0.13851928710938 0
vt 0.50982671976089 0.13848888874054 0
vt 0.47996520996094 0.18367004394531 0
vt 0.51846307516098 0.18360900878906 0
vt 0.47145080566406 0.21952819824219 0
vt 0.52705377340317 0.21943664550781 0
vt 0.46122738718987 0.25653088092804 0
vt 0.537353515625 0.2564240694046 0
vt 0.44276431202888 0.31396484375 0
vt 0.55592352151871 0.31379699707031 0
vt 0.42382809519768 0.36390697956085 0
vt 0.574951171875 0.36367797851562 0
vt 0.40237429738045 0.41307067871094 0
vt 0.59649658203125 0.41279602050781 0
vt 0.38053891062737 0.45780944824219 0
vt 0.618408203125 0.4574738740921 0
vt 0.35308840870857 0.50929260253906 0
vt 0.64598077535629 0.50886541604996 0
vt 0.31465148925781 0.57542419433594 0
vt 0.68453979492188 0.57489013671875 0
vt 0.27770999073982 0.63363653421402 0
vt 0.72157287597656 0.63299560546875 0
vt 0.23818969726562 0.6915283203125 0
vt 0.76121520996094 0.69076544046402 0
vt 0.19110110402107 0.75660711526871 0
vt 0.80842590332031 0.75570678710938 0
vt 0.13473510742188 0.8310546875 0
vt 0.86494451761246 0.83000183105469 0
vt 0.08250427246094 0.89749151468277 0
vt 0.91729742288589 0.89628601074219 0
vt 0.04418944939971 0.94529718160629 0
vt 0.95570367574692 0.94398498535156 0
vt 1 0.99855041503906 0
vt -0.20783619582653 -0.70709228515625 0
vt 1.20620703697205 -0.70700073242188 0
vt 0.39063331484795 0.6104764342308 0
vt 0.3831393122673 0.60211712121964 0
vt 0.39063331484795 0 0
vt 0.3831393122673 0.60563141107559 0
vt 0.3831393122673 0 0
vt 0.34984990954399 0.60211712121964 0
vt 0.34984990954399 0 0
vt 0.34984990954399 0.60563141107559 0
vt 0.34068301320076 0.6104764342308 0
vt 0.34068301320076 0 0
vt 0.60206282138824 0.60612642765045 0
vt 0.6124519109726 0.59843909740448 0
vt 0.60041892528534 0.00024914741516 0
vt 0.61278480291367 0.60222584009171 0
vt 0.61047172546387 0.00020158290863 0
vt 0.64576977491379 0.60234713554382 0
vt 0.64615827798843 0.59866583347321 0
vt 0.64302957057953 0.00003325939178 0
vt 0.65501427650452 0.60617631673813 0
vt 0.65165710449219 0 0
vt 1 0.00003051757812 0
vt 0.65930181741714 0 0
vt 0.65930181741714 0.61106109619141 0
vt 0.00004864018047 0.99995231628418 0
vt 0.34831240773201 0.61106109619141 0
vt 0.00003624055898 0.00003051757812 0
vt 0.34832000732422 0 0
vt 0.34088331460953 0.55971342325211 0
vt 0.34592780470848 0.56982684135437 0
vt 0.3495826125145 0.56952118873596 0
vt 0.65248972177505 0.55927819013596 0
vt 0.64412009716034 0.56876319646835 0
vt 0.6476349234581 0.56905102729797 0
vt 0.34914571046829 0.60248428583145 0
vt 0.64437389373779 0.60165703296661 0
vt 0.3456229865551 0.60208374261856 0
vt 0.65315097570419 0.60991668701172 0
vt 0.64802151918411 0.6012356877327 0
vt 0.34068301320076 0.61104583740234 0
vt 0.00004768465078 0.00003051757812 0
vt 0.00005245301872 0.99995291233063 0
vt 0.65165710449219 0.61104583740234 0
vt 0.99998468160629 0.99995297193527 0
vt 0.99998468160629 0.00003051757812 0
# 165 texture coordinates

o Default
usemtl floor_A
f 320/1/1 1/2/1 272/3/1
f 272/3/1 1/2/1 2/4/1
f 119/1/1 118/2/1 160/3/1
f 160/3/1 118/2/1 120/4/1
f 160/1/1 120/2/1 488/3/1
f 488/3/1 120/2/1 319/4/1

usemtl plaster_A
f 3/5/2 20/6/2 19/7/2
f 4/8/3 8/9/3 10/10/3
f 10/10/3 8/9/3 9/11/3
f 11/12/4 17/13/4 13/14/4
f 13/14/4 17/13/4 14/15/4
f 16/16/5 12/17/5 6/18/5
f 6/18/5 12/17/5 5/19/5
f 3/20/6 7/21/6 20/22/6
f 20/22/6 7/21/6 5/23/6
f 18/24/7 12/17/7 8/9/7
f 18/24/8 8/9/8 19/25/8
f 19/25/8 8/9/8 4/8/8
f 12/26/9 18/27/9 5/28/9
f 9/11/10 16/16/10 17/29/10
f 11/30/11 10/10/11 17/29/11
f 17/29/11 10/10/11 9/11/11
f 8/9/12 12/17/12 9/11/12
f 9/11/12 12/17/12 16/16/12
f 14/31/13 6/32/13 13/33/13
f 13/33/13 6/32/13 15/34/13
f 6/35/14 14/15/14 16/36/14
f 16/36/14 14/15/14 17/13/14
f 19/7/2 20/6/2 18/27/2
f 5/28/9 18/27/9 20/6/9
f 163/37/3 359/38/3 1/1/3
f 1/1/3 359/38/3 476/2/3
f 304/37/2 21/38/2 120/1/2
f 120/1/2 21/38/2 319/2/2
f 27/5/15 33/6/15 26/7/15
f 29/8/16 35/9/16 28/10/16
f 28/10/16 35/9/16 38/11/16
f 31/12/17 39/13/17 30/14/17
f 30/14/17 39/13/17 43/15/17
f 37/16/18 40/17/18 41/18/18
f 41/18/18 40/17/18 32/19/18
f 27/20/6 34/21/6 33/22/6
f 33/22/6 34/21/6 32/23/6
f 36/24/19 40/17/19 35/9/19
f 36/24/13 35/9/13 26/25/13
f 26/25/13 35/9/13 29/8/13
f 40/26/20 36/27/20 32/28/20
f 38/11/21 37/16/21 39/29/21
f 31/30/11 28/10/11 39/29/11
f 39/29/11 28/10/11 38/11/11
f 35/9/22 40/17/22 38/11/22
f 38/11/22 40/17/22 37/16/22
f 43/31/8 41/32/8 30/33/8
f 30/33/8 41/32/8 42/34/8
f 41/35/23 43/15/23 37/36/23
f 37/36/23 43/15/23 39/13/23
f 26/7/15 33/6/15 36/27/15
f 32/28/20 36/27/20 33/6/20
f 45/5/15 61/6/15 44/7/15
f 55/8/16 47/9/16 46/10/16
f 46/10/16 47/9/16 48/11/16
f 49/12/17 59/13/17 56/14/17
f 56/14/17 59/13/17 57/15/17
f 51/16/18 54/17/18 50/18/18
f 50/18/18 54/17/18 52/19/18
f 45/20/6 53/21/6 61/22/6
f 61/22/6 53/21/6 52/23/6
f 60/24/19 54/17/19 47/9/19
f 60/24/13 47/9/13 44/25/13
f 44/25/13 47/9/13 55/8/13
f 54/26/20 60/27/20 52/28/20
f 48/11/21 51/16/21 59/29/21
f 49/30/11 46/10/11 59/29/11
f 59/29/11 46/10/11 48/11/11
f 47/9/22 54/17/22 48/11/22
f 48/11/22 54/17/22 51/16/22
f 57/31/8 50/32/8 56/33/8
f 56/33/8 50/32/8 58/34/8
f 50/35/23 57/15/23 51/36/23
f 51/36/23 57/15/23 59/13/23
f 44/7/15 61/6/15 60/27/15
f 52/28/20 60/27/20 61/6/20
f 62/5/15 70/6/15 79/7/15
f 74/8/16 73/9/16 76/10/16
f 76/10/16 73/9/16 75/11/16
f 65/12/17 64/13/17 63/14/17
f 63/14/17 64/13/17 66/15/17
f 77/16/18 69/17/18 68/18/18
f 68/18/18 69/17/18 67/19/18
f 62/20/6 71/21/6 70/22/6
f 70/22/6 71/21/6 67/23/6
f 72/24/19 69/17/19 73/9/19
f 72/24/13 73/9/13 79/25/13
f 79/25/13 73/9/13 74/8/13
f 69/26/20 72/27/20 67/28/20
f 75/11/21 77/16/21 64/29/21
f 65/30/11 76/10/11 64/29/11
f 64/29/11 76/10/11 75/11/11
f 73/9/22 69/17/22 75/11/22
f 75/11/22 69/17/22 77/16/22
f 66/31/8 68/32/8 63/33/8
f 63/33/8 68/32/8 78/34/8
f 68/35/23 66/15/23 77/36/23
f 77/36/23 66/15/23 64/13/23
f 79/7/15 70/6/15 72/27/15
f 67/28/20 72/27/20 70/6/20
f 90/5/2 97/6/2 80/7/2
f 92/8/3 93/9/3 81/10/3
f 81/10/3 93/9/3 82/11/3
f 85/12/4 84/13/4 83/14/4
f 83/14/4 84/13/4 86/15/4
f 94/16/5 88/17/5 87/18/5
f 87/18/5 88/17/5 91/19/5
f 90/20/6 89/21/6 97/22/6
f 97/22/6 89/21/6 91/23/6
f 96/24/7 88/17/7 93/9/7
f 96/24/8 93/9/8 80/25/8
f 80/25/8 93/9/8 92/8/8
f 88/26/9 96/27/9 91/28/9
f 82/11/10 94/16/10 84/29/10
f 85/30/11 81/10/11 84/29/11
f 84/29/11 81/10/11 82/11/11
f 93/9/12 88/17/12 82/11/12
f 82/11/12 88/17/12 94/16/12
f 86/31/13 87/32/13 83/33/13
f 83/33/13 87/32/13 95/34/13
f 87/35/14 86/15/14 94/36/14
f 94/36/14 86/15/14 84/13/14
f 80/7/2 97/6/2 96/27/2
f 91/28/9 96/27/9 97/6/9
f 99/5/15 98/6/15 109/7/15
f 110/8/16 106/9/16 100/10/16
f 100/10/16 106/9/16 113/11/16
f 112/12/17 101/13/17 114/14/17
f 114/14/17 101/13/17 102/15/17
f 104/16/18 107/17/18 103/18/18
f 103/18/18 107/17/18 111/19/18
f 99/20/6 105/21/6 98/22/6
f 98/22/6 105/21/6 111/23/6
f 108/24/19 107/17/19 106/9/19
f 108/24/13 106/9/13 109/25/13
f 109/25/13 106/9/13 110/8/13
f 107/26/20 108/27/20 111/28/20
f 113/11/21 104/16/21 101/29/21
f 112/30/11 100/10/11 101/29/11
f 101/29/11 100/10/11 113/11/11
f 106/9/22 107/17/22 113/11/22
f 113/11/22 107/17/22 104/16/22
f 102/31/8 103/32/8 114/33/8
f 114/33/8 103/32/8 115/34/8
f 103/35/23 102/15/23 104/36/23
f 104/36/23 102/15/23 101/13/23
f 109/7/15 98/6/15 108/27/15
f 111/28/20 108/27/20 98/6/20
f 120/39/2 121/1/2 304/40/2
f 304/40/2 121/1/2 495/41/2
f 304/40/4 495/41/4 120/39/4
f 120/39/4 495/41/4 121/1/4
f 122/5/2 137/6/2 136/7/2
f 123/8/3 129/9/3 131/10/3
f 131/10/3 129/9/3 124/11/3
f 132/12/4 130/13/4 125/14/4
f 125/14/4 130/13/4 133/15/4
f 135/16/5 127/17/5 126/18/5
f 126/18/5 127/17/5 139/19/5
f 122/20/6 128/21/6 137/22/6
f 137/22/6 128/21/6 139/23/6
f 138/24/7 127/17/7 129/9/7
f 138/24/8 129/9/8 136/25/8
f 136/25/8 129/9/8 123/8/8
f 127/26/9 138/27/9 139/28/9
f 124/11/10 135/16/10 130/29/10
f 132/30/11 131/10/11 130/29/11
f 130/29/11 131/10/11 124/11/11
f 129/9/12 127/17/12 124/11/12
f 124/11/12 127/17/12 135/16/12
f 133/31/13 126/32/13 125/33/13
f 125/33/13 126/32/13 134/34/13
f 126/35/14 133/15/14 135/36/14
f 135/36/14 133/15/14 130/13/14
f 136/7/2 137/6/2 138/27/2
f 139/28/9 138/27/9 137/6/9
f 143/42/25 274/43/26 142/44/27
f 142/44/27 274/43/26 300/45/28
f 274/43/26 144/46/29 300/45/28
f 145/47/30 143/42/25 142/44/27
f 146/48/31 143/42/25 145/47/30
f 147/49/32 146/48/31 145/47/30
f 148/50/33 146/48/31 147/49/32
f 149/51/34 148/50/33 147/49/32
f 277/52/35 148/50/33 149/51/34
f 300/45/28 144/46/29 302/53/29
f 150/54/36 277/52/35 149/51/34
f 278/55/37 277/52/35 150/54/36
f 306/56/38 278/55/37 150/54/36
f 279/57/39 278/55/37 306/56/38
f 151/58/40 279/57/39 306/56/38
f 281/59/41 279/57/39 151/58/40
f 152/60/42 281/59/41 151/58/40
f 283/61/43 281/59/41 152/60/42
f 153/62/44 283/61/43 152/60/42
f 284/63/45 283/61/43 153/62/44
f 154/64/46 284/63/45 153/62/44
f 285/65/47 284/63/45 154/64/46
f 155/66/48 285/65/47 154/64/46
f 286/67/49 285/65/47 155/66/48
f 312/68/50 286/67/49 155/66/48
f 287/69/51 286/67/49 312/68/50
f 314/70/52 287/69/51 312/68/50
f 289/71/53 287/69/51 314/70/52
f 315/72/54 289/71/53 314/70/52
f 291/73/55 289/71/53 315/72/54
f 316/74/56 291/73/55 315/72/54
f 293/75/57 291/73/55 316/74/56
f 318/76/58 293/75/57 316/74/56
f 295/77/59 293/75/57 318/76/58
f 156/78/60 295/77/59 318/76/58
f 157/79/61 295/77/59 156/78/60
f 158/80/62 157/79/61 156/78/60
f 159/81/62 157/79/61 158/80/62
f 144/37/3 163/38/3 320/1/3
f 320/1/3 163/38/3 1/2/3
f 162/42/63 161/43/64 275/44/65
f 275/44/65 161/43/64 273/45/66
f 161/43/64 163/46/67 273/45/66
f 276/47/68 162/42/63 275/44/65
f 360/48/69 162/42/63 276/47/68
f 164/49/70 360/48/69 276/47/68
f 165/50/71 360/48/69 164/49/70
f 166/51/72 165/50/71 164/49/70
f 167/52/73 165/50/71 166/51/72
f 273/45/66 163/46/67 144/53/67
f 168/54/74 167/52/73 166/51/72
f 169/55/75 167/52/73 168/54/74
f 170/56/76 169/55/75 168/54/74
f 365/57/77 169/55/75 170/56/76
f 280/58/78 365/57/77 170/56/76
f 367/59/79 365/57/77 280/58/78
f 282/60/80 367/59/79 280/58/78
f 369/61/81 367/59/79 282/60/80
f 171/62/82 369/61/81 282/60/80
f 172/63/83 369/61/81 171/62/82
f 173/64/84 172/63/83 171/62/82
f 174/65/85 172/63/83 173/64/84
f 175/66/86 174/65/85 173/64/84
f 176/67/87 174/65/85 175/66/86
f 177/68/88 176/67/87 175/66/86
f 178/69/89 176/67/87 177/68/88
f 288/70/90 178/69/89 177/68/88
f 375/71/91 178/69/89 288/70/90
f 290/72/92 375/71/91 288/70/90
f 377/73/93 375/71/91 290/72/92
f 292/74/94 377/73/93 290/72/92
f 379/75/95 377/73/93 292/74/94
f 294/76/96 379/75/95 292/74/94
f 179/77/97 379/75/95 294/76/96
f 296/78/98 179/77/97 294/76/96
f 180/79/99 179/77/97 296/78/98
f 297/80/100 180/79/99 296/78/98
f 181/81/100 180/79/99 297/80/100
f 192/5/15 201/6/15 200/7/15
f 194/8/16 193/9/16 195/10/16
f 195/10/16 193/9/16 196/11/16
f 185/12/17 199/13/17 197/14/17
f 197/14/17 199/13/17 186/15/17
f 190/16/18 189/17/18 188/18/18
f 188/18/18 189/17/18 187/19/18
f 192/20/6 191/21/6 201/22/6
f 201/22/6 191/21/6 187/23/6
f 202/24/19 189/17/19 193/9/19
f 202/24/13 193/9/13 200/25/13
f 200/25/13 193/9/13 194/8/13
f 189/26/20 202/27/20 187/28/20
f 196/11/21 190/16/21 199/29/21
f 185/30/11 195/10/11 199/29/11
f 199/29/11 195/10/11 196/11/11
f 193/9/22 189/17/22 196/11/22
f 196/11/22 189/17/22 190/16/22
f 186/31/8 188/32/8 197/33/8
f 197/33/8 188/32/8 198/34/8
f 188/35/23 186/15/23 190/36/23
f 190/36/23 186/15/23 199/13/23
f 200/7/15 201/6/15 202/27/15
f 187/28/20 202/27/20 201/6/20
f 299/42/25 301/43/26 203/44/27
f 203/44/27 301/43/26 204/45/28
f 301/43/26 304/46/29 204/45/28
f 205/47/30 299/42/25 203/44/27
f 303/48/31 299/42/25 205/47/30
f 206/49/32 303/48/31 205/47/30
f 207/50/33 303/48/31 206/49/32
f 208/51/34 207/50/33 206/49/32
f 209/52/35 207/50/33 208/51/34
f 204/45/28 304/46/29 210/53/29
f 211/54/36 209/52/35 208/51/34
f 212/55/37 209/52/35 211/54/36
f 213/56/38 212/55/37 211/54/36
f 305/57/39 212/55/37 213/56/38
f 214/58/40 305/57/39 213/56/38
f 307/59/41 305/57/39 214/58/40
f 215/60/42 307/59/41 214/58/40
f 308/61/43 307/59/41 215/60/42
f 216/62/44 308/61/43 215/60/42
f 309/63/45 308/61/43 216/62/44
f 217/64/46 309/63/45 216/62/44
f 310/65/47 309/63/45 217/64/46
f 218/66/48 310/65/47 217/64/46
f 311/67/49 310/65/47 218/66/48
f 219/68/50 311/67/49 218/66/48
f 220/69/51 311/67/49 219/68/50
f 221/70/52 220/69/51 219/68/50
f 313/71/53 220/69/51 221/70/52
f 222/72/54 313/71/53 221/70/52
f 223/73/55 313/71/53 222/72/54
f 224/74/56 223/73/55 222/72/54
f 225/75/57 223/73/55 224/74/56
f 226/76/58 225/75/57 224/74/56
f 317/77/59 225/75/57 226/76/58
f 227/78/60 317/77/59 226/76/58
f 228/79/61 317/77/59 227/78/60
f 229/80/62 228/79/61 227/78/60
f 230/81/62 228/79/61 229/80/62
f 239/5/2 247/6/2 246/7/2
f 233/8/3 232/9/3 231/10/3
f 231/10/3 232/9/3 241/11/3
f 235/12/4 240/13/4 234/14/4
f 234/14/4 240/13/4 244/15/4
f 236/16/5 242/17/5 243/18/5
f 243/18/5 242/17/5 237/19/5
f 239/20/6 238/21/6 247/22/6
f 247/22/6 238/21/6 237/23/6
f 248/24/7 242/17/7 232/9/7
f 248/24/8 232/9/8 246/25/8
f 246/25/8 232/9/8 233/8/8
f 242/26/9 248/27/9 237/28/9
f 241/11/10 236/16/10 240/29/10
f 235/30/11 231/10/11 240/29/11
f 240/29/11 231/10/11 241/11/11
f 232/9/12 242/17/12 241/11/12
f 241/11/12 242/17/12 236/16/12
f 244/31/13 243/32/13 234/33/13
f 234/33/13 243/32/13 245/34/13
f 243/35/14 244/15/14 236/36/14
f 236/36/14 244/15/14 240/13/14
f 246/7/2 247/6/2 248/27/2
f 237/28/9 248/27/9 247/6/9
f 251/5/15 260/6/15 263/7/15
f 253/8/16 262/9/16 252/10/16
f 252/10/16 262/9/16 264/11/16
f 255/12/17 267/13/17 254/14/17
f 254/14/17 267/13/17 256/15/17
f 258/16/18 265/17/18 257/18/18
f 257/18/18 265/17/18 259/19/18
f 251/20/6 261/21/6 260/22/6
f 260/22/6 261/21/6 259/23/6
f 268/24/19 265/17/19 262/9/19
f 268/24/13 262/9/13 263/25/13
f 263/25/13 262/9/13 253/8/13
f 265/26/20 268/27/20 259/28/20
f 264/11/21 258/16/21 267/29/21
f 255/30/11 252/10/11 267/29/11
f 267/29/11 252/10/11 264/11/11
f 262/9/22 265/17/22 264/11/22
f 264/11/22 265/17/22 258/16/22
f 256/31/8 257/32/8 254/33/8
f 254/33/8 257/32/8 266/34/8
f 257/35/23 256/15/23 258/36/23
f 258/36/23 256/15/23 267/13/23
f 263/7/15 260/6/15 268/27/15
f 259/28/20 268/27/20 260/6/20
f 274/82/101 273/83/102 144/84/103
f 274/82/101 275/85/104 273/83/102
f 143/86/105 275/85/104 274/82/101
f 143/86/105 276/87/106 275/85/104
f 146/88/107 276/87/106 143/86/105
f 146/88/107 164/89/108 276/87/106
f 148/90/109 164/89/108 146/88/107
f 148/90/109 166/91/110 164/89/108
f 277/92/111 166/91/110 148/90/109
f 277/92/111 168/93/112 166/91/110
f 278/94/113 168/93/112 277/92/111
f 278/94/113 170/95/114 168/93/112
f 279/96/115 170/95/114 278/94/113
f 279/96/115 280/97/116 170/95/114
f 281/98/117 280/97/116 279/96/115
f 280/97/116 281/98/117 282/99/118
f 282/99/118 281/98/117 283/100/119
f 283/100/119 171/101/120 282/99/118
f 284/102/121 171/101/120 283/100/119
f 284/102/121 173/103/122 171/101/120
f 285/104/123 173/103/122 284/102/121
f 173/103/122 285/104/123 175/105/124
f 175/105/124 285/104/123 286/106/125
f 286/106/125 177/107/126 175/105/124
f 287/108/127 177/107/126 286/106/125
f 177/107/126 287/108/127 288/109/128
f 288/109/128 287/108/127 289/110/129
f 289/110/129 290/111/130 288/109/128
f 291/112/131 290/111/130 289/110/129
f 290/111/130 291/112/131 292/113/132
f 292/113/132 291/112/131 293/114/133
f 293/114/133 294/115/134 292/113/132
f 295/116/135 294/115/134 293/114/133
f 294/115/134 295/116/135 296/117/136
f 296/117/136 295/116/135 157/118/137
f 157/118/137 297/4/138 296/117/136
f 159/119/139 297/4/138 157/118/137
f 298/84/140 297/120/138 159/121/139
f 142/42/25 300/43/26 299/44/27
f 299/44/27 300/43/26 301/45/28
f 300/43/26 302/46/29 301/45/28
f 303/47/30 142/42/25 299/44/27
f 145/48/31 142/42/25 303/47/30
f 207/49/32 145/48/31 303/47/30
f 147/50/33 145/48/31 207/49/32
f 209/51/34 147/50/33 207/49/32
f 149/52/35 147/50/33 209/51/34
f 301/45/28 302/46/29 304/53/29
f 212/54/36 149/52/35 209/51/34
f 150/55/37 149/52/35 212/54/36
f 305/56/38 150/55/37 212/54/36
f 306/57/39 150/55/37 305/56/38
f 307/58/40 306/57/39 305/56/38
f 151/59/41 306/57/39 307/58/40
f 308/60/42 151/59/41 307/58/40
f 152/61/43 151/59/41 308/60/42
f 309/62/44 152/61/43 308/60/42
f 153/63/45 152/61/43 309/62/44
f 310/64/46 153/63/45 309/62/44
f 154/65/47 153/63/45 310/64/46
f 311/66/48 154/65/47 310/64/46
f 155/67/49 154/65/47 311/66/48
f 220/68/50 155/67/49 311/66/48
f 312/69/51 155/67/49 220/68/50
f 313/70/52 312/69/51 220/68/50
f 314/71/53 312/69/51 313/70/52
f 223/72/54 314/71/53 313/70/52
f 315/73/55 314/71/53 223/72/54
f 225/74/56 315/73/55 223/72/54
f 316/75/57 315/73/55 225/74/56
f 317/76/58 316/75/57 225/74/56
f 318/77/59 316/75/57 317/76/58
f 228/78/60 318/77/59 317/76/58
f 156/79/61 318/77/59 228/78/60
f 230/80/62 156/79/61 228/78/60
f 158/81/62 156/79/61 230/80/62
f 302/37/2 144/38/2 319/1/2
f 319/1/2 144/38/2 320/2/2
f 323/5/2 322/6/2 321/7/2
f 332/8/3 335/9/3 324/10/3
f 324/10/3 335/9/3 325/11/3
f 328/12/4 327/13/4 326/14/4
f 326/14/4 327/13/4 337/15/4
f 330/16/5 334/17/5 329/18/5
f 329/18/5 334/17/5 333/19/5
f 323/20/6 331/21/6 322/22/6
f 322/22/6 331/21/6 333/23/6
f 338/24/7 334/17/7 335/9/7
f 338/24/8 335/9/8 321/25/8
f 321/25/8 335/9/8 332/8/8
f 334/26/9 338/27/9 333/28/9
f 325/11/10 330/16/10 327/29/10
f 328/30/11 324/10/11 327/29/11
f 327/29/11 324/10/11 325/11/11
f 335/9/12 334/17/12 325/11/12
f 325/11/12 334/17/12 330/16/12
f 337/31/13 329/32/13 326/33/13
f 326/33/13 329/32/13 336/34/13
f 329/35/14 337/15/14 330/36/14
f 330/36/14 337/15/14 327/13/14
f 321/7/2 322/6/2 338/27/2
f 333/28/9 338/27/9 322/6/9
f 341/5/15 340/6/15 339/7/15
f 348/8/16 352/9/16 350/10/16
f 350/10/16 352/9/16 351/11/16
f 343/12/17 349/13/17 342/14/17
f 342/14/17 349/13/17 353/15/17
f 346/16/18 345/17/18 355/18/18
f 355/18/18 345/17/18 344/19/18
f 341/20/6 347/21/6 340/22/6
f 340/22/6 347/21/6 344/23/6
f 356/24/19 345/17/19 352/9/19
f 356/24/13 352/9/13 339/25/13
f 339/25/13 352/9/13 348/8/13
f 345/26/20 356/27/20 344/28/20
f 351/11/21 346/16/21 349/29/21
f 343/30/11 350/10/11 349/29/11
f 349/29/11 350/10/11 351/11/11
f 352/9/22 345/17/22 351/11/22
f 351/11/22 345/17/22 346/16/22
f 353/31/8 355/32/8 342/33/8
f 342/33/8 355/32/8 354/34/8
f 355/35/23 353/15/23 346/36/23
f 346/36/23 353/15/23 349/13/23
f 339/7/15 340/6/15 356/27/15
f 344/28/20 356/27/20 340/6/20
f 358/42/63 357/43/64 162/44/65
f 162/44/65 357/43/64 161/45/66
f 357/43/64 359/46/67 161/45/66
f 360/47/68 358/42/63 162/44/65
f 361/48/69 358/42/63 360/47/68
f 165/49/70 361/48/69 360/47/68
f 362/50/71 361/48/69 165/49/70
f 167/51/72 362/50/71 165/49/70
f 363/52/73 362/50/71 167/51/72
f 161/45/66 359/46/67 163/53/67
f 169/54/74 363/52/73 167/51/72
f 364/55/75 363/52/73 169/54/74
f 365/56/76 364/55/75 169/54/74
f 366/57/77 364/55/75 365/56/76
f 367/58/78 366/57/77 365/56/76
f 368/59/79 366/57/77 367/58/78
f 369/60/80 368/59/79 367/58/78
f 370/61/81 368/59/79 369/60/80
f 172/62/82 370/61/81 369/60/80
f 371/63/83 370/61/81 172/62/82
f 174/64/84 371/63/83 172/62/82
f 372/65/85 371/63/83 174/64/84
f 176/66/86 372/65/85 174/64/84
f 373/67/87 372/65/85 176/66/86
f 178/68/88 373/67/87 176/66/86
f 374/69/89 373/67/87 178/68/88
f 375/70/90 374/69/89 178/68/88
f 376/71/91 374/69/89 375/70/90
f 377/72/92 376/71/91 375/70/90
f 378/73/93 376/71/91 377/72/92
f 379/74/94 378/73/93 377/72/92
f 380/75/95 378/73/93 379/74/94
f 179/76/96 380/75/95 379/74/94
f 381/77/97 380/75/95 179/76/96
f 180/78/98 381/77/97 179/76/96
f 382/79/99 381/77/97 180/78/98
f 181/80/100 382/79/99 180/78/98
f 383/81/100 382/79/99 181/80/100
f 384/5/15 401/6/15 392/7/15
f 393/8/16 385/9/16 394/10/16
f 394/10/16 385/9/16 395/11/16
f 386/12/17 399/13/17 396/14/17
f 396/14/17 399/13/17 387/15/17
f 398/16/18 390/17/18 389/18/18
f 389/18/18 390/17/18 388/19/18
f 384/20/6 391/21/6 401/22/6
f 401/22/6 391/21/6 388/23/6
f 400/24/19 390/17/19 385/9/19
f 400/24/13 385/9/13 392/25/13
f 392/25/13 385/9/13 393/8/13
f 390/26/20 400/27/20 388/28/20
f 395/11/21 398/16/21 399/29/21
f 386/30/11 394/10/11 399/29/11
f 399/29/11 394/10/11 395/11/11
f 385/9/22 390/17/22 395/11/22
f 395/11/22 390/17/22 398/16/22
f 387/31/8 389/32/8 396/33/8
f 396/33/8 389/32/8 397/34/8
f 389/35/23 387/15/23 398/36/23
f 398/36/23 387/15/23 399/13/23
f 392/7/15 401/6/15 400/27/15
f 388/28/20 400/27/20 401/6/20
f 413/5/2 420/6/2 421/7/2
f 406/8/3 417/9/3 405/10/3
f 405/10/3 417/9/3 416/11/3
f 408/12/4 414/13/4 407/14/4
f 407/14/4 414/13/4 409/15/4
f 415/16/5 410/17/5 419/18/5
f 419/18/5 410/17/5 411/19/5
f 413/20/6 412/21/6 420/22/6
f 420/22/6 412/21/6 411/23/6
f 422/24/7 410/17/7 417/9/7
f 422/24/8 417/9/8 421/25/8
f 421/25/8 417/9/8 406/8/8
f 410/26/9 422/27/9 411/28/9
f 416/11/10 415/16/10 414/29/10
f 408/30/11 405/10/11 414/29/11
f 414/29/11 405/10/11 416/11/11
f 417/9/12 410/17/12 416/11/12
f 416/11/12 410/17/12 415/16/12
f 409/31/13 419/32/13 407/33/13
f 407/33/13 419/32/13 418/34/13
f 419/35/14 409/15/14 415/36/14
f 415/36/14 409/15/14 414/13/14
f 421/7/2 420/6/2 422/27/2
f 411/28/9 422/27/9 420/6/9
f 427/5/2 439/6/2 438/7/2
f 424/8/3 428/9/3 423/10/3
f 423/10/3 428/9/3 425/11/3
f 430/12/4 437/13/4 434/14/4
f 434/14/4 437/13/4 433/15/4
f 436/16/5 431/17/5 432/18/5
f 432/18/5 431/17/5 440/19/5
f 427/20/6 426/21/6 439/22/6
f 439/22/6 426/21/6 440/23/6
f 429/24/7 431/17/7 428/9/7
f 429/24/8 428/9/8 438/25/8
f 438/25/8 428/9/8 424/8/8
f 431/26/9 429/27/9 440/28/9
f 425/11/10 436/16/10 437/29/10
f 430/30/11 423/10/11 437/29/11
f 437/29/11 423/10/11 425/11/11
f 428/9/12 431/17/12 425/11/12
f 425/11/12 431/17/12 436/16/12
f 433/31/13 432/32/13 434/33/13
f 434/33/13 432/32/13 435/34/13
f 432/35/14 433/15/14 436/36/14
f 436/36/14 433/15/14 437/13/14
f 438/7/2 439/6/2 429/27/2
f 440/28/9 429/27/9 439/6/9
f 449/5/2 447/6/2 452/7/2
f 442/8/3 441/9/3 455/10/3
f 455/10/3 441/9/3 454/11/3
f 445/12/4 444/13/4 443/14/4
f 443/14/4 444/13/4 457/15/4
f 456/16/5 450/17/5 446/18/5
f 446/18/5 450/17/5 453/19/5
f 449/20/6 448/21/6 447/22/6
f 447/22/6 448/21/6 453/23/6
f 451/24/7 450/17/7 441/9/7
f 451/24/8 441/9/8 452/25/8
f 452/25/8 441/9/8 442/8/8
f 450/26/9 451/27/9 453/28/9
f 454/11/10 456/16/10 444/29/10
f 445/30/11 455/10/11 444/29/11
f 444/29/11 455/10/11 454/11/11
f 441/9/12 450/17/12 454/11/12
f 454/11/12 450/17/12 456/16/12
f 457/31/13 446/32/13 443/33/13
f 443/33/13 446/32/13 458/34/13
f 446/35/14 457/15/14 456/36/14
f 456/36/14 457/15/14 444/13/14
f 452/7/2 447/6/2 451/27/2
f 453/28/9 451/27/9 447/6/9
f 494/37/17 493/38/17 492/1/17
f 492/1/17 493/38/17 495/2/17

usemtl brick_A
f 24/37/2 23/38/2 22/1/2
f 22/1/2 23/38/2 25/2/2
f 160/39/2 116/1/2 460/40/2
f 460/40/2 116/1/2 492/41/2
f 460/40/4 492/41/4 160/39/4
f 160/39/4 492/41/4 116/1/4
f 489/37/24 491/38/24 2/1/24
f 2/1/24 491/38/24 272/2/24
f 491/37/24 496/38/24 272/1/24
f 272/1/24 496/38/24 271/2/24
f 141/37/4 140/38/4 496/1/4
f 496/1/4 140/38/4 402/2/4
f 182/37/24 489/38/24 117/1/24
f 117/1/24 489/38/24 2/2/24
f 184/37/24 183/38/24 182/1/24
f 182/1/24 183/38/24 489/2/24
f 402/37/4 404/38/4 269/1/4
f 269/1/4 404/38/4 488/2/4
f 459/37/4 249/38/4 460/1/4
f 460/1/4 249/38/4 250/2/4
f 496/37/4 402/38/4 271/1/4
f 271/1/4 402/38/4 269/2/4
f 270/37/4 460/38/4 488/1/4
f 488/1/4 460/38/4 160/2/4
f 140/37/4 403/38/4 402/1/4
f 402/1/4 403/38/4 404/2/4
f 403/37/4 459/38/4 404/1/4
f 404/1/4 459/38/4 460/2/4
f 463/122/141 462/123/142 461/124/143
f 462/123/142 463/122/141 464/125/144
f 461/124/143 462/123/142 465/126/145
f 466/127/146 465/126/145 462/123/142
f 467/128/147 465/126/145 466/127/146
f 466/127/146 462/123/142 468/129/148
f 468/129/148 462/123/142 464/125/144
f 478/130/149 466/127/146 468/129/148
f 478/130/149 467/128/147 466/127/146
f 485/131/150 467/128/147 478/130/149
f 479/132/151 469/133/152 486/134/153
f 479/132/151 470/135/154 469/133/152
f 486/134/153 469/133/152 471/136/155
f 483/137/156 469/133/152 470/135/154
f 472/138/157 469/133/152 483/137/156
f 472/138/157 471/136/155 469/133/152
f 473/139/158 471/136/155 472/138/157
f 472/138/157 474/140/159 473/139/158
f 474/140/159 472/138/157 483/137/156
f 473/139/158 474/140/159 475/141/160
f 117/142/4 182/3/4 461/143/4
f 461/143/4 182/3/4 463/144/4
f 359/145/4 463/144/4 182/3/4
f 474/146/4 463/144/4 359/145/4
f 476/147/4 474/146/4 359/145/4
f 475/148/4 474/146/4 476/147/4
f 478/149/149 468/150/148 477/151/161
f 478/149/149 477/151/161 479/152/151
f 479/152/151 477/151/161 480/153/162
f 479/152/151 480/153/162 470/154/154
f 477/151/161 481/155/163 480/153/162
f 480/153/162 482/156/164 470/154/154
f 480/153/162 481/155/163 482/156/164
f 481/155/163 477/151/161 464/157/144
f 464/157/144 477/151/161 468/150/148
f 463/130/141 481/155/163 464/157/144
f 463/130/141 482/156/164 481/155/163
f 474/158/159 482/156/164 463/130/141
f 474/158/159 483/159/156 482/156/164
f 470/154/154 482/156/164 483/159/156
f 485/131/2 478/160/2 484/161/2
f 484/161/2 478/160/2 25/162/2
f 479/163/2 25/162/2 478/160/2
f 22/164/2 25/162/2 479/163/2
f 486/141/2 22/164/2 479/163/2
f 487/165/2 22/164/2 486/141/2
f 183/37/24 490/38/24 489/1/24
f 489/1/24 490/38/24 491/2/24
f 490/37/24 141/38/24 491/1/24
f 491/1/24 141/38/24 496/2/24

usemtl floor_C_wet
f 1/1/1 476/2/1 2/3/1
f 2/3/1 476/2/1 117/4/1
f 269/1/1 320/2/1 271/3/1
f 271/3/1 320/2/1 272/4/1
f 488/1/1 319/2/1 269/3/1
f 269/3/1 319/2/1 320/4/1

