# WaveFront *.obj file (generated by CINEMA 4D)

mtllib ./sector_12.mtl

v -66.5 -0.96800071001053 -44
v -66.5 -0.03200029954314 -44
v -66.53199768066406 -1.00000095367432 -40
v -66.53199768066406 -1.00000095367432 -44
v -67.5 -0.03200029954314 -44
v -67.5 -0.03200029954314 -40
v -67.46800231933594 -0.0000002980232 -44
v -66.53199768066406 -0.0000002980232 -44
v -66.5 -0.03200029954314 -40
v -67.46800231933594 -1.00000095367432 -44
v -67.5 -0.96800071001053 -40
v -67.5 -0.96800071001053 -44
v -68.00003051757812 -8.0001049041748 -27.99990081787109
v -64.00009918212891 -8.0001049041748 -28
v -64.5 -0.03199983015656 -36
v -64.5 -0.96800017356873 -32
v -65.46800231933594 -1 -36
v -65.5 -0.96800017356873 -32
v -65.5 -0.03199983015656 -32
v -65.46800231933594 0.00000017881391 -32
v -64.53199768066406 0.00000017881391 -36
v -64.5 -0.03199983015656 -32
v -64.53199768066406 0.00000017881391 -32
v -64.53199768066406 -1 -32
v -65.46800231933594 -1 -32
v -62.25 -0.00000166893005 -43.98400115966797
v -61.76599884033203 -0.00000166893005 -43.5
v -61.76599884033203 -2.12570190429688 -43.5
v -61.75 -0.00000166893005 -43.98400115966797
v -61.75 -0.00000166893005 -43.51599884033203
v -62.25 -3.88619494438171 -43.98400115966797
v -62.23400115966797 -3.9922730922699 -43.9958610534668
v -62.23400115966797 -0.00000166893005 -44
v -62.25 -2.1395959854126 -43.51599884033203
v -62.23400115966797 -0.00000166893005 -43.5
v -62.23400115966797 -2.1571569442749 -43.5041389465332
v -62.23400115966797 -2.12570190429688 -43.5
v -61.76599884033203 -3.9922730922699 -43.9958610534668
v -61.75 -3.88619494438171 -43.98400115966797
v -61.76599884033203 -0.00000166893005 -44
v -61.76599884033203 -2.1571569442749 -43.5041389465332
v -61.75 -2.1395959854126 -43.51599884033203
v -62.25 -0.00000166893005 -43.51599884033203
v -62.5 -0.03200029954314 -44
v -62.53200149536133 -1.00000095367432 -40
v -62.53200149536133 -1.00000095367432 -44
v -63.5 -0.03200029954314 -44
v -63.5 -0.03200029954314 -40
v -63.46799850463867 -0.0000002980232 -44
v -62.53200149536133 -0.0000002980232 -44
v -62.53200149536133 -0.0000002980232 -40
v -62.5 -0.96800071001053 -44
v -63.46799850463867 -1.00000095367432 -44
v -63.5 -0.96800071001053 -40
v -63.5 -0.96800071001053 -44
v -56.52210998535156 -4 -35.96577835083008
v -56.52210998535156 -8 -35.96577835083008
v -57.0352783203125 -4 -35.86370086669922
v -57.0352783203125 -8 -35.86370086669922
v -57.53073883056641 -8 -35.69551849365234
v -58 -4 -35.4640998840332
v -58 -8 -35.4640998840332
v -58.43505096435547 -4 -35.17340850830078
v -58.43505096435547 -8 -35.17340850830078
v -58.82843017578125 -8 -34.82843017578125
v -59.17341995239258 -4 -34.43505096435547
v -59.17341995239258 -8 -34.43505096435547
v -59.4640998840332 -8 -34
v -59.69551849365234 -8 -33.53073883056641
v -59.86370086669922 -8 -33.03527069091797
v -59.96577835083008 -4 -32.52210998535156
v -59.96577835083008 -8 -32.52210998535156
v -55.99980163574219 -4 -36
v -64.00005340576172 -3.99998807907104 -32.00009918212891
v -59.99990081787109 -8.0001049041748 -28
v -59.99995040893555 -4.00001096725464 -32.00009918212891
v -59.99995040893555 -4.00001096725464 -27.99990081787109
v -60.00004959106445 -8.00000095367432 -31.99990081787109
v -63.46799850463867 -0.0000002980232 -36
v -63.46799850463867 -0.0000002980232 -40
v -62.5 -0.96800071001053 -40
v -62.5 -0.03200029954314 -40
v -63.46799850463867 -1.00000095367432 -40
v -62.53200149536133 -1.00000095367432 -36
v -63.5 -0.03200029954314 -36
v -66.53199768066406 0.00000017881391 -36
v -67.46800231933594 0.00000017881391 -32
v -66.53199768066406 -1 -32
v -66.53199768066406 -1 -36
v -67.5 -0.96800017356873 -32
v -67.5 -0.96800017356873 -36
v -67.5 -0.03199983015656 -32
v -67.46800231933594 0.00000017881391 -36
v -66.5 -0.03199983015656 -32
v -66.53199768066406 0.00000017881391 -32
v -66.5 -0.03199983015656 -36
v -66.5 -0.96800017356873 -32
v -67.46800231933594 -1 -36
v -67.46800231933594 -1 -32
v -68.00009918212891 -8.0001049041748 -48
v -68 -8.0001049041748 -44.00009918212891
v -59.96577835083008 0 -43.47789001464844
v -59.86370086669922 0 -42.96472930908203
v -59.69551849365234 0 -42.46926116943359
v -59.4640998840332 0 -42
v -59.17340850830078 0 -41.56494903564453
v -59.17340850830078 -4 -41.56494903564453
v -58.82843017578125 0 -41.17156982421875
v -58.43505096435547 0 -40.82659149169922
v -58.43505096435547 -4 -40.82659149169922
v -58 0 -40.5359001159668
v -58 -4 -40.5359001159668
v -57.53073883056641 0 -40.30448150634766
v -57.53073883056641 -4 -40.30448150634766
v -57.03527069091797 0 -40.13629913330078
v -56.52210998535156 0 -40.03422164916992
v -56.52210998535156 -4 -40.03422164916992
v -66.23400115966797 -0.00000166893005 -32.5
v -65.76599884033203 -0.00000166893005 -32.5
v -66.23400115966797 -2.12570190429688 -32.5
v -65.75 -3.88619494438171 -32.01599884033203
v -65.76599884033203 -3.9922730922699 -32.0041389465332
v -66.23400115966797 -3.9922730922699 -32.0041389465332
v -66.23400115966797 -2.1571569442749 -32.4958610534668
v -65.76599884033203 -0.00000166893005 -32
v -65.75 -0.00000166893005 -32.01599884033203
v -65.75 -0.00000166893005 -32.48400115966797
v -66.25 -0.00000166893005 -32.48400115966797
v -65.76599884033203 -2.1571569442749 -32.4958610534668
v -65.76599884033203 -2.12570190429688 -32.5
v -66.25 -0.00000166893005 -32.01599884033203
v -66.25 -3.88619494438171 -32.01599884033203
v -66.23400115966797 -0.00000166893005 -32
v -66.25 -2.1395959854126 -32.48400115966797
v -65.75 -2.1395959854126 -32.48400115966797
v -55.99980163574219 -8 -40
v -55.99995040893555 -8 -44.00009918212891
v -60.00004959106445 -8.00000095367432 -39.99990081787109
v -55.99995040893555 0.0000001223956 -44.00009918212891
v -59.99995040893555 0.0000001223956 -44.00009918212891
v -68.00003051757812 -8.0001049041748 -31.99990081787109
v -68.00003051757812 -3.99990510940552 -27.99990081787109
v -68.00003051757812 0.00009489058721 -39.99990081787109
v -68 0.00009489058721 -44.00009918212891
v -51.99990081787109 -8.0001049041748 -40
v -51.99990081787109 -4.0001049041748 -40
v -64.00009918212891 -8.0001049041748 -48
v -68.00005340576172 -3.99999904632568 -48.00009918212891
v -63.99995040893555 -4 -48.00009918212891
v -68.00009918212891 0.00009489058721 -32
v -68.00005340576172 0.00000055157221 -35.99990081787109
v -63.75 -0.00000166893005 -43.98400115966797
v -63.76599884033203 -3.9922730922699 -43.9958610534668
v -64.25 -3.88619494438171 -43.98400115966797
v -64.23400115966797 -0.00000166893005 -44
v -64.25 -0.00000166893005 -43.98400115966797
v -64.23400115966797 -3.9922730922699 -43.9958610534668
v -64.25 -0.00000166893005 -43.51599884033203
v -64.23400115966797 -0.00000166893005 -43.5
v -63.76599884033203 -0.00000166893005 -43.5
v -63.75 -0.00000166893005 -43.51599884033203
v -63.76599884033203 -2.12570190429688 -43.5
v -64.23400115966797 -2.1571569442749 -43.5041389465332
v -64.23400115966797 -2.12570190429688 -43.5
v -63.76599884033203 -0.00000166893005 -44
v -63.76599884033203 -2.1571569442749 -43.5041389465332
v -63.75 -3.88619494438171 -43.98400115966797
v -63.75 -2.1395959854126 -43.51599884033203
v -64.25 -2.1395959854126 -43.51599884033203
v -64.46800231933594 -8 -44
v -64.46800231933594 -4 -44
v -63.53200149536133 -8 -44
v -63.5 -4 -44.96799850463867
v -63.5 -4 -44.03200149536133
v -64.46800231933594 -4 -45
v -63.53200149536133 -4 -45
v -64.46800231933594 -8 -45
v -64.5 -4 -44.03200149536133
v -64.5 -8 -44.03200149536133
v -63.53200149536133 -4 -44
v -63.5 -8 -44.03200149536133
v -63.53200149536133 -8 -45
v -63.5 -8 -44.96799850463867
v -64.5 -8 -44.96799850463867
v -64.5 -4 -44.96799850463867
v -51.99990081787109 0.00009489058721 -36
v -59.96577835083008 -4 -43.47789001464844
v -59.96577835083008 -8 -43.47789001464844
v -59.86370086669922 -4 -42.96472930908203
v -59.86370086669922 -8 -42.96472930908203
v -59.69551849365234 -4 -42.46926116943359
v -59.69551849365234 -8 -42.46926116943359
v -59.4640998840332 -4 -42
v -59.4640998840332 -8 -42
v -59.17340850830078 -8 -41.56494903564453
v -58.82843017578125 -4 -41.17156982421875
v -58.82843017578125 -8 -41.17156982421875
v -58.43505096435547 -8 -40.82659149169922
v -58 -8 -40.5359001159668
v -57.53073883056641 -8 -40.30448150634766
v -57.03527069091797 -4 -40.13629913330078
v -57.03527069091797 -8 -40.13629913330078
v -56.52210998535156 -8 -40.03422164916992
v -56.00009918212891 -4.0001049041748 -40.00001907348633
v -60 -8.0001049041748 -43.99990081787109
v -63.53200149536133 -4 -30.75
v -64.46800231933594 -8 -30.75
v -63.53200149536133 -8 -30.75
v -63.5 -8 -31.7180004119873
v -63.53200149536133 -8 -31.75
v -63.53200149536133 -4 -31.75
v -64.5 -4 -30.7819995880127
v -64.5 -8 -30.7819995880127
v -64.46800231933594 -4 -30.75
v -63.5 -8 -30.7819995880127
v -63.5 -4 -30.7819995880127
v -63.5 -4 -31.7180004119873
v -64.46800231933594 -4 -31.75
v -64.5 -8 -31.7180004119873
v -64.46800231933594 -8 -31.75
v -64.5 -4 -31.7180004119873
v -66.53199768066406 -0.0000002980232 -40
v -67.5 -0.03199983015656 -36
v -67.46800231933594 -0.0000002980232 -40
v -66.5 -0.96800071001053 -40
v -66.5 -0.96800017356873 -36
v -67.46800231933594 -1.00000095367432 -40
v -64.00005340576172 0.00000055157221 -35.99990081787109
v -51.99990081787109 0.00009489058721 -40
v -68 -8.0001049041748 -36.00009918212891
v -68.00009918212891 -4.0001049041748 -32
v -68 -3.99990510940552 -36.00009918212891
v -63.99995040893555 -4 -43.99990081787109
v -63.99990081787109 0.00009489058721 -32
v -61.75 -0.00000166893005 -32.48400115966797
v -61.75 -0.00000166893005 -32.01599884033203
v -62.23400115966797 -0.00000166893005 -32.5
v -61.76599884033203 -2.12570190429688 -32.5
v -61.76599884033203 -0.00000166893005 -32.5
v -62.25 -0.00000166893005 -32.01599884033203
v -62.25 -2.1395959854126 -32.48400115966797
v -62.25 -0.00000166893005 -32.48400115966797
v -61.75 -3.88619494438171 -32.01599884033203
v -61.76599884033203 -3.9922730922699 -32.0041389465332
v -61.76599884033203 -2.1571569442749 -32.4958610534668
v -61.76599884033203 -0.00000166893005 -32
v -61.75 -2.1395959854126 -32.48400115966797
v -62.23400115966797 -2.1571569442749 -32.4958610534668
v -62.23400115966797 -2.12570190429688 -32.5
v -62.23400115966797 -3.9922730922699 -32.0041389465332
v -62.23400115966797 -0.00000166893005 -32
v -62.25 -3.88619494438171 -32.01599884033203
v -55.99995040893555 -8.00000095367432 -31.99990081787109
v -60.00004959106445 -8 -36.00009918212891
v -59.99990081787109 -3.99990510940552 -48
v -60 -3.99990510940552 -43.99990081787109
v -59.99990081787109 -8.0001049041748 -48
v -68.00005340576172 -4 -43.99990081787109
v -68.00003051757812 -3.99990510940552 -39.99990081787109
v -59.99995040893555 0.00000056245489 -35.99990081787109
v -55.99995040893555 0.0000001223956 -40.00009918212891
v -59.99995040893555 0.0000001223956 -40.00009918212891
v -55.99980163574219 0 -36
v -55.96799850463867 0.00000017881391 -36
v -55.03200149536133 0.00000017881391 -36
v -55 -0.96800071001053 -40
v -55 -0.03200029954314 -40
v -55 -0.96800017356873 -36
v -55.03200149536133 -1 -36
v -55.96799850463867 -1 -36
v -56 -0.03200029954314 -40
v -56 -0.96800071001053 -40
v -56 -0.03199983015656 -36
v -55.96799850463867 -0.0000002980232 -40
v -55.03200149536133 -0.0000002980232 -40
v -55 -0.03199983015656 -36
v -55.03200149536133 -1.00000095367432 -40
v -55.96799850463867 -1.00000095367432 -40
v -56 -0.96800017356873 -36
v -62.53200149536133 -0.0000002980232 -36
v -63.46799850463867 0.00000017881391 -32
v -63.5 -0.03199983015656 -32
v -62.5 -0.03199983015656 -32
v -62.53200149536133 0.00000017881391 -32
v -62.5 -0.03200029954314 -36
v -62.5 -0.96800071001053 -36
v -62.53200149536133 -1 -32
v -62.5 -0.96800017356873 -32
v -63.46799850463867 -1.00000095367432 -36
v -63.5 -0.96800017356873 -32
v -63.46799850463867 -1 -32
v -63.5 -0.96800071001053 -36
v -68.00003051757812 -8.0001049041748 -39.99990081787109
v -64.00005340576172 -3.99998807907104 -27.99990081787109
v -53.46799850463867 -0.0000002980232 -40
v -52.5 -0.03199983015656 -36
v -53.46799850463867 -1.00000095367432 -40
v -53.46799850463867 -1 -36
v -53.5 -0.03200029954314 -40
v -53.5 -0.03199983015656 -36
v -53.46799850463867 0.00000017881391 -36
v -52.53200149536133 -0.0000002980232 -40
v -52.53200149536133 0.00000017881391 -36
v -52.5 -0.03200029954314 -40
v -52.5 -0.96800071001053 -40
v -52.53200149536133 -1 -36
v -52.5 -0.96800017356873 -36
v -52.53200149536133 -1.00000095367432 -40
v -53.5 -0.96800017356873 -36
v -53.5 -0.96800071001053 -40
v -65.75 -2.1395959854126 -43.51599884033203
v -65.75 -0.00000166893005 -43.51599884033203
v -65.75 -3.88619494438171 -43.98400115966797
v -66.23400115966797 -3.9922730922699 -43.9958610534668
v -65.76599884033203 -3.9922730922699 -43.9958610534668
v -65.76599884033203 -2.1571569442749 -43.5041389465332
v -66.23400115966797 -0.00000166893005 -44
v -66.25 -0.00000166893005 -43.98400115966797
v -66.23400115966797 -2.12570190429688 -43.5
v -66.23400115966797 -0.00000166893005 -43.5
v -66.23400115966797 -2.1571569442749 -43.5041389465332
v -65.76599884033203 -0.00000166893005 -43.5
v -65.76599884033203 -2.12570190429688 -43.5
v -65.75 -0.00000166893005 -43.98400115966797
v -65.76599884033203 -0.00000166893005 -44
v -66.25 -0.00000166893005 -43.51599884033203
v -66.25 -3.88619494438171 -43.98400115966797
v -66.25 -2.1395959854126 -43.51599884033203
v -63.75 -0.00000166893005 -32.48400115966797
v -63.75 -0.00000166893005 -32.01599884033203
v -64.23400115966797 -0.00000166893005 -32.5
v -63.76599884033203 -2.12570190429688 -32.5
v -64.23400115966797 -2.12570190429688 -32.5
v -64.25 -0.00000166893005 -32.01599884033203
v -64.25 -0.00000166893005 -32.48400115966797
v -63.76599884033203 -3.9922730922699 -32.0041389465332
v -63.76599884033203 -0.00000166893005 -32
v -63.76599884033203 -0.00000166893005 -32.5
v -63.75 -2.1395959854126 -32.48400115966797
v -64.25 -2.1395959854126 -32.48400115966797
v -64.23400115966797 -2.1571569442749 -32.4958610534668
v -63.76599884033203 -2.1571569442749 -32.4958610534668
v -64.23400115966797 -3.9922730922699 -32.0041389465332
v -64.25 -3.88619494438171 -32.01599884033203
v -64.23400115966797 -0.00000166893005 -32
v -63.75 -3.88619494438171 -32.01599884033203
v -61.21799850463867 -0.0000002980232 -36
v -60.28200149536133 -0.0000002980232 -36
v -60.25 -0.96800017356873 -40
v -60.25 -0.03199983015656 -40
v -61.25 -0.03199983015656 -40
v -65.46800231933594 -0.0000002980232 -40
v -65.5 -0.03200029954314 -44
v -65.5 -0.96800071001053 -40
v -65.5 -0.96800071001053 -44
v -65.46800231933594 -0.0000002980232 -44
v -64.53199768066406 -0.0000002980232 -44
v -64.53199768066406 -0.0000002980232 -40
v -64.5 -0.03200029954314 -44
v -64.5 -0.96800071001053 -44
v -64.53199768066406 -1.00000095367432 -40
v -64.53199768066406 -1.00000095367432 -44
v -65.46800231933594 -1.00000095367432 -44
v -65.46800231933594 -1.00000095367432 -40
v -55.99995040893555 0.00000056245489 -31.99990081787109
v -56.00009918212891 -8.0001049041748 -36
v -51.99990081787109 -3.99990510940552 -36
v -51.99990081787109 -8.0001049041748 -36
v -56.52210998535156 0 -35.96577835083008
v -57.0352783203125 0 -35.86370086669922
v -57.53073883056641 0 -35.69551849365234
v -57.53073883056641 -4 -35.69551849365234
v -58 0 -35.4640998840332
v -58.43505096435547 0 -35.17340850830078
v -58.82843017578125 0 -34.82843017578125
v -58.82843017578125 -4 -34.82843017578125
v -59.17341995239258 0 -34.43505096435547
v -59.4640998840332 0 -34
v -59.4640998840332 -4 -34
v -59.69551849365234 0 -33.53073883056641
v -59.69551849365234 -4 -33.53073883056641
v -59.86370086669922 0 -33.03527069091797
v -59.86370086669922 -4 -33.03527069091797
v -59.96577835083008 0 -32.52210998535156
v -60 0 -31.99979972839355
v -64.00005340576172 0.0000001115129 -40.00009918212891
v -64.00005340576172 0.0000001115129 -44.00009918212891
v -60.28200149536133 0.00000017881391 -32
v -60.25 -0.96800071001053 -36
v -60.25 -0.03199983015656 -32
v -60.25 -0.03200029954314 -36
v -60.25 -0.96800017356873 -32
v -61.21799850463867 -1.00000095367432 -36
v -61.21799850463867 -1 -32
v -61.25 -0.03199983015656 -32
v -61.25 -0.03200029954314 -36
v -61.21799850463867 0.00000017881391 -32
v -60.28200149536133 -1 -32
v -60.28200149536133 -1.00000095367432 -36
v -61.25 -0.96800017356873 -32
v -61.25 -0.96800071001053 -36
v -64.5 -0.03200029954314 -40
v -64.5 -0.96800017356873 -36
v -65.5 -0.03199983015656 -36
v -65.5 -0.03200029954314 -40
v -65.46800231933594 0.00000017881391 -36
v -64.5 -0.96800071001053 -40
v -64.53199768066406 -1 -36
v -65.5 -0.96800017356873 -36
v -60.28200149536133 -0.0000002980232 -44
v -61.21799850463867 0.00000017881391 -40
v -61.21799850463867 -0.0000002980232 -44
v -60.28200149536133 0.00000017881391 -40
v -60.25 -0.96800071001053 -44
v -61.21799850463867 -1.00000095367432 -44
v -60.28200149536133 -1.00000095367432 -44
v -61.21799850463867 -1 -40
v -61.25 -0.03200029954314 -44
v -61.25 -0.96800071001053 -44
v -60.25 -0.03200029954314 -44
v -60.28200149536133 -1 -40
v -61.25 -0.96800017356873 -40
# 422 vertices

vn 0 -1 0
vn 1 0 0
vn 0 1 0
vn 1 0 0
vn -1 0 0
vn -0.70710676908493 0.70710676908493 0
vn 0.70710676908493 0.70710676908493 0
vn 0.70710676908493 -0.70710676908493 0
vn -0.70710676908493 -0.70710676908493 0
vn 0 0 -1
vn -1 0 0
vn 0 0 1
vn 0 -0.2588178217411 0.96592617034912
vn -0.70710676908493 0 -0.70710676908493
vn -0.65982991456985 -0.09806509315968 0.74498844146729
vn -0.70710676908493 0 0.70710676908493
vn -0.70710802078247 -0.18300370872021 0.68301379680634
vn 0.65982991456985 -0.09806509315968 0.74498844146729
vn 0.70710676908493 0 0.70710676908493
vn 0 -0.13050138950348 0.99144810438156
vn 0.70710676908493 0 -0.70710676908493
vn 0.70710802078247 -0.18300370872021 0.68301379680634
vn -0.03271963447332 0 -0.99946457147598
vn -0.10881585627794 0 -0.9940619468689
vn -0.15212762355804 0 -0.98836088180542
vn -0.23765753209591 0 -0.97134900093079
vn -0.27984762191772 0 -0.96004444360733
vn -0.36241307854652 0 -0.93201756477356
vn -0.40276059508324 0 -0.91530537605286
vn -0.48095270991325 0 -0.87674653530121
vn -0.51879549026489 0 -0.85489839315414
vn -0.59129458665848 0 -0.80645567178726
vn -0.62595188617706 0 -0.77986168861389
vn -0.6914843916893 0 -0.72239136695862
vn -0.72239136695862 0 -0.6914843916893
vn -0.77986168861389 0 -0.62595188617706
vn -0.80645567178726 0 -0.59129458665848
vn -0.85489839315414 0 -0.51879549026489
vn -0.87674653530121 0 -0.48095270991325
vn -0.91530537605286 0 -0.40276059508324
vn -0.93201756477356 0 -0.36241307854652
vn -0.96004444360733 0 -0.27984762191772
vn -0.97134900093079 0 -0.23765753209591
vn -0.98836088180542 0 -0.15212762355804
vn -0.9940619468689 0 -0.10881585627794
vn -0.99946457147598 0 -0.03271963447332
vn -0.99946457147598 0 0.03271963447332
vn -0.9940619468689 0 0.10881585627794
vn -0.98836088180542 0 0.15212762355804
vn -0.97134900093079 0 0.23765753209591
vn -0.96004444360733 0 0.27984762191772
vn -0.93201756477356 0 0.36241307854652
vn -0.91530537605286 0 0.40276059508324
vn -0.87674653530121 0 0.48095270991325
vn -0.85489839315414 0 0.51879549026489
vn -0.80645567178726 0 0.59129458665848
vn -0.77986168861389 0 0.62595188617706
vn -0.72239136695862 0 0.6914843916893
vn -0.6914843916893 0 0.72239136695862
vn -0.62595188617706 0 0.77986168861389
vn -0.59129458665848 0 0.80645567178726
vn -0.51879549026489 0 0.85489839315414
vn -0.48095270991325 0 0.87674653530121
vn -0.40276059508324 0 0.91530537605286
vn -0.36241307854652 0 0.93201756477356
vn -0.27984762191772 0 0.96004444360733
vn -0.23765753209591 0 0.97134900093079
vn -0.15212762355804 0 0.98836088180542
vn -0.10881585627794 0 0.9940619468689
vn -0.03271963447332 0 0.99946457147598
vn 0 0 -1
vn 0 -0.2588178217411 -0.96592617034912
vn 0.65982991456985 -0.09806509315968 -0.74498844146729
vn 0.70710802078247 -0.18300370872021 -0.68301379680634
vn -0.65982991456985 -0.09806509315968 -0.74498844146729
vn 0 -0.13050138950348 -0.99144810438156
vn -0.70710802078247 -0.18300370872021 -0.68301379680634
vn 0 0 1
# 78 normals

vt 1 0 0
vt 0.00003051758176 0 0
vt 1 0.99996948242188 0
vt 0.00003051758176 0.99996948242188 0
vt 1 0.99995040893555 0
vt 0.00003366265082 0.99995040893555 0
vt 0.25 0.99996948242188 0
vt 0.25 0 0
vt 0.4917297065258 0.99996948242188 0
vt 0.4917297065258 0 0
vt 0.5 0.99996948242188 0
vt 0.5 0 0
vt 0.74172967672348 0.99996948242188 0
vt 0.74172967672348 0 0
vt 0.75 0.99996948242188 0
vt 0.75 0 0
vt 0.99172967672348 0.99996948242188 0
vt 0.99172967672348 0 0
vt 0.24173359572887 0.99996948242188 0
vt 0.24173359572887 0 0
vt 0.37900540232658 0.99996948242188 0
vt 0.37900540232658 0.0267333984375 0
vt 0.49600219726562 0.99996948242188 0
vt 0.50399780273438 0.99996948242188 0
vt 0.50399780273438 0.47035217285156 0
vt 0.62100219726562 0.99996948242188 0
vt 0.62100219726562 0.47035217285156 0
vt 0.62899780273438 0.99996948242188 0
vt 0.62899780273438 0.46684277057648 0
vt 0.74600219726562 0.99996948242188 0
vt 0.74600219726562 0.0267333984375 0
vt 0.62100219726562 0.46241760253906 0
vt 0.50399780273438 0.46241760253906 0
vt 0.62100219726562 0 0
vt 0.50399780273438 0 0
vt 0.37500759959221 0.99996948242188 0
vt 0.37100219726562 0.99996948242188 0
vt 0.37500759959221 0.0267333984375 0
vt 0.37100219726562 0.00013732910156 0
vt 0.5 0.46684277057648 0
vt 0.49897000193596 0.46241760253906 0
vt 0.49600219726562 0.46684277057648 0
vt 0.37603759765625 0 0
vt 0.625 0.46684277057648 0
vt 0.625 0.99996948242188 0
vt 0.25002288818359 0.0267333984375 0
vt 0.25400540232658 0.00013732910156 0
vt 0.25002288818359 0.99996948242188 0
vt 0.25400540232658 0.99996948242188 0
vt 0.74896240234375 0 0
vt 0.62603759765625 0.46241760253906 0
vt 0.00042942911386 0.99980980157852 0
vt 0.00050623709103 0.00001525878906 0
vt 0.08368492126465 0.99982607364655 0
vt 0.08376312255859 0.00003051757812 0
vt 0.16693879663944 0.99984240531921 0
vt 0.16701890528202 0.00004577636719 0
vt 0.25019070506096 0.99985861778259 0
vt 0.25026699900627 0.00006103515625 0
vt 0.33345028758049 0.99987477064133 0
vt 0.33352661132812 0.00007629394531 0
vt 0.41670230031013 0.99989092350006 0
vt 0.41677859425545 0.00009155273438 0
vt 0.49996191263199 0.99990677833557 0
vt 0.50003051757812 0.00010681152344 0
vt 0.58320617675781 0.99992257356644 0
vt 0.58328247070312 0.0001220703125 0
vt 0.66647338867188 0.99993807077408 0
vt 0.66654968261719 0.00013732910156 0
vt 0.74972528219223 0.99995362758636 0
vt 0.74980157613754 0.00015258789062 0
vt 0.83297729492188 0.99996900558472 0
vt 0.83305358886719 0.00016784667969 0
vt 0.91622918844223 0.99996888637543 0
vt 0.91630548238754 0.00018310546875 0
vt 0.99948120117188 0.99994242191315 0
vt 0.99955749511719 0.00019836425781 0
# 77 texture coordinates

o Default
usemtl floor_A
f 231/1/1 74/2/1 142/3/1
f 142/3/1 74/2/1 294/4/1
f 137/1/3 205/2/3 136/3/3
f 136/3/3 205/2/3 138/4/3
f 256/1/1 233/2/1 255/3/1
f 255/3/1 233/2/1 149/4/1
f 366/1/3 254/2/3 253/3/3
f 253/3/3 254/2/3 78/4/3
f 74/1/1 76/2/1 294/3/1
f 294/3/1 76/2/1 77/4/1
f 233/1/1 258/2/1 149/3/1
f 149/3/1 258/2/1 148/4/1

usemtl plaster_A
f 144/1/1 387/2/1 143/3/1
f 143/3/1 387/2/1 386/4/1
f 7/7/3 224/8/3 8/9/3
f 8/9/3 224/8/3 222/10/3
f 2/11/4 9/12/4 1/13/4
f 1/13/4 9/12/4 225/14/4
f 4/15/1 3/16/1 10/17/1
f 10/17/1 3/16/1 227/18/1
f 12/4/5 11/2/5 5/19/5
f 5/19/5 11/2/5 6/20/5
f 6/20/6 224/8/6 5/19/6
f 5/19/6 224/8/6 7/7/6
f 222/10/7 9/12/7 8/9/7
f 8/9/7 9/12/7 2/11/7
f 225/14/8 3/16/8 1/13/8
f 1/13/8 3/16/8 4/15/8
f 227/18/9 11/1/9 10/17/9
f 10/17/9 11/1/9 12/3/9
f 406/7/3 20/8/3 21/9/3
f 21/9/3 20/8/3 23/10/3
f 15/11/4 22/12/4 403/13/4
f 403/13/4 22/12/4 16/14/4
f 408/15/1 24/16/1 17/17/1
f 17/17/1 24/16/1 25/18/1
f 409/4/5 18/2/5 404/19/5
f 404/19/5 18/2/5 19/20/5
f 19/20/6 20/8/6 404/19/6
f 404/19/6 20/8/6 406/7/6
f 23/10/7 22/12/7 21/9/7
f 21/9/7 22/12/7 15/11/7
f 16/14/8 24/16/8 403/13/8
f 403/13/8 24/16/8 408/15/8
f 25/18/9 18/1/9 17/17/9
f 17/17/9 18/1/9 409/3/9
f 261/1/1 229/2/1 263/3/1
f 263/3/1 229/2/1 186/4/1
f 26/21/11 31/22/11 43/23/11
f 35/24/12 37/25/12 27/26/12
f 27/26/12 37/25/12 28/27/12
f 30/28/2 42/29/2 29/30/2
f 29/30/2 42/29/2 39/31/2
f 41/32/13 36/33/13 38/34/13
f 38/34/13 36/33/13 32/35/13
f 26/36/14 33/37/14 31/38/14
f 31/38/14 33/37/14 32/39/14
f 34/40/15 36/33/15 37/25/15
f 34/40/16 37/25/16 43/11/16
f 43/11/16 37/25/16 35/24/16
f 36/41/17 34/42/17 32/43/17
f 28/27/18 41/32/18 42/44/18
f 30/45/19 27/26/19 42/44/19
f 42/44/19 27/26/19 28/27/19
f 37/25/20 36/33/20 28/27/20
f 28/27/20 36/33/20 41/32/20
f 39/46/21 38/47/21 29/48/21
f 29/48/21 38/47/21 40/49/21
f 38/50/22 39/31/22 41/51/22
f 41/51/22 39/31/22 42/29/22
f 43/23/11 31/22/11 34/42/11
f 32/43/17 34/42/17 31/22/17
f 49/7/3 80/8/3 50/9/3
f 50/9/3 80/8/3 51/10/3
f 44/11/4 82/12/4 52/13/4
f 52/13/4 82/12/4 81/14/4
f 46/15/1 45/16/1 53/17/1
f 53/17/1 45/16/1 83/18/1
f 55/4/5 54/2/5 47/19/5
f 47/19/5 54/2/5 48/20/5
f 48/20/6 80/8/6 47/19/6
f 47/19/6 80/8/6 49/7/6
f 51/10/7 82/12/7 50/9/7
f 50/9/7 82/12/7 44/11/7
f 81/14/8 45/16/8 52/13/8
f 52/13/8 45/16/8 46/15/8
f 83/18/9 54/1/9 53/17/9
f 53/17/9 54/1/9 55/3/9
f 80/7/3 79/8/3 51/9/3
f 51/9/3 79/8/3 280/10/3
f 82/11/4 285/12/4 81/13/4
f 81/13/4 285/12/4 286/14/4
f 45/15/1 84/16/1 83/17/1
f 83/17/1 84/16/1 289/18/1
f 54/4/5 292/2/5 48/19/5
f 48/19/5 292/2/5 85/20/5
f 85/20/6 79/8/6 48/19/6
f 48/19/6 79/8/6 80/7/6
f 280/10/7 285/12/7 51/9/7
f 51/9/7 285/12/7 82/11/7
f 286/14/8 84/16/8 81/13/8
f 81/13/8 84/16/8 45/15/8
f 289/18/9 292/1/9 83/17/9
f 83/17/9 292/1/9 54/3/9
f 93/7/3 87/8/3 86/9/3
f 86/9/3 87/8/3 95/10/3
f 96/11/4 94/12/4 226/13/4
f 226/13/4 94/12/4 97/14/4
f 89/15/1 88/16/1 98/17/1
f 98/17/1 88/16/1 99/18/1
f 91/4/5 90/2/5 223/19/5
f 223/19/5 90/2/5 92/20/5
f 92/20/6 87/8/6 223/19/6
f 223/19/6 87/8/6 93/7/6
f 95/10/7 94/12/7 86/9/7
f 86/9/7 94/12/7 96/11/7
f 97/14/8 88/16/8 226/13/8
f 226/13/8 88/16/8 89/15/8
f 99/18/9 90/1/9 98/17/9
f 98/17/9 90/1/9 91/3/9
f 126/21/2 121/22/2 127/23/2
f 119/24/71 130/25/71 118/26/71
f 118/26/71 130/25/71 120/27/71
f 128/28/11 134/29/11 131/30/11
f 131/30/11 134/29/11 132/31/11
f 124/32/72 129/33/72 123/34/72
f 123/34/72 129/33/72 122/35/72
f 126/36/19 125/37/19 121/38/19
f 121/38/19 125/37/19 122/39/19
f 135/40/73 129/33/73 130/25/73
f 135/40/21 130/25/21 127/11/21
f 127/11/21 130/25/21 119/24/21
f 129/41/74 135/42/74 122/43/74
f 120/27/75 124/32/75 134/44/75
f 128/45/14 118/26/14 134/44/14
f 134/44/14 118/26/14 120/27/14
f 130/25/76 129/33/76 120/27/76
f 120/27/76 129/33/76 124/32/76
f 132/46/16 123/47/16 131/48/16
f 131/48/16 123/47/16 133/49/16
f 123/50/77 132/31/77 124/51/77
f 124/51/77 132/31/77 134/29/77
f 127/23/2 121/22/2 135/42/2
f 122/43/74 135/42/74 121/22/74
f 140/1/1 139/2/1 262/3/1
f 262/3/1 139/2/1 261/4/1
f 156/21/11 154/22/11 158/23/11
f 159/24/12 164/25/12 160/26/12
f 160/26/12 164/25/12 162/27/12
f 161/28/2 168/29/2 152/30/2
f 152/30/2 168/29/2 167/31/2
f 166/32/13 163/33/13 153/34/13
f 153/34/13 163/33/13 157/35/13
f 156/36/14 155/37/14 154/38/14
f 154/38/14 155/37/14 157/39/14
f 169/40/15 163/33/15 164/25/15
f 169/40/16 164/25/16 158/11/16
f 158/11/16 164/25/16 159/24/16
f 163/41/17 169/42/17 157/43/17
f 162/27/18 166/32/18 168/44/18
f 161/45/19 160/26/19 168/44/19
f 168/44/19 160/26/19 162/27/19
f 164/25/20 163/33/20 162/27/20
f 162/27/20 163/33/20 166/32/20
f 167/46/21 153/47/21 152/48/21
f 152/48/21 153/47/21 165/49/21
f 153/50/22 167/31/22 166/51/22
f 166/51/22 167/31/22 168/29/22
f 158/23/11 154/22/11 169/42/11
f 157/43/17 169/42/17 154/22/17
f 224/7/3 93/8/3 222/9/3
f 222/9/3 93/8/3 86/10/3
f 9/11/4 96/12/4 225/13/4
f 225/13/4 96/12/4 226/14/4
f 3/15/1 89/16/1 227/17/1
f 227/17/1 89/16/1 98/18/1
f 11/4/5 91/2/5 6/19/5
f 6/19/5 91/2/5 223/20/5
f 223/20/6 93/8/6 6/19/6
f 6/19/6 93/8/6 224/7/6
f 86/10/7 96/12/7 222/9/7
f 222/9/7 96/12/7 9/11/7
f 226/14/8 89/16/8 225/13/8
f 225/13/8 89/16/8 3/15/8
f 98/18/9 91/1/9 227/17/9
f 227/17/9 91/1/9 11/3/9
f 228/1/1 260/2/1 234/3/1
f 234/3/1 260/2/1 385/4/1
f 151/1/1 228/2/1 150/3/1
f 150/3/1 228/2/1 234/4/1
f 143/1/1 386/2/1 151/3/1
f 151/3/1 386/2/1 228/4/1
f 236/21/2 243/22/2 235/23/2
f 239/24/71 238/25/71 237/26/71
f 237/26/71 238/25/71 249/27/71
f 242/28/11 241/29/11 240/30/11
f 240/30/11 241/29/11 252/31/11
f 248/32/72 245/33/72 250/34/72
f 250/34/72 245/33/72 244/35/72
f 236/36/19 246/37/19 243/38/19
f 243/38/19 246/37/19 244/39/19
f 247/40/73 245/33/73 238/25/73
f 247/40/21 238/25/21 235/11/21
f 235/11/21 238/25/21 239/24/21
f 245/41/74 247/42/74 244/43/74
f 249/27/75 248/32/75 241/44/75
f 242/45/14 237/26/14 241/44/14
f 241/44/14 237/26/14 249/27/14
f 238/25/76 245/33/76 249/27/76
f 249/27/76 245/33/76 248/32/76
f 252/46/16 250/47/16 240/48/16
f 240/48/16 250/47/16 251/49/16
f 250/50/77 252/31/77 248/51/77
f 248/51/77 252/31/77 241/29/77
f 235/23/2 243/22/2 247/42/2
f 244/43/74 247/42/74 243/22/74
f 262/1/1 261/2/1 260/3/1
f 260/3/1 261/2/1 263/4/1
f 79/7/3 281/8/3 280/9/3
f 280/9/3 281/8/3 284/10/3
f 285/11/4 283/12/4 286/13/4
f 286/13/4 283/12/4 288/14/4
f 84/15/1 287/16/1 289/17/1
f 289/17/1 287/16/1 291/18/1
f 292/4/5 290/2/5 85/19/5
f 85/19/5 290/2/5 282/20/5
f 282/20/6 281/8/6 85/19/6
f 85/19/6 281/8/6 79/7/6
f 284/10/7 283/12/7 280/9/7
f 280/9/7 283/12/7 285/11/7
f 288/14/8 287/16/8 286/13/8
f 286/13/8 287/16/8 84/15/8
f 291/18/9 290/1/9 289/17/9
f 289/17/9 290/1/9 292/3/9
f 318/21/11 327/22/11 326/23/11
f 320/24/12 319/25/12 322/26/12
f 322/26/12 319/25/12 323/27/12
f 312/28/2 311/29/2 324/30/2
f 324/30/2 311/29/2 313/31/2
f 316/32/13 321/33/13 315/34/13
f 315/34/13 321/33/13 314/35/13
f 318/36/14 317/37/14 327/38/14
f 327/38/14 317/37/14 314/39/14
f 328/40/15 321/33/15 319/25/15
f 328/40/16 319/25/16 326/11/16
f 326/11/16 319/25/16 320/24/16
f 321/41/17 328/42/17 314/43/17
f 323/27/18 316/32/18 311/44/18
f 312/45/19 322/26/19 311/44/19
f 311/44/19 322/26/19 323/27/19
f 319/25/20 321/33/20 323/27/20
f 323/27/20 321/33/20 316/32/20
f 313/46/21 315/47/21 324/48/21
f 324/48/21 315/47/21 325/49/21
f 315/50/22 313/31/22 316/51/22
f 316/51/22 313/31/22 311/29/22
f 326/23/11 327/22/11 328/42/11
f 314/43/17 328/42/17 327/22/17
f 330/21/2 346/22/2 329/23/2
f 338/24/71 332/25/71 331/26/71
f 331/26/71 332/25/71 333/27/71
f 335/28/11 340/29/11 334/30/11
f 334/30/11 340/29/11 344/31/11
f 341/32/72 342/33/72 343/34/72
f 343/34/72 342/33/72 336/35/72
f 330/36/19 337/37/19 346/38/19
f 346/38/19 337/37/19 336/39/19
f 339/40/73 342/33/73 332/25/73
f 339/40/21 332/25/21 329/11/21
f 329/11/21 332/25/21 338/24/21
f 342/41/74 339/42/74 336/43/74
f 333/27/75 341/32/75 340/44/75
f 335/45/14 331/26/14 340/44/14
f 340/44/14 331/26/14 333/27/14
f 332/25/76 342/33/76 333/27/76
f 333/27/76 342/33/76 341/32/76
f 344/46/16 343/47/16 334/48/16
f 334/48/16 343/47/16 345/49/16
f 343/50/77 344/31/77 341/51/77
f 341/51/77 344/31/77 340/29/77
f 329/23/2 346/22/2 339/42/2
f 336/43/74 339/42/74 346/22/74
f 411/7/3 347/8/3 413/9/3
f 413/9/3 347/8/3 348/10/3
f 350/11/4 391/12/4 349/13/4
f 349/13/4 391/12/4 389/14/4
f 421/15/1 399/16/1 417/17/1
f 417/17/1 399/16/1 393/18/1
f 422/4/5 401/2/5 351/19/5
f 351/19/5 401/2/5 396/20/5
f 396/20/6 347/8/6 351/19/6
f 351/19/6 347/8/6 411/7/6
f 348/10/7 391/12/7 413/9/7
f 413/9/7 391/12/7 350/11/7
f 389/14/8 399/16/8 349/13/8
f 349/13/8 399/16/8 421/15/8
f 393/18/9 401/1/9 417/17/9
f 417/17/9 401/1/9 422/3/9
f 356/7/3 352/8/3 357/9/3
f 357/9/3 352/8/3 358/10/3
f 359/11/4 402/12/4 360/13/4
f 360/13/4 402/12/4 407/14/4
f 362/15/1 361/16/1 363/17/1
f 363/17/1 361/16/1 364/18/1
f 355/4/5 354/2/5 353/19/5
f 353/19/5 354/2/5 405/20/5
f 405/20/6 352/8/6 353/19/6
f 353/19/6 352/8/6 356/7/6
f 358/10/7 402/12/7 357/9/7
f 357/9/7 402/12/7 359/11/7
f 407/14/8 361/16/8 360/13/8
f 360/13/8 361/16/8 362/15/8
f 364/18/9 354/1/9 363/17/9
f 363/17/9 354/1/9 355/3/9
f 260/1/1 263/2/1 385/3/1
f 385/3/1 263/2/1 365/4/1
f 387/1/1 140/2/1 386/3/1
f 386/3/1 140/2/1 262/4/1
f 347/7/3 397/8/3 348/9/3
f 348/9/3 397/8/3 388/10/3
f 391/11/4 390/12/4 389/13/4
f 389/13/4 390/12/4 392/14/4
f 399/15/1 398/16/1 393/17/1
f 393/17/1 398/16/1 394/18/1
f 401/4/5 400/2/5 396/19/5
f 396/19/5 400/2/5 395/20/5
f 395/20/6 397/8/6 396/19/6
f 396/19/6 397/8/6 347/7/6
f 388/10/7 390/12/7 348/9/7
f 348/9/7 390/12/7 391/11/7
f 392/14/8 398/16/8 389/13/8
f 389/13/8 398/16/8 399/15/8
f 394/18/9 400/1/9 393/17/9
f 393/17/9 400/1/9 401/3/9
f 386/1/1 262/2/1 228/3/1
f 228/3/1 262/2/1 260/4/1
f 352/7/3 406/8/3 358/9/3
f 358/9/3 406/8/3 21/10/3
f 402/11/4 15/12/4 407/13/4
f 407/13/4 15/12/4 403/14/4
f 361/15/1 408/16/1 364/17/1
f 364/17/1 408/16/1 17/18/1
f 354/4/5 409/2/5 405/19/5
f 405/19/5 409/2/5 404/20/5
f 404/20/6 406/8/6 405/19/6
f 405/19/6 406/8/6 352/7/6
f 21/10/7 15/12/7 358/9/7
f 358/9/7 15/12/7 402/11/7
f 403/14/8 408/16/8 407/13/8
f 407/13/8 408/16/8 361/15/8
f 17/18/9 409/1/9 364/17/9
f 364/17/9 409/1/9 354/3/9
f 412/7/3 411/8/3 410/9/3
f 410/9/3 411/8/3 413/10/3
f 420/11/4 350/12/4 414/13/4
f 414/13/4 350/12/4 349/14/4
f 416/15/1 421/16/1 415/17/1
f 415/17/1 421/16/1 417/18/1
f 419/4/5 422/2/5 418/19/5
f 418/19/5 422/2/5 351/20/5
f 351/20/6 411/8/6 418/19/6
f 418/19/6 411/8/6 412/7/6
f 413/10/7 350/12/7 410/9/7
f 410/9/7 350/12/7 420/11/7
f 349/14/8 421/16/8 414/13/8
f 414/13/8 421/16/8 416/15/8
f 417/18/9 422/1/9 415/17/9
f 415/17/9 422/1/9 419/3/9

usemtl metal_plate_A
f 259/5/2 232/6/2 293/1/2
f 293/1/2 232/6/2 230/2/2
f 142/5/10 294/6/10 13/1/10
f 13/1/10 294/6/10 14/2/10
f 148/5/2 258/6/2 100/1/2
f 100/1/2 258/6/2 101/2/2
f 231/5/2 142/6/2 141/1/2
f 141/1/2 142/6/2 13/2/2
f 143/5/2 151/6/2 259/1/2
f 259/1/2 151/6/2 232/2/2
f 149/5/78 148/6/78 147/1/78
f 147/1/78 148/6/78 100/2/78
f 151/5/2 150/6/2 232/1/2
f 232/1/2 150/6/2 231/2/2
f 232/5/2 231/6/2 230/1/2
f 230/1/2 231/6/2 141/2/2
f 144/5/2 143/6/2 258/1/2
f 258/1/2 143/6/2 259/2/2
f 258/5/2 259/6/2 101/1/2
f 101/1/2 259/6/2 293/2/2
f 294/5/10 77/6/10 14/1/10
f 14/1/10 77/6/10 75/2/10
f 255/5/78 149/6/78 257/1/78
f 257/1/78 149/6/78 147/2/78

usemtl concrete_E
f 73/52/23 366/53/23 56/54/24
f 56/54/24 366/53/23 57/55/25
f 56/54/24 57/55/25 58/56/26
f 58/56/26 57/55/25 59/57/27
f 58/56/26 59/57/27 372/58/28
f 372/58/28 59/57/27 60/59/29
f 372/58/28 60/59/29 61/60/30
f 61/60/30 60/59/29 62/61/31
f 61/60/30 62/61/31 63/62/32
f 63/62/32 62/61/31 64/63/33
f 63/62/32 64/63/33 376/64/34
f 376/64/34 64/63/33 65/65/35
f 376/64/34 65/65/35 66/66/36
f 66/66/36 65/65/35 67/67/37
f 66/66/36 67/67/37 379/68/38
f 379/68/38 67/67/37 68/69/39
f 379/68/38 68/69/39 381/70/40
f 381/70/40 68/69/39 69/71/41
f 381/70/40 69/71/41 383/72/42
f 383/72/42 69/71/41 70/73/43
f 383/72/42 70/73/43 71/74/44
f 71/74/44 70/73/43 72/75/45
f 71/74/44 72/75/45 76/76/46
f 76/76/46 72/75/45 78/77/46
f 77/5/11 76/6/11 75/1/11
f 75/1/11 76/6/11 78/2/11
f 140/52/47 256/53/47 102/54/48
f 102/54/48 256/53/47 187/55/49
f 102/54/48 187/55/49 103/56/50
f 103/56/50 187/55/49 189/57/51
f 103/56/50 189/57/51 104/58/52
f 104/58/52 189/57/51 191/59/53
f 104/58/52 191/59/53 105/60/54
f 105/60/54 191/59/53 193/61/55
f 105/60/54 193/61/55 106/62/56
f 106/62/56 193/61/55 107/63/57
f 106/62/56 107/63/57 108/64/58
f 108/64/58 107/63/57 196/65/59
f 108/64/58 196/65/59 109/66/60
f 109/66/60 196/65/59 110/67/61
f 109/66/60 110/67/61 111/68/62
f 111/68/62 110/67/61 112/69/63
f 111/68/62 112/69/63 113/70/64
f 113/70/64 112/69/63 114/71/65
f 113/70/64 114/71/65 115/72/66
f 115/72/66 114/71/65 201/73/67
f 115/72/66 201/73/67 116/74/68
f 116/74/68 201/73/67 117/75/69
f 116/74/68 117/75/69 261/76/70
f 261/76/70 117/75/69 204/77/70
f 146/5/12 204/6/12 145/1/12
f 145/1/12 204/6/12 136/2/12
f 263/5/10 186/6/10 73/1/10
f 73/1/10 186/6/10 367/2/10
f 256/52/47 205/53/47 187/54/48
f 187/54/48 205/53/47 188/55/49
f 187/54/48 188/55/49 189/56/50
f 189/56/50 188/55/49 190/57/51
f 189/56/50 190/57/51 191/58/52
f 191/58/52 190/57/51 192/59/53
f 191/58/52 192/59/53 193/60/54
f 193/60/54 192/59/53 194/61/55
f 193/60/54 194/61/55 107/62/56
f 107/62/56 194/61/55 195/63/57
f 107/62/56 195/63/57 196/64/58
f 196/64/58 195/63/57 197/65/59
f 196/64/58 197/65/59 110/66/60
f 110/66/60 197/65/59 198/67/61
f 110/66/60 198/67/61 112/68/62
f 112/68/62 198/67/61 199/69/63
f 112/68/62 199/69/63 114/70/64
f 114/70/64 199/69/63 200/71/65
f 114/70/64 200/71/65 201/72/66
f 201/72/66 200/71/65 202/73/67
f 201/72/66 202/73/67 117/74/68
f 117/74/68 202/73/67 203/75/69
f 117/74/68 203/75/69 204/76/70
f 204/76/70 203/75/69 136/77/70
f 229/5/12 261/6/12 146/1/12
f 146/1/12 261/6/12 204/2/12
f 256/5/11 255/6/11 205/1/11
f 205/1/11 255/6/11 257/2/11
f 73/5/10 367/6/10 366/1/10
f 366/1/10 367/6/10 368/2/10
f 263/52/23 73/53/23 369/54/24
f 369/54/24 73/53/23 56/55/25
f 369/54/24 56/55/25 370/56/26
f 370/56/26 56/55/25 58/57/27
f 370/56/26 58/57/27 371/58/28
f 371/58/28 58/57/27 372/59/29
f 371/58/28 372/59/29 373/60/30
f 373/60/30 372/59/29 61/61/31
f 373/60/30 61/61/31 374/62/32
f 374/62/32 61/61/31 63/63/33
f 374/62/32 63/63/33 375/64/34
f 375/64/34 63/63/33 376/65/35
f 375/64/34 376/65/35 377/66/36
f 377/66/36 376/65/35 66/67/37
f 377/66/36 66/67/37 378/68/38
f 378/68/38 66/67/37 379/69/39
f 378/68/38 379/69/39 380/70/40
f 380/70/40 379/69/39 381/71/41
f 380/70/40 381/71/41 382/72/42
f 382/72/42 381/71/41 383/73/43
f 382/72/42 383/73/43 384/74/44
f 384/74/44 383/73/43 71/75/45
f 384/74/44 71/75/45 385/76/46
f 385/76/46 71/75/45 76/77/46

usemtl brick_A
f 234/5/10 385/6/10 74/1/10
f 74/1/10 385/6/10 76/2/10
f 387/5/78 144/6/78 233/1/78
f 233/1/78 144/6/78 258/2/78
f 140/5/78 387/6/78 256/1/78
f 256/1/78 387/6/78 233/2/78
f 150/5/10 234/6/10 231/1/10
f 231/1/10 234/6/10 74/2/10

usemtl concrete_A
f 171/7/78 170/8/78 180/9/78
f 180/9/78 170/8/78 172/10/78
f 174/11/4 181/12/4 173/13/4
f 173/13/4 181/12/4 183/14/4
f 176/15/10 182/16/10 175/17/10
f 175/17/10 182/16/10 177/18/10
f 185/4/5 184/2/5 178/19/5
f 178/19/5 184/2/5 179/20/5
f 179/20/16 170/8/16 178/19/16
f 178/19/16 170/8/16 171/7/16
f 172/10/19 181/12/19 180/9/19
f 180/9/19 181/12/19 174/11/19
f 183/14/21 182/16/21 173/13/21
f 173/13/21 182/16/21 176/15/21
f 177/18/14 184/1/14 175/17/14
f 175/17/14 184/1/14 185/3/14
f 214/7/78 207/8/78 206/9/78
f 206/9/78 207/8/78 208/10/78
f 216/11/4 215/12/4 217/13/4
f 217/13/4 215/12/4 209/14/4
f 211/15/10 210/16/10 218/17/10
f 218/17/10 210/16/10 220/18/10
f 221/4/5 219/2/5 212/19/5
f 212/19/5 219/2/5 213/20/5
f 213/20/16 207/8/16 212/19/16
f 212/19/16 207/8/16 214/7/16
f 208/10/19 215/12/19 206/9/19
f 206/9/19 215/12/19 216/11/19
f 209/14/21 210/16/21 217/13/21
f 217/13/21 210/16/21 211/15/21
f 220/18/14 219/1/14 218/17/14
f 218/17/14 219/1/14 221/3/14
f 274/7/3 264/8/3 275/9/3
f 275/9/3 264/8/3 265/10/3
f 267/11/4 276/12/4 266/13/4
f 266/13/4 276/12/4 268/14/4
f 277/15/1 269/16/1 278/17/1
f 278/17/1 269/16/1 270/18/1
f 272/4/5 279/2/5 271/19/5
f 271/19/5 279/2/5 273/20/5
f 273/20/6 264/8/6 271/19/6
f 271/19/6 264/8/6 274/7/6
f 265/10/7 276/12/7 275/9/7
f 275/9/7 276/12/7 267/11/7
f 268/14/8 269/16/8 266/13/8
f 266/13/8 269/16/8 277/15/8
f 270/18/9 279/1/9 278/17/9
f 278/17/9 279/1/9 272/3/9
f 295/7/3 301/8/3 302/9/3
f 302/9/3 301/8/3 303/10/3
f 304/11/4 296/12/4 305/13/4
f 305/13/4 296/12/4 307/14/4
f 308/15/1 306/16/1 297/17/1
f 297/17/1 306/16/1 298/18/1
f 310/4/5 309/2/5 299/19/5
f 299/19/5 309/2/5 300/20/5
f 300/20/6 301/8/6 299/19/6
f 299/19/6 301/8/6 295/7/6
f 303/10/7 296/12/7 302/9/7
f 302/9/7 296/12/7 304/11/7
f 307/14/8 306/16/8 305/13/8
f 305/13/8 306/16/8 308/15/8
f 298/18/9 309/1/9 297/17/9
f 297/17/9 309/1/9 310/3/9

